<svg width="686" height="780" viewBox="0 0 686 780" fill="none" xmlns="http://www.w3.org/2000/svg">
<g clip-path="url(#clip0_41_273)">
<rect width="686" height="780" fill="#0B51DA"/>
<g filter="url(#filter0_f_41_273)">
<path fill-rule="evenodd" clip-rule="evenodd" d="M619.379 -55.7867C650.124 -60.2215 686.233 -52.8532 704.524 -27.8101C721.905 -4.01273 701.451 27.6722 701.836 57.1116C702.232 87.363 725.376 120.38 706.776 144.28C687.781 168.689 649.409 170.664 619.379 163.068C594.142 156.684 584.717 128.351 567.346 109.008C551.722 91.6106 526.56 80.3514 524.224 57.1116C521.77 32.6917 539.917 12.4359 555.751 -6.35041C573.735 -27.6885 591.718 -51.7968 619.379 -55.7867Z" fill="#0A4DD0"/>
</g>
<g filter="url(#filter1_f_41_273)">
<path fill-rule="evenodd" clip-rule="evenodd" d="M135.142 671.365C149.119 688.99 129.907 713.494 124.497 735.276C119.385 755.855 120.11 778.522 104.874 793.214C86.695 810.744 60.164 829.845 36.9684 819.679C13.7871 809.52 21.9118 774.09 10.0914 751.673C0.325755 733.153 -27.6325 723.114 -24.8748 702.397C-22.1003 681.553 2.15991 671.247 21.7843 663.831C37.4144 657.924 53.2947 665.437 69.9891 666.547C92.5772 668.048 121.037 653.58 135.142 671.365Z" fill="#0A4DD0"/>
</g>
<g filter="url(#filter2_f_41_273)">
<path fill-rule="evenodd" clip-rule="evenodd" d="M103.747 430.379C99.4389 452.722 98.6009 480.403 79.4368 492.669C60.7196 504.649 35.5823 493.95 14.2242 487.68C-5.52109 481.883 -22.4667 470.929 -38.5163 458.042C-55.8583 444.117 -80.7468 431.991 -82.6902 409.863C-84.6773 387.238 -59.0662 372.721 -47.7367 353.059C-39.0423 337.971 -37.5487 318.558 -23.8671 307.78C-10.1922 297.008 8.37787 293.815 25.7588 295.163C41.6458 296.395 52.8908 310.653 68.248 314.924C89.3442 320.79 122.659 304.801 131.854 324.667C141.503 345.516 106.236 362.093 100.341 384.265C96.3012 399.459 106.725 414.939 103.747 430.379Z" fill="#0A4DD0"/>
</g>
<g filter="url(#filter3_f_41_273)">
<path fill-rule="evenodd" clip-rule="evenodd" d="M615.025 594.591C620.173 595.361 626.508 595.285 629.496 599.548C632.415 603.71 630.211 609.559 628.984 614.501C627.849 619.07 625.509 623.049 622.718 626.841C619.702 630.939 617.17 636.745 612.131 637.402C606.979 638.074 603.414 632.36 598.811 629.96C595.279 628.118 590.827 627.964 588.232 624.94C585.638 621.918 584.73 617.705 584.87 613.719C584.999 610.076 588.149 607.368 588.978 603.817C590.115 598.939 586.14 591.478 590.592 589.185C595.264 586.779 599.393 594.68 604.517 595.814C608.029 596.591 611.467 594.059 615.025 594.591Z" fill="#0A4DD0"/>
</g>
<g filter="url(#filter4_f_41_273)">
<path fill-rule="evenodd" clip-rule="evenodd" d="M122.514 9.79252C130.183 23.12 144.135 34.1658 144.024 49.5403C143.915 64.6723 125.851 73.5278 121.949 88.1475C116.512 108.518 131.807 134.713 117.227 149.94C103.646 164.123 78.8771 157.018 59.5996 153.262C42.3895 149.909 27.1532 141.05 13.7237 129.774C1.25933 119.309 -11.2854 107.069 -14.4341 91.1015C-17.4155 75.9833 -7.34368 62.0429 -2.51864 47.4106C1.54465 35.0883 2.70553 21.4032 11.6484 12.0038C20.5303 2.66847 35.0771 2.95047 46.1121 -3.7027C63.1782 -13.9921 74.2653 -41.0492 93.8923 -37.5824C112.435 -34.3072 113.122 -6.52947 122.514 9.79252Z" fill="#0A4DD0"/>
</g>
<g filter="url(#filter5_f_41_273)">
<path fill-rule="evenodd" clip-rule="evenodd" d="M156.346 736.318C157.9 739.018 160.727 741.256 160.705 744.371C160.683 747.437 157.023 749.231 156.232 752.194C155.13 756.321 158.229 761.629 155.275 764.714C152.523 767.588 147.505 766.148 143.599 765.387C140.112 764.708 137.025 762.913 134.304 760.628C131.778 758.507 129.236 756.027 128.598 752.792C127.994 749.729 130.035 746.904 131.013 743.94C131.836 741.443 132.071 738.67 133.883 736.766C135.683 734.874 138.63 734.931 140.866 733.583C144.324 731.498 146.57 726.016 150.547 726.719C154.304 727.382 154.443 733.01 156.346 736.318Z" fill="#0A4DD0"/>
</g>
<g filter="url(#filter6_f_41_273)">
<path fill-rule="evenodd" clip-rule="evenodd" d="M605.082 794.249C592.705 786.801 577.047 785.056 567.771 773.983C556.712 760.781 542.846 743.202 548.806 727.07C555.006 710.289 581.026 712.885 594.633 701.273C606.45 691.189 607.111 669.375 621.925 664.673C636.605 660.013 652.207 670.243 664.925 678.96C675.82 686.428 680.27 699.468 688.151 710.066C695.923 720.516 708.895 727.971 710.932 740.825C713 753.879 703.261 765.269 698.872 777.727C693.551 792.831 696.167 813.636 682.399 821.819C668.712 829.953 651.058 820.422 636.042 815.068C624.088 810.805 615.958 800.794 605.082 794.249Z" fill="#0A4DD0"/>
</g>
<g filter="url(#filter7_f_41_273)">
<path fill-rule="evenodd" clip-rule="evenodd" d="M607.302 201.084C611.328 201.319 615.218 202.29 618.702 204.31C622.299 206.396 624.761 209.657 627.488 212.788C631.307 217.171 637.214 220.576 637.889 226.338C638.58 232.232 636.013 239.215 630.954 242.356C625.805 245.552 619.139 240.87 613.129 241.708C608.4 242.368 604.435 248.461 600.011 246.673C595.457 244.833 595.949 238.084 593.569 233.804C591.795 230.615 589.095 228.165 587.819 224.749C586.277 220.62 584.053 216.208 585.433 212.022C586.837 207.764 590.988 204.942 595.012 202.929C598.79 201.04 603.081 200.838 607.302 201.084Z" fill="#0A4DD0"/>
</g>
<ellipse cx="338.5" cy="501" rx="109.5" ry="113" fill="#4878FF" fill-opacity="0.42"/>
<path fill-rule="evenodd" clip-rule="evenodd" d="M300.535 527.394C299.154 522.716 297.965 520.754 295.746 519.189C293.671 517.725 290.675 516.539 286.336 515.748C281.824 515.12 281.615 512.793 280.36 509.085C279.992 507.97 278.356 507.727 277.683 508.564C277.58 508.46 277.474 508.366 277.364 508.281C277.44 507.741 276.605 506.228 276.613 505.713C276.698 500.34 274.85 497.707 270.437 496.859C269.477 496.674 263.005 496.772 262.085 497.061C258.066 498.325 254.195 502.028 254.956 506.3C253.74 508.01 252.529 509.069 250.582 509.675C246.227 510.383 241.87 511.03 237.51 511.605C228.992 513.248 221.12 518.063 215.862 524.867C215.377 525.496 215.26 526.329 215.729 526.965C215.432 528.476 213.589 532.182 215.175 533.156C212.839 539.342 207.385 551.334 207.491 554.701C207.94 568.848 210.11 587.207 224.34 594.548C224.917 595.078 225.019 595.683 225.289 596.492C225.993 599.046 228.285 600.809 230.719 600.573C242.743 600.421 254.329 598.548 266.341 598.058C271.639 597.841 278.039 598.41 282.66 598.776C287.281 599.143 291.911 598.514 296.281 597.012C296.674 597.586 297.439 597.901 298.197 597.706C302.745 596.636 306.349 593.684 309.466 590.487C310.389 588.659 314.06 583.415 312.468 581.69C313.65 575.778 313.358 569.479 310.698 563.981C311.012 562.946 310.336 561.843 310.587 560.776C310.768 560.004 311.289 559.669 311.531 558.902C311.871 557.823 311.411 556.407 310.948 555.335C310.755 554.799 311.229 554.198 311.347 553.64C311.908 551.008 310.424 551.29 309.287 549.584C309.303 549.578 309.539 548.323 309.538 548.329C309.672 547.434 309.219 546.31 308.833 545.58C308.572 545.087 308.04 544.792 307.524 544.867C307.984 543.078 308.592 541.582 309.242 539.851C310.391 536.799 311.878 533.864 313.585 531.079C314.283 529.939 313.247 528.682 312.051 528.648C308.179 528.537 304.338 528.114 300.535 527.394Z" fill="#F6F9FF"/>
<path fill-rule="evenodd" clip-rule="evenodd" d="M290.428 551.09C288.862 550.538 287.186 550.261 285.51 550.19C286.404 550 287.302 549.817 288.21 549.707C288.843 549.63 289.432 549.615 289.926 550.08C290.256 550.39 290.42 550.798 290.642 551.171C290.573 551.143 290.501 551.116 290.428 551.09ZM306.817 544.844C304.291 545.061 301.778 545.752 299.527 546.922C298.606 547.402 297.78 548.076 297.568 549.146C297.461 549.693 297.512 550.252 297.598 550.797C297.663 551.21 297.694 551.738 298.064 552.006C298.127 552.052 298.193 552.086 298.263 552.11C297.432 552.521 296.643 553.007 295.945 553.504C295.307 553.958 294.659 554.646 294.384 555.407C294.355 555.322 294.328 555.244 294.3 555.169C293.733 553.668 292.898 552.451 291.622 551.658C291.839 551.551 291.983 551.311 291.901 550.99C291.558 549.647 290.267 548.515 288.859 548.648C287.317 548.793 285.677 549.413 284.304 550.173C283.794 550.18 283.286 550.204 282.785 550.244C282.698 550.25 282.707 550.367 282.789 550.374C283.199 550.412 283.608 550.455 284.018 550.507C284.992 550.629 285.965 550.792 286.919 551.003C288.063 551.257 289.245 551.51 290.323 551.986C292.412 552.91 293.775 555.469 293.593 557.743C293.563 558.116 293.458 559.243 292.939 559.145C292.5 559.063 292.295 558.16 292.131 557.829C291.692 556.949 290.938 556.391 290.043 556.027C288.993 555.598 287.875 555.322 286.79 554.994C286.175 554.807 285.561 554.62 284.945 554.435C284.315 554.243 283.713 553.969 283.055 554.141C282.657 554.246 282.628 554.725 282.862 554.991C283.219 555.397 283.731 555.502 284.23 555.656C284.889 555.86 285.546 556.064 286.203 556.267C287.218 556.581 288.28 556.839 289.273 557.232L289.245 557.303C289.165 557.284 289.074 557.366 289.093 557.464C289.271 558.362 289.511 559.399 289.316 560.312C289.163 561.036 288.561 561.853 287.736 561.671C287.86 561.549 287.9 561.345 287.807 561.16C287.459 560.479 283.12 557.893 282.777 558.922C282.766 558.958 282.806 558.983 282.837 558.977C283.157 558.898 283.716 559.43 283.98 559.595C284.362 559.834 284.749 560.066 285.126 560.312C285.54 560.58 285.944 560.862 286.338 561.154C286.648 561.384 286.884 561.626 287.235 561.736C287.056 561.828 286.918 561.994 286.864 562.202C286.726 562.742 286.441 563.206 285.925 563.461C285.385 563.725 284.762 563.592 284.186 563.672C283.401 563.779 282.728 564.178 282.173 564.733C281.007 565.9 280.472 567.904 278.806 568.495C277.81 568.847 276.687 568.686 275.663 568.578C274.519 568.457 273.406 568.369 272.266 568.577C271.175 568.776 270.151 569.192 269.165 569.69C268.24 570.157 267.219 570.685 266.408 571.362C266.218 570.839 266.027 570.321 265.876 569.785C265.522 568.519 265.309 567.223 265.223 565.912C265.141 564.663 265.167 563.405 265.231 562.157C265.263 561.534 265.325 560.912 265.356 560.289C265.365 560.132 265.387 559.964 265.402 559.795C266.859 558.865 268.399 558.137 269.951 557.39C269.955 557.388 269.959 557.385 269.963 557.384C270.012 557.36 270.058 557.337 270.106 557.314C270.105 557.312 270.103 557.309 270.1 557.306C270.277 557.19 270.397 557.038 270.467 556.871C272.685 555.285 274.512 553.162 275.844 550.713C276.402 549.687 276.936 548.624 277.682 547.716C278.475 546.747 279.437 546.154 280.641 545.821C282.049 545.431 283.505 545.176 284.955 545.009C285.748 544.919 286.632 544.79 287.498 544.764C288.101 544.747 288.693 544.778 289.24 544.908C290.05 545.101 290.541 545.695 291.066 546.295C291.568 546.87 292.068 547.447 292.539 548.048C292.985 548.618 293.408 549.209 293.779 549.831C294.002 550.203 294.21 550.588 294.387 550.986C294.449 551.126 294.53 551.285 294.57 551.432C294.611 551.58 294.552 551.741 294.719 551.735C294.029 551.768 294.074 552.873 294.76 552.808C297.443 552.558 293.408 547.442 292.82 546.73C291.986 545.721 291.117 544.398 289.825 543.961C289.806 543.955 289.786 543.949 289.768 543.943C290.127 543.579 290.405 543.147 290.671 542.708C290.945 542.257 291.272 541.739 291.348 541.212C291.397 540.876 290.976 540.701 290.789 541C290.518 541.436 290.398 541.979 290.201 542.455C290 542.937 289.75 543.395 289.558 543.881C289.048 543.744 288.501 543.691 287.946 543.687C288.613 542.716 289.744 540.847 289.879 540.608C290.503 539.498 291.094 538.356 291.656 537.214C292.264 535.976 292.777 534.692 293.357 533.441C293.685 532.732 294.017 532.017 294.385 531.327C294.513 531.091 294.65 530.854 294.807 530.637C294.838 530.594 294.877 530.558 294.913 530.518C294.956 530.492 295 530.464 295.024 530.45C295.246 530.312 295.315 530.007 295.467 529.81C295.711 529.493 296.008 529.446 296.39 529.429C297.205 529.392 298.024 529.395 298.839 529.389C300.037 529.381 301.233 529.387 302.43 529.408C302.792 529.415 303.153 529.422 303.516 529.431C305.257 529.474 306.998 529.549 308.736 529.655C310.274 529.748 311.815 529.933 313.354 529.994C311.449 535.003 309.315 539.931 306.87 544.7C306.846 544.748 306.828 544.796 306.817 544.844ZM295.736 557.964C295.407 558.13 295.088 558.332 294.793 558.561C294.831 558.22 294.831 557.862 294.805 557.503C295.064 557.763 295.389 557.905 295.736 557.964ZM309.741 548.973C309.717 548.977 309.695 548.99 309.685 549.014C309.255 549.987 309.486 551.048 310.269 551.772C310.679 552.149 311.559 552.56 311.553 553.203C311.548 553.724 310.998 554.179 310.771 554.616C310.56 555.024 310.492 555.465 310.687 555.892C310.937 556.438 311.588 556.636 311.827 557.173C312.131 557.855 311.706 558.704 311.409 559.317C311.132 559.885 310.769 560.455 310.536 561.053C308.865 561.994 307.389 563.399 306.128 564.817C304.747 566.369 303.579 568.178 301.3 568.213C301.073 568.217 300.904 568.343 300.806 568.513C300.174 568.564 299.539 568.599 298.905 568.624C297.791 568.668 296.677 568.696 295.563 568.7C295.476 568.433 295.52 568.065 295.508 567.838C295.468 567.105 295.436 566.374 295.38 565.641C295.364 565.438 295.349 565.233 295.333 565.029C295.759 565.74 296.552 566.042 297.441 565.961C298.87 565.827 300.303 565.542 301.714 565.282C302.457 565.145 303.198 564.994 303.937 564.834C304.545 564.703 305.408 564.701 305.818 564.196C305.915 564.078 305.913 563.869 305.753 563.797C305.322 563.604 305.06 563.729 304.598 563.835C304.035 563.965 303.471 564.089 302.905 564.207C301.818 564.435 300.729 564.649 299.635 564.843C299.013 564.952 298.389 565.061 297.765 565.151C297.22 565.229 296.606 565.33 296.15 564.934C295.232 564.132 295.682 562.72 296.215 561.86C296.225 561.843 296.225 561.827 296.22 561.813C296.746 561.67 297.27 561.507 297.794 561.386C298.802 561.155 299.818 560.955 300.836 560.773C302.928 560.399 305.038 560.127 307.144 559.853C307.666 559.785 307.642 558.961 307.115 559.028C304.089 559.412 301.046 559.782 298.071 560.472C297.325 560.644 296.586 560.834 295.851 561.046C295.504 561.145 295.133 561.294 294.766 561.311C294.743 561.311 294.721 561.312 294.699 561.311C293.979 561.314 293.853 560.702 294.23 560.176C294.277 560.111 294.325 560.046 294.374 559.985C295.043 559.128 295.893 558.542 296.769 557.935C297.768 557.763 298.759 557.424 299.734 557.166C302.14 556.528 304.547 555.891 306.955 555.254C307.427 555.129 307.2 554.404 306.727 554.528C304.899 555.01 303.071 555.492 301.243 555.974L298.568 556.68C298.033 556.82 297.369 557.088 296.738 557.198C296.427 557.252 296.124 557.268 295.848 557.214C294.958 557.035 294.874 555.932 295.232 555.262C295.634 554.51 296.425 554.021 297.126 553.579C298.342 552.81 299.644 552.243 300.913 551.598C301.14 551.54 301.367 551.481 301.595 551.423C302.916 551.083 304.433 550.886 305.667 550.305C306.037 550.133 305.811 549.548 305.44 549.569C304.468 549.624 303.463 550.006 302.519 550.244C301.498 550.504 300.476 550.762 299.455 551.02C299.352 551.046 298.748 551.263 298.654 551.222C298.594 551.197 298.566 550.994 298.542 550.86C298.464 550.421 298.402 549.959 298.454 549.514C298.571 548.516 299.382 548.02 300.206 547.61C302.042 546.697 304.068 546.095 306.096 545.812C306.563 545.746 307.031 545.699 307.503 545.668C308.056 545.631 308.509 545.518 308.809 546.054C309.28 546.899 309.561 547.996 309.741 548.973ZM308.24 580.253C307.785 578.861 307.843 577.356 307.514 575.932C307.345 575.197 307.123 574.47 306.884 573.755C306.691 573.177 306.381 572.567 306.327 571.959C306.323 571.919 306.37 571.893 306.404 571.911C306.989 572.219 307.454 572.914 307.8 573.46C308.215 574.113 308.538 574.801 308.805 575.527C309.336 576.972 309.793 578.723 309.224 580.218C309.055 580.664 308.411 580.774 308.24 580.253ZM295.031 562.069C295.374 562.023 295.715 561.946 296.055 561.857C295.685 562.245 295.346 562.708 295.166 563.215C295.122 562.832 295.07 562.45 295.005 562.071C295.013 562.071 295.023 562.071 295.031 562.069ZM292.753 591.45C292.133 591.048 291.671 590.473 291.139 589.969C290.616 589.474 291.378 588.656 291.901 589.152C292.355 589.581 292.755 590.124 293.283 590.465C293.537 590.63 293.663 590.939 293.51 591.223C293.375 591.473 293.007 591.614 292.753 591.45ZM288.809 575.32C289.897 574.804 290.966 574.245 292.111 573.86C292.795 573.63 293.126 574.698 292.446 574.927C291.391 575.281 290.409 575.789 289.406 576.265C288.762 576.571 288.161 575.628 288.809 575.32ZM277.123 575.393C276.829 574.736 277.9 574.41 278.189 575.059C278.522 575.805 278.9 576.531 279.233 577.277C279.526 577.935 278.456 578.26 278.166 577.612C277.833 576.865 277.456 576.14 277.123 575.393ZM266.066 589.121C265.894 589.367 265.598 589.508 265.309 589.348C265.066 589.214 264.908 588.84 265.082 588.591C265.589 587.862 266.104 587.142 266.706 586.488C267.193 585.957 268.01 586.72 267.523 587.25C266.985 587.835 266.519 588.47 266.066 589.121ZM261.807 514.413C262.332 514.745 262.796 515.155 263.249 515.577C263.776 516.069 263.014 516.886 262.487 516.395C262.105 516.039 261.72 515.677 261.277 515.397C261.021 515.235 260.898 514.922 261.05 514.64C261.186 514.387 261.552 514.251 261.807 514.413ZM279.199 531.805C278.929 532.396 278.688 532.974 278.695 533.634C278.702 534.354 277.585 534.393 277.578 533.673C277.569 532.809 277.861 532.049 278.215 531.275C278.513 530.619 279.496 531.152 279.199 531.805ZM284.845 517.152C285.432 516.73 286.024 517.679 285.443 518.097C284.971 518.435 284.5 518.774 284.029 519.112C283.443 519.534 282.85 518.585 283.432 518.167C283.903 517.829 284.374 517.49 284.845 517.152ZM259.049 543.328C258.971 544.041 257.884 543.775 257.961 543.068C258.08 541.976 258.235 540.897 258.492 539.828C258.661 539.129 259.748 539.387 259.579 540.088C259.322 541.157 259.168 542.236 259.049 543.328ZM255.58 556.262C254.861 556.271 254.822 555.154 255.541 555.144C256.192 555.136 256.837 555.284 257.47 555.419C258.174 555.569 257.914 556.657 257.211 556.507C256.676 556.393 256.13 556.254 255.58 556.262ZM255.035 582.091C254.792 582.22 254.543 582.337 254.297 582.46C253.805 582.706 253.314 582.952 252.822 583.199C251.798 583.713 250.775 584.229 249.753 584.746C247.707 585.782 245.643 586.784 243.591 587.81C241.499 588.856 239.413 589.914 237.33 590.978C236.348 591.479 235.358 591.963 234.371 592.452C233.527 592.87 232.49 593.585 231.55 593.682C231.502 593.687 231.484 593.626 231.51 593.593C231.852 593.176 232.411 592.921 232.87 592.642C233.338 592.356 233.816 592.086 234.291 591.813C235.282 591.242 236.275 590.676 237.276 590.124C239.28 589.02 241.287 587.924 243.295 586.829C245.343 585.712 247.388 584.588 249.456 583.508C250.429 582.999 251.404 582.491 252.379 581.985C252.907 581.711 253.435 581.438 253.964 581.165C254.192 581.047 254.418 580.92 254.652 580.813C254.962 580.672 255.203 580.69 255.526 580.598C256.051 580.449 256.305 581.116 255.908 581.424C255.581 581.677 255.412 581.89 255.035 582.091ZM247.98 593.807C247.855 593.532 248.084 593.185 248.346 593.106C248.66 593.011 248.921 593.195 249.046 593.472C249.379 594.206 249.838 594.875 250.42 595.432C250.94 595.931 250.178 596.748 249.658 596.25C248.929 595.551 248.394 594.723 247.98 593.807ZM241.869 576.066C241.342 575.575 242.104 574.757 242.631 575.248L244.129 576.646C244.656 577.137 243.893 577.955 243.367 577.463L241.869 576.066ZM226.938 574.224C225.908 574.566 224.704 574.889 224.026 575.801C223.993 575.846 223.933 575.792 223.952 575.748C224.794 573.833 227.376 573.081 229.156 572.359C230.415 571.847 231.71 571.414 233.018 571.023C232.833 569.521 233.141 567.894 233.215 566.391C233.294 564.786 233.348 563.178 233.348 561.571C233.349 559.932 233.305 558.283 233.194 556.647C233.084 555.017 232.815 553.413 232.666 551.79C232.652 551.633 232.87 551.618 232.922 551.746C233.523 553.236 233.815 554.9 234.049 556.485C234.29 558.117 234.408 559.75 234.442 561.4C234.477 563.096 234.438 564.79 234.361 566.485C234.325 567.288 234.279 568.091 234.237 568.894C234.204 569.506 234.201 570.113 234.097 570.709C234.886 570.486 235.677 570.273 236.466 570.065C238.982 569.404 241.51 568.784 244.014 568.077C245.242 567.73 246.452 567.323 247.674 566.957C248.826 566.612 250.039 566.201 251.227 566.023C251.652 565.96 251.726 566.54 251.451 566.748C250.505 567.463 249.234 567.982 248.127 568.403C247.017 568.824 245.858 569.14 244.716 569.464C242.334 570.139 239.926 570.707 237.522 571.295C235.121 571.882 232.715 572.466 230.346 573.17C229.205 573.509 228.068 573.849 226.938 574.224ZM220.192 544.536C219.583 544.922 218.988 543.976 219.595 543.591C220.389 543.086 221.241 542.698 222.099 542.319C222.758 542.028 223.084 543.099 222.434 543.386C221.662 543.727 220.906 544.082 220.192 544.536ZM219.39 586.119C218.78 586.503 218.184 585.556 218.793 585.174C219.649 584.638 220.593 584.266 221.482 583.792C222.115 583.454 222.714 584.398 222.079 584.737C221.19 585.211 220.246 585.582 219.39 586.119ZM217.555 562.594C218.178 563.146 218.992 563.388 219.761 563.662C220.431 563.901 220.179 564.991 219.502 564.75C218.543 564.408 217.569 564.099 216.793 563.412C216.253 562.934 217.017 562.117 217.555 562.594ZM223.106 530.365C223.778 530.602 223.525 531.692 222.847 531.453C222.094 531.187 221.32 530.992 220.568 530.727C219.896 530.49 220.148 529.4 220.827 529.639C221.579 529.905 222.354 530.1 223.106 530.365ZM234.426 517.245C235.126 517.102 235.464 518.168 234.761 518.312C233.889 518.491 233.031 518.694 232.21 519.046C231.548 519.329 231.222 518.259 231.876 517.979C232.697 517.628 233.554 517.424 234.426 517.245ZM239.394 548.053C238.737 547.758 239.27 546.775 239.924 547.069C240.613 547.378 241.323 547.611 242.068 547.743C242.777 547.868 242.515 548.955 241.808 548.83C240.971 548.682 240.168 548.401 239.394 548.053ZM242.456 530.495C243.145 530.28 243.476 531.348 242.791 531.562C241.584 531.938 240.337 532.155 239.12 532.495C238.427 532.689 238.093 531.622 238.786 531.428C240.002 531.088 241.25 530.871 242.456 530.495ZM257.839 524.481C258.55 524.587 258.287 525.674 257.58 525.569C256.827 525.457 256.069 525.481 255.311 525.507C254.591 525.532 254.554 524.414 255.272 524.39C256.133 524.36 256.984 524.354 257.839 524.481ZM308.835 528.544C307.004 528.433 305.172 528.357 303.338 528.316C303.253 528.315 303.169 528.313 303.084 528.311C303.073 528.292 303.06 528.274 303.047 528.255C302.419 527.399 301.948 526.538 301.533 525.559C301.135 524.628 300.748 523.667 300.157 522.835C299.483 521.887 298.593 521.157 297.623 520.532C297.062 520.939 296.545 521.41 296.074 521.906C295.578 522.429 294.761 521.667 295.256 521.144C295.675 520.703 296.124 520.293 296.6 519.92C296.024 519.597 295.436 519.294 294.863 518.993C292.715 517.864 290.519 516.828 288.282 515.888C287.243 515.45 286.192 515.066 285.135 514.677C284.565 514.467 284.001 514.192 283.43 513.946C283.457 513.548 283.323 513.108 283.01 512.858C282.778 512.674 282.601 512.609 282.328 512.483C282.268 512.464 282.231 512.453 282.214 512.446C282.227 512.449 282.263 512.459 282.324 512.476C282.469 512.537 282.479 512.517 282.355 512.418C282.341 512.192 281.878 511.73 281.769 511.5C281.386 510.712 281.246 509.87 280.697 509.159C279.941 508.18 278.716 507.843 277.598 508.223C277.439 507.019 277.364 505.759 276.871 504.697C276.858 504.668 276.817 504.657 276.8 504.69C276.353 505.515 276.344 506.417 276.341 507.351C276.336 508.228 276.401 509.122 276.546 509.988C276.475 510.046 276.403 510.102 276.328 510.156C275.976 510.406 275.595 510.603 275.192 510.753C274.425 511.036 273.615 511.177 272.802 511.244C270.705 511.418 268.532 511.281 266.454 510.993C264.351 510.702 261.129 510.266 259.233 509.285C257.982 508.638 256.82 507.836 255.644 507.06C256.013 505.705 256.069 504.26 255.611 503.142C255.556 503.009 255.343 502.991 255.308 503.153C255.083 504.243 255.044 505.332 254.733 506.413C254.728 506.428 254.723 506.445 254.718 506.461C254.606 506.391 254.495 506.322 254.383 506.253C254.126 506.095 253.789 506.232 253.646 506.474C251.368 510.358 247.558 510.709 243.573 511.528C239.211 512.424 234.829 513.38 230.662 514.981C226.676 516.513 222.891 518.672 219.943 521.804C219.275 522.513 218.654 523.265 218.07 524.048C218.663 524.102 219.253 524.197 219.837 524.359C220.529 524.55 220.273 525.638 219.578 525.446C218.827 525.239 218.072 525.149 217.311 525.118C215.335 528.031 213.829 531.308 212.541 534.527C210.069 540.698 208.548 547.231 207.974 553.849C208.406 553.569 208.847 553.301 209.299 553.05C209.928 552.703 210.526 553.647 209.897 553.995C209.198 554.382 208.521 554.805 207.866 555.261C207.675 558.156 207.663 561.063 207.833 563.959C208.237 570.863 209.418 577.943 211.758 584.462C212.905 587.661 214.388 590.822 216.525 593.485C217.493 594.692 218.582 595.772 219.851 596.66C220.465 597.092 221.113 597.474 221.794 597.791C222.671 598.202 223.798 598.308 224.562 598.906C224.814 599.103 225.012 599.367 225.165 599.668C225.103 600.252 225.113 600.835 225.293 601.41C225.349 601.59 225.491 601.733 225.663 601.798C225.667 601.849 225.669 601.897 225.671 601.945C225.671 601.967 225.705 601.972 225.708 601.949C225.714 601.906 225.719 601.862 225.725 601.817C225.78 601.833 225.837 601.84 225.896 601.838C228.017 601.772 230.138 601.646 232.259 601.5C232.077 601.002 231.882 600.51 231.693 600.013C231.438 599.337 232.506 599.009 232.76 599.678C232.98 600.259 233.209 600.835 233.416 601.419C235.688 601.255 237.958 601.074 240.226 600.92C245.049 600.59 249.874 600.369 254.7 600.098C262.195 599.677 269.739 599.088 277.262 599.144C277.502 598.583 277.774 598.034 278.031 597.48C278.334 596.827 279.317 597.359 279.015 598.011C278.837 598.395 278.651 598.776 278.476 599.159C280 599.185 281.523 599.237 283.045 599.326C285.642 599.479 288.22 599.821 290.814 599.999C293.452 600.181 296.022 600.042 298.614 599.517C299.081 599.422 299.347 599.129 299.449 598.773C299.453 598.771 299.456 598.769 299.459 598.764C299.587 598.603 299.708 598.469 299.834 598.351C299.986 598.245 300.15 598.154 300.344 598.072C300.707 597.919 301.086 597.821 301.472 597.75C301.897 597.671 302.33 597.65 302.755 597.582C303.113 597.524 303.463 597.443 303.812 597.347C304.439 597.174 305.032 596.956 305.621 596.674C306.133 596.428 306.592 596.085 307.024 595.713C307.919 595.01 308.684 594.125 309.349 593.209C309.735 592.674 310.097 592.121 310.424 591.546C310.993 590.55 311.471 589.519 311.955 588.481C312.133 588.171 312.294 587.856 312.44 587.534C311.415 587.27 310.382 587.062 309.305 587.082C308.586 587.096 308.547 585.979 309.266 585.965C310.501 585.942 311.678 586.19 312.85 586.493C312.901 586.34 312.95 586.187 312.995 586.032C313.122 585.708 313.225 585.376 313.308 585.04C313.358 584.887 313.409 584.734 313.46 584.582C313.567 584.055 313.674 583.527 313.783 582.999C314.006 582.152 314.176 581.295 314.293 580.428C314.396 579.857 314.471 579.282 314.515 578.702C314.661 577.294 314.772 575.891 314.733 574.475C314.686 573.602 314.6 572.733 314.475 571.869C314.414 571.281 314.325 570.697 314.212 570.118C314.062 569.256 313.914 568.403 313.684 567.555C313.514 566.983 313.345 566.409 313.175 565.837C312.761 564.645 312.28 563.478 311.732 562.341C311.702 562.27 311.555 562.115 311.47 562.117C311.406 562.118 311.319 562.179 311.351 562.257C311.354 562.264 311.357 562.272 311.36 562.279C311.328 562.214 311.298 562.148 311.267 562.083C311.239 562.023 311.137 561.903 311.062 561.908C311.058 561.908 311.053 561.908 311.048 561.909C311.067 561.895 311.085 561.876 311.102 561.854C311.582 561.243 311.88 560.451 312.215 559.752C312.493 559.174 312.752 558.567 312.811 557.923C312.862 557.358 312.747 556.807 312.378 556.364C311.958 555.86 311.193 555.643 311.587 554.88C312.034 554.012 312.711 553.248 311.977 552.305C311.604 551.824 311.031 551.573 310.597 551.159C310.098 550.68 309.846 550.025 309.835 549.347C309.865 549.363 309.904 549.353 309.916 549.311C310.278 548.073 309.938 546.74 309.482 545.563C309.233 544.925 308.748 544.764 308.19 544.752C310.438 539.954 312.528 535.087 314.368 530.118C314.43 529.955 314.49 529.792 314.55 529.629C314.639 529.386 314.421 529.073 314.181 529.028C312.428 528.708 310.612 528.649 308.835 528.544Z" fill="#4878FF"/>
<path fill-rule="evenodd" clip-rule="evenodd" d="M288.362 475.175C286.996 463.523 283.717 453.276 269.993 453.313C263.809 453.585 257.539 455.12 251.936 457.751C238.35 465.17 234.848 490.666 247.387 500.443C247.316 500.486 247.302 500.606 247.39 500.661C249.966 502.267 252.812 503.563 255.655 504.636C263.229 507.532 272.063 508.596 279.554 504.906C290.998 499.556 290.691 485.791 288.362 475.175Z" fill="#F6F9FF"/>
<path fill-rule="evenodd" clip-rule="evenodd" d="M311.036 468.93C311.498 468.483 311.835 467.906 311.993 467.268C312.137 466.685 312.126 466.055 311.932 465.486C311.723 464.875 311.303 464.397 311.371 463.752C311.379 463.689 311.389 463.623 311.406 463.556C311.713 462.335 312.541 461.432 312.187 460.102C312.087 459.727 311.912 459.392 311.675 459.132C311.69 458.84 311.702 458.546 311.71 458.252C312.173 457.055 312.106 455.653 311.528 454.51C311.441 453.918 311.322 453.332 311.162 452.757C311.208 452.242 311.099 451.681 310.919 451.239C310.602 450.46 310.217 449.695 309.802 448.944C309.841 448.734 309.812 448.514 309.69 448.321C309.468 447.971 309.18 447.667 308.886 447.37C308.673 447.019 308.459 446.671 308.247 446.328C308.149 446.17 308.04 445.995 307.921 445.81C308.208 445.229 308.353 444.667 308.004 444.007C307.873 443.759 307.531 443.585 307.255 443.611C306.953 443.64 306.649 443.664 306.343 443.686C305.745 443.014 305.074 442.415 304.365 442.082C303.64 441.509 302.904 440.947 302.188 440.372C301.986 440.209 301.781 440.045 301.579 439.882C301.577 439.878 301.576 439.872 301.574 439.868C301.41 439.344 301.229 438.827 301.047 438.308C300.934 437.986 300.891 437.646 300.568 437.48C299.894 437.133 298.874 437.11 298.112 437.074C298.035 437.009 297.957 436.946 297.879 436.882C298.192 435.951 298.096 434.977 297.63 434.072C297.471 433.764 296.953 433.641 296.678 433.858C296.044 434.358 295.278 434.554 294.512 434.511C293.36 433.687 288.696 429.942 287.982 429.555C287.973 429.54 287.966 429.526 287.956 429.511C287.541 428.897 287.046 428.409 286.495 428.024C286.415 427.946 286.336 427.869 286.256 427.791C286.307 427.31 286.468 426.842 286.74 426.445C286.77 426.399 286.803 426.355 286.836 426.311C287.315 425.699 286.679 424.955 285.992 425.291C285.942 425.315 285.893 425.339 285.843 425.365C285.315 425.623 284.73 425.904 284.12 426.145C283.891 426.068 283.657 425.999 283.444 425.922L281.16 425.095C280.784 424.958 280.388 424.846 280.023 424.683C279.869 423.855 279.016 423.339 278.151 423.397C278.196 423.236 278.265 423.078 278.365 422.927C278.394 422.883 278.426 422.84 278.459 422.798C278.887 422.265 278.258 421.325 277.638 421.808C277.594 421.841 277.549 421.875 277.506 421.909C277.333 422.039 277.156 422.162 276.977 422.281C276.68 422.163 276.349 422.146 276.008 422.293C275.254 422.619 274.56 422.948 273.903 423.441C273.876 423.462 273.848 423.479 273.821 423.498C273.473 423.105 272.933 422.854 272.455 422.873C272.446 422.874 272.438 422.874 272.429 422.874C272.053 422.342 271.387 422.049 270.758 422.148C270.773 421.365 269.967 420.695 269.252 420.635C268.417 420.565 267.684 421.074 267.463 421.895C267.401 422.123 267.34 422.351 267.278 422.58C266.621 422.276 265.931 422.05 265.215 421.951C263.584 421.723 262.009 422.081 260.463 422.586C260.308 422.636 260.154 422.688 260 422.739C259.768 422.489 259.55 422.232 259.341 421.992C258.982 421.578 258.166 421.948 258.241 422.493C258.293 422.87 258.149 423.147 257.908 423.349C257.639 423.398 257.377 423.419 256.981 423.425C256.458 423.432 256.22 423.424 255.666 423.23C255.408 423.14 255.082 422.89 254.926 422.662C254.325 421.784 252.872 421.593 252.214 422.472C251.478 422.181 250.579 422.65 250.199 423.281C250 423.61 249.567 423.806 249.02 423.98C248.609 424.111 248.188 424.214 247.765 424.306C247.566 424.055 247.16 423.896 246.875 424.122C246.681 424.276 246.494 424.433 246.309 424.594C244.849 424.848 243.389 424.906 241.971 424.382C240.769 423.939 239.728 425.301 239.962 426.405C239.626 426.595 239.258 426.727 238.925 426.926C238.201 427.361 237.616 428.028 237.273 428.799C237.211 428.938 237.156 429.078 237.104 429.218C236.835 429.453 236.57 429.694 236.312 429.947C235.86 429.734 235.41 429.522 234.958 429.31C234.62 429.151 234.064 429.29 234.014 429.733C233.932 430.463 233.692 431.074 233.337 431.591C232.147 432.27 231.007 433.026 229.919 433.86C228.65 434.307 227.295 434.589 226.183 434.892C225.802 434.996 225.61 435.505 225.838 435.831C226.08 436.176 226.321 436.521 226.561 436.867C225.945 437.512 225.369 438.184 224.827 438.876C223.319 440.803 222.074 442.9 220.972 445.114C220.512 445.319 220.053 445.522 219.593 445.727C219.15 445.924 218.966 446.454 219.343 446.825C219.523 447.002 219.684 447.189 219.824 447.387C219.202 448.504 218.459 449.528 217.395 450.219C217.071 450.429 216.833 450.749 216.713 451.107C216.603 451.186 216.494 451.271 216.386 451.358C216.087 451.6 215.919 452.112 216.29 452.4C216.55 452.603 216.796 452.846 217.007 453.117C217.056 453.274 217.106 453.431 217.156 453.587C216.178 454.553 215.375 455.663 214.787 456.897C214.636 456.879 214.483 456.899 214.362 456.996C213.264 457.869 213.276 459.198 213.772 460.369C213.56 462.168 213.8 463.995 214.389 465.71C213.719 466.427 213.336 467.441 213.2 468.411C212.959 470.113 213.029 472.717 213.011 474.447C212.28 475.204 211.774 476.168 211.509 477.196C211.261 477.33 211.013 477.465 210.765 477.599C210.544 477.719 210.389 478.019 210.411 478.267C210.518 479.467 211.047 480.399 211.734 481.237C211.991 481.892 212.357 482.492 212.83 483.062C213.156 483.454 213.475 483.828 213.76 484.253C213.789 484.295 213.808 484.335 213.821 484.363C213.719 484.481 213.638 484.674 213.566 484.812C212.961 485.971 212.997 487.304 213.948 488.262C213.613 488.556 213.621 489.126 213.938 489.465C215.998 491.659 217.745 494.354 220.536 495.461C220.549 495.481 220.561 495.502 220.571 495.522C220.061 496.882 220.01 497.582 220.514 498.951C220.517 498.964 220.522 498.975 220.526 498.987C220.794 499.705 221.282 500.852 222.095 501.051C222.352 501.113 222.603 501.136 222.85 501.126C223.51 501.72 224.17 502.315 224.829 502.91C224.896 503.214 224.942 503.521 224.964 503.832C225 504.352 225.505 504.757 226.027 504.585C226.211 504.524 227.203 503.489 227.392 503.488C227.49 503.58 227.586 503.672 227.681 503.765C228.033 504.109 228.523 504.654 228.575 505.026C228.675 505.726 229.164 506.514 229.913 506.63C230.202 506.904 230.651 506.974 230.98 506.592C231.002 506.567 231.023 506.543 231.046 506.521C231.083 506.515 231.117 506.51 231.153 506.504C231.335 506.99 231.517 507.476 231.7 507.96C232.059 508.915 233.323 509.493 234.186 508.898C234.331 508.979 234.474 509.065 234.617 509.15C234.834 509.278 235.054 509.409 235.279 509.531C235.293 509.567 235.306 509.603 235.319 509.638C235.476 510.067 236.076 510.28 236.432 510.017C236.546 510.049 236.663 510.074 236.781 510.094C237.401 510.194 238.02 510.139 238.607 509.913C239.028 509.753 239.424 509.461 239.881 509.407C239.909 509.404 239.939 509.405 239.968 509.403C240.368 510.155 241.245 510.785 241.925 510.986C242.817 511.249 243.715 511.112 244.505 510.725C244.736 511.15 245.023 511.551 245.361 511.918C245.548 512.122 245.872 512.065 246.052 511.894C246.393 511.569 246.733 511.243 247.072 510.916C247.321 510.81 247.573 510.683 247.836 510.565C248.658 510.195 249.567 510.022 250.321 509.503C250.679 509.256 251.013 508.946 251.284 508.59C251.808 508.263 252.286 507.862 252.712 507.406C252.933 507.399 253.162 507.34 253.381 507.219C254.298 506.711 254.756 505.728 254.765 504.738C255.459 502.931 255.839 501.016 255.894 499.068C255.911 498.428 255.896 497.784 255.825 497.148C255.775 496.699 255.652 496.403 255.467 496.002C255.405 495.872 255.35 495.752 255.304 495.619C255.299 495.189 255.29 494.759 255.28 494.33C255.384 493.964 255.578 493.62 255.856 493.327C256.286 492.873 256.458 491.955 256.034 491.427C255.758 491.086 255.484 490.745 255.207 490.403C255.229 488.897 255.505 486.491 254.698 486.267C254.723 486.043 254.783 485.82 254.815 485.596C254.964 484.523 254.819 483.573 254.22 482.66C254.095 482.47 253.988 482.302 253.9 482.137C253.838 481.832 253.775 481.526 253.713 481.221C253.617 480.75 253.522 480.275 253.438 479.797C253.382 479.187 253.328 478.576 253.272 477.964C253.22 477.401 253.164 476.838 253.107 476.274C253.113 476.021 253.127 475.767 253.15 475.513C253.289 474 253.885 473.421 254.915 472.337C255.081 472.304 255.246 472.269 255.409 472.23C256.164 472.046 256.951 471.773 257.737 471.834C258.591 471.899 259.364 472.24 260.174 471.742C260.412 471.594 260.933 471.19 260.969 470.882C260.971 470.863 260.975 470.846 260.98 470.833C261.037 470.823 261.11 470.813 261.156 470.81C261.812 470.765 262.447 471.001 263.107 470.907C263.887 470.796 264.575 470.424 265.018 469.892C265.614 470.017 266.219 470.061 266.829 469.959C267.34 469.874 267.795 469.69 268.241 469.426C268.566 469.236 268.46 469.188 268.825 469.32C269.656 469.624 270.412 470.037 271.327 469.777C271.802 469.643 272.206 469.37 272.541 469.01C272.621 468.926 272.756 468.8 272.846 468.682C273.292 468.889 274.412 469.352 274.595 469.39C275.113 469.498 275.657 469.459 276.151 469.274C276.514 469.138 276.952 468.788 277.272 468.708C277.686 468.604 278.633 469.153 279.138 469.335C280.024 469.655 280.953 469.709 281.825 469.317C282.125 469.182 282.7 468.665 282.928 468.661C283.313 469.105 284.434 471.567 284.775 472.468C286.159 476.111 286.886 487.611 286.41 490.568C286.39 490.655 286.369 490.741 286.349 490.829C285.726 493.408 285.075 496.031 283.968 498.452C282.922 500.734 281.439 502.808 279.253 504.11C276.986 505.462 274.284 505.89 271.678 505.809C270.001 505.759 268.343 505.48 266.709 505.115C265.856 504.925 265.008 504.71 264.165 504.485C263.796 504.387 263.423 504.297 263.061 504.181C262.422 503.975 262.091 503.969 261.496 504.282C260.956 504.566 260.842 505.354 261.145 505.837C261.64 506.625 262.496 506.651 263.329 506.857C264.178 507.067 265.029 507.266 265.885 507.442C267.525 507.776 269.188 508.019 270.86 508.099C273.853 508.244 276.915 507.752 279.586 506.354C279.887 506.195 280.178 506.027 280.458 505.847C280.357 505.998 280.255 506.15 280.151 506.301C279.864 506.718 280.111 507.401 280.542 507.608C280.678 507.673 280.815 507.736 280.952 507.797C280.972 507.839 280.993 507.882 281.017 507.924C281.431 508.687 282.256 509.117 283.088 509.287C284.076 509.487 285.168 509.282 286.164 509.218C287.087 509.158 288.01 509.098 288.931 509.038C289.149 509.025 289.367 509.01 289.584 508.995C290.68 508.924 291.775 508.853 292.869 508.781C293.846 508.718 293.802 508.795 294.706 508.372C295.108 508.182 295.435 507.921 295.705 507.581C295.878 507.496 296.046 507.401 296.205 507.293C296.719 506.948 297.17 506.493 297.583 505.995C298.321 506.2 299.337 505.951 299.447 505.028C299.625 503.553 301.51 502.859 302.363 501.767C303.052 500.886 303.527 499.746 303.463 498.67C305.244 497.73 306.149 495.385 306.31 493.416C306.386 492.503 306.335 491.53 306.458 490.601C306.524 490.524 306.583 490.444 306.631 490.358C307.061 489.606 307.431 488.834 307.753 488.046C308.215 487.687 308.779 487.456 309.375 487.4C310.841 487.264 311.048 485.273 309.631 484.844C309.624 484.841 309.618 484.84 309.611 484.838C309.958 483.875 309.886 482.752 309.394 481.868C309.41 481.77 309.425 481.673 309.44 481.575C310.196 480.702 310.606 479.512 310.516 478.37C310.866 478.105 311.261 477.895 311.697 477.759C312.37 477.548 312.345 476.718 311.83 476.364C311.622 476.222 311.448 476.053 311.302 475.865C311.613 474.809 311.434 473.605 310.694 472.773C311.124 472.179 311.555 471.585 311.986 470.991C312.271 470.598 312.406 469.943 311.937 469.596C311.637 469.373 311.337 469.151 311.036 468.93Z" fill="#4878FF"/>
<path fill-rule="evenodd" clip-rule="evenodd" d="M278.882 491.779C279.331 490.917 280.765 491.005 281.018 491.983C281.531 493.966 279.213 495.896 277.405 496.005C275.608 496.113 273.537 494.653 273.73 492.709C273.777 492.229 274.418 492.264 274.646 492.557L274.735 492.669C275.354 493.443 276.163 494.239 277.254 494.007C277.706 493.91 278.11 493.612 278.372 493.236C278.688 492.783 278.633 492.257 278.882 491.779ZM266.936 477.555C267.177 477.479 267.424 477.496 267.644 477.581C268.129 477.652 268.546 478.04 268.703 478.495C268.716 478.534 268.729 478.573 268.745 478.611L268.768 478.668L268.705 478.523C268.737 478.667 268.86 478.816 268.908 478.96C268.966 479.137 268.986 479.339 268.975 479.537C269.129 479.533 269.282 479.533 269.436 479.541L269.584 479.549C270.413 479.597 271.326 479.706 271.841 480.404C272.13 480.796 271.897 481.528 271.394 481.623C270.62 481.769 269.934 481.362 269.155 481.302C268.419 481.246 267.653 481.32 266.934 481.478C265.449 481.803 264.097 482.457 262.653 482.888L262.457 482.946L262.457 482.945C262.21 483.014 261.914 482.677 262.154 482.465C263.287 481.465 264.754 480.636 266.209 480.111C265.983 479.778 265.901 479.33 266.035 478.959C266.055 478.882 266.08 478.808 266.108 478.733L266.164 478.579C266.168 478.508 266.179 478.437 266.196 478.367L266.199 478.346L266.201 478.347C266.298 477.987 266.573 477.669 266.936 477.555ZM281.825 477.09C282.133 476.759 282.583 476.791 282.925 477.031L282.97 477.064C283.289 477.192 283.559 477.488 283.74 477.765C283.927 478.052 284.055 478.347 284.071 478.67C284.844 478.645 285.592 478.851 286.181 479.455C286.371 479.65 286.507 479.956 286.416 480.233L286.361 480.397C286.189 480.92 285.343 481.246 285.031 480.65L285.016 480.621C284.682 479.912 283.498 480.029 282.869 480.124C282.432 480.191 282.001 480.316 281.581 480.453C281.433 480.502 281.286 480.554 281.14 480.607L280.993 480.66C280.915 480.688 280.511 480.926 280.765 480.864C280.834 480.848 280.889 480.946 280.82 480.982C280.52 481.139 280.184 480.859 280.193 480.531C280.209 479.96 281.101 479.617 281.529 479.405L281.555 479.393C281.719 479.31 281.891 479.23 282.069 479.155C281.962 479.008 281.872 478.843 281.796 478.665C281.725 478.498 281.675 478.334 281.644 478.155C281.618 478.067 281.614 477.979 281.635 477.89L281.638 477.864C281.624 477.806 281.616 477.746 281.614 477.686L281.611 477.662L281.613 477.662C281.615 477.449 281.692 477.233 281.825 477.09ZM276.937 483.329C278.177 483.666 280.235 484.627 279.652 486.243C278.811 487.738 276.408 486.745 275.245 486.312C274.203 486.007 273.717 487.47 274.728 487.87C283.072 490.84 282.741 482.244 277.21 482.564C276.6 482.599 276.603 483.215 276.937 483.329ZM265.657 472.501L265.864 472.432C266.94 472.079 268.03 471.497 269.025 472.312C269.415 472.632 269.517 473.321 269.261 473.746C268.676 474.715 267.755 474.602 266.761 474.718C266.004 474.806 265.263 475.055 264.564 475.359C263.993 475.607 263.467 475.947 262.972 476.322C262.486 476.692 262.165 477.254 261.665 477.589C261.481 477.712 261.261 477.6 261.187 477.414C260.925 476.754 261.299 475.907 261.62 475.326C262.012 474.617 262.624 474.027 263.289 473.573C264.017 473.076 264.83 472.776 265.657 472.501ZM281.467 471.229C283.304 471.164 285.107 472.124 286.187 473.587C286.554 474.084 286.324 474.847 285.833 475.157C285.283 475.506 284.673 475.29 284.286 474.831L284.263 474.804C283.647 474.039 282.866 473.448 281.951 473.076C281.505 472.895 281.014 472.753 280.536 472.689L280.381 472.668C280.165 472.639 279.914 472.613 279.72 472.654C279.617 472.671 279.522 472.709 279.436 472.765C279.481 472.856 279.376 472.972 279.272 472.919C278.807 472.685 278.848 472.235 279.212 471.874C279.729 471.364 280.778 471.253 281.467 471.229Z" fill="#4878FF"/>
<path fill-rule="evenodd" clip-rule="evenodd" d="M277.99 488.733C276.413 488.088 273.647 488.796 272.644 489.074C270.31 489.72 267.986 491.023 267.321 492.959C266.572 495.142 268.241 495.763 268.479 495.643C270.111 495.701 272.015 494.609 273.713 494.285C275.091 494.02 276.546 493.78 277.818 492.999C278.784 493.487 280.935 493.694 282.679 494.09C284.164 494.427 284.831 495.247 286.189 495.02C287.816 494.748 287.027 491.332 285.156 490.002C283.108 488.546 279.714 488.046 277.99 488.733ZM281.578 503.334C280.231 503.713 280.036 500.738 279.847 499.691C279.699 498.874 278.955 496.777 277.259 496.928C275.562 497.079 274.985 498.877 275.11 499.979C275.191 500.693 275.977 504.298 273.887 504.831C272.544 504.873 270.988 504.837 269.567 504.625C267.892 504.307 265.685 503.064 265.205 505.68C265.032 506.622 272.449 509.142 275.706 509.279C279.024 509.832 282.842 508.671 285.099 506.068C285.613 505.476 287.032 503.043 287.119 502.456C287.301 501.222 286.753 500.452 285.252 500.937C284.202 501.546 282.444 503.091 281.578 503.334Z" fill="#4878FF"/>
<path fill-rule="evenodd" clip-rule="evenodd" d="M290.169 483.712C288.536 485.523 285.724 486.125 283.436 485.264C277.562 483.046 280.133 475.399 284.527 473.216C285.08 473.058 285.813 472.702 286.49 472.603C286.55 472.571 286.687 472.654 286.846 472.565C291.789 472.943 293.177 480.55 290.169 483.712ZM271.511 484.813C269.698 487.401 266.191 488.303 263.263 487.231C257.481 485.183 259.27 478.419 263.081 475.659C271.217 472.272 274.896 480.038 271.511 484.813ZM258.951 479.656C258.945 479.654 258.94 479.653 258.934 479.65C258.964 479.636 258.994 479.622 259.023 479.607C259.014 479.633 259.005 479.659 258.996 479.685C258.981 479.675 258.967 479.663 258.951 479.656ZM293.819 475.709C293.354 475.726 292.684 475.826 292.31 476.163C291.248 472.99 287.638 470.146 284.663 472.416C282.289 473.272 280.566 475.048 279.633 477.362C277.769 476.339 274.913 476.903 273.38 478.396C272.223 475.003 269.628 473.892 266.584 473.821C263.249 473.393 260.056 476.731 259.115 479.351C258.254 479.283 256.963 479.055 256.175 479.613C250.891 478.422 241.711 477.984 240.673 478.785C239.925 479.102 239.571 480.908 240.634 480.968C241.553 480.804 240.481 479.659 241.407 479.498C246.355 479.017 251.204 479.848 256.124 480.096C256.583 480.67 258.005 480.818 258.752 480.555C257.716 484.98 260.387 487.874 264.265 488.633C270.269 489.793 275.264 484.282 273.513 478.793C275.286 477.832 277.363 477.798 279.345 478.202C276.483 490.409 295.931 489.187 292.446 476.573C294.505 477.509 294.888 475.875 293.819 475.709Z" fill="#4878FF"/>
<rect x="402" y="540" width="26" height="30" fill="#FFD53F"/>
<path fill-rule="evenodd" clip-rule="evenodd" d="M445.217 492.722C441.458 489.753 431.915 488.281 427.8 491.005C423.735 493.741 423.218 498.272 421.273 502.414C419.522 501.55 416.585 502.692 416.044 504.322C415.396 505.084 415.329 507.256 414.873 508.288C395.767 510.989 392.615 525.799 390.027 542.629C386.695 559.695 379.509 576.657 382.192 594.325C381.792 594.882 381.476 595.425 381.18 596.071C380.48 597.217 381.327 598.872 382.701 598.833C384.481 598.707 386.243 598.525 388.03 598.49C392.981 598.404 397.933 598.511 402.883 598.66L403.558 598.681C428.5 599.427 453.435 600.475 478.381 601.073C479.287 601.09 479.744 600.285 479.637 599.482C479.422 597.865 479.224 596.248 479.017 594.63C484.89 596.292 491.157 596.794 497.072 595.109C497.491 594.697 496.117 594.9 495.9 594.833C501.38 591.225 499.899 583.399 499.518 577.773C496.871 558.474 496.191 537.16 484.952 520.535C480.083 513.745 472.866 508.311 464.488 506.97L464.255 506.934C461.805 506.564 459.07 506.41 456.946 505.036C454.564 503.065 453.597 499.484 451.057 499.406C450.218 499.38 449.058 500.422 447.818 501.121C447.754 499.534 446.923 498.181 446.755 496.948L446.742 496.842C446.57 495.405 446.862 494.12 445.217 492.722ZM403.374 543.371C408.793 539.743 422.592 541.854 422.905 542.068C423.595 542.539 423.894 542.585 424.261 543.187C424.632 543.243 425.003 543.301 425.374 543.36C426.115 543.617 425.547 544.524 424.691 544.182C425.17 546.426 423.618 547.989 422.973 550.188C422.763 550.902 422.93 552.195 422.925 552.928C422.85 553.862 421.797 554.948 421.953 555.889C422.507 559.233 425.772 562.543 424.315 565.751C423.355 567.561 420.549 568.443 418.683 569.031C414.814 570.44 408.145 568.792 405.97 565.431C404.81 563.638 403.508 559.144 402.822 557.745L402.703 555.543C402.41 550.069 402.168 544.178 403.374 543.371Z" fill="#F6F9FF"/>
<path fill-rule="evenodd" clip-rule="evenodd" d="M451.996 499.1C451.632 498.766 451.077 499.168 451.305 499.614C451.815 500.618 452.34 501.569 453.033 502.46C453.453 503.001 453.905 503.513 454.362 504.019C453.148 505.034 452.099 506.302 451.109 507.49C449.843 509.01 448.643 510.596 447.227 511.981C445.831 513.348 444.297 514.294 442.451 514.91L442.079 515.033C440.225 515.648 438.24 516.487 437.171 518.214C436.96 518.555 437.365 518.987 437.716 518.779C439.54 517.692 441.664 517.504 443.642 516.8C445.552 516.12 447.225 515.05 448.712 513.674C450.195 512.3 451.448 510.73 452.753 509.194C454.044 507.675 455.428 506.383 456.945 505.105C459.225 506.698 461.847 507.42 464.512 508.13L464.803 508.207C467.473 508.918 470.125 509.736 472.62 510.936C474.82 511.994 476.979 513.249 478.757 514.939C480.643 516.733 482.096 519.007 483.424 521.23C486.393 526.202 488.447 531.628 490.243 537.115C492.11 542.823 493.654 548.639 494.88 554.517C495.504 557.508 496 560.517 496.398 563.546C496.589 565.004 496.757 566.466 496.901 567.93C497.054 569.493 497.068 571.099 497.52 572.608C497.714 573.254 498.194 573.529 498.679 573.515L498.756 574.749C498.858 576.394 498.951 578.039 498.963 579.693C498.983 582.442 498.904 585.182 498.659 587.921L498.624 588.294C498.434 590.293 498.048 592.535 496.518 593.975C494.933 595.465 492.529 595.901 490.429 595.891C485.537 595.87 480.869 593.476 476.577 591.372C472.156 589.206 467.861 586.812 463.673 584.223C461.541 582.905 459.432 581.545 457.351 580.146C456.33 579.46 455.317 578.762 454.311 578.054C453.735 577.648 453.19 577.205 452.603 576.843C452.898 576.578 453.035 576.154 452.798 575.778C454.54 574.318 455.3 571.672 455.421 569.523C455.519 567.788 455.294 566.052 455.122 564.328C455.036 563.459 454.925 562.591 454.81 561.725C454.764 561.383 454.731 561.018 454.677 560.657C459.265 563.284 463.988 565.635 468.841 567.736C471.329 568.812 473.85 569.785 476.408 570.681L476.927 570.862C479.351 571.702 481.834 572.5 484.346 573C484.48 573.027 484.593 572.83 484.45 572.764C482.013 571.637 479.488 570.678 477.013 569.636L476.606 569.462C476.653 569.461 476.702 569.455 476.753 569.444C478.221 569.116 479.681 568.598 481.123 568.165C482.461 567.763 483.961 567.522 485.216 566.902C485.313 566.854 485.262 566.72 485.169 566.712C483.772 566.591 482.247 566.972 480.872 567.188L480.356 567.269C479.491 567.406 478.606 567.554 477.744 567.753C477.718 567.464 477.562 567.173 477.336 566.999C474.854 565.092 475.175 561.333 474.954 558.552L474.791 556.488C474.503 552.876 474.194 549.264 473.693 545.675C473.666 545.483 473.37 545.533 473.365 545.713C473.259 550.149 473.516 554.572 473.607 559.005L473.62 559.732C473.665 562.467 473.688 565.306 475.373 567.44C475.134 567.295 474.809 567.289 474.61 567.518C474.366 567.799 474.222 568.117 474.221 568.431C472.677 567.752 471.14 567.055 469.611 566.346C464.696 564.064 459.89 561.522 455.215 558.782C454.712 558.487 454.225 558.703 453.967 559.076L453.931 559.07C453.925 559.069 453.918 559.068 453.912 559.068L453.876 559.066L453.872 559.066C453.214 558.689 452.304 558.933 451.724 559.456C451.707 559.472 451.693 559.489 451.677 559.506C450.961 559.169 450.294 558.72 449.692 558.154C448.46 556.997 447.424 555.575 446.524 554.151C444.867 551.529 443.471 548.621 441.208 546.446C439.37 544.68 437.072 543.56 434.653 542.84C434.664 542.769 434.639 542.693 434.59 542.642C434.468 542.511 434.379 542.466 434.217 542.54C434.204 542.547 434.196 542.555 434.191 542.564L433.96 542.155C433.835 541.932 433.706 541.709 433.661 541.65C433.391 541.297 433.113 540.947 432.83 540.605C432.352 540.024 431.804 539.45 431.166 539.043C429.769 538.15 428.276 538.615 426.816 539.064C425.933 539.336 425.054 539.616 424.173 539.892L424.082 539.92C423.425 540.119 422.658 540.289 422.354 540.976C422.234 541.248 422.211 541.532 422.26 541.808C416.085 540.122 409.183 540.727 403.099 542.474C402.865 542.541 402.63 542.728 402.576 542.978C401.821 546.524 401.448 550.167 401.699 553.791C401.915 556.919 402.554 559.992 403.807 562.874L403.879 563.037C405.057 565.708 406.942 569.009 409.893 569.891C411.675 570.424 413.661 570.163 415.488 570.103C417.265 570.044 419.079 570.063 420.842 569.814C422.412 569.593 423.796 568.915 424.786 567.658C425.64 566.574 426.103 565.254 426.486 563.939C426.65 563.995 426.813 564.053 426.973 564.119C427.648 564.397 428.217 564.836 428.729 565.35C429.811 566.435 430.642 567.745 431.776 568.782C432.802 569.721 433.977 570.458 435.241 571.031C437.861 572.218 440.684 572.723 443.466 573.376L443.66 573.422C445.754 573.92 447.889 574.524 449.725 575.651C449.756 575.974 449.898 576.28 450.129 576.483C449.797 576.785 449.65 577.269 449.929 577.731C450.71 579.02 452.081 579.77 453.309 580.607L453.389 580.662C454.596 581.493 455.815 582.309 457.044 583.109C459.542 584.735 462.095 586.275 464.685 587.75C468.851 590.122 473.11 592.365 477.449 594.408C477.164 595.696 477.237 597.03 477.017 598.327L476.983 598.513C476.891 598.994 476.998 599.4 477.324 599.721L477.359 599.754L477.358 599.749L477.389 599.779L477.399 599.787L477.396 599.785C477.434 599.82 477.473 599.854 477.512 599.883L477.563 599.916C477.88 600.117 478.292 600.122 478.623 599.956L478.661 599.936L478.724 599.901C479.162 599.659 479.471 599.047 479.3 598.553C478.88 597.34 478.735 596.05 478.349 594.829L478.67 594.98L479.093 595.173C483.67 597.248 488.763 599.018 493.811 597.745C496.042 597.183 498.139 595.948 499.286 593.895C500.415 591.875 500.611 589.51 500.708 587.243C500.829 584.444 500.728 581.599 500.408 578.817C500.193 576.95 499.926 575.047 499.496 573.195C499.737 572.989 499.917 572.691 499.97 572.319C500.219 570.562 499.869 568.724 499.666 566.968C499.468 565.254 499.245 563.542 498.99 561.836C498.474 558.388 497.865 554.947 497.145 551.537C495.864 545.467 494.137 539.498 492.034 533.663L491.85 533.155C489.906 527.822 487.638 522.596 484.436 517.885C482.904 515.631 481.278 513.583 479.087 511.94C477.034 510.4 474.707 509.277 472.301 508.407C469.892 507.537 467.412 506.939 464.883 506.55C462.315 506.154 459.602 505.892 457.219 504.794C457.532 504.254 457.284 503.514 456.779 503.168C455.079 502 453.514 500.493 451.996 499.1ZM396.06 547.583C395.99 547.473 395.818 547.539 395.847 547.669C396.624 551.113 397.349 554.563 397.801 558.066C398.617 564.39 398.335 570.777 398.149 577.13L398.139 577.458C398.04 580.88 397.927 584.302 397.754 587.722C397.666 589.45 397.523 591.194 397.554 592.925C397.571 593.864 397.806 594.756 397.878 595.685C397.942 596.497 397.858 597.319 397.805 598.13C397.77 598.67 398.567 598.66 398.63 598.145L398.711 597.477C398.816 596.633 398.942 595.794 399.233 594.989C399.583 594.021 399.76 593.068 399.893 592.047C400.098 590.483 400.204 588.902 400.3 587.326L400.366 586.235C400.766 579.646 400.872 573.021 400.525 566.426L400.499 565.955C400.15 559.721 399.474 552.979 396.06 547.583ZM414.581 508.652C414.801 508.566 414.73 508.234 414.487 508.288L414.045 508.385C410.807 509.101 407.626 509.883 404.59 511.269C401.553 512.655 398.965 514.759 396.893 517.364C392.864 522.43 391.119 528.641 389.718 534.852C388.161 541.754 386.732 548.684 385.162 555.583L384.871 556.868C383.418 563.294 382.04 569.726 380.994 576.235L380.918 576.707C379.861 583.402 379.174 590.335 380.083 597.081C380.262 598.416 382.482 598.123 382.419 596.807C382.235 593 382.122 589.215 382.362 585.407C382.601 581.599 383.025 577.811 383.623 574.042C384.127 570.871 384.85 567.743 385.497 564.599L385.598 564.102C386.14 561.428 386.697 558.757 387.253 556.086L388.084 552.087C389.33 546.098 390.598 540.105 392.017 534.157L392.101 533.807C393.487 528.085 395.488 522.101 399.426 517.607C403.422 513.046 409.067 510.812 414.581 508.652ZM427.743 569.83C427.653 569.618 427.323 569.636 427.218 569.821C426.809 570.546 426.748 571.48 426.659 572.305L426.65 572.39C426.537 573.397 426.435 574.408 426.365 575.419C426.234 577.338 426.153 579.255 426.126 581.179C426.097 583.15 426.103 585.119 426.175 587.089L426.194 587.617C426.261 589.328 426.391 591.239 427.177 592.748C427.463 593.297 428.268 593.151 428.449 592.604C429.041 590.814 428.79 588.675 428.679 586.83L428.592 585.389C428.507 583.949 428.427 582.508 428.368 581.066C428.288 579.094 428.228 577.12 428.172 575.147C428.153 574.506 428.132 573.865 428.11 573.225L428.075 572.263C428.044 571.459 428.064 570.578 427.743 569.83ZM490.695 573.48L490.452 573.236C489.703 572.477 488.761 571.313 487.634 571.364C487.185 571.385 486.892 571.752 486.978 572.196C487.16 573.144 488.114 573.651 488.798 574.239C489.546 574.884 490.25 575.571 490.952 576.265C491.575 576.88 492.174 577.512 492.758 578.164L492.976 578.409C493.185 578.645 494.679 580.046 494.509 580.399L494.5 580.415C494.453 580.482 494.527 580.578 494.604 580.555C495.263 580.359 495.232 579.796 494.994 579.222C494.537 578.12 493.72 577.093 493.008 576.145C492.298 575.2 491.527 574.318 490.695 573.48ZM425.802 544.893C426.33 543.703 428.197 543.76 429.256 543.85C431.923 544.078 434.801 544.804 437.155 546.094C439.595 547.431 441.218 549.534 442.663 551.854L442.73 551.962C444.138 554.238 445.485 556.926 447.724 558.513C448.864 559.321 450.199 560.064 451.594 560.4C451.687 560.571 451.841 560.708 452.044 560.76L452.139 560.783C452.536 560.878 453.154 560.987 453.69 560.938C453.682 561.2 453.68 561.459 453.669 561.708C453.638 562.418 453.617 563.132 453.605 563.844C453.579 565.335 453.633 566.83 453.544 568.319C453.466 569.637 453.256 571.011 452.603 572.179C452.124 573.035 451.501 573.597 450.752 574.13C448.952 572.989 446.907 572.277 444.828 571.733C442.314 571.074 439.736 570.619 437.283 569.742C436.103 569.32 434.97 568.775 433.948 568.044C432.863 567.267 432.043 566.228 431.197 565.21L431.065 565.052C430.202 564.027 429.258 563.043 428.024 562.474C426.96 561.983 425.549 561.875 424.625 561.128C424.142 560.738 424.11 560.183 424.069 559.614C424.667 559.71 425.305 559.584 425.904 559.524L426.215 559.493C426.782 559.436 427.335 559.372 427.895 559.237C427.999 559.213 428.001 559.057 427.898 559.028C427.243 558.847 426.592 558.763 425.919 558.672L425.761 558.649C425.152 558.559 424.513 558.427 423.912 558.551C423.811 558.14 423.663 557.747 423.452 557.352C423.156 556.797 422.589 556.165 422.522 555.522C422.502 555.33 422.551 555.105 422.644 554.937L422.676 554.88C422.715 554.812 422.762 554.744 422.828 554.703C422.835 554.712 422.85 554.722 422.884 554.733C423.342 554.886 423.748 554.667 423.967 554.323C424.871 554.451 425.86 554.431 426.708 554.483L427.566 554.54C428.483 554.598 429.442 554.633 430.307 554.463C430.428 554.439 430.468 554.239 430.348 554.185C429.296 553.713 428.013 553.546 426.881 553.352C426.249 553.244 425.612 553.159 424.978 553.062C424.556 552.997 424.108 552.895 423.67 552.865C422.595 551.476 423.225 549.327 424.765 548.764C425.318 549.019 425.822 548.885 426.432 548.843C427.04 548.802 427.65 548.777 428.261 548.79C429.484 548.817 430.774 549.161 431.987 549.044C432.185 549.025 432.372 548.766 432.179 548.602C431.265 547.83 429.941 547.56 428.767 547.378L428.524 547.341C428.13 547.282 427.652 547.198 427.155 547.145C427.046 546.923 426.847 546.754 426.545 546.707C426.455 546.693 426.364 546.684 426.274 546.675L426.276 546.666C425.537 546.618 425.591 545.369 425.802 544.893ZM476.03 569.158C476.043 569.178 476.057 569.198 476.072 569.216L476.095 569.244L475.974 569.192L476.03 569.158ZM412.942 541.988C416.061 541.708 419.177 541.833 422.298 541.977C422.533 542.799 423.391 543.511 424.232 543.551C423.555 544.544 423.463 545.903 423.907 546.976C422.918 547.35 422.06 548.038 421.529 549.029C420.792 550.404 420.859 551.949 421.54 553.243C420.93 553.777 420.56 554.654 420.581 555.488C420.604 556.417 421.144 557.22 421.59 557.997C422.073 558.838 422.076 559.57 422.213 560.504C422.412 561.871 423.317 562.714 424.49 563.251L424.423 563.497C424.098 564.679 423.696 565.925 422.81 566.778C421.67 567.875 419.931 567.834 418.449 567.879L418.377 567.881C417.02 567.926 415.663 567.981 414.306 568.034L413.289 568.074C411.726 568.132 410.227 568.116 408.971 567.062C406.921 565.341 405.543 562.527 404.684 560.043C402.88 554.829 402.956 549.142 403.92 543.761C406.853 542.872 409.89 542.263 412.942 541.988ZM438.682 551.036L438.659 551.038C438.017 551.1 437.567 551.611 437.4 552.224C437.156 553.116 437.254 553.927 436.692 554.726C436.113 555.547 435.755 556.206 435.655 557.231C435.614 557.653 435.622 558.075 435.521 558.487L435.448 558.775C435.37 559.083 435.305 559.38 435.336 559.712C435.363 560.015 435.506 560.253 435.808 560.355C436.791 560.689 437.567 559.974 437.838 559.057C438.072 558.265 437.794 557.311 438.119 556.569C438.298 556.158 438.622 555.817 438.809 555.403C438.994 554.993 439.091 554.563 439.128 554.114C439.197 553.265 438.463 552.231 438.896 551.468C438.988 551.305 438.892 551.035 438.682 551.036ZM451.963 542.495C451.296 542.348 450.542 542.023 449.877 542.27C449.536 542.398 449.361 542.809 449.643 543.101C450.131 543.609 450.854 543.65 451.522 543.779L451.581 543.791C452.371 543.951 453.163 544.104 453.956 544.25C455.447 544.524 456.943 544.769 458.444 544.982C459.986 545.2 461.533 545.397 463.082 545.552L463.682 545.612C464.991 545.74 466.354 545.843 467.643 545.664C467.831 545.639 467.805 545.366 467.649 545.315C466.248 544.864 464.704 544.723 463.251 544.517C461.705 544.298 460.163 544.067 458.625 543.8C457.089 543.532 455.556 543.247 454.029 542.935C453.339 542.794 452.65 542.648 451.963 542.495ZM427.838 540.704C428.429 540.506 429.08 540.21 429.715 540.324C430.809 540.521 431.767 541.607 432.624 542.327L432.189 542.235C429.965 541.767 427.017 541.253 425.119 542.639C425.115 542.631 425.111 542.623 425.106 542.615C424.958 542.382 424.786 542.2 424.599 542C424.581 541.982 424.563 541.964 424.546 541.946L424.445 541.834L424.682 541.757C425.191 541.587 425.794 541.366 425.889 541.334L425.896 541.332C426.544 541.125 427.193 540.92 427.838 540.704ZM446.992 494.227C447.104 493.047 445.266 493.025 445.154 494.195C444.911 496.75 445.442 499.294 446.642 501.559C446.65 501.576 446.66 501.59 446.67 501.606C445.888 501.996 445.097 502.369 444.29 502.701C443.258 503.125 442.207 503.51 441.138 503.834C440.171 504.126 438.985 504.228 438.166 504.857C436.438 506.185 437.029 509.014 437.325 510.846L437.371 511.135C437.518 512.077 437.619 513.044 437.207 513.939C436.767 514.895 435.9 515.594 435.125 516.27L434.968 516.407C434.282 517.012 433.496 517.747 432.986 518.573C432.55 517.629 431.946 516.853 431.309 515.981C430.854 515.358 431.189 515.161 431.534 514.567C431.866 513.995 432.033 513.381 431.944 512.72C431.78 511.5 430.823 510.604 429.866 509.926C428.737 509.126 427.471 508.526 426.301 507.78C423.899 506.247 421.564 504.501 419.466 502.571C419.408 502.518 419.305 502.584 419.351 502.657C420.989 505.247 422.924 507.495 425.317 509.416C426.287 510.195 427.309 510.845 428.338 511.527L428.634 511.724C429.047 512.002 429.561 512.373 429.742 512.837C429.924 513.304 429.513 513.646 429.288 514.026C428.574 515.233 428.888 516.376 429.691 517.425L429.729 517.473C430.527 518.493 431.129 519.439 431.402 520.729C431.989 523.501 431.054 526.36 430.082 528.936L430.044 529.037C429.519 530.425 428.962 531.803 428.502 533.214L428.375 533.604C427.958 534.903 427.612 536.185 428.031 537.536C428.174 537.995 428.794 538.114 429.06 537.688C429.999 536.189 430.258 534.369 430.859 532.713C431.444 531.099 432.112 529.516 432.679 527.895C433.408 525.808 433.911 523.556 433.698 521.35C433.706 521.337 433.714 521.326 433.721 521.312L433.904 520.929C434.403 519.892 434.884 518.987 435.773 518.169C436.701 517.316 437.705 516.564 438.441 515.525C440.041 513.266 439.12 510.707 438.976 508.205L438.959 507.898C438.934 507.379 438.928 506.673 439.273 506.32C439.661 505.922 440.556 505.835 441.065 505.665C442.38 505.225 443.677 504.708 444.915 504.083C446.093 503.487 447.236 502.826 448.303 502.047L448.843 501.655C449.697 501.034 450.582 500.355 451.161 499.5C451.228 499.401 451.12 499.238 451.002 499.284C450.053 499.65 449.181 500.243 448.291 500.757C448.278 500.725 448.262 500.692 448.245 500.659C447.189 498.665 446.778 496.47 446.992 494.227ZM416.66 507.23C416.303 506.194 414.591 506.244 414.638 507.468C414.673 508.409 415.058 509.265 415.407 510.124L415.445 510.217C415.806 511.112 416.226 511.955 416.732 512.779C417.7 514.354 418.839 515.82 420.06 517.207C421.166 518.463 422.633 519.246 424.342 519.15C425.061 519.109 425.79 518.939 426.426 518.591C427.182 518.177 428.017 516.91 428.966 517.237C429.058 517.269 429.146 517.135 429.067 517.069C427.981 516.162 426.706 517.517 425.645 517.83C424.047 518.302 422.425 517.721 421.425 516.418C420.38 515.057 419.423 513.537 418.551 512.06C418.108 511.31 417.705 510.532 417.36 509.732C417.011 508.925 416.944 508.052 416.66 507.23ZM419.333 500.938C419.382 500.796 419.208 500.658 419.082 500.737C418.349 501.196 417.711 501.808 417.034 502.342C416.282 502.935 415.525 503.516 414.757 504.087C413.637 504.92 414.891 506.511 415.88 505.597C417.234 504.347 418.72 502.707 419.333 500.938ZM423.395 496.023C423.121 494.883 421.373 495.321 421.607 496.446L421.615 496.481C422.063 498.341 421.346 500.215 419.865 501.391L419.81 501.434C418.874 502.157 420.16 503.472 421.087 502.756C423.112 501.192 423.99 498.492 423.395 496.023Z" fill="#4878FF"/>
<path fill-rule="evenodd" clip-rule="evenodd" d="M432.122 437.353C408.878 437.683 407.284 448.698 406.961 467.21C406.638 485.723 418.486 497.599 422.888 499.714C427.29 501.828 438.822 510.782 449.437 506.934C460.052 503.086 457.295 485.998 457.423 478.678C457.551 471.359 455.366 437.023 432.122 437.353Z" fill="#F6F9FF"/>
<path fill-rule="evenodd" clip-rule="evenodd" d="M421.713 493.611C425.937 496.068 430.821 496.246 435.436 494.827C438.204 493.978 440.751 492.635 443.142 491.018C445.221 489.61 447.083 488.041 448.929 486.373C450.483 483.099 451.872 479.829 452.558 476.25C453.173 473.037 453.306 469.692 452.714 466.465C447.988 462.436 443.293 458.375 438.604 454.302C436.217 452.228 433.822 450.165 431.398 448.133C430.167 447.101 428.949 446.054 427.722 445.018C427.52 444.848 427.319 444.677 427.117 444.507C424.516 446.343 421.734 447.907 419.151 449.774C417.798 450.753 416.482 451.797 415.226 452.898C414.567 453.475 413.924 454.071 413.295 454.682C412.721 455.241 412.162 456.046 411.357 456.247C411.246 456.274 411.143 456.279 411.046 456.263C409.811 465.626 408.873 475.744 413.313 484.344C415.25 488.096 418.031 491.468 421.713 493.611ZM449.406 497.544C450.003 497.016 449.142 496.129 448.548 496.655C444.815 499.958 439.98 501.659 435.114 502.4C434.328 502.52 434.642 503.716 435.421 503.597C440.502 502.823 445.515 500.987 449.406 497.544ZM453.725 502.787C454.433 502.423 453.827 501.346 453.12 501.709C450.231 503.195 447.077 503.938 443.883 504.422C443.097 504.541 443.411 505.736 444.19 505.619C447.493 505.119 450.739 504.322 453.725 502.787ZM442.982 450.544C440.644 448.37 438.126 446.296 435.46 444.537C432.761 442.757 429.799 441.669 426.578 441.588C426.8 441.772 427.011 441.977 427.226 442.167C427.825 442.698 428.422 443.232 429.02 443.765C430.215 444.831 431.413 445.896 432.592 446.98C434.914 449.115 437.244 451.239 439.561 453.378C444.014 457.49 448.369 461.689 452.626 466.005C452.605 465.901 452.582 465.797 452.559 465.693C451.23 459.677 447.415 454.666 442.982 450.544ZM424.508 441.813C424.494 441.766 424.484 441.721 424.478 441.678C418.282 442.376 413.04 446.836 411.229 452.797C411.373 453.007 411.451 453.254 411.415 453.514C411.397 453.645 411.38 453.778 411.362 453.909C411.577 453.702 411.798 453.51 411.987 453.326C412.613 452.713 413.255 452.117 413.914 451.537C415.261 450.352 416.657 449.245 418.127 448.216C420.682 446.426 423.444 444.787 426.467 443.96C426.272 443.794 426.078 443.629 425.881 443.464C425.296 442.971 424.751 442.563 424.508 441.813ZM413.538 435.213C417.406 431.13 422.714 428.183 428.268 427.223C433.57 426.306 439.03 427.067 443.989 429.117C454.365 433.406 462.451 442.582 466.129 453.115C468.273 459.251 468.894 465.949 468.105 472.391C467.32 478.804 465.27 485.406 461.656 490.81C461.325 491.305 460.963 491.779 460.584 492.237C460.716 494.127 461.314 495.988 462.277 497.614C462.328 497.701 462.383 497.787 462.437 497.872C463.439 498.65 464.479 499.382 465.493 500.136C466.373 500.79 467.243 501.46 468.068 502.181C468.846 502.862 469.751 503.621 470.271 504.531C470.696 505.276 470.858 506.282 470.247 506.975C469.511 507.81 468.294 507.49 467.317 507.473C467.233 507.471 467.15 507.472 467.066 507.471C466.77 507.651 466.465 507.812 466.169 507.962C463.183 509.48 460.186 510.98 457.186 512.472C451.212 515.446 445.26 518.544 439.168 521.272C436.345 522.537 433.327 523.633 430.191 523.574C427.249 523.518 424.61 522.303 422.345 520.485C419.762 518.415 417.618 515.806 415.539 513.249C414.707 512.226 413.893 511.191 413.095 510.142C411.536 509.591 409.983 509.411 408.566 510.397C407.43 511.188 405.971 510.059 405.966 508.842C405.964 508.41 405.99 507.984 406.044 507.565C406.37 504.975 407.68 502.651 409.147 500.499C409.948 499.322 410.792 498.167 411.639 497.023C411.838 496.754 412.035 496.484 412.225 496.209C408.987 491.256 406.446 485.783 404.924 480.083C403.325 474.085 402.855 467.887 403.342 461.709C404.091 452.242 406.865 442.257 413.538 435.213Z" fill="#4878FF"/>
<path fill-rule="evenodd" clip-rule="evenodd" d="M424.262 486.912C425.307 486.507 426.245 485.817 426.938 484.926C427.179 484.617 427.246 484.287 427.202 483.983C427.152 483.641 426.956 483.329 426.685 483.117C426.413 482.905 426.07 482.796 425.736 482.842C425.445 482.883 425.154 483.036 424.92 483.361L424.872 483.426C424.46 483.964 423.927 484.402 423.325 484.679C422.744 484.947 422.098 485.065 421.433 484.978C420.166 484.812 419.303 484.11 418.389 483.162C418.276 483.042 418.163 482.918 418.049 482.793C417.978 482.68 417.878 482.606 417.766 482.567C417.641 482.523 417.499 482.522 417.369 482.565C417.243 482.607 417.13 482.688 417.053 482.797C416.98 482.9 416.937 483.029 416.948 483.178C417.016 484.146 417.506 485.017 418.211 485.707C418.995 486.473 420.042 487.012 421.033 487.212C422.126 487.432 423.244 487.307 424.262 486.912ZM420.783 471.938C419.605 472.626 417.8 474.248 419.024 476.027C420.472 477.602 422.628 475.862 423.69 475.077C424.671 474.472 425.734 476.092 424.821 476.803C417.156 482.275 414.264 472.009 420.208 471.094C420.863 470.993 421.092 471.724 420.783 471.938ZM434.457 465.655C434.356 464.054 431.928 463.648 431.658 465.226C431.416 466.64 431.649 467.946 432.265 469.234C432.853 470.464 434.396 469.922 434.531 468.813C434.713 467.328 434.519 466.651 434.457 465.655ZM415.937 464.624C415.606 464.173 415.121 463.861 414.531 464.022C412.687 464.526 413.182 467.141 413.804 468.421C414.142 469.115 415.271 469.31 415.793 468.712C416.644 467.738 417.077 465.77 416.035 464.778C416.007 464.727 415.976 464.676 415.937 464.624ZM432.476 458.621L432.187 458.565C431.293 458.395 430.181 458.226 429.534 458.936C429.191 459.312 429.063 460.021 429.509 460.395C430.293 461.053 431.176 460.818 432.128 460.89C432.913 460.948 433.665 461.092 434.418 461.321C436.069 461.825 437.407 462.714 438.807 463.69C438.991 463.818 439.185 463.584 439.099 463.408C438.309 461.791 436.747 460.446 435.172 459.615C434.332 459.172 433.411 458.801 432.476 458.621ZM417.732 457.645L417.509 457.687C415.087 458.149 411.933 459.103 410.749 461.455C410.7 461.789 410.745 461.862 410.781 461.909L410.793 461.925C410.823 461.966 410.847 462.022 410.992 462.07C411.032 462.061 411.073 462.051 411.114 462.041C411.641 461.913 412.058 461.731 412.463 461.542L412.902 461.335C413.411 461.096 413.925 460.867 414.467 460.7C415.626 460.344 416.815 460.1 418.02 459.98C418.282 459.954 418.534 459.87 418.735 459.723C418.926 459.583 419.073 459.387 419.143 459.124C419.234 458.785 419.214 458.526 419.036 458.215C418.903 457.982 418.709 457.818 418.484 457.722C418.255 457.624 417.994 457.598 417.732 457.645Z" fill="#4878FF"/>
<path fill-rule="evenodd" clip-rule="evenodd" d="M406.953 472.637C408.793 474.607 411.912 475.217 414.423 474.222C420.872 471.658 417.884 463.257 412.986 460.93C412.372 460.765 411.554 460.386 410.805 460.29C410.737 460.256 410.588 460.35 410.41 460.255C404.955 460.768 403.568 469.201 406.953 472.637ZM427.593 473.493C429.646 476.318 433.538 477.247 436.753 476.006C443.104 473.632 440.996 466.192 436.732 463.215C427.676 459.63 423.76 468.283 427.593 473.493ZM441.373 467.553C441.379 467.55 441.385 467.549 441.391 467.546C441.358 467.531 441.324 467.515 441.292 467.5C441.302 467.528 441.313 467.556 441.323 467.585C441.34 467.574 441.354 467.561 441.373 467.553ZM402.766 463.863C403.28 463.873 404.022 463.971 404.442 464.335C405.554 460.81 409.489 457.597 412.82 460.048C415.46 460.949 417.398 462.878 418.474 465.416C420.514 464.25 423.68 464.818 425.404 466.438C426.617 462.667 429.462 461.389 432.825 461.252C436.502 460.715 440.095 464.341 441.185 467.219C442.135 467.127 443.557 466.85 444.439 467.451C450.255 466.033 460.391 465.373 461.553 466.237C462.386 466.574 462.812 468.562 461.638 468.649C460.62 468.486 461.783 467.2 460.756 467.039C455.279 466.603 449.937 467.615 444.504 467.984C444.009 468.627 442.44 468.818 441.61 468.542C442.84 473.412 439.944 476.661 435.673 477.575C429.061 478.973 423.435 472.979 425.264 466.88C423.286 465.852 420.991 465.854 418.808 466.339C422.207 479.773 400.692 478.797 404.299 464.791C402.043 465.865 401.588 464.067 402.766 463.863Z" fill="#4878FF"/>
<g clip-path="url(#clip1_41_273)">
<path d="M309.887 761.989C309.887 762.186 301.652 765.865 300.409 766.309C298.467 766.724 296.459 766.768 294.498 766.438C289.084 766.349 278.619 773.361 273.459 776.839C273.411 776.885 273.366 776.885 273.3 776.908H273.298C274.155 777.055 274.981 777.331 275.752 777.721C278.322 778.909 280.87 780.166 283.417 781.41C284.211 780.571 285.053 779.778 285.942 779.031C291.106 774.602 295.42 777.247 300.512 770.216H300.509C301.23 769.207 302.293 768.475 303.517 768.143C306.684 767.593 313.064 768.63 315.219 766.491H315.222C316.454 765.237 318.098 764.429 319.879 764.198C326.42 762.898 332.98 763.451 339.5 762.039C338.948 761.821 338.444 761.598 337.983 761.446C334.895 760.235 331.729 759.219 328.505 758.403C328.341 758.5 328.165 758.565 327.98 758.603C321.956 759.701 316.109 761.989 309.887 761.989L309.887 761.989ZM520.764 611.184C520.671 610.685 520.54 610.191 520.373 609.71C520.212 609.35 520.117 608.965 520.099 608.575C520.12 608.532 520.099 608.463 520.099 608.4C512.64 612.434 501.186 612.059 493.344 612.895C476.663 614.701 460.119 613.69 443.4 614.598C426.606 615.522 409.785 616.647 393.036 616.3L393.033 616.298C380.214 615.943 367.386 616.227 354.597 617.149C338.834 618.449 322.797 617.258 306.987 618.117C292.735 618.867 277.936 619.176 263.687 618.935C236.52 618.449 209.58 613.293 182.501 613.293C180.277 613.075 178.092 612.578 176 611.818C176.963 616.179 178.982 616.115 185.386 616.886C191.262 617.919 197.201 618.56 203.167 618.801C216.637 618.626 229.645 620.719 243.062 621.558C256.553 622.409 270.113 621.755 283.631 622.242C298.132 622.769 312.634 623.608 327.181 623.076C344.484 622.437 361.712 620.565 379.015 619.995C387.092 619.728 395.076 619.574 403.153 620.06C411.369 620.547 419.011 618.474 427.18 618.34C442.808 618.056 458.434 617.942 474.012 617.205C488.566 616.48 506.786 615.862 520.762 611.19L520.764 611.184ZM516.115 621.943C516.038 621.728 515.977 621.505 515.933 621.282C515.859 620.717 515.819 620.149 515.819 619.579C515.795 618.728 515.727 617.859 515.655 616.977C510.194 617.97 504.457 618.256 499.043 619.004H499.045C490.768 620.385 482.404 621.236 474.008 621.558C457.396 621.801 439.522 620.965 423.047 622.977C404.186 625.247 385.255 623.772 366.209 625.049C347.509 626.283 328.947 627.583 310.176 627.583C295.492 627.583 280.051 627.583 265.41 626.481C251.94 625.467 237.391 627.119 224.084 624.474C210.385 621.74 196.274 623.836 182.484 620.884C181.703 620.727 181.007 620.575 180.326 620.418C182.07 630.226 207.171 628.648 216.084 629.783C228.726 631.392 241.794 630.776 254.542 630.887C283.48 631.128 312.435 631.171 341.422 631.171C369.739 631.171 397.866 630.267 426.113 628.66C441.235 627.778 456.309 627.315 471.431 626.106C479.624 625.445 487.632 623.484 495.846 623.175C502.358 622.914 509.723 623.529 516.111 621.943L516.115 621.943ZM504.59 607.069C508.463 606.882 512.305 606.322 516.062 605.395C511.083 604.072 505.254 604.622 500.299 604.259C493.576 603.755 486.898 602.96 480.151 602.557C465.604 601.652 451.058 601.675 436.487 601.343C406.344 600.705 376.159 600.023 346.007 600C315.969 599.977 285.959 601.827 255.898 602.159C242.13 602.334 228.365 603.294 214.642 604.561C206.752 605.288 198.979 606.547 191.145 607.604C187.544 608.085 184.034 608.172 180.57 608.618L180.567 608.615C181.211 608.732 181.863 608.813 182.517 608.858C208.423 608.858 234.284 613.966 260.258 614.433C287.77 614.919 315.328 612.651 342.862 612.981C370.346 613.333 398.254 612.563 425.743 611.154C442.883 610.249 460.023 610.647 477.14 609.874C486.314 609.451 495.471 608.349 504.584 607.069L504.59 607.069ZM435.171 774.557C436.353 774.294 436.353 772.705 435.812 771.912C435.445 771.382 434.849 771.448 434.115 771.628V771.63C433.706 772.135 433.102 772.459 432.44 772.533C425.67 773.526 418.72 774.299 411.753 774.937C412.168 776.016 412.74 776.612 414.827 776.612C418.318 776.612 421.667 776.348 425.152 776.044L425.155 776.042C428.527 775.781 431.875 775.284 435.171 774.557L435.171 774.557ZM427.712 768.342C430.168 768.012 425.347 767.44 424.041 767.207V767.209C422.342 767.06 420.685 766.611 419.155 765.886C413.682 762.595 407.123 761.402 400.777 762.537C398.563 762.481 396.397 761.906 394.465 760.862C391.183 759.831 387.702 759.514 384.278 759.937C385.587 760.641 386.869 761.356 388.178 762.01C390.426 763.089 390.175 765.952 393.088 766.482C395.542 766.923 399.558 766.041 400.703 769.104C400.98 769.854 401.209 770.602 401.415 771.329C410.207 770.746 418.993 769.512 427.711 768.344L427.712 768.342ZM402.748 793.492C403.758 793.294 411.614 791.662 411.882 792.564C411.006 790.644 409.822 788.868 408.37 787.299C407.94 787.674 407.463 787.993 406.946 788.247C403.304 789.46 399.486 790.122 395.634 790.205C392.811 790.471 389.945 790.669 387.098 790.801C387.903 792.123 388.528 793.537 388.958 795.009C389.876 794.9 390.795 794.857 391.597 794.769C395.291 794.411 399.125 794.191 402.748 793.492L402.748 793.492ZM402.795 784.59C408.738 784.192 402.336 782.518 400.846 781.372L400.843 781.37C399.568 779.964 398.692 778.263 398.297 776.437C397.035 772.747 397.265 771.721 393.18 770.971C391.64 770.89 390.143 770.426 388.843 769.626C384.85 766.147 381.869 762.443 376.085 761.366V761.363C375.905 761.325 375.737 761.257 375.581 761.166C374.069 761.607 372.483 761.87 371.291 762.202H371.288C366.694 763.102 362.003 763.464 357.316 763.279C358.749 763.781 359.994 764.68 360.894 765.861C362.607 768.577 365.546 770.363 368.837 770.685C370.264 770.939 371.644 771.405 372.921 772.071C375.721 773.439 374.272 777.463 376.317 779.166C378.589 781.082 383.085 782.736 384.346 785.642C384.486 785.952 384.576 786.21 384.668 786.494C390.811 786.258 396.721 785.001 402.795 784.583L402.795 784.59ZM383.842 794.91C383.428 794.059 383.014 793.208 382.626 792.356C380.264 792.711 377.847 792.394 375.67 791.452C373.652 790.679 371.657 789.911 369.66 789.161C369.069 791.148 371.517 791.409 373.079 791.913C375.327 792.62 377.644 793.127 379.895 793.854C381.132 794.249 382.351 794.558 383.613 794.867C383.679 794.872 383.771 794.872 383.842 794.91L383.842 794.91ZM373.055 722.722C377.071 718.995 382.188 716.243 381.57 709.952C381.087 705.059 380.092 700.235 379.572 695.365C379.298 692.788 373.538 688.182 372.14 685.45V685.448C370.765 683.071 369.628 680.573 368.744 677.988C367.182 672.923 369.245 667.017 369.227 661.792C362.408 662.542 353.047 663.094 349.332 663.29C349.424 669.943 350.295 676.534 350.018 683.21C349.722 690.855 345.289 697.709 345.614 705.662V705.664C345.611 713.124 346.479 720.558 348.205 727.833C357.2 727.706 366.472 728.854 373.055 722.707L373.055 722.722ZM379.296 787.989C379.069 787.503 378.813 786.91 378.538 786.185C378.1 785.922 377.691 785.656 377.254 785.39H377.256C376.407 784.906 375.594 784.368 374.823 783.781C372.953 782.6 371.596 780.803 371.011 778.728C370.346 774.694 365.414 775.247 362.2 774.233C360.111 773.595 359.398 771.722 358.319 770.113C356.208 766.992 351.87 766.346 348.566 764.98H348.569C348.313 764.873 348.081 764.724 347.88 764.539C348.556 768.841 348.688 773.207 348.274 777.54C352.287 778.531 356.121 780.183 360.094 781.351C363.936 782.486 367.778 783.598 371.569 784.921C374.179 785.853 376.657 787.107 379.285 787.969L379.296 787.989ZM373.792 756.834C374.599 756.456 375.367 756.005 376.085 755.489C374.607 755.377 373.19 754.865 372 754.014C369.201 754.366 350.039 757.893 350.015 758.973H350.018C350.018 759.211 349.989 759.446 349.926 759.677C350.018 759.654 350.113 759.608 350.221 759.588C351.699 759.368 353.113 759.145 354.604 759.038C359.192 758.988 363.775 758.671 368.327 758.091C370.19 757.728 371.952 757.232 373.791 756.834H373.792ZM372.85 733.675C376.13 732.201 376.773 730.46 374.871 728.522C374.335 729.054 373.734 729.52 373.079 729.91C367.069 733.632 354.264 732.112 347.723 732.246V732.244C347.604 732.236 347.485 732.218 347.369 732.188C347.05 732.401 346.678 732.522 346.29 732.54C340.015 732.943 333.767 731.456 328.413 728.283L328.39 728.306C324.054 731.742 338.371 735.069 339.028 735.183C341.767 735.776 344.556 736.136 347.361 736.26C347.767 736.169 348.195 736.176 348.598 736.283C349.641 736.275 350.683 736.217 351.72 736.108C355.857 735.687 359.936 734.897 364.039 734.453C366.976 734.119 369.91 733.853 372.85 733.676L372.85 733.675ZM371.818 635.768C363.81 635.834 355.826 635.834 347.839 635.811C348.221 639.845 348.374 643.899 348.298 647.951C348.298 651.235 349.651 655.002 349.446 658.134C349.424 658.418 349.424 658.684 349.424 658.947H349.422C356.488 658.879 363.536 658.296 370.51 657.207C370.921 650.317 370.003 642.45 371.818 635.776L371.818 635.768ZM368.995 750.041C368.232 746.23 368.214 742.318 368.942 738.502C363.182 738.966 357.514 739.954 351.755 740.506C351.317 740.552 350.868 740.552 350.422 740.597C350.873 744.872 350.937 749.177 350.609 753.464C350.601 753.53 350.586 753.598 350.562 753.662C352.971 753.466 355.367 753.15 357.741 752.714C361.425 751.576 365.185 750.684 368.995 750.048L368.995 750.041ZM346.023 752.815C346.276 748.769 346.208 744.712 345.817 740.676C342.313 740.584 338.833 740.098 335.447 739.219C335.812 741.253 335.703 743.336 335.126 745.323C334.767 746.552 334.141 747.694 333.289 748.672C333.165 748.791 333.028 748.895 332.877 748.981C333.614 749.245 334.302 749.508 334.851 749.709C338.474 751.057 342.212 752.101 346.023 752.825L346.023 752.815ZM344.741 658.904C344.891 651.173 344.398 643.445 343.263 635.79L330.389 635.725H330.392C330.45 635.844 330.49 635.97 330.505 636.1C330.732 639.693 331.687 643.24 331.928 646.853V646.85C332.168 650.684 332.12 654.528 331.788 658.354C336.115 658.062 340.461 658.25 344.741 658.911L344.741 658.904ZM343.501 690.193C346.279 680.894 344.052 672.599 344.535 663.287V663.29C341.042 662.788 337.511 662.545 333.978 662.563C339.073 672.125 335.081 685.103 326.408 691.934C320.168 696.827 321.197 710.026 323.629 717.191C325.946 724.134 336.228 727.572 343.548 728.056C340.057 715.664 340.041 702.604 343.5 690.204L343.501 690.193ZM342.677 758.191C343.86 758.759 344.604 758.105 345.086 757.089L345.084 757.092C340.173 756.005 335.339 754.629 330.603 752.972C329.661 752.708 324.476 753.412 327.352 753.722V753.719C328.12 753.782 328.869 753.985 329.558 754.317C331.753 754.71 333.909 755.285 336.002 756.032C338.263 756.648 340.49 757.37 342.674 758.201L342.677 758.191ZM340.572 777.967C344.245 777.569 343.991 769.948 343.527 765.562C338.857 767.249 333.922 768.172 328.933 768.296C322.875 768.362 318.999 770.609 313.63 772.656C312.255 772.748 310.875 772.613 309.545 772.259C304.909 771.597 302.798 774.681 300.207 777.174C296.49 780.742 290.315 780.481 287.105 784.005C289.329 781.583 296.693 782.241 300.434 781.823C307.619 781.033 314.844 779.817 322.052 779.51C328.266 779.267 334.366 778.628 340.573 777.967L340.572 777.967ZM322.01 755.029C321.986 754.831 321.939 754.654 321.917 754.461H321.92C317.83 753.904 313.674 753.998 309.619 754.745C307.899 755.232 307.028 756.818 305.743 757.867C305.817 757.971 305.888 758.082 305.949 758.196C306.474 757.978 306.935 757.778 307.255 757.669V757.667C312.046 756.24 316.996 755.353 322.002 755.029H322.01ZM306.191 785.825C298.985 786.615 291.782 787.365 284.576 788.004C284.241 788.019 283.906 787.943 283.613 787.786C282.602 788.637 281.663 789.489 280.676 790.297C287.009 790.082 302.474 788.612 306.191 785.825L306.191 785.825ZM279.275 786.066C279.621 785.668 279.964 785.316 280.309 784.963C276.958 783.506 273.562 782.207 270.212 780.821C268.834 782.278 267.964 784.059 265.945 784.895V784.897C265.689 785.014 265.43 785.118 265.164 785.207C265.547 785.343 265.913 785.513 266.267 785.711C270.19 788.039 275.674 790.021 279.275 786.055L279.275 786.066Z" fill="#FFD53F"/>
</g>
<path d="M319 601.5L321 605.5L328 606.5L335 606L337.5 604L338 599.5L319.5 599L319 601.5Z" fill="#F6F9FF"/>
<path d="M314.5 566.5L317 565L328 564.5L337.5 565L342 566L339.5 578.5L317 579L314.5 566.5Z" fill="#F6F9FF"/>
<path d="M326.946 558.871C326.683 557.85 326.781 556.97 327.42 556.108C327.766 555.639 328.566 556.091 328.215 556.565C326.726 558.577 329.573 560.697 327.984 562.787C327.632 563.25 326.833 562.798 327.189 562.329C328.089 561.145 327.262 560.091 326.946 558.871ZM323.633 563.05C323.94 563.551 324.737 563.094 324.428 562.592C323.694 561.394 325.303 560.579 325.625 559.462C326.029 558.068 324.512 556.796 324.49 555.44C324.481 554.854 323.56 554.853 323.569 555.44C323.596 557.168 325.492 558.643 324.135 560.206C323.334 561.129 322.944 561.926 323.633 563.05ZM355.169 601.129C354.882 601.388 354.347 601.484 353.992 601.597C353.606 601.719 353.684 602.086 353.476 602.746C353.241 603.494 352.496 604.512 351.664 604.718C348.958 605.387 347.034 602.561 345.801 600.564C343.787 597.303 342.318 593.742 340.972 590.172C340.666 589.359 340.063 586.876 339.873 584.409C339.685 586.006 339.493 587.599 339.276 589.188C339.265 589.265 339.239 589.324 339.205 589.374C338.645 593.155 339.05 597.004 338.28 600.766C338.258 600.873 338.204 600.943 338.141 600.997C337.898 602.314 338.045 604.098 337.175 605.054C335.863 606.5 333.512 607.407 331.661 607.5C328.245 607.672 319.632 607.904 318.964 603.043C318.113 596.862 317.49 590.687 316.88 584.479C316.76 583.26 316.572 582.045 316.359 580.831C316.297 580.517 316.246 580.203 316.195 579.886C315.367 575.492 314.203 571.117 314 566.674C313.999 566.633 314.01 566.601 314.018 566.566C314.019 566.561 314.017 566.558 314.018 566.553C314.019 566.548 314.022 566.543 314.022 566.538C314.03 566.509 314.038 566.481 314.051 566.454C314.603 564.126 321.225 564.146 323 564C326.614 563.703 330.374 563.475 334 563.5C336.189 563.515 339.339 563.889 341.331 565.026C342.417 565.644 342.651 566.157 342.374 566.581C342.392 566.645 342.397 566.716 342.381 566.795C341.885 569.157 341.499 571.539 341.162 573.931C341.265 574.802 341.118 575.686 340.931 576.57C340.72 577.569 340.584 578.575 340.465 579.584C340.842 578.922 341.408 578.516 342.232 578.526C342.985 578.474 344.707 578.582 345.252 579.419C346.101 579.112 347.165 578.698 347.976 579.133C349.175 579.773 349.988 580.979 350.651 582.122C352.523 585.353 353.83 588.979 354.966 592.518C355.549 594.331 355.808 595.958 355.945 597.843C356.028 599.069 356.153 600.242 355.169 601.129ZM315.075 566.491C317.475 567.698 320.24 567.584 322.877 567.584H331.661C334.354 567.584 337.043 567.377 339.692 566.88C340.225 566.781 342.556 566.53 340.865 565.809C339.974 565.429 338.989 565.273 338.029 565.196C333.416 564.828 328.74 564.646 324.135 565.026C322.925 565.125 316.21 565.295 315.075 566.491ZM337.468 600.058C335.55 601.466 332.182 601.345 329.942 601.614C326.547 602.024 323.846 601.888 320.553 600.888C320.053 600.736 319.677 600.506 319.386 600.225C319.497 601.326 319.653 602.41 319.965 603.32C320.952 606.196 325.87 605.984 328.418 605.98C330.302 605.977 336.094 606.437 336.709 604.011C337.033 602.738 336.959 601.459 337.389 600.197C337.408 600.144 337.436 600.105 337.465 600.067C337.467 600.064 337.468 600.061 337.468 600.058ZM340.43 572.558C340.694 570.786 340.998 569.02 341.351 567.263C339.448 568.039 336.091 568.925 335 569C330.969 569.275 326.915 569 322.877 569C320.204 569 317.451 568.562 314.996 567.46C315.154 569.196 315.517 570.895 315.851 572.605C317.768 572.88 319.619 573.602 321.551 573.718C323.69 573.847 325.835 573.897 327.977 573.937C332.169 574.015 336.379 574.16 340.335 572.569C340.367 572.558 340.398 572.561 340.43 572.558ZM352.671 594.772C352.225 593.888 351.778 593.004 351.537 592.04C351.395 591.471 350.506 591.713 350.648 592.281C350.909 593.319 351.396 594.279 351.876 595.23C352.141 595.754 352.936 595.294 352.671 594.772ZM330.812 562.557C330.697 561.179 330.143 560.072 330.544 558.666C330.833 557.654 331.218 556.768 331.273 555.702C331.302 555.116 330.381 555.119 330.351 555.702C330.287 556.961 329.703 558.055 329.447 559.273C329.21 560.399 329.799 561.45 329.891 562.557C329.939 563.135 330.861 563.141 330.812 562.557Z" fill="#ED5153"/>
<circle cx="5" cy="5" r="5" transform="matrix(-1 0 0 1 499 501)" fill="#FFD53F"/>
<circle cx="2.5" cy="2.5" r="2.5" transform="matrix(-1 0 0 1 405 434)" fill="#FFD53F"/>
<circle cx="1" cy="1" r="1" transform="matrix(-1 0 0 1 348 474)" fill="#FFD53F"/>
<circle cx="3.5" cy="3.5" r="3.5" transform="matrix(-1 0 0 1 291 414)" fill="#FFD53F"/>
<circle cx="4" cy="4" r="4" transform="matrix(-1 0 0 1 164 439)" fill="#FFD53F"/>
<circle cx="2" cy="2" r="2" transform="matrix(-1 0 0 1 172 567)" fill="#FFD53F"/>
<circle cx="3" cy="3" r="3" transform="matrix(-1 0 0 1 489 407)" fill="#FFD53F"/>
<circle cx="1.5" cy="1.5" r="1.5" transform="matrix(-1 0 0 1 336 366)" fill="#FFD53F"/>
</g>
<defs>
<filter id="filter0_f_41_273" x="520" y="-61" width="198" height="232" filterUnits="userSpaceOnUse" color-interpolation-filters="sRGB">
<feFlood flood-opacity="0" result="BackgroundImageFix"/>
<feBlend mode="normal" in="SourceGraphic" in2="BackgroundImageFix" result="shape"/>
<feGaussianBlur stdDeviation="2" result="effect1_foregroundBlur_41_273"/>
</filter>
<filter id="filter1_f_41_273" x="-29.0651" y="657.59" width="173.205" height="168.926" filterUnits="userSpaceOnUse" color-interpolation-filters="sRGB">
<feFlood flood-opacity="0" result="BackgroundImageFix"/>
<feBlend mode="normal" in="SourceGraphic" in2="BackgroundImageFix" result="shape"/>
<feGaussianBlur stdDeviation="2" result="effect1_foregroundBlur_41_273"/>
</filter>
<filter id="filter2_f_41_273" x="-86.7995" y="290.872" width="224.315" height="211.222" filterUnits="userSpaceOnUse" color-interpolation-filters="sRGB">
<feFlood flood-opacity="0" result="BackgroundImageFix"/>
<feBlend mode="normal" in="SourceGraphic" in2="BackgroundImageFix" result="shape"/>
<feGaussianBlur stdDeviation="2" result="effect1_foregroundBlur_41_273"/>
</filter>
<filter id="filter3_f_41_273" x="580.856" y="584.732" width="54.0853" height="56.7247" filterUnits="userSpaceOnUse" color-interpolation-filters="sRGB">
<feFlood flood-opacity="0" result="BackgroundImageFix"/>
<feBlend mode="normal" in="SourceGraphic" in2="BackgroundImageFix" result="shape"/>
<feGaussianBlur stdDeviation="2" result="effect1_foregroundBlur_41_273"/>
</filter>
<filter id="filter4_f_41_273" x="-18.976" y="-41.887" width="167.001" height="204.287" filterUnits="userSpaceOnUse" color-interpolation-filters="sRGB">
<feFlood flood-opacity="0" result="BackgroundImageFix"/>
<feBlend mode="normal" in="SourceGraphic" in2="BackgroundImageFix" result="shape"/>
<feGaussianBlur stdDeviation="2" result="effect1_foregroundBlur_41_273"/>
</filter>
<filter id="filter5_f_41_273" x="124.489" y="722.657" width="40.2163" height="47.7711" filterUnits="userSpaceOnUse" color-interpolation-filters="sRGB">
<feFlood flood-opacity="0" result="BackgroundImageFix"/>
<feBlend mode="normal" in="SourceGraphic" in2="BackgroundImageFix" result="shape"/>
<feGaussianBlur stdDeviation="2" result="effect1_foregroundBlur_41_273"/>
</filter>
<filter id="filter6_f_41_273" x="543.374" y="659.506" width="171.843" height="169.47" filterUnits="userSpaceOnUse" color-interpolation-filters="sRGB">
<feFlood flood-opacity="0" result="BackgroundImageFix"/>
<feBlend mode="normal" in="SourceGraphic" in2="BackgroundImageFix" result="shape"/>
<feGaussianBlur stdDeviation="2" result="effect1_foregroundBlur_41_273"/>
</filter>
<filter id="filter7_f_41_273" x="581" y="197" width="61" height="54" filterUnits="userSpaceOnUse" color-interpolation-filters="sRGB">
<feFlood flood-opacity="0" result="BackgroundImageFix"/>
<feBlend mode="normal" in="SourceGraphic" in2="BackgroundImageFix" result="shape"/>
<feGaussianBlur stdDeviation="2" result="effect1_foregroundBlur_41_273"/>
</filter>
<clipPath id="clip0_41_273">
<rect width="686" height="780" fill="white"/>
</clipPath>
<clipPath id="clip1_41_273">
<rect width="345" height="32" fill="white" transform="translate(176 600)"/>
</clipPath>
</defs>
</svg>
