<svg width="517" height="28" viewBox="0 0 517 28" fill="none" xmlns="http://www.w3.org/2000/svg">
<path d="M0 14L296 13.5" stroke="#F6F9FF" stroke-opacity="0.8"/>
<line x1="415" y1="13.5" x2="517" y2="13.5" stroke="#F6F9FF" stroke-opacity="0.8"/>
<path d="M311.944 18.712C312.968 18.76 314.024 18.768 315.112 18.736V18.784C315.144 19.296 315.152 19.832 315.136 20.392C315.12 20.936 315.048 21.448 314.92 21.928C313.288 21.912 311.624 21.936 309.928 22C308.248 22.048 306.632 22.008 305.08 21.88C305.08 20.488 305.064 19.112 305.032 17.752C305 16.376 304.976 15.008 304.96 13.648C304.944 12.288 304.944 10.928 304.96 9.568C304.976 8.208 305.024 6.84 305.104 5.464C305.728 5.432 306.4 5.408 307.12 5.392C307.856 5.36 308.592 5.336 309.328 5.32C310.064 5.304 310.776 5.288 311.464 5.272C312.152 5.256 312.76 5.248 313.288 5.248C313.816 5.248 314.24 5.256 314.56 5.272C314.88 5.288 315.04 5.304 315.04 5.32C315.12 5.88 315.136 6.448 315.088 7.024C315.056 7.6 315.04 8.168 315.04 8.728V8.752C314.528 8.864 314.008 8.936 313.48 8.968C312.968 8.984 312.448 8.992 311.92 8.992C311.392 8.976 310.864 8.968 310.336 8.968C309.808 8.968 309.28 8.992 308.752 9.04H308.68L308.656 9.064C308.672 9.528 308.648 10.008 308.584 10.504C308.536 10.984 308.568 11.44 308.68 11.872L308.704 11.896C309.184 11.928 309.672 11.944 310.168 11.944C310.664 11.944 311.16 11.952 311.656 11.968V11.992C311.736 12.536 311.76 13.08 311.728 13.624C311.696 14.168 311.688 14.736 311.704 15.328C311.464 15.392 311.192 15.432 310.888 15.448C310.584 15.448 310.288 15.448 310 15.448C309.728 15.448 309.48 15.456 309.256 15.472C309.032 15.488 308.88 15.528 308.8 15.592C308.72 16.056 308.688 16.576 308.704 17.152C308.736 17.728 308.768 18.208 308.8 18.592L308.824 18.616C309.88 18.616 310.92 18.648 311.944 18.712ZM322.377 6.136C322.393 5.96 322.409 5.712 322.425 5.392V5.128C322.425 5.112 322.529 5.096 322.737 5.08C322.961 5.048 323.225 5.032 323.529 5.032C323.849 5.016 324.185 5.016 324.537 5.032C324.889 5.032 325.193 5.056 325.449 5.104V6.688C325.449 9.36 325.489 12 325.569 14.608C325.649 17.216 325.657 19.672 325.593 21.976C325.097 21.976 324.553 21.984 323.961 22C323.369 22.032 322.833 22.016 322.353 21.952C322.337 21.92 322.329 21.864 322.329 21.784C322.329 21.624 322.321 21.496 322.305 21.4C322.305 21.304 322.305 21.168 322.305 20.992C322.273 20.912 322.233 20.856 322.185 20.824C322.153 20.776 322.113 20.8 322.065 20.896C321.825 21.376 321.505 21.688 321.105 21.832C320.705 21.96 320.281 21.992 319.833 21.928C318.921 21.864 318.201 21.632 317.673 21.232C317.145 20.816 316.745 20.296 316.473 19.672C316.217 19.032 316.041 18.32 315.945 17.536C315.865 16.752 315.817 15.96 315.801 15.16C315.801 14.6 315.833 14.056 315.897 13.528C315.977 13 316.089 12.52 316.233 12.088C316.393 11.64 316.593 11.264 316.833 10.96C317.089 10.64 317.393 10.416 317.745 10.288C318.177 10.128 318.649 10.032 319.161 10C319.689 9.952 320.185 9.952 320.649 10C321.113 10.032 321.505 10.104 321.825 10.216C322.145 10.328 322.321 10.456 322.353 10.6C322.337 9.848 322.329 9.24 322.329 8.776C322.329 8.312 322.329 7.944 322.329 7.672C322.329 7.384 322.329 7.168 322.329 7.024C322.345 6.864 322.353 6.72 322.353 6.592C322.369 6.448 322.377 6.296 322.377 6.136ZM319.401 13.168C319.017 13.456 318.785 13.88 318.705 14.44C318.625 14.664 318.577 14.896 318.561 15.136C318.545 15.376 318.537 15.608 318.537 15.832C318.537 16.232 318.585 16.624 318.681 17.008C318.777 17.376 318.921 17.712 319.113 18.016C319.305 18.304 319.537 18.536 319.809 18.712C320.081 18.888 320.385 18.976 320.721 18.976C321.121 18.976 321.433 18.888 321.657 18.712C321.897 18.536 322.073 18.296 322.185 17.992C322.313 17.688 322.385 17.328 322.401 16.912C322.433 16.48 322.449 16.008 322.449 15.496C322.449 14.872 322.433 14.384 322.401 14.032C322.385 13.664 322.329 13.384 322.233 13.192C322.137 13 321.985 12.88 321.777 12.832C321.585 12.768 321.321 12.736 320.985 12.736C320.329 12.736 319.801 12.88 319.401 13.168ZM328.878 9.928C329.246 9.944 329.686 9.944 330.198 9.928H330.606V10C330.59 11.936 330.55 13.912 330.486 15.928C330.438 17.944 330.47 19.92 330.582 21.856C330.502 21.952 330.302 22 329.982 22C329.662 22.016 329.31 22.016 328.926 22C328.558 22 328.206 21.992 327.87 21.976C327.534 21.96 327.31 21.968 327.198 22C327.278 20.992 327.31 19.968 327.294 18.928C327.294 17.888 327.278 16.856 327.246 15.832C327.214 14.808 327.198 13.8 327.198 12.808C327.198 11.8 327.246 10.824 327.342 9.88V9.856C327.406 9.84 327.51 9.84 327.654 9.856C327.814 9.872 327.934 9.88 328.014 9.88C328.222 9.896 328.51 9.912 328.878 9.928ZM327.27 6.568C327.238 6.056 327.23 5.432 327.246 4.696L330.51 4.768C330.51 4.864 330.51 5.04 330.51 5.296C330.526 5.536 330.534 5.808 330.534 6.112C330.55 6.4 330.558 6.704 330.558 7.024C330.574 7.328 330.582 7.6 330.582 7.84C330.518 7.936 330.366 8 330.126 8.032C329.902 8.064 329.63 8.08 329.31 8.08C329.006 8.064 328.678 8.048 328.326 8.032C327.974 8 327.646 7.992 327.342 8.008C327.342 7.544 327.318 7.064 327.27 6.568ZM335.719 5.608C335.991 5.624 336.263 5.616 336.535 5.584V8.8C336.535 9.008 336.535 9.224 336.535 9.448C336.551 9.672 336.559 9.904 336.559 10.144C337.055 10.128 337.575 10.104 338.119 10.072C338.679 10.04 339.367 10 340.183 9.952C340.295 10.08 340.359 10.272 340.375 10.528C340.391 10.768 340.391 11.032 340.375 11.32C340.359 11.608 340.335 11.904 340.303 12.208C340.287 12.496 340.295 12.744 340.327 12.952H336.607C336.607 13.816 336.607 14.664 336.607 15.496C336.607 16.312 336.615 17.08 336.631 17.8C336.791 18.024 337.023 18.2 337.327 18.328C337.631 18.456 337.959 18.56 338.311 18.64C338.663 18.704 339.015 18.744 339.367 18.76C339.735 18.776 340.055 18.776 340.327 18.76C340.359 18.984 340.391 19.232 340.423 19.504C340.455 19.776 340.479 20.056 340.495 20.344C340.511 20.632 340.503 20.92 340.471 21.208C340.455 21.496 340.407 21.76 340.327 22C339.687 22.032 339.023 22.032 338.335 22C337.647 21.952 336.999 21.856 336.391 21.712C335.783 21.568 335.239 21.352 334.759 21.064C334.295 20.776 333.959 20.384 333.751 19.888C333.543 18.656 333.423 17.496 333.391 16.408C333.359 15.304 333.351 14.168 333.367 13C333.111 13.016 332.839 13.024 332.551 13.024C332.279 13.024 331.975 13.024 331.639 13.024L331.711 10.096C332.031 10.112 332.327 10.12 332.599 10.12C332.887 10.12 333.159 10.12 333.415 10.12C333.415 9.768 333.407 9.392 333.391 8.992C333.375 8.576 333.367 8.16 333.367 7.744C333.367 7.328 333.367 6.928 333.367 6.544C333.383 6.16 333.407 5.816 333.439 5.512C333.647 5.48 333.871 5.472 334.111 5.488C334.367 5.504 334.631 5.528 334.903 5.56C335.175 5.576 335.447 5.592 335.719 5.608ZM356.453 7.888C356.821 8.528 357.029 9.304 357.077 10.216V10.24C357.077 10.352 357.077 10.464 357.077 10.576C357.077 10.672 357.069 10.768 357.053 10.864C356.957 11.632 356.701 12.336 356.285 12.976C355.885 13.616 355.381 14.16 354.773 14.608C354.165 15.056 353.493 15.384 352.757 15.592C352.021 15.784 351.269 15.816 350.501 15.688C350.517 15.912 350.525 16.136 350.525 16.36C350.525 16.568 350.525 16.88 350.525 17.296C350.525 17.696 350.525 18.24 350.525 18.928C350.541 19.616 350.565 20.544 350.597 21.712V21.736C350.581 21.736 350.565 21.744 350.549 21.76C350.549 21.76 350.541 21.76 350.525 21.76C350.301 21.824 350.013 21.872 349.661 21.904C349.325 21.92 348.965 21.936 348.581 21.952C348.213 21.952 347.845 21.944 347.477 21.928C347.109 21.912 346.789 21.888 346.517 21.856C346.469 20.688 346.445 19.424 346.445 18.064C346.445 16.688 346.445 15.28 346.445 13.84C346.445 12.4 346.437 10.952 346.421 9.496C346.421 8.04 346.397 6.648 346.349 5.32C347.005 5.144 347.717 5.016 348.485 4.936C349.269 4.856 350.045 4.848 350.813 4.912C351.597 4.976 352.357 5.12 353.093 5.344C353.829 5.552 354.477 5.872 355.037 6.304C355.613 6.72 356.085 7.248 356.453 7.888ZM353.357 9.688C353.245 9.496 353.085 9.336 352.877 9.208C352.477 8.888 352.013 8.688 351.485 8.608C350.957 8.512 350.437 8.528 349.925 8.656C349.893 8.656 349.869 8.664 349.853 8.68C349.869 8.968 349.869 9.272 349.853 9.592C349.853 9.912 349.853 10.232 349.853 10.552C349.869 10.872 349.885 11.184 349.901 11.488C349.933 11.776 349.989 12.04 350.069 12.28H350.141C350.397 12.264 350.669 12.256 350.957 12.256C351.245 12.24 351.525 12.216 351.797 12.184C352.085 12.152 352.357 12.096 352.613 12.016C352.885 11.92 353.117 11.776 353.309 11.584C353.437 11.408 353.525 11.208 353.573 10.984C353.637 10.76 353.645 10.536 353.597 10.312C353.565 10.088 353.485 9.88 353.357 9.688ZM361.519 10.6C361.535 10.648 361.543 10.728 361.543 10.84C361.607 10.808 361.751 10.744 361.975 10.648C362.215 10.552 362.447 10.464 362.671 10.384C362.975 10.288 363.319 10.216 363.703 10.168C364.087 10.104 364.447 10.064 364.783 10.048C365.119 10.032 365.399 10.032 365.623 10.048C365.863 10.048 365.983 10.056 365.983 10.072C365.983 10.616 365.975 11.096 365.959 11.512C365.959 11.928 365.959 12.304 365.959 12.64C365.959 12.96 365.959 13.256 365.959 13.528C365.959 13.8 365.967 14.056 365.983 14.296L365.767 14.224C365.687 14.192 365.599 14.168 365.503 14.152C365.423 14.12 365.343 14.088 365.263 14.056C365.071 14.008 364.871 13.968 364.663 13.936C364.471 13.904 364.367 13.888 364.351 13.888C363.919 13.84 363.519 13.816 363.151 13.816C362.799 13.816 362.487 13.872 362.215 13.984C361.959 14.096 361.759 14.272 361.615 14.512C361.471 14.752 361.407 15.096 361.423 15.544C361.439 16.104 361.455 16.632 361.471 17.128C361.487 17.624 361.495 18.128 361.495 18.64C361.495 19.136 361.495 19.648 361.495 20.176C361.511 20.688 361.519 21.24 361.519 21.832V21.928C361.247 22.008 360.999 22.056 360.775 22.072C360.551 22.088 360.319 22.088 360.079 22.072C359.839 22.072 359.575 22.064 359.287 22.048C359.015 22.032 358.687 22.04 358.303 22.072C358.303 20.104 358.279 18.136 358.231 16.168C358.199 14.2 358.215 12.16 358.279 10.048C358.471 10.064 358.631 10.08 358.759 10.096C358.887 10.096 359.007 10.096 359.119 10.096C359.231 10.096 359.351 10.096 359.479 10.096C359.607 10.08 359.767 10.064 359.959 10.048C360.023 10.048 360.135 10.04 360.295 10.024C360.471 10.008 360.647 9.992 360.823 9.976C361.015 9.96 361.175 9.96 361.303 9.976C361.447 9.976 361.519 9.992 361.519 10.024C361.519 10.152 361.519 10.248 361.519 10.312C361.519 10.376 361.519 10.432 361.519 10.48C361.519 10.512 361.519 10.552 361.519 10.6ZM367.091 11.776C367.187 11.472 367.259 11.232 367.307 11.056C367.419 10.816 367.595 10.608 367.835 10.432C368.091 10.256 368.379 10.112 368.699 10C369.035 9.872 369.387 9.784 369.755 9.736C370.139 9.688 370.523 9.664 370.907 9.664C371.227 9.696 371.531 9.704 371.819 9.688C372.123 9.656 372.443 9.656 372.779 9.688C373.291 9.72 373.779 9.824 374.243 10C374.707 10.16 375.107 10.4 375.443 10.72C375.667 10.864 375.843 11.096 375.971 11.416C376.099 11.736 376.195 12.112 376.259 12.544C376.323 12.96 376.363 13.424 376.379 13.936C376.395 14.432 376.411 14.944 376.427 15.472C376.411 15.936 376.387 16.464 376.355 17.056C376.339 17.648 376.299 18.216 376.235 18.76C376.187 19.304 376.115 19.792 376.019 20.224C375.939 20.656 375.819 20.952 375.659 21.112C375.387 21.496 375.027 21.768 374.579 21.928C374.147 22.088 373.675 22.184 373.163 22.216C372.651 22.264 372.123 22.264 371.579 22.216C371.035 22.184 370.539 22.168 370.091 22.168C369.275 22.024 368.587 21.672 368.027 21.112C367.595 20.728 367.299 20.248 367.139 19.672C366.979 19.096 366.883 18.496 366.851 17.872C366.819 17.232 366.811 16.592 366.827 15.952C366.859 15.312 366.851 14.728 366.803 14.2C366.803 13.912 366.811 13.632 366.827 13.36C366.843 13.072 366.875 12.776 366.923 12.472C366.939 12.296 366.995 12.064 367.091 11.776ZM371.123 13.36C370.787 13.456 370.515 13.632 370.307 13.888C370.211 13.952 370.139 14.112 370.091 14.368C370.027 14.88 369.995 15.392 369.995 15.904C369.995 16.4 369.979 16.928 369.947 17.488C369.931 17.856 370.027 18.144 370.235 18.352C370.443 18.544 370.691 18.68 370.979 18.76C371.283 18.824 371.595 18.84 371.915 18.808C372.235 18.76 372.499 18.68 372.707 18.568C372.979 18.44 373.163 18.176 373.259 17.776C373.323 17.264 373.371 16.752 373.403 16.24C373.451 15.712 373.427 15.216 373.331 14.752C373.251 14.192 373.019 13.784 372.635 13.528C372.251 13.272 371.747 13.216 371.123 13.36ZM382.168 13.456V18.688V21.904C381.896 21.872 381.624 21.864 381.352 21.88C381.08 21.896 380.808 21.92 380.536 21.952C380.264 21.968 380 21.984 379.744 22C379.504 22.016 379.28 22.008 379.072 21.976C379.04 21.784 379.016 21.472 379 21.04C379 20.592 378.992 20.096 378.976 19.552C378.976 18.992 378.976 18.408 378.976 17.8C378.976 17.192 378.976 16.608 378.976 16.048C378.992 15.472 379 14.96 379 14.512C379.016 14.064 379.024 13.72 379.024 13.48C378.768 13.48 378.496 13.48 378.208 13.48C377.936 13.48 377.64 13.488 377.32 13.504L377.248 10.576C377.584 10.576 377.888 10.576 378.16 10.576C378.448 10.576 378.72 10.584 378.976 10.6C378.944 10.2 378.952 9.768 379 9.304C379.048 8.84 379.16 8.392 379.336 7.96C379.528 7.512 379.792 7.112 380.128 6.76C380.464 6.392 380.904 6.12 381.448 5.944C382.12 5.72 382.848 5.584 383.632 5.536C384.432 5.472 385.208 5.456 385.96 5.488C386.04 5.728 386.088 5.992 386.104 6.28C386.136 6.568 386.144 6.856 386.128 7.144C386.112 7.432 386.088 7.712 386.056 7.984C386.024 8.256 385.992 8.504 385.96 8.728C385.768 8.712 385.544 8.712 385.288 8.728C385.048 8.744 384.792 8.768 384.52 8.8C384.248 8.832 383.976 8.872 383.704 8.92C383.432 8.952 383.184 8.984 382.96 9.016C382.592 9.08 382.36 9.272 382.264 9.592C382.184 9.896 382.184 10.248 382.264 10.648H385.936C385.904 10.824 385.896 11 385.912 11.176C385.928 11.336 385.928 11.528 385.912 11.752C385.912 11.928 385.912 12.072 385.912 12.184C385.912 12.28 385.904 12.384 385.888 12.496C385.888 12.608 385.88 12.752 385.864 12.928C385.848 13.104 385.824 13.344 385.792 13.648C384.976 13.6 384.288 13.56 383.728 13.528C383.184 13.496 382.664 13.472 382.168 13.456ZM388.55 9.928C388.918 9.944 389.358 9.944 389.87 9.928H390.278V10C390.262 11.936 390.222 13.912 390.158 15.928C390.11 17.944 390.142 19.92 390.254 21.856C390.174 21.952 389.974 22 389.654 22C389.334 22.016 388.982 22.016 388.598 22C388.23 22 387.878 21.992 387.542 21.976C387.206 21.96 386.982 21.968 386.87 22C386.95 20.992 386.982 19.968 386.966 18.928C386.966 17.888 386.95 16.856 386.918 15.832C386.886 14.808 386.87 13.8 386.87 12.808C386.87 11.8 386.918 10.824 387.014 9.88V9.856C387.078 9.84 387.182 9.84 387.326 9.856C387.486 9.872 387.606 9.88 387.686 9.88C387.894 9.896 388.182 9.912 388.55 9.928ZM386.942 6.568C386.91 6.056 386.902 5.432 386.918 4.696L390.182 4.768C390.182 4.864 390.182 5.04 390.182 5.296C390.198 5.536 390.206 5.808 390.206 6.112C390.222 6.4 390.23 6.704 390.23 7.024C390.246 7.328 390.254 7.6 390.254 7.84C390.19 7.936 390.038 8 389.798 8.032C389.574 8.064 389.302 8.08 388.982 8.08C388.678 8.064 388.35 8.048 387.998 8.032C387.646 8 387.318 7.992 387.014 8.008C387.014 7.544 386.99 7.064 386.942 6.568ZM391.767 8.92C391.767 7.464 391.839 6.008 391.983 4.552L395.247 4.624C395.247 5.28 395.239 6.072 395.223 7C395.207 7.928 395.191 8.92 395.175 9.976C395.159 11.032 395.143 12.128 395.127 13.264C395.127 14.4 395.127 15.496 395.127 16.552C395.127 17.608 395.135 18.6 395.151 19.528C395.167 20.44 395.191 21.216 395.223 21.856C395.143 21.952 394.943 22 394.623 22C394.303 22.016 393.951 22.016 393.567 22C393.199 22 392.847 21.992 392.511 21.976C392.175 21.96 391.951 21.968 391.839 22C391.951 20.56 391.991 19.112 391.959 17.656C391.943 16.2 391.911 14.744 391.863 13.288C391.815 11.832 391.783 10.376 391.767 8.92ZM400.504 16.048C400.152 16.032 399.896 16.008 399.736 15.976V16.408C399.752 16.888 399.768 17.28 399.784 17.584C399.816 17.888 399.92 18.184 400.096 18.472C400.288 18.84 400.56 19.112 400.912 19.288C401.264 19.464 401.608 19.52 401.944 19.456C402.28 19.392 402.56 19.2 402.784 18.88C403.024 18.544 403.128 18.048 403.096 17.392C403.256 17.408 403.472 17.416 403.744 17.416C404.016 17.4 404.296 17.384 404.584 17.368C404.888 17.352 405.176 17.352 405.448 17.368C405.72 17.368 405.944 17.392 406.12 17.44C406.088 17.856 406.056 18.264 406.024 18.664C405.992 19.064 405.952 19.44 405.904 19.792C405.856 20.128 405.792 20.424 405.712 20.68C405.648 20.92 405.56 21.088 405.448 21.184C405.176 21.568 404.824 21.84 404.392 22C403.96 22.16 403.488 22.256 402.976 22.288C402.464 22.32 401.936 22.32 401.392 22.288C400.864 22.256 400.376 22.24 399.928 22.24C399.48 22.176 399.064 22.032 398.68 21.808C398.248 21.504 397.888 21.112 397.6 20.632C397.312 20.136 397.08 19.6 396.904 19.024C396.728 18.432 396.608 17.808 396.544 17.152C396.48 16.496 396.464 15.84 396.496 15.184C396.544 14.592 396.592 14.024 396.64 13.48C396.704 12.92 396.832 12.376 397.024 11.848C397.232 11.384 397.552 10.992 397.984 10.672C398.416 10.336 398.904 10.088 399.448 9.928C399.992 9.752 400.568 9.656 401.176 9.64C401.784 9.624 402.376 9.688 402.952 9.832C403.688 9.96 404.28 10.216 404.728 10.6C405.176 10.984 405.512 11.448 405.736 11.992C405.976 12.536 406.12 13.136 406.168 13.792C406.216 14.448 406.216 15.112 406.168 15.784C406.056 15.816 405.84 15.848 405.52 15.88C405.216 15.912 404.848 15.944 404.416 15.976C404 16.008 403.552 16.032 403.072 16.048C402.592 16.064 402.128 16.072 401.68 16.072C401.248 16.072 400.856 16.064 400.504 16.048ZM403.312 12.904C403.152 12.616 402.928 12.4 402.64 12.256C402.512 12.176 402.384 12.12 402.256 12.088C402.128 12.04 401.976 12.016 401.8 12.016C401.416 12.016 401.104 12.056 400.864 12.136C400.624 12.216 400.432 12.328 400.288 12.472C400.144 12.616 400.032 12.784 399.952 12.976C399.888 13.168 399.84 13.368 399.808 13.576C399.776 13.752 399.76 13.88 399.76 13.96C399.776 14.024 399.856 14.072 400 14.104C400.144 14.12 400.368 14.128 400.672 14.128C400.992 14.112 401.456 14.104 402.064 14.104C402.48 14.104 402.792 14.112 403 14.128C403.208 14.144 403.352 14.152 403.432 14.152C403.528 14.136 403.576 14.112 403.576 14.08C403.576 14.032 403.576 13.944 403.576 13.816C403.576 13.496 403.488 13.192 403.312 12.904Z" fill="white"/>
</svg>
