<svg width="1206" height="28" viewBox="0 0 1206 28" fill="none" xmlns="http://www.w3.org/2000/svg">
<line y1="13.5" x2="985" y2="13.5" stroke="#F6F9FF" stroke-opacity="0.8"/>
<line x1="1104" y1="13.5" x2="1206" y2="13.5" stroke="#F6F9FF" stroke-opacity="0.8"/>
<path d="M1004.11 18.736C1003.02 18.768 1001.97 18.76 1000.94 18.712C999.92 18.648 998.88 18.616 997.824 18.616L997.8 18.592C997.768 18.208 997.736 17.728 997.704 17.152C997.688 16.576 997.72 16.056 997.8 15.592C997.88 15.528 998.032 15.488 998.256 15.472C998.48 15.456 998.728 15.448 999 15.448C999.288 15.448 999.584 15.448 999.888 15.448C1000.19 15.432 1000.46 15.392 1000.7 15.328C1000.69 14.736 1000.7 14.168 1000.73 13.624C1000.76 13.08 1000.74 12.536 1000.66 11.992V11.968C1000.16 11.952 999.664 11.944 999.168 11.944C998.672 11.944 998.184 11.928 997.704 11.896L997.68 11.872C997.568 11.44 997.536 10.984 997.584 10.504C997.648 10.008 997.672 9.528 997.656 9.064L997.68 9.04H997.752C998.28 8.992 998.808 8.968 999.336 8.968C999.864 8.968 1000.39 8.976 1000.92 8.992C1001.45 8.992 1001.97 8.984 1002.48 8.968C1003.01 8.936 1003.53 8.864 1004.04 8.752V8.728C1004.04 8.168 1004.06 7.6 1004.09 7.024C1004.14 6.448 1004.12 5.88 1004.04 5.32C1004.04 5.304 1003.88 5.288 1003.56 5.272C1003.24 5.256 1002.82 5.248 1002.29 5.248C1001.76 5.248 1001.15 5.256 1000.46 5.272C999.776 5.288 999.064 5.304 998.328 5.32C997.592 5.336 996.856 5.36 996.12 5.392C995.4 5.408 994.728 5.432 994.104 5.464C994.024 6.84 993.976 8.208 993.96 9.568C993.944 10.928 993.944 12.288 993.96 13.648C993.976 15.008 994 16.376 994.032 17.752C994.064 19.112 994.08 20.488 994.08 21.88C995.632 22.008 997.248 22.048 998.928 22C1000.62 21.936 1002.29 21.912 1003.92 21.928C1004.05 21.448 1004.12 20.936 1004.14 20.392C1004.15 19.832 1004.14 19.296 1004.11 18.784V18.736ZM1011.42 5.392C1011.41 5.712 1011.39 5.96 1011.38 6.136C1011.38 6.296 1011.37 6.448 1011.35 6.592C1011.35 6.72 1011.34 6.864 1011.33 7.024C1011.33 7.168 1011.33 7.384 1011.33 7.672C1011.33 7.944 1011.33 8.312 1011.33 8.776C1011.33 9.24 1011.34 9.848 1011.35 10.6C1011.32 10.456 1011.14 10.328 1010.82 10.216C1010.5 10.104 1010.11 10.032 1009.65 10C1009.18 9.952 1008.69 9.952 1008.16 10C1007.65 10.032 1007.18 10.128 1006.74 10.288C1006.39 10.416 1006.09 10.64 1005.83 10.96C1005.59 11.264 1005.39 11.64 1005.23 12.088C1005.09 12.52 1004.98 13 1004.9 13.528C1004.83 14.056 1004.8 14.6 1004.8 15.16C1004.82 15.96 1004.86 16.752 1004.94 17.536C1005.04 18.32 1005.22 19.032 1005.47 19.672C1005.74 20.296 1006.14 20.816 1006.67 21.232C1007.2 21.632 1007.92 21.864 1008.83 21.928C1009.28 21.992 1009.7 21.96 1010.1 21.832C1010.5 21.688 1010.82 21.376 1011.06 20.896C1011.11 20.8 1011.15 20.776 1011.18 20.824C1011.23 20.856 1011.27 20.912 1011.3 20.992C1011.3 21.168 1011.3 21.304 1011.3 21.4C1011.32 21.496 1011.33 21.624 1011.33 21.784C1011.33 21.864 1011.34 21.92 1011.35 21.952C1011.83 22.016 1012.37 22.032 1012.96 22C1013.55 21.984 1014.1 21.976 1014.59 21.976C1014.66 19.672 1014.65 17.216 1014.57 14.608C1014.49 12 1014.45 9.36 1014.45 6.688V5.104C1014.19 5.056 1013.89 5.032 1013.54 5.032C1013.18 5.016 1012.85 5.016 1012.53 5.032C1012.22 5.032 1011.96 5.048 1011.74 5.08C1011.53 5.096 1011.42 5.112 1011.42 5.128V5.392ZM1007.7 14.44C1007.78 13.88 1008.02 13.456 1008.4 13.168C1008.8 12.88 1009.33 12.736 1009.98 12.736C1010.32 12.736 1010.58 12.768 1010.78 12.832C1010.98 12.88 1011.14 13 1011.23 13.192C1011.33 13.384 1011.38 13.664 1011.4 14.032C1011.43 14.384 1011.45 14.872 1011.45 15.496C1011.45 16.008 1011.43 16.48 1011.4 16.912C1011.38 17.328 1011.31 17.688 1011.18 17.992C1011.07 18.296 1010.9 18.536 1010.66 18.712C1010.43 18.888 1010.12 18.976 1009.72 18.976C1009.38 18.976 1009.08 18.888 1008.81 18.712C1008.54 18.536 1008.3 18.304 1008.11 18.016C1007.92 17.712 1007.78 17.376 1007.68 17.008C1007.58 16.624 1007.54 16.232 1007.54 15.832C1007.54 15.608 1007.54 15.376 1007.56 15.136C1007.58 14.896 1007.62 14.664 1007.7 14.44ZM1019.2 9.928C1018.69 9.944 1018.25 9.944 1017.88 9.928C1017.51 9.912 1017.22 9.896 1017.01 9.88C1016.93 9.88 1016.81 9.872 1016.65 9.856C1016.51 9.84 1016.41 9.84 1016.34 9.856V9.88C1016.25 10.824 1016.2 11.8 1016.2 12.808C1016.2 13.8 1016.21 14.808 1016.25 15.832C1016.28 16.856 1016.29 17.888 1016.29 18.928C1016.31 19.968 1016.28 20.992 1016.2 22C1016.31 21.968 1016.53 21.96 1016.87 21.976C1017.21 21.992 1017.56 22 1017.93 22C1018.31 22.016 1018.66 22.016 1018.98 22C1019.3 22 1019.5 21.952 1019.58 21.856C1019.47 19.92 1019.44 17.944 1019.49 15.928C1019.55 13.912 1019.59 11.936 1019.61 10V9.928H1019.2ZM1016.25 4.696C1016.23 5.432 1016.24 6.056 1016.27 6.568C1016.32 7.064 1016.34 7.544 1016.34 8.008C1016.65 7.992 1016.97 8 1017.33 8.032C1017.68 8.048 1018.01 8.064 1018.31 8.08C1018.63 8.08 1018.9 8.064 1019.13 8.032C1019.37 8 1019.52 7.936 1019.58 7.84C1019.58 7.6 1019.57 7.328 1019.56 7.024C1019.56 6.704 1019.55 6.4 1019.53 6.112C1019.53 5.808 1019.53 5.536 1019.51 5.296C1019.51 5.04 1019.51 4.864 1019.51 4.768L1016.25 4.696ZM1025.54 5.584C1025.26 5.616 1024.99 5.624 1024.72 5.608C1024.45 5.592 1024.18 5.576 1023.9 5.56C1023.63 5.528 1023.37 5.504 1023.11 5.488C1022.87 5.472 1022.65 5.48 1022.44 5.512C1022.41 5.816 1022.38 6.16 1022.37 6.544C1022.37 6.928 1022.37 7.328 1022.37 7.744C1022.37 8.16 1022.38 8.576 1022.39 8.992C1022.41 9.392 1022.42 9.768 1022.42 10.12C1022.16 10.12 1021.89 10.12 1021.6 10.12C1021.33 10.12 1021.03 10.112 1020.71 10.096L1020.64 13.024C1020.98 13.024 1021.28 13.024 1021.55 13.024C1021.84 13.024 1022.11 13.016 1022.37 13C1022.35 14.168 1022.36 15.304 1022.39 16.408C1022.42 17.496 1022.54 18.656 1022.75 19.888C1022.96 20.384 1023.3 20.776 1023.76 21.064C1024.24 21.352 1024.78 21.568 1025.39 21.712C1026 21.856 1026.65 21.952 1027.34 22C1028.02 22.032 1028.69 22.032 1029.33 22C1029.41 21.76 1029.46 21.496 1029.47 21.208C1029.5 20.92 1029.51 20.632 1029.5 20.344C1029.48 20.056 1029.46 19.776 1029.42 19.504C1029.39 19.232 1029.36 18.984 1029.33 18.76C1029.06 18.776 1028.74 18.776 1028.37 18.76C1028.02 18.744 1027.66 18.704 1027.31 18.64C1026.96 18.56 1026.63 18.456 1026.33 18.328C1026.02 18.2 1025.79 18.024 1025.63 17.8C1025.62 17.08 1025.61 16.312 1025.61 15.496C1025.61 14.664 1025.61 13.816 1025.61 12.952H1029.33C1029.3 12.744 1029.29 12.496 1029.3 12.208C1029.34 11.904 1029.36 11.608 1029.38 11.32C1029.39 11.032 1029.39 10.768 1029.38 10.528C1029.36 10.272 1029.3 10.08 1029.18 9.952C1028.37 10 1027.68 10.04 1027.12 10.072C1026.58 10.104 1026.06 10.128 1025.56 10.144C1025.56 9.904 1025.55 9.672 1025.54 9.448C1025.54 9.224 1025.54 9.008 1025.54 8.8V5.584ZM1046.08 10.216C1046.03 9.304 1045.82 8.528 1045.45 7.888C1045.08 7.248 1044.61 6.72 1044.04 6.304C1043.48 5.872 1042.83 5.552 1042.09 5.344C1041.36 5.12 1040.6 4.976 1039.81 4.912C1039.04 4.848 1038.27 4.856 1037.48 4.936C1036.72 5.016 1036 5.144 1035.35 5.32C1035.4 6.648 1035.42 8.04 1035.42 9.496C1035.44 10.952 1035.44 12.4 1035.44 13.84C1035.44 15.28 1035.44 16.688 1035.44 18.064C1035.44 19.424 1035.47 20.688 1035.52 21.856C1035.79 21.888 1036.11 21.912 1036.48 21.928C1036.84 21.944 1037.21 21.952 1037.58 21.952C1037.96 21.936 1038.32 21.92 1038.66 21.904C1039.01 21.872 1039.3 21.824 1039.52 21.76C1039.54 21.76 1039.55 21.76 1039.55 21.76C1039.56 21.744 1039.58 21.736 1039.6 21.736V21.712C1039.56 20.544 1039.54 19.616 1039.52 18.928C1039.52 18.24 1039.52 17.696 1039.52 17.296C1039.52 16.88 1039.52 16.568 1039.52 16.36C1039.52 16.136 1039.52 15.912 1039.5 15.688C1040.27 15.816 1041.02 15.784 1041.76 15.592C1042.49 15.384 1043.16 15.056 1043.77 14.608C1044.38 14.16 1044.88 13.616 1045.28 12.976C1045.7 12.336 1045.96 11.632 1046.05 10.864C1046.07 10.768 1046.08 10.672 1046.08 10.576C1046.08 10.464 1046.08 10.352 1046.08 10.24V10.216ZM1041.88 9.208C1042.08 9.336 1042.24 9.496 1042.36 9.688C1042.48 9.88 1042.56 10.088 1042.6 10.312C1042.64 10.536 1042.64 10.76 1042.57 10.984C1042.52 11.208 1042.44 11.408 1042.31 11.584C1042.12 11.776 1041.88 11.92 1041.61 12.016C1041.36 12.096 1041.08 12.152 1040.8 12.184C1040.52 12.216 1040.24 12.24 1039.96 12.256C1039.67 12.256 1039.4 12.264 1039.14 12.28H1039.07C1038.99 12.04 1038.93 11.776 1038.9 11.488C1038.88 11.184 1038.87 10.872 1038.85 10.552C1038.85 10.232 1038.85 9.912 1038.85 9.592C1038.87 9.272 1038.87 8.968 1038.85 8.68C1038.87 8.664 1038.89 8.656 1038.92 8.656C1039.44 8.528 1039.96 8.512 1040.48 8.608C1041.01 8.688 1041.48 8.888 1041.88 9.208ZM1050.54 10.84C1050.54 10.728 1050.53 10.648 1050.52 10.6C1050.52 10.552 1050.52 10.512 1050.52 10.48C1050.52 10.432 1050.52 10.376 1050.52 10.312C1050.52 10.248 1050.52 10.152 1050.52 10.024C1050.52 9.992 1050.45 9.976 1050.3 9.976C1050.17 9.96 1050.01 9.96 1049.82 9.976C1049.65 9.992 1049.47 10.008 1049.29 10.024C1049.13 10.04 1049.02 10.048 1048.96 10.048C1048.77 10.064 1048.61 10.08 1048.48 10.096C1048.35 10.096 1048.23 10.096 1048.12 10.096C1048.01 10.096 1047.89 10.096 1047.76 10.096C1047.63 10.08 1047.47 10.064 1047.28 10.048C1047.21 12.16 1047.2 14.2 1047.23 16.168C1047.28 18.136 1047.3 20.104 1047.3 22.072C1047.69 22.04 1048.01 22.032 1048.29 22.048C1048.57 22.064 1048.84 22.072 1049.08 22.072C1049.32 22.088 1049.55 22.088 1049.77 22.072C1050 22.056 1050.25 22.008 1050.52 21.928V21.832C1050.52 21.24 1050.51 20.688 1050.49 20.176C1050.49 19.648 1050.49 19.136 1050.49 18.64C1050.49 18.128 1050.49 17.624 1050.47 17.128C1050.45 16.632 1050.44 16.104 1050.42 15.544C1050.41 15.096 1050.47 14.752 1050.61 14.512C1050.76 14.272 1050.96 14.096 1051.21 13.984C1051.49 13.872 1051.8 13.816 1052.15 13.816C1052.52 13.816 1052.92 13.84 1053.35 13.888C1053.37 13.888 1053.47 13.904 1053.66 13.936C1053.87 13.968 1054.07 14.008 1054.26 14.056C1054.34 14.088 1054.42 14.12 1054.5 14.152C1054.6 14.168 1054.69 14.192 1054.77 14.224L1054.98 14.296C1054.97 14.056 1054.96 13.8 1054.96 13.528C1054.96 13.256 1054.96 12.96 1054.96 12.64C1054.96 12.304 1054.96 11.928 1054.96 11.512C1054.97 11.096 1054.98 10.616 1054.98 10.072C1054.98 10.056 1054.86 10.048 1054.62 10.048C1054.4 10.032 1054.12 10.032 1053.78 10.048C1053.45 10.064 1053.09 10.104 1052.7 10.168C1052.32 10.216 1051.97 10.288 1051.67 10.384C1051.45 10.464 1051.21 10.552 1050.97 10.648C1050.75 10.744 1050.61 10.808 1050.54 10.84ZM1056.31 11.056C1056.26 11.232 1056.19 11.472 1056.09 11.776C1055.99 12.064 1055.94 12.296 1055.92 12.472C1055.87 12.776 1055.84 13.072 1055.83 13.36C1055.81 13.632 1055.8 13.912 1055.8 14.2C1055.85 14.728 1055.86 15.312 1055.83 15.952C1055.81 16.592 1055.82 17.232 1055.85 17.872C1055.88 18.496 1055.98 19.096 1056.14 19.672C1056.3 20.248 1056.59 20.728 1057.03 21.112C1057.59 21.672 1058.27 22.024 1059.09 22.168C1059.54 22.168 1060.03 22.184 1060.58 22.216C1061.12 22.264 1061.65 22.264 1062.16 22.216C1062.67 22.184 1063.15 22.088 1063.58 21.928C1064.03 21.768 1064.39 21.496 1064.66 21.112C1064.82 20.952 1064.94 20.656 1065.02 20.224C1065.11 19.792 1065.19 19.304 1065.23 18.76C1065.3 18.216 1065.34 17.648 1065.35 17.056C1065.39 16.464 1065.41 15.936 1065.43 15.472C1065.41 14.944 1065.39 14.432 1065.38 13.936C1065.36 13.424 1065.32 12.96 1065.26 12.544C1065.19 12.112 1065.1 11.736 1064.97 11.416C1064.84 11.096 1064.67 10.864 1064.44 10.72C1064.11 10.4 1063.71 10.16 1063.24 10C1062.78 9.824 1062.29 9.72 1061.78 9.688C1061.44 9.656 1061.12 9.656 1060.82 9.688C1060.53 9.704 1060.23 9.696 1059.91 9.664C1059.52 9.664 1059.14 9.688 1058.75 9.736C1058.39 9.784 1058.03 9.872 1057.7 10C1057.38 10.112 1057.09 10.256 1056.83 10.432C1056.59 10.608 1056.42 10.816 1056.31 11.056ZM1059.31 13.888C1059.51 13.632 1059.79 13.456 1060.12 13.36C1060.75 13.216 1061.25 13.272 1061.63 13.528C1062.02 13.784 1062.25 14.192 1062.33 14.752C1062.43 15.216 1062.45 15.712 1062.4 16.24C1062.37 16.752 1062.32 17.264 1062.26 17.776C1062.16 18.176 1061.98 18.44 1061.71 18.568C1061.5 18.68 1061.23 18.76 1060.91 18.808C1060.59 18.84 1060.28 18.824 1059.98 18.76C1059.69 18.68 1059.44 18.544 1059.23 18.352C1059.03 18.144 1058.93 17.856 1058.95 17.488C1058.98 16.928 1058.99 16.4 1058.99 15.904C1058.99 15.392 1059.03 14.88 1059.09 14.368C1059.14 14.112 1059.21 13.952 1059.31 13.888ZM1071.17 13.456C1071.66 13.472 1072.18 13.496 1072.73 13.528C1073.29 13.56 1073.98 13.6 1074.79 13.648C1074.82 13.344 1074.85 13.104 1074.86 12.928C1074.88 12.752 1074.89 12.608 1074.89 12.496C1074.9 12.384 1074.91 12.28 1074.91 12.184C1074.91 12.072 1074.91 11.928 1074.91 11.752C1074.93 11.528 1074.93 11.336 1074.91 11.176C1074.9 11 1074.9 10.824 1074.94 10.648H1071.26C1071.18 10.248 1071.18 9.896 1071.26 9.592C1071.36 9.272 1071.59 9.08 1071.96 9.016C1072.18 8.984 1072.43 8.952 1072.7 8.92C1072.98 8.872 1073.25 8.832 1073.52 8.8C1073.79 8.768 1074.05 8.744 1074.29 8.728C1074.54 8.712 1074.77 8.712 1074.96 8.728C1074.99 8.504 1075.02 8.256 1075.06 7.984C1075.09 7.712 1075.11 7.432 1075.13 7.144C1075.14 6.856 1075.14 6.568 1075.1 6.28C1075.09 5.992 1075.04 5.728 1074.96 5.488C1074.21 5.456 1073.43 5.472 1072.63 5.536C1071.85 5.584 1071.12 5.72 1070.45 5.944C1069.9 6.12 1069.46 6.392 1069.13 6.76C1068.79 7.112 1068.53 7.512 1068.34 7.96C1068.16 8.392 1068.05 8.84 1068 9.304C1067.95 9.768 1067.94 10.2 1067.98 10.6C1067.72 10.584 1067.45 10.576 1067.16 10.576C1066.89 10.576 1066.58 10.576 1066.25 10.576L1066.32 13.504C1066.64 13.488 1066.94 13.48 1067.21 13.48C1067.5 13.48 1067.77 13.48 1068.02 13.48C1068.02 13.72 1068.02 14.064 1068 14.512C1068 14.96 1067.99 15.472 1067.98 16.048C1067.98 16.608 1067.98 17.192 1067.98 17.8C1067.98 18.408 1067.98 18.992 1067.98 19.552C1067.99 20.096 1068 20.592 1068 21.04C1068.02 21.472 1068.04 21.784 1068.07 21.976C1068.28 22.008 1068.5 22.016 1068.74 22C1069 21.984 1069.26 21.968 1069.54 21.952C1069.81 21.92 1070.08 21.896 1070.35 21.88C1070.62 21.864 1070.9 21.872 1071.17 21.904V18.688V13.456ZM1078.87 9.928C1078.36 9.944 1077.92 9.944 1077.55 9.928C1077.18 9.912 1076.89 9.896 1076.69 9.88C1076.61 9.88 1076.49 9.872 1076.33 9.856C1076.18 9.84 1076.08 9.84 1076.01 9.856V9.88C1075.92 10.824 1075.87 11.8 1075.87 12.808C1075.87 13.8 1075.89 14.808 1075.92 15.832C1075.95 16.856 1075.97 17.888 1075.97 18.928C1075.98 19.968 1075.95 20.992 1075.87 22C1075.98 21.968 1076.21 21.96 1076.54 21.976C1076.88 21.992 1077.23 22 1077.6 22C1077.98 22.016 1078.33 22.016 1078.65 22C1078.97 22 1079.17 21.952 1079.25 21.856C1079.14 19.92 1079.11 17.944 1079.16 15.928C1079.22 13.912 1079.26 11.936 1079.28 10V9.928H1078.87ZM1075.92 4.696C1075.9 5.432 1075.91 6.056 1075.94 6.568C1075.99 7.064 1076.01 7.544 1076.01 8.008C1076.32 7.992 1076.65 8 1077 8.032C1077.35 8.048 1077.68 8.064 1077.98 8.08C1078.3 8.08 1078.57 8.064 1078.8 8.032C1079.04 8 1079.19 7.936 1079.25 7.84C1079.25 7.6 1079.25 7.328 1079.23 7.024C1079.23 6.704 1079.22 6.4 1079.21 6.112C1079.21 5.808 1079.2 5.536 1079.18 5.296C1079.18 5.04 1079.18 4.864 1079.18 4.768L1075.92 4.696ZM1080.98 4.552C1080.84 6.008 1080.77 7.464 1080.77 8.92C1080.78 10.376 1080.81 11.832 1080.86 13.288C1080.91 14.744 1080.94 16.2 1080.96 17.656C1080.99 19.112 1080.95 20.56 1080.84 22C1080.95 21.968 1081.17 21.96 1081.51 21.976C1081.85 21.992 1082.2 22 1082.57 22C1082.95 22.016 1083.3 22.016 1083.62 22C1083.94 22 1084.14 21.952 1084.22 21.856C1084.19 21.216 1084.17 20.44 1084.15 19.528C1084.13 18.6 1084.13 17.608 1084.13 16.552C1084.13 15.496 1084.13 14.4 1084.13 13.264C1084.14 12.128 1084.16 11.032 1084.17 9.976C1084.19 8.92 1084.21 7.928 1084.22 7C1084.24 6.072 1084.25 5.28 1084.25 4.624L1080.98 4.552ZM1088.74 15.976C1088.9 16.008 1089.15 16.032 1089.5 16.048C1089.86 16.064 1090.25 16.072 1090.68 16.072C1091.13 16.072 1091.59 16.064 1092.07 16.048C1092.55 16.032 1093 16.008 1093.42 15.976C1093.85 15.944 1094.22 15.912 1094.52 15.88C1094.84 15.848 1095.06 15.816 1095.17 15.784C1095.22 15.112 1095.22 14.448 1095.17 13.792C1095.12 13.136 1094.98 12.536 1094.74 11.992C1094.51 11.448 1094.18 10.984 1093.73 10.6C1093.28 10.216 1092.69 9.96 1091.95 9.832C1091.38 9.688 1090.78 9.624 1090.18 9.64C1089.57 9.656 1088.99 9.752 1088.45 9.928C1087.9 10.088 1087.42 10.336 1086.98 10.672C1086.55 10.992 1086.23 11.384 1086.02 11.848C1085.83 12.376 1085.7 12.92 1085.64 13.48C1085.59 14.024 1085.54 14.592 1085.5 15.184C1085.46 15.84 1085.48 16.496 1085.54 17.152C1085.61 17.808 1085.73 18.432 1085.9 19.024C1086.08 19.6 1086.31 20.136 1086.6 20.632C1086.89 21.112 1087.25 21.504 1087.68 21.808C1088.06 22.032 1088.48 22.176 1088.93 22.24C1089.38 22.24 1089.86 22.256 1090.39 22.288C1090.94 22.32 1091.46 22.32 1091.98 22.288C1092.49 22.256 1092.96 22.16 1093.39 22C1093.82 21.84 1094.18 21.568 1094.45 21.184C1094.56 21.088 1094.65 20.92 1094.71 20.68C1094.79 20.424 1094.86 20.128 1094.9 19.792C1094.95 19.44 1094.99 19.064 1095.02 18.664C1095.06 18.264 1095.09 17.856 1095.12 17.44C1094.94 17.392 1094.72 17.368 1094.45 17.368C1094.18 17.352 1093.89 17.352 1093.58 17.368C1093.3 17.384 1093.02 17.4 1092.74 17.416C1092.47 17.416 1092.26 17.408 1092.1 17.392C1092.13 18.048 1092.02 18.544 1091.78 18.88C1091.56 19.2 1091.28 19.392 1090.94 19.456C1090.61 19.52 1090.26 19.464 1089.91 19.288C1089.56 19.112 1089.29 18.84 1089.1 18.472C1088.92 18.184 1088.82 17.888 1088.78 17.584C1088.77 17.28 1088.75 16.888 1088.74 16.408V15.976ZM1091.64 12.256C1091.93 12.4 1092.15 12.616 1092.31 12.904C1092.49 13.192 1092.58 13.496 1092.58 13.816C1092.58 13.944 1092.58 14.032 1092.58 14.08C1092.58 14.112 1092.53 14.136 1092.43 14.152C1092.35 14.152 1092.21 14.144 1092 14.128C1091.79 14.112 1091.48 14.104 1091.06 14.104C1090.46 14.104 1089.99 14.112 1089.67 14.128C1089.37 14.128 1089.14 14.12 1089 14.104C1088.86 14.072 1088.78 14.024 1088.76 13.96C1088.76 13.88 1088.78 13.752 1088.81 13.576C1088.84 13.368 1088.89 13.168 1088.95 12.976C1089.03 12.784 1089.14 12.616 1089.29 12.472C1089.43 12.328 1089.62 12.216 1089.86 12.136C1090.1 12.056 1090.42 12.016 1090.8 12.016C1090.98 12.016 1091.13 12.04 1091.26 12.088C1091.38 12.12 1091.51 12.176 1091.64 12.256Z" fill="white"/>
</svg>
