<svg width="474" height="474" viewBox="0 0 474 474" fill="none" xmlns="http://www.w3.org/2000/svg">
<path d="M474 237C474 367.891 367.891 474 237 474C106.109 474 0 367.891 0 237C0 106.109 106.109 0 237 0C367.891 0 474 106.109 474 237Z" fill="#FFD53F"/>
<path d="M264.903 247.06L168.253 256.498L142.745 339.004C141.789 342.188 142.101 345.625 143.609 348.582C145.12 351.539 147.712 353.785 150.834 354.84C153.955 355.896 157.362 355.678 160.326 354.236L372.419 250.358C375.145 249.014 377.271 246.681 378.373 243.825C379.476 240.97 379.476 237.798 378.373 234.942C377.271 232.085 375.145 229.753 372.419 228.408L160.326 124.504C157.362 123.062 153.955 122.844 150.834 123.9C147.713 124.955 145.12 127.2 143.609 130.158C142.101 133.115 141.789 136.552 142.745 139.736L168.229 222.139L264.879 231.602C267.414 231.855 269.657 233.373 270.858 235.645C272.058 237.918 272.058 240.646 270.858 242.918C269.657 245.19 267.414 246.707 264.879 246.959L264.903 247.06Z" fill="url(#paint0_linear_360_34)"/>
<defs>
<linearGradient id="paint0_linear_360_34" x1="102.712" y1="7.85888e-06" x2="587.335" y2="201.725" gradientUnits="userSpaceOnUse">
<stop stop-color="#0B51DA"/>
<stop offset="1" stop-color="#4878FF"/>
</linearGradient>
</defs>
</svg>
