<svg width="40" height="40" viewBox="0 0 40 40" fill="none" xmlns="http://www.w3.org/2000/svg">
<path d="M40 20C40 31.0457 31.0457 40 20 40C8.9543 40 0 31.0457 0 20C0 8.9543 8.9543 0 20 0C31.0457 0 40 8.9543 40 20Z" fill="#4878FF"/>
<path d="M26.8114 26.3646C26.6141 26.3651 26.4253 26.2837 26.2901 26.14C26.1547 25.9964 26.0848 25.8031 26.0969 25.6061C26.109 25.4091 26.2022 25.2259 26.3542 25.1C27.8264 23.8279 28.6433 21.9575 28.5762 20.013C28.6434 18.0684 27.8264 16.198 26.3542 14.9259C26.1945 14.8103 26.0897 14.6336 26.0649 14.4381C26.0398 14.2424 26.0969 14.0451 26.2224 13.8929C26.3478 13.7408 26.5306 13.6473 26.7273 13.6346C26.9241 13.6218 27.1176 13.691 27.2616 13.8256C28.1474 14.5903 28.8529 15.5418 29.3272 16.6116C29.8017 17.6814 30.0332 18.8431 30.0052 20.013C30.034 21.1823 29.8036 22.3437 29.3306 23.4135C28.8574 24.4833 28.1533 25.4349 27.2688 26.2004C27.1403 26.3069 26.9784 26.3649 26.8114 26.3646ZM25.5968 23.7354C26.5874 22.7498 27.1441 21.4102 27.1441 20.0129C27.1441 18.6157 26.5873 17.2761 25.5968 16.2905C25.4131 16.1131 25.1486 16.0473 24.9031 16.1178C24.6576 16.1881 24.4683 16.3843 24.4066 16.6321C24.3447 16.8799 24.42 17.142 24.6037 17.3193C25.3149 18.0354 25.714 19.0038 25.714 20.013C25.714 21.0222 25.3148 21.9905 24.6037 22.7066C24.42 22.884 24.3447 23.146 24.4066 23.3938C24.4683 23.6417 24.6576 23.8378 24.9031 23.9082C25.1487 23.9787 25.4131 23.9127 25.5968 23.7354ZM13.5724 15.0114H12.8579C12.0999 15.0114 11.373 15.3125 10.8371 15.8486C10.3011 16.3844 10 17.1114 10 17.8693V22.1562C10 22.9142 10.3011 23.6411 10.8371 24.177C11.373 24.713 12.0999 25.0141 12.8579 25.0141H13.5724V15.0114ZM22.489 10.0958C22.3804 10.033 22.2573 10 22.1318 10C22.0065 10 21.8832 10.033 21.7746 10.0958L15.0013 14.4256V25.6L21.7603 29.8868C21.9033 29.9787 22.0746 30.0165 22.243 29.9934C22.4116 29.9704 22.5663 29.888 22.6795 29.761C22.7927 29.6341 22.8568 29.4709 22.8605 29.3009V10.7245C22.8608 10.596 22.8265 10.4698 22.7612 10.3591C22.6958 10.2485 22.6018 10.1574 22.489 10.0958Z" fill="#F6F9FF"/>
</svg>
