<svg width="99" height="81" viewBox="0 0 99 81" fill="none" xmlns="http://www.w3.org/2000/svg">
<path d="M62.0488 9.91882L63.7541 12.654H35.2439L36.9494 9.9189C36.9494 9.91888 36.9494 9.91886 36.9494 9.91884C37.3383 9.29542 38.0071 8.70429 38.7907 8.26808C39.5745 7.83174 40.4254 7.57699 41.1514 7.57699H57.8468C58.5735 7.57699 59.4272 7.83548 60.2129 8.2744C60.9987 8.71329 61.6663 9.30458 62.0486 9.91856L62.0488 9.91882ZM64.1549 46.5757C64.1549 54.6913 57.592 61.2682 49.4988 61.2682C41.4055 61.2682 34.8427 54.6913 34.8427 46.5757C34.8427 38.4601 41.4055 31.8832 49.4988 31.8832C57.592 31.8832 64.1549 38.4601 64.1549 46.5757ZM91.4359 22.2482V70.9032C91.4359 72.2972 90.3243 73.423 88.914 73.423H10.0827C8.68824 73.423 7.5608 72.2952 7.5608 70.9032V22.2482C7.5608 20.8555 8.67193 19.731 10.0827 19.731H88.914C90.3087 19.731 91.4359 20.8598 91.4359 22.2482ZM88.9156 12.654H72.0838L68.0382 6.1689C65.9617 2.83919 61.7769 0.5 57.8472 0.5H41.1518C37.22 0.5 33.0461 2.82357 30.9608 6.16884C30.9608 6.16889 30.9607 6.16894 30.9607 6.16899L26.9152 12.654H10.0844C4.776 12.654 0.5 16.9446 0.5 22.2482V70.9032C0.5 76.2072 4.7942 80.5 10.0844 80.5H88.9156C94.2242 80.5 98.5 76.2066 98.5 70.9032V22.2482C98.5 16.9467 94.2057 12.654 88.9156 12.654ZM27.7802 46.5774C27.7802 58.5995 37.5026 68.3469 49.4988 68.3469C61.495 68.3469 71.2173 58.5995 71.2173 46.5774C71.2173 34.5554 61.495 24.808 49.4988 24.808C37.5026 24.808 27.7802 34.5554 27.7802 46.5774Z" fill="url(#paint0_linear_360_55)" stroke="url(#paint1_linear_360_55)"/>
<defs>
<linearGradient id="paint0_linear_360_55" x1="22.019" y1="1" x2="114.277" y2="48.1524" gradientUnits="userSpaceOnUse">
<stop stop-color="#0B51DA"/>
<stop offset="1" stop-color="#4878FF"/>
</linearGradient>
<linearGradient id="paint1_linear_360_55" x1="22.019" y1="1" x2="114.277" y2="48.1524" gradientUnits="userSpaceOnUse">
<stop stop-color="#0B51DA"/>
<stop offset="1" stop-color="#4878FF"/>
</linearGradient>
</defs>
</svg>
