<svg width="304" height="320" viewBox="0 0 304 320" fill="none" xmlns="http://www.w3.org/2000/svg">
<path d="M90.7692 283.68C90.7618 283.727 90.7205 283.765 90.6721 283.765H71.3264C69.2189 283.765 67.5104 285.471 67.5104 287.575V316.19C67.5104 318.294 69.2189 320 71.3264 320H232.666C234.773 320 236.482 318.294 236.482 316.19V287.575C236.482 285.471 234.773 283.765 232.666 283.765H213.319C213.271 283.765 213.229 283.729 213.222 283.681C213.215 283.633 213.174 283.599 213.125 283.599H90.8651C90.8171 283.599 90.7765 283.632 90.7692 283.68Z" fill="#E39335"/>
<path d="M304 25.134H241.52C239.412 25.134 237.704 23.4284 237.704 21.3244V3.80952C237.704 1.70558 235.995 0 233.888 0H70.1123C68.0048 0 66.2963 1.70558 66.2963 3.80952V21.3244C66.2963 23.4284 64.5878 25.134 62.4803 25.134H3.81598C1.70847 25.134 0 26.8395 0 28.9435V80.0197C0 119.309 30.7446 151.496 69.4699 154.036C71.0001 154.137 72.3525 155.091 72.9463 156.503C83.3444 181.216 105.049 200.13 131.516 206.672C133.27 207.106 134.54 208.653 134.54 210.457V231.184C134.54 232.872 133.422 234.347 131.825 234.9C118.316 239.576 106.916 248.797 99.4341 260.712C97.9293 263.109 99.7506 266.074 102.584 266.074H201.419C204.252 266.074 206.073 263.109 204.568 260.712C197.086 248.797 185.684 239.576 172.177 234.9C170.58 234.347 169.462 232.872 169.462 231.184L169.458 210.46C169.458 208.656 170.728 207.108 172.482 206.675C198.949 200.132 220.651 181.218 231.051 156.505C231.645 155.093 232.997 154.139 234.527 154.039C273.251 151.499 303.998 119.314 303.998 80.0222L303.995 25.1388C303.995 25.1362 303.997 25.134 304 25.134ZM32.3404 80.0222V61.2324C32.3404 59.1284 34.0489 57.4229 36.1564 57.4229H62.4809C64.5884 57.4229 66.2969 59.1284 66.2969 61.2324V116.566C66.2969 118.964 64.0964 120.773 61.805 120.055C44.7504 114.704 32.3404 98.7888 32.3404 80.021V80.0222ZM271.66 80.0222C271.66 98.7904 259.251 114.708 242.195 120.056C239.903 120.775 237.703 118.966 237.703 116.568V61.2273C237.703 59.1234 239.412 57.4178 241.519 57.4178H267.844C269.951 57.4178 271.66 59.1234 271.66 61.2273V80.0222Z" fill="#E39335"/>
</svg>
