<svg width="546" height="669" viewBox="0 0 546 669" fill="none" xmlns="http://www.w3.org/2000/svg">
<g clip-path="url(#clip0_823_4)">
<path fill-rule="evenodd" clip-rule="evenodd" d="M208.796 4.26187e-08H336.656C379.202 4.26187e-08 413.494 -0.00520754 440.468 3.62507C468.473 7.39067 492.046 15.4428 510.774 34.1664C529.504 52.8957 537.556 76.4731 541.321 104.478C544.946 131.448 544.946 165.744 544.946 208.29V460.597C544.946 503.144 544.946 537.441 541.321 564.414C537.556 592.414 529.503 615.993 510.774 634.721C492.045 653.445 468.472 661.502 440.468 665.262C413.494 668.888 379.202 668.888 336.656 668.888H208.796C166.249 668.888 131.952 668.888 104.978 665.262C76.9784 661.502 53.3997 653.445 34.6717 634.721C15.9477 615.992 7.8904 592.414 4.12506 564.414C0.499994 537.441 0.5 503.144 0.5 460.597V208.29C0.5 165.744 0.499994 131.446 4.12506 104.478C7.89066 76.4731 15.948 52.8944 34.6717 34.1664C53.4011 15.4424 76.9784 7.3904 104.978 3.62507C131.952 -0.00519824 166.249 4.26187e-08 208.796 4.26187e-08ZM93.8317 53.208C81.6339 56.458 73.7744 61.0621 67.6704 67.1667C59.0611 75.776 53.4464 87.864 50.3731 110.697C47.2168 134.192 47.1648 165.337 47.1648 210V456.587C58.1232 448.93 70.4768 443.103 83.7902 439.535C87.0038 438.67 90.3317 437.998 93.8317 437.467V53.208ZM140.498 47.4997V435.553H141.493H145.097H498.284V210.006C498.284 165.345 498.232 134.2 495.076 110.704C492.003 87.8704 486.394 75.7824 477.778 67.1731C469.169 58.5637 457.081 52.9491 434.252 49.8811C410.752 46.7196 379.606 46.6728 334.949 46.6728H210.501C182.261 46.6728 159.422 46.6884 140.501 47.5061L140.498 47.4997ZM498.258 482.22H327.165V568.741V569.574C327.176 573.038 327.181 577.97 326.514 582.205C325.707 587.382 323.045 597.377 312.697 603.455C302.728 609.309 292.983 607.132 288.347 605.695C284.306 604.435 279.879 602.325 276.571 600.758C276.311 600.633 276.056 600.513 275.811 600.393L241.614 584.148L207.411 600.393C207.166 600.513 206.911 600.627 206.651 600.758C203.348 602.325 198.916 604.435 194.875 605.695C190.244 607.132 180.495 609.309 170.525 603.455C160.176 597.377 157.515 587.382 156.708 582.205C156.041 577.97 156.052 573.038 156.057 569.574V568.741V482.22H145.098C114.666 482.22 104.025 482.423 95.8691 484.605C73.4891 490.605 55.6504 507.236 47.9998 528.86C48.4737 539.865 49.2133 549.548 50.3747 558.193C53.4476 581.021 59.0622 593.105 67.672 601.72C76.2814 610.329 88.3694 615.944 111.199 619.012C134.699 622.173 165.844 622.22 210.501 622.22H334.949C379.605 622.22 410.752 622.173 434.252 619.012C457.08 615.944 469.169 610.33 477.779 601.72C486.393 593.105 492.003 581.023 495.076 558.193C497.649 539.016 498.16 514.756 498.258 482.22ZM202.725 482.22V550.954L226.037 539.881C226.094 539.85 226.183 539.803 226.308 539.741C227.834 538.96 234.261 535.678 241.615 535.678C248.964 535.678 255.391 538.96 256.917 539.741C257.042 539.803 257.136 539.85 257.193 539.881L280.5 550.954V482.22H202.725Z" fill="url(#paint0_linear_823_4)"/>
</g>
<defs>
<linearGradient id="paint0_linear_823_4" x1="118.477" y1="1.10901e-05" x2="704.321" y2="198.49" gradientUnits="userSpaceOnUse">
<stop stop-color="#0B51DA"/>
<stop offset="1" stop-color="#4878FF"/>
</linearGradient>
<clipPath id="clip0_823_4">
<rect width="545" height="669" fill="white" transform="translate(0.5)"/>
</clipPath>
</defs>
</svg>
