<svg width="60" height="89" viewBox="0 0 60 89" fill="none" xmlns="http://www.w3.org/2000/svg">
<path d="M42.0834 82.6671H42.0842C43.693 82.67 44.9998 83.9714 44.9998 85.5836C44.9998 87.1938 43.6947 88.5 42.0834 88.5H17.9167C16.3065 88.5 15.0002 87.1949 15.0002 85.5836C15.0002 83.9733 16.3053 82.6671 17.9167 82.6671H27.0836V75.0901C12.1473 73.6323 0.500257 61.0665 0.500257 45.7452V40.8923C0.478082 39.3213 1.89114 37.9097 3.46236 37.9342C3.46241 37.9342 3.46247 37.9342 3.46252 37.9342L3.45468 38.4342C4.71972 38.4536 5.85382 39.6235 5.83359 40.8886L42.0834 82.6671ZM42.0834 82.6671H32.9165V75.0902C47.8526 73.6332 59.4998 61.0676 59.4998 45.7452V40.8921C59.5193 39.3379 58.1381 37.9376 56.5833 37.9376C55.029 37.9376 53.6466 39.3375 53.6669 40.892V45.7452C53.6669 58.8993 43.1543 69.4119 30.0002 69.4119C16.8462 69.4119 6.33359 58.8993 6.33359 45.7452V40.8924L42.0834 82.6671ZM29.9992 0.5C19.7232 0.5 11.3742 8.84904 11.3742 19.125V45.7083C11.3742 55.9843 19.7232 64.3333 29.9992 64.3333C40.2751 64.3333 48.6242 55.9843 48.6242 45.7083V19.125C48.6242 8.84904 40.2751 0.5 29.9992 0.5ZM29.9992 6.3329C37.1284 6.3329 42.7913 11.9956 42.7913 19.125V45.7083C42.7913 52.8376 37.1286 58.5004 29.9992 58.5004C22.8697 58.5004 17.2071 52.8378 17.2071 45.7083V19.125C17.2071 11.9958 22.8697 6.3329 29.9992 6.3329Z" fill="url(#paint0_linear_360_56)" stroke="url(#paint1_linear_360_56)"/>
<defs>
<linearGradient id="paint0_linear_360_56" x1="13.5681" y1="1" x2="78.1679" y2="18.9265" gradientUnits="userSpaceOnUse">
<stop stop-color="#0B51DA"/>
<stop offset="1" stop-color="#4878FF"/>
</linearGradient>
<linearGradient id="paint1_linear_360_56" x1="13.5681" y1="1" x2="78.1679" y2="18.9265" gradientUnits="userSpaceOnUse">
<stop stop-color="#0B51DA"/>
<stop offset="1" stop-color="#4878FF"/>
</linearGradient>
</defs>
</svg>
