<svg width="366" height="350" viewBox="0 0 366 350" fill="none" xmlns="http://www.w3.org/2000/svg">
<path d="M360.335 148.646C365.071 143.909 367.439 137.986 365.071 132.064C363.887 126.142 357.968 122.589 352.048 121.404L252.6 107.191C249.048 107.191 243.128 102.453 241.945 98.9002L196.956 8.88325C191.036 -2.96108 174.462 -2.96108 168.542 8.88325L123.554 98.9002C122.37 102.453 116.45 106.007 112.898 107.191L13.45 121.404C6.34656 122.589 1.61092 126.142 0.427012 132.064C-0.756897 137.986 0.427012 143.909 5.16265 148.646L77.3811 219.712C79.7489 222.081 82.1168 229.188 80.9328 232.741L64.3581 331.049C63.1742 338.156 65.542 342.893 67.9098 345.262C72.6455 350 79.7489 351.184 86.8524 347.631L175.646 300.254C179.197 299.069 186.301 299.069 188.669 300.254L277.462 347.631C281.014 348.816 283.381 350 285.749 350C290.485 350 294.037 348.816 296.404 345.262C298.772 342.893 301.14 338.156 299.956 331.049L283.381 231.557C282.197 228.003 284.565 222.081 286.933 218.528L360.335 148.646Z" fill="#ED5153"/>
</svg>
