<svg width="292" height="350" viewBox="0 0 292 350" fill="none" xmlns="http://www.w3.org/2000/svg">
<path d="M88.0216 41.965C89.608 33.4701 88.9281 26.4476 85.9821 20.8976C83.0361 15.3475 78.8437 11.1567 73.4049 8.32504C70.6855 7.07912 67.6828 6.05973 64.3969 5.26686C61.2243 4.474 57.9383 4.02094 54.5391 3.90768C51.2532 3.68114 47.9672 3.79441 44.6813 4.24747C41.3953 4.58727 38.3927 5.3235 35.6733 6.45616C30.2345 8.72148 25.5889 12.1761 21.7364 16.82C17.9972 21.4639 15.4478 26.6175 14.0881 32.2808C12.7284 37.9441 12.785 43.7773 14.258 49.7804C15.8444 55.7835 19.2436 61.2769 24.4558 66.2606C26.0421 67.6198 27.7984 68.8091 29.7246 69.8285C31.6508 70.8479 33.747 71.5841 36.0132 72.0372C38.3927 72.4902 40.9421 72.9999 43.6615 73.5663C46.3809 74.0193 48.8737 74.7555 51.1398 75.7749C53.5193 76.7943 55.5589 78.1535 57.2585 79.8525C58.9581 81.4382 59.9779 83.5903 60.3178 86.3087C60.9977 90.273 60.2045 93.2179 57.9383 95.1434C55.7855 97.0689 53.1794 98.0883 50.1201 98.2016C47.1741 98.2016 44.3414 97.2955 41.622 95.4832C39.0159 93.671 37.5995 90.9526 37.3729 87.3281C33.5204 87.4413 29.2147 87.3847 24.4558 87.1582C19.6968 86.8184 15.3345 86.9316 11.3687 87.498V88.5174C11.0288 93.9541 11.9919 98.8246 14.258 103.129C16.5242 107.32 19.5835 110.887 23.436 113.832C27.2885 116.777 31.6508 119.099 36.5231 120.798C41.5087 122.384 46.4942 123.233 51.4798 123.347C54.9923 123.46 58.3916 123.177 61.6775 122.497C65.0768 121.704 68.1927 120.515 71.0254 118.929C73.9714 117.344 76.5775 115.305 78.8437 112.813C81.1098 110.321 82.9228 107.32 84.2825 103.808C85.6422 100.863 86.6053 97.8052 87.1718 94.6337C87.8517 91.349 88.0783 88.1209 87.8517 84.9495C87.7384 81.778 87.1718 78.7199 86.1521 75.7749C85.1323 72.7168 83.6026 69.8851 81.5631 67.28C78.2771 62.4096 74.0281 58.3886 68.8159 55.2172C63.717 52.0457 58.1649 50.1202 52.1596 49.4406C49.7801 49.1008 47.5706 48.4778 45.5311 47.5717C43.4915 46.6656 42.0185 44.8533 41.1121 42.1349C40.9988 41.3421 40.8855 40.6059 40.7721 39.9263C40.7721 39.1334 40.8855 38.3405 41.1121 37.5477C41.5653 34.3762 43.0383 32.2242 45.5311 31.0915C48.1372 29.9588 50.7999 29.6757 53.5193 30.242C56.2387 30.8083 58.5615 32.1109 60.4878 34.1497C62.414 36.1885 63.0372 38.737 62.3573 41.7951C66.3231 42.9278 70.5722 43.4375 75.1045 43.3242C79.6368 43.0977 83.8859 42.6446 87.8517 41.965H88.0216Z" fill="#0B51DA"/>
<path d="M118.675 37.038C115.049 37.1512 111.933 37.1512 109.327 37.038C106.721 36.9247 104.681 36.8114 103.208 36.6982C102.641 36.6982 101.792 36.6415 100.659 36.5283C99.6388 36.415 98.9023 36.415 98.4491 36.5283V36.6982C97.7692 43.3809 97.4293 50.2901 97.4293 57.4259C97.4293 64.4483 97.5426 71.5841 97.7692 78.8331C97.9959 86.0822 98.1092 93.3878 98.1092 100.75C98.2225 108.112 97.9958 115.361 97.4293 122.497C98.2225 122.271 99.8088 122.214 102.188 122.327C104.568 122.441 107.061 122.497 109.667 122.497C112.386 122.61 114.879 122.61 117.145 122.497C119.411 122.497 120.827 122.157 121.394 121.478C120.601 107.773 120.374 93.7842 120.714 79.5127C121.167 65.2412 121.451 51.2529 121.564 37.5477V37.038H118.675ZM97.7692 0C97.6559 5.21024 97.7126 9.62761 97.9392 13.2521C98.2791 16.7634 98.4491 20.1613 98.4491 23.4461C100.602 23.3328 102.925 23.3894 105.418 23.616C107.91 23.7292 110.233 23.8425 112.386 23.9558C114.652 23.9558 116.578 23.8425 118.165 23.616C119.864 23.3894 120.941 22.9364 121.394 22.2568C121.394 20.5578 121.337 18.6323 121.224 16.4802C121.224 14.2149 121.167 12.0628 121.054 10.024C121.054 7.87198 120.997 5.94646 120.884 4.24747C120.884 2.43522 120.884 1.18929 120.884 0.50969L97.7692 0Z" fill="#0B51DA"/>
<path d="M149.953 82.2311C149.953 81.0984 149.953 80.0224 149.953 79.003C149.953 77.8704 150.066 76.7377 150.293 75.605C150.746 72.9999 151.539 70.5647 152.672 68.2994C153.919 65.9208 155.392 63.7688 157.091 61.8432C158.451 60.7106 159.981 59.9177 161.68 59.4646C163.493 58.8983 165.306 58.7284 167.119 58.9549C168.932 59.1815 170.575 59.8044 172.048 60.8238C173.634 61.73 174.767 63.0325 175.447 64.7315C176.58 69.0356 177.204 73.5663 177.317 78.3234C177.543 82.9673 177.657 87.5546 177.657 92.0852C177.543 93.1046 177.374 94.1807 177.147 95.3133C177.034 96.3327 176.807 97.3521 176.467 98.3715C176.127 99.2776 175.674 100.127 175.107 100.92C174.541 101.6 173.748 102.109 172.728 102.449C169.782 103.355 166.609 103.582 163.21 103.129C159.811 102.562 157.091 101.033 155.052 98.5414C151.653 94.4638 149.953 89.5368 149.953 83.7602V82.2311ZM179.356 156.477C180.716 156.364 182.189 156.137 183.775 155.797C185.362 155.458 186.948 154.835 188.534 153.928C190.121 153.136 191.707 152.003 193.293 150.531C194.993 149.058 196.636 147.076 198.222 144.584C199.355 142.772 199.865 140.506 199.752 137.788C199.639 135.183 199.639 132.521 199.752 129.803C200.432 113.493 200.715 97.6353 200.602 82.2311C200.602 66.7137 200.375 51.8758 199.922 37.7176C196.069 37.7176 192.217 37.6609 188.364 37.5477C184.512 37.3211 180.716 37.4344 176.977 37.8875C176.637 38.4538 176.467 39.2467 176.467 40.2661C176.58 41.1722 176.637 42.1349 176.637 43.1543C176.75 44.0605 176.75 44.8533 176.637 45.5329C176.637 46.0993 176.41 46.2692 175.957 46.0426C174.597 42.8712 172.331 40.7191 169.159 39.5865C166.099 38.3405 162.757 37.8308 159.131 38.0574C151.879 38.5104 146.327 40.6059 142.475 44.3436C138.622 47.9681 135.789 52.4988 133.977 57.9355C132.277 63.2591 131.314 68.979 131.087 75.0953C130.861 81.2117 130.747 86.9316 130.747 92.2551C130.974 95.7664 131.427 99.221 132.107 102.619C132.787 105.904 133.92 109.075 135.506 112.133C136.526 114.285 137.829 116.041 139.415 117.4C141.002 118.759 142.758 119.835 144.684 120.628C146.724 121.421 148.82 121.987 150.973 122.327C153.239 122.667 155.448 122.837 157.601 122.837C159.188 122.724 160.887 122.667 162.7 122.667C164.513 122.667 166.269 122.554 167.969 122.327C169.782 122.101 171.425 121.704 172.898 121.138C174.484 120.572 175.844 119.666 176.977 118.42C176.75 120.458 176.75 122.441 176.977 124.366C177.09 125.272 177.09 126.292 176.977 127.424C176.864 128.67 176.75 129.859 176.637 130.992C175.957 134.164 174.484 136.429 172.218 137.788C170.065 139.147 167.799 139.714 165.42 139.487C163.153 139.261 161.057 138.241 159.131 136.429C157.318 134.73 156.412 132.408 156.412 129.463C155.052 129.236 153.352 129.01 151.313 128.783C149.386 128.67 147.347 128.557 145.194 128.444C143.154 128.444 141.172 128.5 139.245 128.614C137.319 128.84 135.789 129.18 134.656 129.633C134.543 130.539 134.486 131.615 134.486 132.861C134.6 134.107 134.77 135.409 134.996 136.769C135.336 138.128 135.676 139.43 136.016 140.676C136.469 142.036 136.923 143.112 137.376 143.904C139.982 147.755 143.381 150.814 147.573 153.079C151.766 155.344 156.525 156.477 161.85 156.477C166.496 156.477 170.292 156.534 173.238 156.647C176.184 156.76 178.223 156.703 179.356 156.477Z" fill="#0B51DA"/>
<path d="M235.069 46.7222C234.956 45.1365 234.9 43.7207 234.9 42.4747C235.013 41.2288 234.956 39.6431 234.73 37.7176C234.73 37.3778 234.276 37.2079 233.37 37.2079C232.463 37.0946 231.444 37.0946 230.311 37.2079C229.177 37.3211 228.044 37.491 226.911 37.7176C225.778 37.8308 224.985 37.8875 224.532 37.8875C223.172 38.0007 222.039 38.114 221.133 38.2273C220.226 38.2273 219.376 38.2273 218.583 38.2273C217.79 38.2273 216.94 38.2273 216.034 38.2273C215.127 38.114 213.994 38.0007 212.634 37.8875C212.181 52.8386 212.068 67.28 212.295 81.2117C212.634 95.1434 212.804 109.075 212.804 123.007C215.524 122.78 217.79 122.724 219.603 122.837C221.416 122.95 223.059 123.007 224.532 123.007C226.005 123.12 227.421 123.12 228.781 123.007C230.254 122.894 231.954 122.554 233.88 121.987V121.308C234.333 117.57 234.56 113.832 234.56 110.095C234.56 106.357 234.446 102.619 234.22 98.8812C234.106 95.0302 233.993 91.2357 233.88 87.498C233.766 83.6469 233.823 79.7393 234.05 75.7749C234.276 72.7168 235.069 70.4514 236.429 68.979C237.789 67.3933 239.319 66.3739 241.018 65.9208C242.718 65.3545 244.417 65.2412 246.117 65.581C247.93 65.8075 249.29 66.1473 250.196 66.6004C250.309 66.7137 250.423 66.7703 250.536 66.7703C250.649 66.7703 250.763 66.8269 250.876 66.9402C251.782 67.6198 252.462 68.5826 252.916 69.8285C253.482 71.0744 253.879 72.4902 254.105 74.076C254.445 75.6617 254.672 77.304 254.785 79.003C254.898 80.5888 255.012 82.0612 255.125 83.4204C255.352 86.4786 255.465 89.7633 255.465 93.2745C255.578 96.7858 255.578 100.297 255.465 103.808C255.465 107.32 255.465 110.718 255.465 114.002C255.465 117.287 255.578 120.232 255.805 122.837C259.771 122.837 263.283 122.837 266.343 122.837C269.515 122.95 273.084 122.724 277.05 122.157C276.824 118.306 276.767 113.832 276.88 108.735C276.993 103.638 277.107 98.3715 277.22 92.9347C277.333 87.3847 277.39 81.9479 277.39 76.6244C277.503 71.1877 277.447 66.204 277.22 61.6733C277.107 57.1427 276.71 53.2916 276.03 50.1202C275.464 46.8355 274.614 44.6834 273.481 43.664C271.101 41.6252 268.439 40.2094 265.493 39.4166C262.547 38.6237 259.487 38.2839 256.315 38.3972C253.255 38.5104 250.253 39.0768 247.307 40.0962C244.361 41.1156 241.698 42.4747 239.319 44.1737C238.752 44.6268 238.016 45.0799 237.109 45.5329C236.316 45.986 235.636 46.3824 235.069 46.7222Z" fill="#0B51DA"/>
<path d="M125.578 211.799H111.301V300.487H88.4289V256.798H34.2352V271.07C34.2352 274.371 35.0122 277.089 36.5662 279.225C38.2172 281.264 40.5967 282.283 43.7046 282.283C46.6182 282.283 48.852 281.312 50.4059 279.371C52.057 277.429 52.8825 274.953 52.8825 271.944V270.05H74.8805C74.9776 270.924 75.0262 271.992 75.0262 273.254C75.0262 281.992 72.2582 288.933 66.7223 294.079C61.2835 299.224 53.7566 301.797 44.1416 301.797C37.246 301.797 31.3216 300.438 26.3684 297.72C21.5124 294.904 17.8218 291.118 15.2966 286.361C12.8686 281.506 11.6546 276.021 11.6546 269.905V240.488H22.435C29.9133 240.488 35.2065 238.838 38.3143 235.537C41.5193 232.139 43.1218 227.43 43.1218 221.411V211.799H0V192.722H125.578V211.799ZM88.4289 211.799H65.9939V221.411C65.9939 227.721 64.8284 233.304 62.4975 238.158H88.4289V211.799Z" fill="#0B51DA"/>
<path d="M124.431 322.039C124.431 330.68 121.565 337.476 115.835 342.427C110.008 347.476 102.19 350 92.3805 350C85.582 350 79.3177 348.835 73.5876 346.505C67.8574 344.272 63.2441 340.631 59.7478 335.583C56.2514 330.534 54.5518 324.03 54.6489 316.069H74.8987C74.8016 321.505 76.307 325.535 79.4148 328.156C82.4256 330.777 86.5532 332.088 91.7978 332.088C95.974 332.088 99.2276 331.165 101.558 329.321C103.889 327.573 105.055 325.049 105.055 321.748C105.055 318.933 104.084 316.603 102.141 314.758C100.102 312.913 97.2366 311.991 93.546 311.991H88.4471V294.225H93.546C103.647 294.225 111.319 296.652 116.564 301.506C121.808 306.457 124.431 313.302 124.431 322.039Z" fill="#0B51DA"/>
<path d="M245.492 211.799H231.215V300.487H208.198V247.332H189.842C192.367 251.895 193.629 256.895 193.629 262.332C193.629 268.254 192.221 273.351 189.405 277.623C186.685 281.895 182.995 285.099 178.333 287.234C173.768 289.37 168.669 290.438 163.036 290.438C157.209 290.438 151.77 289.225 146.72 286.798C141.767 284.273 137.785 280.681 134.774 276.021C131.763 271.264 130.258 265.73 130.258 259.42C130.258 252.721 131.812 247.041 134.92 242.381C138.028 237.624 142.204 234.08 147.448 231.75C152.693 229.42 158.52 228.255 164.93 228.255H208.198V211.799H120.643V192.722H245.492V211.799ZM163.328 271.07C166.921 271.07 169.835 270.002 172.069 267.866C174.302 265.633 175.419 262.769 175.419 259.274C175.419 255.779 174.302 252.915 172.069 250.682C169.835 248.449 166.921 247.332 163.328 247.332C159.734 247.332 156.772 248.449 154.441 250.682C152.11 252.915 150.945 255.779 150.945 259.274C150.945 262.769 152.062 265.633 154.295 267.866C156.626 270.002 159.637 271.07 163.328 271.07Z" fill="#0B51DA"/>
<path d="M292 192.722V211.799H277.723V300.487H254.851V211.799H240.574V192.722H255.725C251.84 186.8 248.684 182.528 246.256 179.907C243.925 177.286 241.497 175.538 238.972 174.664C236.35 173.693 232.805 173.208 228.337 173.208H220.762V154.859H227.9C236.058 154.956 242.468 155.83 247.13 157.48C251.889 159.131 256.502 162.577 260.97 167.82C265.437 173.062 270.828 181.363 277.14 192.722H292Z" fill="#0B51DA"/>
</svg>
