<svg width="1643" height="538" viewBox="0 0 1643 538" fill="none" xmlns="http://www.w3.org/2000/svg">
<path d="M213.554 179.467C217.97 156.047 216.078 136.686 207.877 121.385C199.677 106.083 188.007 94.5292 172.868 86.7224C165.298 83.2874 156.94 80.4769 147.793 78.291C138.962 76.1051 129.815 74.856 120.353 74.5438C111.207 73.9192 102.06 74.2315 92.9132 75.4806C83.7666 76.4174 75.4084 78.4472 67.8388 81.5699C52.6995 87.8153 39.768 97.3396 29.0444 110.143C18.6361 122.946 11.5396 137.154 7.75477 152.768C3.96995 168.382 4.12765 184.464 8.22787 201.014C12.6435 217.564 22.1055 232.71 36.614 246.45C41.0297 250.197 45.9184 253.476 51.2802 256.286C56.642 259.097 62.477 261.126 68.785 262.375C75.4084 263.624 82.505 265.03 90.0746 266.591C97.6443 267.84 104.583 269.87 110.891 272.68C117.515 275.491 123.192 279.238 127.923 283.922C132.654 288.294 135.492 294.227 136.439 301.722C138.331 312.651 136.123 320.77 129.815 326.079C123.823 331.388 116.568 334.198 108.053 334.51C99.8521 334.51 91.967 332.012 84.3974 327.016C77.1432 322.019 73.2006 314.525 72.5698 304.532C61.8462 304.844 49.8609 304.688 36.614 304.064C23.3672 303.127 11.2242 303.439 0.185127 305V307.811C-0.761078 322.8 1.91984 336.228 8.22787 348.094C14.5359 359.648 23.0518 369.485 33.7754 377.604C44.4991 385.723 56.642 392.124 70.2043 396.808C84.082 401.18 97.9597 403.522 111.837 403.835C121.615 404.147 131.077 403.366 140.224 401.493C149.686 399.307 158.359 396.028 166.244 391.656C174.445 387.284 181.699 381.663 188.007 374.793C194.315 367.923 199.361 359.648 203.146 349.968C206.931 341.849 209.612 333.417 211.189 324.674C213.081 315.618 213.712 306.718 213.081 297.974C212.766 289.231 211.189 280.799 208.35 272.68C205.512 264.249 201.254 256.442 195.577 249.26C186.43 235.832 174.602 224.747 160.094 216.003C145.901 207.259 130.446 201.951 113.73 200.077C107.106 199.14 100.956 197.423 95.2787 194.925C89.6015 192.426 85.5013 187.43 82.9781 179.936C82.6627 177.75 82.3473 175.72 82.0319 173.846C82.0319 171.66 82.3473 169.474 82.9781 167.289C84.2397 158.545 88.3399 152.612 95.2787 149.489C102.533 146.366 109.945 145.586 117.515 147.147C125.084 148.708 131.55 152.299 136.912 157.92C142.274 163.541 144.008 170.567 142.116 178.999C153.155 182.121 164.983 183.527 177.599 183.214C190.215 182.59 202.042 181.341 213.081 179.467H213.554Z" fill="white"/>
<path d="M298.879 165.883C288.786 166.196 280.113 166.196 272.859 165.883C265.604 165.571 259.927 165.259 255.827 164.947C254.25 164.947 251.884 164.79 248.73 164.478C245.892 164.166 243.842 164.166 242.58 164.478V164.947C240.688 183.371 239.741 202.419 239.741 222.092C239.741 241.453 240.057 261.126 240.688 281.112C241.318 301.097 241.634 321.239 241.634 341.536C241.949 361.834 241.318 381.819 239.741 401.493C241.949 400.868 246.365 400.712 252.988 401.024C259.612 401.336 266.551 401.493 273.805 401.493C281.374 401.805 288.313 401.805 294.621 401.493C300.929 401.493 304.872 400.556 306.449 398.682C304.241 360.897 303.61 322.332 304.556 282.985C305.818 243.639 306.607 205.073 306.922 167.289V165.883H298.879ZM240.688 63.7704C240.372 78.1349 240.53 90.3135 241.161 100.306C242.107 109.987 242.58 119.355 242.58 128.411C248.573 128.098 255.038 128.255 261.977 128.879C268.916 129.191 275.382 129.504 281.374 129.816C287.682 129.816 293.044 129.504 297.46 128.879C302.191 128.255 305.187 127.005 306.449 125.132C306.449 120.448 306.291 115.139 305.976 109.206C305.976 102.961 305.818 97.0273 305.503 91.4064C305.503 85.4733 305.345 80.1647 305.03 75.4806C305.03 70.4842 305.03 67.0492 305.03 65.1756L240.688 63.7704Z" fill="white"/>
<path d="M385.945 290.48C385.945 287.357 385.945 284.391 385.945 281.58C385.945 278.457 386.26 275.335 386.891 272.212C388.153 265.03 390.36 258.316 393.514 252.07C396.984 245.513 401.084 239.58 405.815 234.271C409.6 231.148 413.858 228.962 418.589 227.713C423.635 226.152 428.682 225.683 433.728 226.308C438.775 226.933 443.348 228.65 447.448 231.46C451.864 233.959 455.018 237.55 456.91 242.234C460.064 254.1 461.799 266.591 462.114 279.706C462.745 292.51 463.061 305.157 463.061 317.648C462.745 320.458 462.272 323.425 461.641 326.547C461.326 329.358 460.695 332.168 459.749 334.979C458.803 337.477 457.541 339.819 455.964 342.005C454.387 343.878 452.179 345.284 449.341 346.22C441.14 348.719 432.309 349.343 422.847 348.094C413.385 346.533 405.815 342.317 400.138 335.447C390.676 324.205 385.945 310.621 385.945 294.696V290.48ZM467.792 495.174C471.576 494.862 475.677 494.237 480.092 493.301C484.508 492.364 488.923 490.646 493.339 488.148C497.755 485.962 502.17 482.839 506.586 478.78C511.317 474.72 515.89 469.256 520.306 462.386C523.46 457.389 524.879 451.144 524.564 443.649C524.248 436.467 524.248 429.129 524.564 421.634C526.456 376.667 527.245 332.949 526.929 290.48C526.929 247.699 526.299 206.791 525.037 167.757C514.313 167.757 503.59 167.601 492.866 167.289C482.142 166.664 471.576 166.976 461.168 168.225C460.222 169.787 459.749 171.973 459.749 174.783C460.064 177.281 460.222 179.936 460.222 182.746C460.537 185.244 460.537 187.43 460.222 189.304C460.222 190.865 459.591 191.334 458.33 190.709C454.545 181.965 448.237 176.032 439.405 172.909C430.89 169.474 421.585 168.069 411.492 168.694C391.307 169.943 375.852 175.72 365.128 186.025C354.405 196.018 346.52 208.508 341.473 223.498C336.742 238.174 334.061 253.944 333.43 270.807C332.8 287.669 332.484 303.439 332.484 318.116C333.115 327.796 334.377 337.321 336.269 346.689C338.161 355.745 341.315 364.488 345.731 372.92C348.57 378.853 352.197 383.693 356.612 387.44C361.028 391.188 365.917 394.154 371.279 396.34C376.956 398.526 382.791 400.087 388.783 401.024C395.091 401.961 401.242 402.429 407.234 402.429C411.65 402.117 416.381 401.961 421.427 401.961C426.474 401.961 431.363 401.649 436.094 401.024C441.14 400.4 445.713 399.307 449.814 397.745C454.229 396.184 458.014 393.686 461.168 390.251C460.537 395.872 460.537 401.336 461.168 406.645C461.484 409.143 461.484 411.954 461.168 415.076C460.853 418.511 460.537 421.79 460.222 424.913C458.33 433.657 454.229 439.902 447.921 443.649C441.929 447.397 435.621 448.958 428.997 448.333C422.689 447.709 416.854 444.898 411.492 439.902C406.446 435.218 403.923 428.816 403.923 420.697C400.138 420.073 395.407 419.448 389.73 418.824C384.368 418.511 378.691 418.199 372.698 417.887C367.021 417.887 361.501 418.043 356.139 418.355C350.778 418.98 346.52 419.917 343.366 421.166C343.05 423.664 342.892 426.63 342.892 430.065C343.208 433.5 343.681 437.092 344.312 440.839C345.258 444.586 346.204 448.177 347.15 451.612C348.412 455.359 349.674 458.326 350.935 460.512C358.189 471.129 367.652 479.561 379.321 485.806C390.991 492.051 404.238 495.174 419.062 495.174C431.993 495.174 442.559 495.33 450.76 495.643C458.96 495.955 464.638 495.799 467.792 495.174Z" fill="white"/>
<path d="M622.873 192.583C622.558 188.211 622.4 184.307 622.4 180.872C622.715 177.437 622.558 173.066 621.927 167.757C621.927 166.82 620.665 166.352 618.142 166.352C615.619 166.039 612.78 166.039 609.626 166.352C606.472 166.664 603.318 167.132 600.164 167.757C597.01 168.069 594.802 168.225 593.541 168.225C589.756 168.538 586.602 168.85 584.079 169.162C581.556 169.162 579.19 169.162 576.982 169.162C574.774 169.162 572.409 169.162 569.886 169.162C567.362 168.85 564.208 168.538 560.424 168.225C559.162 209.445 558.847 249.26 559.477 287.669C560.424 326.079 560.897 364.488 560.897 402.898C568.466 402.273 574.774 402.117 579.821 402.429C584.867 402.742 589.44 402.898 593.541 402.898C597.641 403.21 601.583 403.21 605.368 402.898C609.469 402.586 614.2 401.649 619.561 400.087V398.214C620.823 387.909 621.454 377.604 621.454 367.299C621.454 356.994 621.138 346.689 620.508 336.384C620.192 325.767 619.877 315.305 619.561 305C619.246 294.383 619.404 283.61 620.034 272.68C620.665 264.249 622.873 258.004 626.658 253.944C630.443 249.572 634.701 246.762 639.432 245.513C644.163 243.951 648.894 243.639 653.625 244.576C658.671 245.2 662.456 246.137 664.979 247.386C665.295 247.699 665.61 247.855 665.925 247.855C666.241 247.855 666.556 248.011 666.872 248.323C669.395 250.197 671.287 252.851 672.549 256.286C674.126 259.721 675.23 263.624 675.861 267.996C676.807 272.368 677.438 276.896 677.753 281.58C678.068 285.952 678.384 290.011 678.699 293.759C679.33 302.19 679.645 311.246 679.645 320.926C679.961 330.607 679.961 340.287 679.645 349.968C679.645 359.648 679.645 369.016 679.645 378.072C679.645 387.128 679.961 395.247 680.592 402.429C691.631 402.429 701.408 402.429 709.924 402.429C718.755 402.742 728.69 402.117 739.729 400.556C739.099 389.939 738.941 377.604 739.256 363.552C739.572 349.499 739.887 334.979 740.203 319.99C740.518 304.688 740.676 289.699 740.676 275.022C740.991 260.033 740.833 246.293 740.203 233.802C739.887 221.312 738.783 210.694 736.891 201.951C735.314 192.895 732.948 186.962 729.794 184.151C723.171 178.53 715.759 174.627 707.559 172.441C699.358 170.255 690.842 169.318 682.011 169.631C673.495 169.943 665.137 171.504 656.937 174.315C648.736 177.125 641.324 180.872 634.701 185.556C633.124 186.806 631.074 188.055 628.55 189.304C626.343 190.553 624.45 191.646 622.873 192.583Z" fill="white"/>
<path d="M1179.75 156.984H1140.01V401.493H1076.34V281.045H925.492V320.391C925.492 329.492 927.655 336.986 931.981 342.875C936.577 348.496 943.2 351.306 951.851 351.306C959.961 351.306 966.179 348.629 970.505 343.276C975.101 337.923 977.398 331.098 977.398 322.8V317.581H1038.63C1038.9 319.99 1039.04 322.934 1039.04 326.413C1039.04 350.503 1031.33 369.641 1015.92 383.827C1000.78 398.013 979.832 405.106 953.068 405.106C933.873 405.106 917.382 401.359 903.595 393.864C890.077 386.102 879.804 375.663 872.775 362.548C866.017 349.165 862.637 334.042 862.637 317.179V236.078H892.646C913.462 236.078 928.196 231.527 936.847 222.427C945.768 213.059 950.229 200.077 950.229 183.482V156.984H830.196V104.388H1179.75V156.984ZM1076.34 156.984H1013.9V183.482C1013.9 200.88 1010.65 216.271 1004.16 229.654H1076.34V156.984Z" fill="white"/>
<path d="M1176.56 460.913C1176.56 484.735 1168.58 503.472 1152.63 517.122C1136.41 531.041 1114.65 538 1087.34 538C1068.42 538 1050.98 534.788 1035.03 528.364C1019.08 522.208 1006.24 512.171 996.509 498.252C986.776 484.334 982.045 466.401 982.315 444.452H1038.68C1038.41 459.441 1042.6 470.549 1051.25 477.776C1059.63 485.003 1071.12 488.616 1085.72 488.616C1097.35 488.616 1106.4 486.074 1112.89 480.988C1119.38 476.17 1122.62 469.211 1122.62 460.11C1122.62 452.348 1119.92 445.924 1114.51 440.839C1108.84 435.753 1100.86 433.21 1090.59 433.21H1076.4V384.228H1090.59C1118.7 384.228 1140.06 390.92 1154.66 404.303C1169.26 417.954 1176.56 436.824 1176.56 460.913Z" fill="white"/>
<path d="M1513.54 156.984H1473.8V401.493H1409.73V254.948H1358.63C1365.66 267.528 1369.18 281.312 1369.18 296.302C1369.18 312.629 1365.26 326.681 1357.42 338.458C1349.85 350.235 1339.58 359.068 1326.6 364.957C1313.89 370.845 1299.7 373.79 1284.02 373.79C1267.8 373.79 1252.66 370.444 1238.6 363.752C1224.81 356.793 1213.73 346.89 1205.35 334.042C1196.97 320.926 1192.78 305.67 1192.78 288.272C1192.78 269.803 1197.1 254.145 1205.76 241.297C1214.41 228.182 1226.03 218.412 1240.63 211.988C1255.23 205.564 1271.45 202.352 1289.29 202.352H1409.73V156.984H1166.01V104.388H1513.54V156.984ZM1284.83 320.391C1294.83 320.391 1302.94 317.447 1309.16 311.558C1315.38 305.402 1318.49 297.506 1318.49 287.87C1318.49 278.234 1315.38 270.338 1309.16 264.182C1302.94 258.026 1294.83 254.948 1284.83 254.948C1274.83 254.948 1266.58 258.026 1260.09 264.182C1253.61 270.338 1250.36 278.234 1250.36 287.87C1250.36 297.506 1253.47 305.402 1259.69 311.558C1266.18 317.447 1274.56 320.391 1284.83 320.391Z" fill="white"/>
<path d="M1643 104.388V156.984H1603.26V401.493H1539.59V156.984H1499.85V104.388H1542.03C1531.21 88.0607 1522.43 76.2836 1515.67 69.0567C1509.18 61.8298 1502.42 57.0119 1495.39 54.603C1488.09 51.9264 1478.23 50.5881 1465.79 50.5881H1444.7V0H1464.57C1487.28 0.267642 1505.12 2.67659 1518.1 7.22684C1531.35 11.7771 1544.19 21.2791 1556.62 35.7328C1569.06 50.1865 1584.06 73.0716 1601.64 104.388H1643Z" fill="white"/>
</svg>
