<svg width="588" height="236" viewBox="0 0 588 236" fill="none" xmlns="http://www.w3.org/2000/svg">
<path d="M269.888 140.23C270.868 134.98 270.448 130.64 268.628 127.21C266.808 123.78 264.218 121.19 260.858 119.44C259.178 118.67 257.323 118.04 255.293 117.55C253.333 117.06 251.303 116.78 249.203 116.71C247.173 116.57 245.143 116.64 243.113 116.92C241.083 117.13 239.228 117.585 237.548 118.285C234.188 119.685 231.318 121.82 228.938 124.69C226.628 127.56 225.053 130.745 224.213 134.245C223.373 137.745 223.408 141.35 224.318 145.06C225.298 148.77 227.398 152.165 230.618 155.245C231.598 156.085 232.683 156.82 233.873 157.45C235.063 158.08 236.358 158.535 237.758 158.815C239.228 159.095 240.803 159.41 242.483 159.76C244.163 160.04 245.703 160.495 247.103 161.125C248.573 161.755 249.833 162.595 250.883 163.645C251.933 164.625 252.563 165.955 252.773 167.635C253.193 170.085 252.703 171.905 251.303 173.095C249.973 174.285 248.363 174.915 246.473 174.985C244.653 174.985 242.903 174.425 241.223 173.305C239.613 172.185 238.738 170.505 238.598 168.265C236.218 168.335 233.558 168.3 230.618 168.16C227.678 167.95 224.983 168.02 222.533 168.37V168.685V169C222.323 172.36 222.918 175.37 224.318 178.03C225.718 180.62 227.608 182.825 229.988 184.645C232.368 186.465 235.063 187.9 238.073 188.95C241.153 189.93 244.233 190.455 247.313 190.525C249.483 190.595 251.583 190.42 253.613 190C255.713 189.51 257.638 188.775 259.388 187.795C261.208 186.815 262.818 185.555 264.218 184.015C265.618 182.475 266.738 180.62 267.578 178.45C268.418 176.63 269.013 174.74 269.363 172.78C269.783 170.75 269.923 168.755 269.783 166.795C269.713 164.835 269.363 162.945 268.733 161.125C268.103 159.235 267.158 157.485 265.898 155.875C263.868 152.865 261.243 150.38 258.023 148.42C254.873 146.46 251.443 145.27 247.733 144.85C246.263 144.64 244.898 144.255 243.638 143.695C242.378 143.135 241.468 142.015 240.908 140.335C240.838 139.845 240.768 139.39 240.698 138.97C240.698 138.48 240.768 137.99 240.908 137.5C241.188 135.54 242.098 134.21 243.638 133.51C245.248 132.81 246.893 132.635 248.573 132.985C250.253 133.335 251.688 134.14 252.878 135.4C254.068 136.66 254.453 138.235 254.033 140.125C256.483 140.825 259.108 141.14 261.908 141.07C264.708 140.93 267.333 140.65 269.783 140.23H269.888ZM288.825 137.185C286.585 137.255 284.66 137.255 283.05 137.185C281.44 137.115 280.18 137.045 279.27 136.975C278.92 136.975 278.395 136.94 277.695 136.87C277.065 136.8 276.61 136.8 276.33 136.87V136.975C275.91 141.105 275.7 145.375 275.7 149.785C275.7 154.125 275.77 158.535 275.91 163.015C276.05 167.495 276.12 172.01 276.12 176.56C276.19 181.11 276.05 185.59 275.7 190C276.19 189.86 277.17 189.825 278.64 189.895C280.11 189.965 281.65 190 283.26 190C284.94 190.07 286.48 190.07 287.88 190C289.28 190 290.155 189.79 290.505 189.37C290.015 180.9 289.875 172.255 290.085 163.435C290.365 154.615 290.54 145.97 290.61 137.5V137.185H288.825ZM275.91 114.295C275.84 117.515 275.875 120.245 276.015 122.485C276.225 124.655 276.33 126.755 276.33 128.785C277.66 128.715 279.095 128.75 280.635 128.89C282.175 128.96 283.61 129.03 284.94 129.1C286.34 129.1 287.53 129.03 288.51 128.89C289.56 128.75 290.225 128.47 290.505 128.05C290.505 127 290.47 125.81 290.4 124.48C290.4 123.08 290.365 121.75 290.295 120.49C290.295 119.16 290.26 117.97 290.19 116.92C290.19 115.8 290.19 115.03 290.19 114.61L275.91 114.295ZM308.149 165.115C308.149 164.415 308.149 163.75 308.149 163.12C308.149 162.42 308.219 161.72 308.359 161.02C308.639 159.41 309.129 157.905 309.829 156.505C310.599 155.035 311.509 153.705 312.559 152.515C313.399 151.815 314.344 151.325 315.394 151.045C316.514 150.695 317.634 150.59 318.754 150.73C319.874 150.87 320.889 151.255 321.799 151.885C322.779 152.445 323.479 153.25 323.899 154.3C324.599 156.96 324.984 159.76 325.054 162.7C325.194 165.57 325.264 168.405 325.264 171.205C325.194 171.835 325.089 172.5 324.949 173.2C324.879 173.83 324.739 174.46 324.529 175.09C324.319 175.65 324.039 176.175 323.689 176.665C323.339 177.085 322.849 177.4 322.219 177.61C320.399 178.17 318.439 178.31 316.339 178.03C314.239 177.68 312.559 176.735 311.299 175.195C309.199 172.675 308.149 169.63 308.149 166.06V165.115ZM326.314 211C327.154 210.93 328.064 210.79 329.044 210.58C330.024 210.37 331.004 209.985 331.984 209.425C332.964 208.935 333.944 208.235 334.924 207.325C335.974 206.415 336.989 205.19 337.969 203.65C338.669 202.53 338.984 201.13 338.914 199.45C338.844 197.84 338.844 196.195 338.914 194.515C339.334 184.435 339.509 174.635 339.439 165.115C339.439 155.525 339.299 146.355 339.019 137.605C336.639 137.605 334.259 137.57 331.879 137.5C329.499 137.36 327.154 137.43 324.844 137.71C324.634 138.06 324.529 138.55 324.529 139.18C324.599 139.74 324.634 140.335 324.634 140.965C324.704 141.525 324.704 142.015 324.634 142.435C324.634 142.785 324.494 142.89 324.214 142.75C323.374 140.79 321.974 139.46 320.014 138.76C318.124 137.99 316.059 137.675 313.819 137.815C309.339 138.095 305.909 139.39 303.529 141.7C301.149 143.94 299.399 146.74 298.279 150.1C297.229 153.39 296.634 156.925 296.494 160.705C296.354 164.485 296.284 168.02 296.284 171.31C296.424 173.48 296.704 175.615 297.124 177.715C297.544 179.745 298.244 181.705 299.224 183.595C299.854 184.925 300.659 186.01 301.639 186.85C302.619 187.69 303.704 188.355 304.894 188.845C306.154 189.335 307.449 189.685 308.779 189.895C310.179 190.105 311.544 190.21 312.874 190.21C313.854 190.14 314.904 190.105 316.024 190.105C317.144 190.105 318.229 190.035 319.279 189.895C320.399 189.755 321.414 189.51 322.324 189.16C323.304 188.81 324.144 188.25 324.844 187.48C324.704 188.74 324.704 189.965 324.844 191.155C324.914 191.715 324.914 192.345 324.844 193.045C324.774 193.815 324.704 194.55 324.634 195.25C324.214 197.21 323.304 198.61 321.904 199.45C320.574 200.29 319.174 200.64 317.704 200.5C316.304 200.36 315.009 199.73 313.819 198.61C312.699 197.56 312.139 196.125 312.139 194.305C311.299 194.165 310.249 194.025 308.989 193.885C307.799 193.815 306.539 193.745 305.209 193.675C303.949 193.675 302.724 193.71 301.534 193.78C300.344 193.92 299.399 194.13 298.699 194.41C298.629 194.97 298.594 195.635 298.594 196.405C298.664 197.175 298.769 197.98 298.909 198.82C299.119 199.66 299.329 200.465 299.539 201.235C299.819 202.075 300.099 202.74 300.379 203.23C301.989 205.61 304.089 207.5 306.679 208.9C309.269 210.3 312.209 211 315.499 211C318.369 211 320.714 211.035 322.534 211.105C324.354 211.175 325.614 211.14 326.314 211ZM360.732 143.17C360.662 142.19 360.627 141.315 360.627 140.545C360.697 139.775 360.662 138.795 360.522 137.605C360.522 137.395 360.242 137.29 359.682 137.29C359.122 137.22 358.492 137.22 357.792 137.29C357.092 137.36 356.392 137.465 355.692 137.605C354.992 137.675 354.502 137.71 354.222 137.71C353.382 137.78 352.682 137.85 352.122 137.92C351.562 137.92 351.037 137.92 350.547 137.92C350.057 137.92 349.532 137.92 348.972 137.92C348.412 137.85 347.712 137.78 346.872 137.71C346.592 146.95 346.522 155.875 346.662 164.485C346.872 173.095 346.977 181.705 346.977 190.315C348.657 190.175 350.057 190.14 351.177 190.21C352.297 190.28 353.312 190.315 354.222 190.315C355.132 190.385 356.007 190.385 356.847 190.315C357.757 190.245 358.807 190.035 359.997 189.685V189.265C360.277 186.955 360.417 184.645 360.417 182.335C360.417 180.025 360.347 177.715 360.207 175.405C360.137 173.025 360.067 170.68 359.997 168.37C359.927 165.99 359.962 163.575 360.102 161.125C360.242 159.235 360.732 157.835 361.572 156.925C362.412 155.945 363.357 155.315 364.407 155.035C365.457 154.685 366.507 154.615 367.557 154.825C368.677 154.965 369.517 155.175 370.077 155.455C370.147 155.525 370.217 155.56 370.287 155.56C370.357 155.56 370.427 155.595 370.497 155.665C371.057 156.085 371.477 156.68 371.757 157.45C372.107 158.22 372.352 159.095 372.492 160.075C372.702 161.055 372.842 162.07 372.912 163.12C372.982 164.1 373.052 165.01 373.122 165.85C373.262 167.74 373.332 169.77 373.332 171.94C373.402 174.11 373.402 176.28 373.332 178.45C373.332 180.62 373.332 182.72 373.332 184.75C373.332 186.78 373.402 188.6 373.542 190.21C375.992 190.21 378.162 190.21 380.052 190.21C382.012 190.28 384.217 190.14 386.667 189.79C386.527 187.41 386.492 184.645 386.562 181.495C386.632 178.345 386.702 175.09 386.772 171.73C386.842 168.3 386.877 164.94 386.877 161.65C386.947 158.29 386.912 155.21 386.772 152.41C386.702 149.61 386.457 147.23 386.037 145.27C385.687 143.24 385.162 141.91 384.462 141.28C382.992 140.02 381.347 139.145 379.527 138.655C377.707 138.165 375.817 137.955 373.857 138.025C371.967 138.095 370.112 138.445 368.292 139.075C366.472 139.705 364.827 140.545 363.357 141.595C363.007 141.875 362.552 142.155 361.992 142.435C361.502 142.715 361.082 142.96 360.732 143.17ZM484.325 135.19H475.505V190H461.375V163H427.895V171.82C427.895 173.86 428.375 175.54 429.335 176.86C430.355 178.12 431.825 178.75 433.745 178.75C435.545 178.75 436.925 178.15 437.885 176.95C438.905 175.75 439.415 174.22 439.415 172.36V171.19H453.005C453.065 171.73 453.095 172.39 453.095 173.17C453.095 178.57 451.385 182.86 447.965 186.04C444.605 189.22 439.955 190.81 434.015 190.81C429.755 190.81 426.095 189.97 423.035 188.29C420.035 186.55 417.755 184.21 416.195 181.27C414.695 178.27 413.945 174.88 413.945 171.1V152.92H420.605C425.225 152.92 428.495 151.9 430.415 149.86C432.395 147.76 433.385 144.85 433.385 141.13V135.19H406.745V123.4H484.325V135.19ZM461.375 135.19H447.515V141.13C447.515 145.03 446.795 148.48 445.355 151.48H461.375V135.19ZM483.617 203.32C483.617 208.66 481.847 212.86 478.307 215.92C474.707 219.04 469.877 220.6 463.817 220.6C459.617 220.6 455.747 219.88 452.207 218.44C448.667 217.06 445.817 214.81 443.657 211.69C441.497 208.57 440.447 204.55 440.507 199.63H453.017C452.957 202.99 453.887 205.48 455.807 207.1C457.667 208.72 460.217 209.53 463.457 209.53C466.037 209.53 468.047 208.96 469.487 207.82C470.927 206.74 471.647 205.18 471.647 203.14C471.647 201.4 471.047 199.96 469.847 198.82C468.587 197.68 466.817 197.11 464.537 197.11H461.387V186.13H464.537C470.777 186.13 475.517 187.63 478.757 190.63C481.997 193.69 483.617 197.92 483.617 203.32ZM558.407 135.19H549.587V190H535.367V157.15H524.027C525.587 159.97 526.367 163.06 526.367 166.42C526.367 170.08 525.497 173.23 523.757 175.87C522.077 178.51 519.797 180.49 516.917 181.81C514.097 183.13 510.947 183.79 507.467 183.79C503.867 183.79 500.507 183.04 497.387 181.54C494.327 179.98 491.867 177.76 490.007 174.88C488.147 171.94 487.217 168.52 487.217 164.62C487.217 160.48 488.177 156.97 490.097 154.09C492.017 151.15 494.597 148.96 497.837 147.52C501.077 146.08 504.677 145.36 508.637 145.36H535.367V135.19H481.277V123.4H558.407V135.19ZM507.647 171.82C509.867 171.82 511.667 171.16 513.047 169.84C514.427 168.46 515.117 166.69 515.117 164.53C515.117 162.37 514.427 160.6 513.047 159.22C511.667 157.84 509.867 157.15 507.647 157.15C505.427 157.15 503.597 157.84 502.157 159.22C500.717 160.6 499.997 162.37 499.997 164.53C499.997 166.69 500.687 168.46 502.067 169.84C503.507 171.16 505.367 171.82 507.647 171.82ZM587.138 123.4V135.19H578.318V190H564.188V135.19H555.368V123.4H564.728C562.328 119.74 560.378 117.1 558.878 115.48C557.438 113.86 555.938 112.78 554.378 112.24C552.758 111.64 550.568 111.34 547.808 111.34H543.128V100H547.538C552.578 100.06 556.538 100.6 559.418 101.62C562.358 102.64 565.208 104.77 567.968 108.01C570.728 111.25 574.058 116.38 577.958 123.4H587.138Z" fill="#F6F9FF"/>
<path d="M216.432 67.3954L216.621 67.4991C218.111 68.4027 218.851 69.9217 218.98 72.1234C219.119 74.479 218.518 77.3384 217.557 80.2229C216.607 83.0749 215.359 85.7915 214.339 87.8086C213.831 88.8133 213.384 89.6358 213.066 90.2045C212.907 90.4886 212.78 90.709 212.695 90.8567C212.652 90.9305 212.619 90.9863 212.597 91.0232L212.572 91.0656L212.563 91.0804L212.555 91.0945L212.546 91.1098L212.545 91.1112L212.542 91.1169L212.54 91.1205L212.529 91.1394L212.478 91.2283L212.28 91.5755L211.526 92.897C210.874 94.0374 209.942 95.6711 208.816 97.6441C206.564 101.59 203.538 106.894 200.444 112.323C194.265 123.166 187.787 134.557 186.676 136.6L186.622 136.7L186.58 136.804C183.494 144.42 182.619 151.944 181.661 161.132C181.613 161.591 181.565 162.055 181.516 162.524C180.589 171.46 179.478 182.169 176.295 196.459C171.9 216.186 164.616 226.186 153.966 230.328C151.324 231.355 146.632 232.326 140.644 232.992C134.703 233.654 127.631 234 120.312 233.842C105.558 233.522 90.2264 231.156 81.0001 225.526C78.4398 223.964 75.3117 221.115 71.9624 217.504C68.6397 213.921 65.1989 209.697 62.0124 205.49C58.8279 201.285 55.9141 197.119 53.6462 193.662C51.3489 190.16 49.79 187.501 49.2417 186.264L49.2406 186.262C49.0042 185.731 48.7378 185.104 48.4348 184.392C45.5719 177.661 39.4456 163.257 24.5111 148.89L24.5101 148.889C16.2412 140.947 11.388 138.495 8.10362 136.933L7.9477 136.859C6.40134 136.124 5.56011 135.725 4.82762 135.083C4.12611 134.469 3.41758 133.521 2.54658 131.49L2.54465 131.485C1.80493 129.772 1.90541 128.46 2.33257 127.405C2.78835 126.28 3.69644 125.26 4.85855 124.37C6.00968 123.489 7.29357 122.824 8.31566 122.376C8.82093 122.154 9.24865 121.991 9.54505 121.885C9.63073 121.854 9.70514 121.829 9.76696 121.808C9.79369 121.806 9.82278 121.805 9.85418 121.804C10.0796 121.796 10.4246 121.788 10.8784 121.791C11.7862 121.797 13.1285 121.845 14.8211 122.017C18.2074 122.363 22.9863 123.207 28.4902 125.205C39.4537 129.185 53.375 137.769 64.9324 156.3C64.9337 156.303 64.935 156.306 64.9364 156.308C64.976 156.385 65.0304 156.485 65.0999 156.599C65.2343 156.819 65.4474 157.13 65.747 157.435C66.3374 158.038 67.5766 158.883 69.2133 158.338C69.2852 158.314 69.2891 158.313 69.2965 158.312C69.3063 158.311 69.3222 158.309 69.511 158.25C69.6979 158.192 69.9772 158.093 70.2804 157.906C70.9192 157.512 71.3376 156.932 71.6646 156.291C72.2687 155.108 72.9258 152.955 73.9084 148.934C75.923 140.688 76.7736 134.339 76.7736 128.215C76.7736 125.073 76.2801 121.968 75.7993 119.678C75.5574 118.526 75.3152 117.565 75.1324 116.887C75.041 116.548 74.9641 116.279 74.9093 116.093C74.8819 116 74.86 115.927 74.8445 115.876L74.8262 115.816L74.8257 115.814L54.5876 46.0832L54.5754 46.0411L54.562 46.0017L54.5619 46.0014L54.5617 46.0007L54.5613 45.9996L54.5608 45.9981L54.553 45.9741C54.5453 45.9508 54.5331 45.9129 54.5169 45.8613C54.4846 45.7582 54.4365 45.6006 54.3778 45.3952C54.2602 44.9839 54.1007 44.384 53.9398 43.649C53.616 42.1695 53.2964 40.1883 53.2822 38.1182C53.2532 33.8802 54.4567 30.0189 58.5507 28.4513C62.7605 26.8393 66.0215 28.6636 68.5035 31.3216C69.7429 32.6488 70.703 34.1117 71.3577 35.2606C71.6826 35.8306 71.9263 36.3127 72.0865 36.6469C72.1665 36.8137 72.2253 36.943 72.2627 37.0271C72.268 37.0391 72.2729 37.0502 72.2774 37.0604C72.2842 37.0759 72.29 37.0892 72.2948 37.1002L72.3405 37.2273L72.531 37.7574L73.2565 39.7764C73.8828 41.5196 74.7803 44.0187 75.865 47.042C78.0344 53.0886 80.9529 61.2317 83.9489 69.6179C89.9511 86.4189 96.2369 104.119 97.4661 107.971L97.4674 107.975C98.146 110.086 99.0494 111.775 100.168 112.921C101.305 114.086 102.827 114.823 104.506 114.488C106.114 114.167 107.282 112.972 108.037 111.6C108.805 110.203 109.289 108.39 109.469 106.289C109.644 104.253 109.645 98.1102 109.56 90.2175C109.474 82.2594 109.298 72.3717 109.102 62.7285C108.906 53.0843 108.689 43.68 108.521 36.687C108.437 33.1905 108.366 30.2965 108.315 28.2767C108.29 27.2667 108.27 26.4753 108.256 25.9363L108.24 25.3214L108.236 25.1638L108.235 25.1239L108.235 25.1139L108.235 25.1113C108.235 25.1108 108.235 25.1105 106.235 25.1622L108.235 25.1105L108.233 25.038L108.226 24.9671L108.226 24.9667L108.226 24.9662L108.226 24.9658L108.225 24.958L108.221 24.9165C108.218 24.8779 108.213 24.8177 108.206 24.7371C108.194 24.576 108.176 24.3341 108.159 24.0225C108.124 23.399 108.09 22.4996 108.091 21.4138C108.094 19.2322 108.242 16.3456 108.81 13.4506C109.382 10.5336 110.35 7.75786 111.894 5.67959C113.39 3.66566 115.432 2.28414 118.372 2.0286C121.061 1.79505 123.099 3.01587 124.784 5.37656C126.524 7.81431 127.739 11.3055 128.557 15.0482C129.367 18.7538 129.75 22.5236 129.928 25.3853C130.017 26.8115 130.055 28.0016 130.07 28.8319C130.078 29.2469 130.08 29.5713 130.08 29.7898C130.08 29.8991 130.08 29.9817 130.079 30.0359L130.079 30.0956L130.079 30.109L130.079 30.1111V30.1115V30.1116L130.078 30.1432L130.079 30.1754L132.078 30.1397C130.079 30.1754 130.079 30.1756 130.079 30.1762L130.079 30.1786L130.079 30.1881L130.08 30.226L130.082 30.3757L130.093 30.9607L130.133 33.1883C130.167 35.1113 130.217 37.8674 130.278 41.2001C130.399 47.8654 130.565 56.8371 130.74 66.0622C131.089 84.495 131.478 103.986 131.634 108.064C131.713 110.193 132.041 111.907 132.715 113.119C133.065 113.749 133.563 114.339 134.262 114.717C134.991 115.111 135.774 115.185 136.495 115.034C137.807 114.761 138.815 113.783 139.482 112.897C140.2 111.941 140.786 110.742 141.153 109.477C142.381 105.246 159.525 44.7037 161.405 37.8377L161.406 37.8336C162.33 34.4308 163.479 31.2662 165.428 29.1192C167.235 27.1292 169.894 25.835 174.428 26.5205C176.138 26.7804 177.342 27.8551 178.218 29.741C179.123 31.6883 179.561 34.2963 179.692 37.0533C179.821 39.7773 179.645 42.4801 179.433 44.5181C179.327 45.5328 179.213 46.3727 179.126 46.9556C179.082 47.2469 179.046 47.4734 179.02 47.6249C179.008 47.7001 178.998 47.7567 178.992 47.7935C178.992 47.7938 178.992 47.7941 178.991 47.7944L178.96 47.9249L178.827 48.4781L178.321 50.582C177.885 52.3969 177.26 54.9951 176.508 58.1286C175.004 64.3954 172.989 72.8035 170.945 81.3677C166.872 98.4361 162.65 116.259 162.172 118.835C161.909 120.22 161.851 121.423 161.994 122.438C162.135 123.435 162.496 124.413 163.225 125.122C164.015 125.89 165.078 126.174 166.102 125.934C167.053 125.712 167.791 125.089 168.276 124.385C168.662 123.825 172.356 118.076 177.158 110.601C179.465 107.011 182.027 103.023 184.602 99.0198C192.588 86.6027 200.666 74.0877 201.873 72.4275C201.944 72.3311 202.015 72.2331 202.088 72.1339C203.369 70.3773 204.95 68.21 207.166 66.8999C208.29 66.2353 209.552 65.8137 211.01 65.8056C212.474 65.7975 214.262 66.2059 216.432 67.3954Z" stroke="#F6F9FF" stroke-width="4"/>
<path d="M110.24 210.477C106.001 210.477 101.577 208.449 98.8121 204.763C95.4023 200.339 94.7568 194.164 97.0609 187.344C97.3373 186.422 98.443 185.869 99.3649 186.146C100.287 186.422 100.84 187.528 100.563 188.45C99.4575 191.676 98.1672 197.851 101.762 202.459C104.711 206.329 110.24 207.896 114.019 205.868C115.862 204.855 117.429 203.103 118.719 201.26C121.3 197.851 123.512 194.256 125.447 190.477C125.723 189.925 126 189.464 126.184 188.911C126.737 187.805 127.29 186.699 127.935 185.593C130.055 181.722 132.912 178.313 135.585 174.995C136.967 173.336 138.35 171.677 139.547 169.926C144.063 163.843 146.183 158.497 145.907 153.521C145.63 148.084 142.404 142.553 137.336 139.144C132.728 136.102 126.645 134.628 120.286 135.089C112.729 135.641 106.185 139.051 102.868 144.397C99.1814 150.203 99.4577 159.696 103.513 167.99C103.974 168.912 103.605 170.018 102.684 170.479C101.762 170.94 100.656 170.571 100.195 169.649C95.5871 160.249 95.4026 149.282 99.7342 142.462C103.697 136.195 111.254 132.047 120.01 131.494C127.198 131.033 134.111 132.693 139.364 136.194C145.354 140.157 149.317 146.793 149.594 153.429C149.87 159.327 147.474 165.41 142.497 172.23C141.207 173.981 139.732 175.732 138.35 177.39C135.585 180.708 133.096 183.842 131.07 187.436C130.517 188.45 129.964 189.463 129.411 190.569C129.134 191.122 128.858 191.675 128.582 192.136C126.554 196.098 124.158 199.97 121.485 203.472C119.918 205.591 118.075 207.711 115.495 209.093C114.111 210.017 112.176 210.477 110.24 210.477Z" fill="#F6F9FF"/>
<path d="M112.913 186.146C112.084 186.146 111.438 185.593 111.162 184.856C110.885 183.842 111.438 182.828 112.36 182.552C114.849 181.814 116.507 180.432 117.06 178.589C117.613 176.93 117.152 174.995 115.862 173.244C115.309 172.506 114.664 171.677 114.019 170.848C111.162 167.161 107.936 163.014 107.383 159.512C106.646 154.535 109.042 149.005 112.821 146.425C118.811 142.462 125.078 141.909 130.423 144.858C136.23 147.992 139.179 154.166 139.087 158.498C139.087 159.512 138.257 160.341 137.244 160.341C136.23 160.341 135.401 159.512 135.401 158.498C135.493 155.272 132.912 150.48 128.581 148.176C125.631 146.609 120.931 145.504 114.756 149.558C112.176 151.309 110.425 155.548 110.885 159.051C111.254 161.631 114.295 165.502 116.692 168.635C117.337 169.465 117.982 170.294 118.535 171.124C120.562 173.889 121.207 177.022 120.286 179.787C119.272 182.737 116.784 185.041 113.098 186.147C113.282 186.054 113.098 186.146 112.913 186.146L112.913 186.146Z" fill="#F6F9FF"/>
</svg>
