<svg width="390" height="390" viewBox="0 0 390 390" fill="none" xmlns="http://www.w3.org/2000/svg">
<path d="M390 195C390 302.696 302.696 390 195 390C87.3045 390 0 302.696 0 195C0 87.3045 87.3045 0 195 0C302.696 0 390 87.3045 390 195Z" fill="#4878FF"/>
<path d="M261.411 257.055C259.488 257.059 257.647 256.266 256.328 254.865C255.008 253.464 254.327 251.58 254.445 249.66C254.563 247.739 255.471 245.953 256.953 244.725C271.307 232.322 279.273 214.085 278.618 195.127C279.273 176.167 271.307 157.931 256.953 145.528C255.397 144.4 254.375 142.677 254.132 140.771C253.888 138.863 254.445 136.94 255.669 135.456C256.891 133.973 258.673 133.062 260.592 132.937C262.51 132.813 264.397 133.488 265.801 134.8C274.437 142.256 281.316 151.533 285.94 161.963C290.566 172.394 292.824 183.72 292.55 195.127C292.832 206.528 290.585 217.851 285.973 228.281C281.359 238.712 274.494 247.99 265.871 255.454C264.617 256.493 263.039 257.058 261.411 257.055ZM249.569 231.42C259.227 221.81 264.655 208.749 264.655 195.126C264.655 181.503 259.226 168.442 249.569 158.832C247.778 157.103 245.199 156.461 242.805 157.148C240.412 157.834 238.566 159.746 237.964 162.163C237.361 164.579 238.095 167.134 239.886 168.863C246.82 175.845 250.712 185.287 250.712 195.126C250.712 204.966 246.82 214.408 239.886 221.39C238.095 223.119 237.361 225.673 237.964 228.09C238.566 230.506 240.412 232.419 242.805 233.105C245.2 233.792 247.778 233.149 249.569 231.42ZM132.331 146.362H125.365C117.974 146.362 110.887 149.297 105.662 154.524C100.436 159.748 97.5 166.836 97.5 174.226V216.023C97.5 223.413 100.436 230.501 105.662 235.726C110.887 240.952 117.974 243.888 125.365 243.888H132.331V146.362ZM219.268 98.4345C218.209 97.8219 217.009 97.5 215.785 97.5C214.563 97.5 213.361 97.8219 212.302 98.4345L146.263 140.649V249.6L212.163 291.397C213.557 292.292 215.227 292.661 216.869 292.435C218.513 292.211 220.021 291.408 221.125 290.17C222.229 288.932 222.854 287.341 222.89 285.684V104.564C222.893 103.311 222.559 102.081 221.921 101.002C221.284 99.9225 220.368 99.0347 219.268 98.4345Z" fill="#F6F9FF"/>
</svg>
