<svg width="76" height="76" viewBox="0 0 76 76" fill="none" xmlns="http://www.w3.org/2000/svg">
<path d="M36.6425 24.4802L36.6433 24.4794L58.477 2.64523C59.8598 1.26238 61.7056 0.5 63.669 0.5C65.6324 0.5 67.4776 1.26183 68.861 2.64523L73.3528 7.13709C76.2157 10.0001 76.2157 14.6577 73.3528 17.5207L51.5191 39.3563L51.1655 39.0028L51.5191 39.3564C51.356 39.5195 51.1774 39.6578 50.9884 39.7719L51.0306 39.8355L50.4067 40.0401L34.1932 45.3556L36.6425 24.4802ZM36.6425 24.4802C36.4797 24.6437 36.3417 24.8223 36.228 25.0114M36.6425 24.4802L36.228 25.0114M36.228 25.0114L36.1651 24.9695L35.9603 25.594L30.6447 41.8082C30.3133 42.8153 30.5784 43.9235 31.3282 44.6728C31.8638 45.2084 32.5828 45.4964 33.3171 45.4964C33.6094 45.4964 33.9053 45.4506 34.1923 45.356L36.228 25.0114ZM72.6848 32.5845H72.6844C71.1306 32.5845 69.8719 33.8433 69.8719 35.397V63.3888C69.8719 66.9634 66.9629 69.8736 63.3873 69.8736H12.6095C9.03497 69.8736 6.12482 66.9645 6.12482 63.3888V12.6099C6.12482 9.03526 9.03389 6.12507 12.6095 6.12507H40.6007C42.1544 6.12507 43.4131 4.86637 43.4131 3.31261C43.4131 1.75884 42.1544 0.500149 40.6007 0.500149H12.6095C5.93156 0.500149 0.5 5.93199 0.5 12.6099V63.3903C0.5 70.0671 5.93169 75.5 12.6101 75.5H63.3879C70.0658 75.5 75.4974 70.0682 75.4974 63.3903V35.3985C75.4974 33.8447 74.238 32.5859 72.6848 32.5845ZM69.3771 11.1158L69.3773 11.1161C69.6974 11.4357 69.8746 11.8646 69.8746 12.3302C69.8746 12.7956 69.697 13.2247 69.3771 13.5446L49.5307 33.39L42.6092 26.4683L62.4559 6.62399L62.1024 6.27041L62.456 6.62398C63.1255 5.95453 64.2159 5.95455 64.8853 6.62396L69.3771 11.1158ZM39.8786 31.6919L44.3059 36.1193L37.7188 38.2794L39.8786 31.6919Z" fill="url(#paint0_linear_360_57)" stroke="url(#paint1_linear_360_57)"/>
<defs>
<linearGradient id="paint0_linear_360_57" x1="17.0351" y1="1" x2="92.6936" y2="32.4929" gradientUnits="userSpaceOnUse">
<stop stop-color="#0B51DA"/>
<stop offset="1" stop-color="#4878FF"/>
</linearGradient>
<linearGradient id="paint1_linear_360_57" x1="17.0351" y1="1" x2="92.6936" y2="32.4929" gradientUnits="userSpaceOnUse">
<stop stop-color="#0B51DA"/>
<stop offset="1" stop-color="#4878FF"/>
</linearGradient>
</defs>
</svg>
