<svg width="514" height="514" viewBox="0 0 514 514" fill="none" xmlns="http://www.w3.org/2000/svg">
<mask id="mask0_359_9" style="mask-type:alpha" maskUnits="userSpaceOnUse" x="0" y="0" width="514" height="514">
<rect width="514" height="514" fill="#D9D9D9"/>
</mask>
<g mask="url(#mask0_359_9)">
<path d="M256.996 333.565C281.268 333.565 301.878 325.084 318.826 308.122C335.788 291.174 344.269 270.564 344.269 246.292C344.269 222.019 335.788 201.409 318.826 184.462C301.878 167.5 281.268 159.019 256.996 159.019C232.724 159.019 212.114 167.5 195.166 184.462C178.204 201.409 169.723 222.019 169.723 246.292C169.723 270.564 178.204 291.174 195.166 308.122C212.114 325.084 232.724 333.565 256.996 333.565ZM256.996 304.117C240.934 304.117 227.284 298.491 216.047 287.24C204.797 276.004 199.171 262.354 199.171 246.292C199.171 230.229 204.797 216.572 216.047 205.322C227.284 194.085 240.934 188.467 256.996 188.467C273.059 188.467 286.715 194.085 297.966 205.322C309.203 216.572 314.821 230.229 314.821 246.292C314.821 262.354 309.203 276.004 297.966 287.24C286.715 298.491 273.059 304.117 256.996 304.117ZM256.996 396.208C207.738 396.208 162.856 382.644 122.35 355.517C81.8292 328.389 52.11 291.981 33.1919 246.292C52.11 200.603 81.8292 164.194 122.35 137.067C162.856 109.939 207.738 96.375 256.996 96.375C306.254 96.375 351.144 109.939 391.664 137.067C432.17 164.194 461.882 200.603 480.8 246.292C461.882 291.981 432.17 328.389 391.664 355.517C351.144 382.644 306.254 396.208 256.996 396.208ZM256.996 364.083C297.331 364.083 334.367 353.461 368.106 332.215C401.83 310.984 427.616 282.343 445.463 246.292C427.616 210.24 401.83 181.592 368.106 160.347C334.367 139.116 297.331 128.5 256.996 128.5C216.661 128.5 179.625 139.116 145.886 160.347C112.162 181.592 86.3766 210.24 68.5294 246.292C86.3766 282.343 112.162 310.984 145.886 332.215C179.625 353.461 216.661 364.083 256.996 364.083Z" fill="#9FB1CF"/>
</g>
</svg>
