<svg width="798" height="45" viewBox="0 0 798 45" fill="none" xmlns="http://www.w3.org/2000/svg">
<path d="M9.81219 8.456C9.36419 8.552 9.01219 8.728 8.75619 8.984C8.69219 9.048 8.62819 9.16 8.56419 9.32C8.53219 9.448 8.50019 9.544 8.46819 9.608C8.40419 9.704 8.34019 10.264 8.27619 11.288C8.24419 12.312 8.21219 13.528 8.18019 14.936C8.14819 16.344 8.13219 17.816 8.13219 19.352C8.13219 20.856 8.18019 22.168 8.27619 23.288C8.37219 24.216 8.61219 25.128 8.99619 26.024C9.41219 26.888 10.0842 27.448 11.0122 27.704C11.7162 27.768 12.3722 27.672 12.9802 27.416C13.6202 27.128 14.1002 26.664 14.4202 26.024C14.7722 25.288 14.9162 24.52 14.8522 23.72C14.8202 22.888 14.8842 22.072 15.0442 21.272C15.4922 21.336 15.9882 21.352 16.5322 21.32C17.1082 21.288 17.6842 21.272 18.2602 21.272C18.8362 21.272 19.3962 21.288 19.9402 21.32C20.5162 21.352 21.0282 21.432 21.4762 21.56C22.0202 23.224 22.1642 24.888 21.9082 26.552C21.6522 28.184 21.0922 29.656 20.2282 30.968C19.3642 32.28 18.2282 33.368 16.8202 34.232C15.4442 35.064 13.8762 35.496 12.1162 35.528C10.9642 35.688 9.78019 35.688 8.56419 35.528C7.34819 35.4 6.21219 35.096 5.15619 34.616C4.10019 34.104 3.20419 33.4 2.46819 32.504C1.76419 31.608 1.34819 30.488 1.22019 29.144C1.15619 27.992 1.10819 26.792 1.07619 25.544C1.04419 24.296 1.01219 22.904 0.980188 21.368C0.980188 19.8 0.980188 18.04 0.980188 16.088C1.01219 14.104 1.04419 11.816 1.07619 9.224C1.01219 8.68 1.02819 8.136 1.12419 7.592C1.25219 7.016 1.41219 6.488 1.60419 6.008C1.89219 5.176 2.24419 4.408 2.66019 3.704C3.10819 3 3.63619 2.376 4.24419 1.832C4.59619 1.576 4.98019 1.368 5.39619 1.208C5.81219 1.016 6.24419 0.855998 6.69219 0.727998C8.16419 0.247998 9.62019 0.0559988 11.0602 0.151999C12.5002 0.247998 13.8442 0.583998 15.0922 1.16C16.3722 1.704 17.5242 2.44 18.5482 3.368C19.5722 4.296 20.3882 5.368 20.9962 6.584C21.6042 7.768 21.9722 9.064 22.1002 10.472C22.2282 11.88 22.0362 13.32 21.5242 14.792C20.3402 15.048 19.1722 15.144 18.0202 15.08C16.9002 14.984 15.7322 14.824 14.5162 14.6C14.4202 13.992 14.3562 13.304 14.3242 12.536C14.3242 11.768 14.2442 11.064 14.0842 10.424C13.9242 9.752 13.6202 9.208 13.1722 8.792C12.7562 8.376 12.0842 8.184 11.1562 8.216C10.7402 8.28 10.2922 8.36 9.81219 8.456ZM30.9457 12.392C30.9457 13.064 30.9457 13.464 30.9457 13.592C31.1057 13.496 31.2977 13.384 31.5217 13.256C31.7777 13.128 31.9857 13 32.1457 12.872C32.8177 12.392 33.5697 12.008 34.4017 11.72C35.2337 11.432 36.0817 11.272 36.9457 11.24C37.8417 11.208 38.7057 11.304 39.5377 11.528C40.3697 11.752 41.1217 12.152 41.7937 12.728C42.1137 13.016 42.3537 13.624 42.5137 14.552C42.7057 15.448 42.8177 16.536 42.8497 17.816C42.9137 19.096 42.9297 20.504 42.8977 22.04C42.8977 23.544 42.8817 25.08 42.8497 26.648C42.8177 28.184 42.7857 29.672 42.7537 31.112C42.7217 32.552 42.7377 33.816 42.8017 34.904C41.6817 35.064 40.6737 35.128 39.7777 35.096C38.9137 35.096 37.9217 35.096 36.8017 35.096C36.7377 34.36 36.7057 33.528 36.7057 32.6C36.7057 31.672 36.7057 30.712 36.7057 29.72C36.7377 28.728 36.7377 27.736 36.7057 26.744C36.7057 25.752 36.6737 24.824 36.6097 23.96C36.5777 23.576 36.5457 23.16 36.5137 22.712C36.4817 22.232 36.4177 21.768 36.3217 21.32C36.2577 20.872 36.1457 20.472 35.9857 20.12C35.8577 19.768 35.6657 19.496 35.4097 19.304C35.3777 19.272 35.3457 19.256 35.3137 19.256C35.2817 19.256 35.2497 19.24 35.2177 19.208C34.9617 19.08 34.5777 18.984 34.0657 18.92C33.5857 18.824 33.1057 18.856 32.6257 19.016C32.1457 19.144 31.7137 19.432 31.3297 19.88C30.9457 20.296 30.7217 20.936 30.6577 21.8C30.5937 22.92 30.5777 24.024 30.6097 25.112C30.6417 26.168 30.6737 27.24 30.7057 28.328C30.7697 29.384 30.8017 30.44 30.8017 31.496C30.8017 32.552 30.7377 33.608 30.6097 34.664V34.856C30.0657 35.016 29.5857 35.112 29.1697 35.144C28.7857 35.176 28.3857 35.176 27.9697 35.144C27.5537 35.144 27.0897 35.128 26.5777 35.096C26.0657 35.064 25.4257 35.08 24.6577 35.144C24.6577 33.832 24.6417 32.264 24.6097 30.44C24.6097 28.584 24.5937 26.6 24.5617 24.488C24.5617 22.376 24.5617 20.2 24.5617 17.96C24.5617 15.688 24.5617 13.48 24.5617 11.336C24.5617 9.192 24.5617 7.176 24.5617 5.288C24.5937 3.368 24.6257 1.704 24.6577 0.295998C25.0417 0.327997 25.3617 0.359998 25.6177 0.391999C25.8737 0.391999 26.1137 0.391999 26.3377 0.391999C26.5617 0.391999 26.8017 0.391999 27.0577 0.391999C27.3137 0.359998 27.6337 0.327997 28.0177 0.295998C28.1457 0.295998 28.3697 0.279998 28.6897 0.247998C29.0097 0.183999 29.3297 0.135999 29.6497 0.103997C29.9697 0.0719976 30.2577 0.0719976 30.5137 0.103997C30.7697 0.103997 30.8977 0.151998 30.8977 0.247998C30.9297 0.407998 30.9457 0.839998 30.9457 1.544C30.9457 2.216 30.9457 3.032 30.9457 3.992C30.9457 4.92 30.9457 5.928 30.9457 7.016C30.9457 8.072 30.9457 9.064 30.9457 9.992C30.9457 10.92 30.9457 11.72 30.9457 12.392ZM46.1733 14.552C46.3653 13.944 46.5093 13.464 46.6053 13.112C46.8293 12.632 47.1813 12.216 47.6613 11.864C48.1733 11.512 48.7493 11.224 49.3893 11C50.0613 10.744 50.7653 10.568 51.5013 10.472C52.2693 10.376 53.0373 10.328 53.8053 10.328C54.4453 10.392 55.0533 10.408 55.6293 10.376C56.2373 10.312 56.8773 10.312 57.5493 10.376C58.5733 10.44 59.5493 10.648 60.4773 11C61.4053 11.32 62.2053 11.8 62.8773 12.44C63.3253 12.728 63.6773 13.192 63.9333 13.832C64.1893 14.472 64.3813 15.224 64.5093 16.088C64.6373 16.92 64.7173 17.848 64.7493 18.872C64.7813 19.864 64.8133 20.888 64.8453 21.944C64.8133 22.872 64.7653 23.928 64.7013 25.112C64.6693 26.296 64.5893 27.432 64.4613 28.52C64.3653 29.608 64.2213 30.584 64.0293 31.448C63.8693 32.312 63.6293 32.904 63.3093 33.224C62.7653 33.992 62.0453 34.536 61.1493 34.856C60.2853 35.176 59.3413 35.368 58.3173 35.432C57.2933 35.528 56.2373 35.528 55.1493 35.432C54.0613 35.368 53.0693 35.336 52.1733 35.336C50.5413 35.048 49.1653 34.344 48.0453 33.224C47.1813 32.456 46.5893 31.496 46.2693 30.344C45.9493 29.192 45.7573 27.992 45.6933 26.744C45.6293 25.464 45.6133 24.184 45.6453 22.904C45.7093 21.624 45.6933 20.456 45.5973 19.4C45.5973 18.824 45.6133 18.264 45.6453 17.72C45.6773 17.144 45.7413 16.552 45.8373 15.944C45.8693 15.592 45.9813 15.128 46.1733 14.552ZM54.2373 17.72C53.5653 17.912 53.0213 18.264 52.6053 18.776C52.4133 18.904 52.2693 19.224 52.1733 19.736C52.0453 20.76 51.9813 21.784 51.9813 22.808C51.9813 23.8 51.9493 24.856 51.8853 25.976C51.8533 26.712 52.0453 27.288 52.4613 27.704C52.8773 28.088 53.3733 28.36 53.9493 28.52C54.5573 28.648 55.1813 28.68 55.8213 28.616C56.4613 28.52 56.9893 28.36 57.4053 28.136C57.9493 27.88 58.3173 27.352 58.5093 26.552C58.6373 25.528 58.7333 24.504 58.7973 23.48C58.8933 22.424 58.8453 21.432 58.6533 20.504C58.4933 19.384 58.0293 18.568 57.2613 18.056C56.4933 17.544 55.4853 17.432 54.2373 17.72ZM67.6889 14.552C67.8809 13.944 68.0249 13.464 68.1209 13.112C68.3449 12.632 68.6969 12.216 69.1769 11.864C69.6889 11.512 70.2649 11.224 70.9049 11C71.5769 10.744 72.2809 10.568 73.0169 10.472C73.7849 10.376 74.5529 10.328 75.3209 10.328C75.9609 10.392 76.5689 10.408 77.1449 10.376C77.7529 10.312 78.3929 10.312 79.0649 10.376C80.0889 10.44 81.0649 10.648 81.9929 11C82.9209 11.32 83.7209 11.8 84.3929 12.44C84.8409 12.728 85.1929 13.192 85.4489 13.832C85.7049 14.472 85.8969 15.224 86.0249 16.088C86.1529 16.92 86.2329 17.848 86.2649 18.872C86.2969 19.864 86.3289 20.888 86.3609 21.944C86.3289 22.872 86.2809 23.928 86.2169 25.112C86.1849 26.296 86.1049 27.432 85.9769 28.52C85.8809 29.608 85.7369 30.584 85.5449 31.448C85.3849 32.312 85.1449 32.904 84.8249 33.224C84.2809 33.992 83.5609 34.536 82.6649 34.856C81.8009 35.176 80.8569 35.368 79.8329 35.432C78.8089 35.528 77.7529 35.528 76.6649 35.432C75.5769 35.368 74.5849 35.336 73.6889 35.336C72.0569 35.048 70.6809 34.344 69.5609 33.224C68.6969 32.456 68.1049 31.496 67.7849 30.344C67.4649 29.192 67.2729 27.992 67.2089 26.744C67.1449 25.464 67.1289 24.184 67.1609 22.904C67.2249 21.624 67.2089 20.456 67.1129 19.4C67.1129 18.824 67.1289 18.264 67.1609 17.72C67.1929 17.144 67.2569 16.552 67.3529 15.944C67.3849 15.592 67.4969 15.128 67.6889 14.552ZM75.7529 17.72C75.0809 17.912 74.5369 18.264 74.1209 18.776C73.9289 18.904 73.7849 19.224 73.6889 19.736C73.5609 20.76 73.4969 21.784 73.4969 22.808C73.4969 23.8 73.4649 24.856 73.4009 25.976C73.3689 26.712 73.5609 27.288 73.9769 27.704C74.3929 28.088 74.8889 28.36 75.4649 28.52C76.0729 28.648 76.6969 28.68 77.3369 28.616C77.9769 28.52 78.5049 28.36 78.9209 28.136C79.4649 27.88 79.8329 27.352 80.0249 26.552C80.1529 25.528 80.2489 24.504 80.3129 23.48C80.4089 22.424 80.3609 21.432 80.1689 20.504C80.0089 19.384 79.5449 18.568 78.7769 18.056C78.0089 17.544 77.0009 17.432 75.7529 17.72ZM107.445 13.736C108.085 15.112 108.405 16.664 108.405 18.392C107.381 18.552 106.245 18.648 104.997 18.68C103.781 18.712 102.629 18.616 101.541 18.392C101.637 18.008 101.589 17.624 101.397 17.24C101.237 16.856 100.981 16.52 100.629 16.232C100.309 15.944 99.9246 15.736 99.4766 15.608C99.0606 15.448 98.6446 15.384 98.2286 15.416C97.4926 15.544 96.9326 15.832 96.5486 16.28C96.1966 16.696 96.0206 17.16 96.0206 17.672C96.0206 18.184 96.2126 18.696 96.5966 19.208C96.9806 19.72 97.5406 20.104 98.2766 20.36C100.069 20.616 101.749 20.968 103.317 21.416C104.885 21.832 106.037 22.52 106.773 23.48C107.477 24.632 107.909 25.816 108.069 27.032C108.229 28.216 108.005 29.688 107.397 31.448C106.661 33.016 105.509 34.136 103.941 34.808C102.373 35.48 100.661 35.8 98.8046 35.768C97.1726 35.832 95.7006 35.688 94.3886 35.336C93.0766 34.984 91.9406 34.456 90.9806 33.752C90.0526 33.048 89.3166 32.184 88.7726 31.16C88.2606 30.136 88.0046 28.984 88.0046 27.704V27.56V27.464C89.0606 27.336 90.2606 27.304 91.6046 27.368C92.9486 27.4 94.1166 27.416 95.1086 27.416C95.1406 28.152 95.4766 28.76 96.1166 29.24C96.7886 29.688 97.4926 29.96 98.2286 30.056C98.9646 30.12 99.6366 29.976 100.245 29.624C100.853 29.272 101.141 28.632 101.109 27.704C101.205 26.936 101.029 26.36 100.581 25.976C100.133 25.592 99.5406 25.304 98.8046 25.112C98.0686 24.888 97.2366 24.696 96.3086 24.536C95.3806 24.376 94.4686 24.104 93.5726 23.72C91.7806 23.112 90.4686 22.168 89.6366 20.888C88.8366 19.576 88.4526 18.232 88.4846 16.856C88.5486 15.448 88.9966 14.152 89.8286 12.968C90.6926 11.784 91.9086 10.984 93.4766 10.568C94.0846 10.408 94.8206 10.28 95.6846 10.184C96.5806 10.088 97.5246 10.04 98.5166 10.04C99.5086 10.04 100.501 10.104 101.493 10.232C102.485 10.328 103.397 10.472 104.229 10.664C105.733 11.304 106.805 12.328 107.445 13.736ZM118.11 23.096C117.406 23.064 116.894 23.016 116.574 22.952V23.816C116.606 24.776 116.638 25.56 116.67 26.168C116.734 26.776 116.942 27.368 117.294 27.944C117.678 28.68 118.222 29.224 118.926 29.576C119.63 29.928 120.318 30.04 120.99 29.912C121.662 29.784 122.222 29.4 122.67 28.76C123.15 28.088 123.358 27.096 123.294 25.784C123.614 25.816 124.046 25.832 124.59 25.832C125.134 25.8 125.694 25.768 126.27 25.736C126.878 25.704 127.454 25.704 127.998 25.736C128.542 25.736 128.99 25.784 129.342 25.88C129.278 26.712 129.214 27.528 129.15 28.328C129.086 29.128 129.006 29.88 128.91 30.584C128.814 31.256 128.686 31.848 128.526 32.36C128.398 32.84 128.222 33.176 127.998 33.368C127.454 34.136 126.75 34.68 125.886 35C125.022 35.32 124.078 35.512 123.054 35.576C122.03 35.64 120.974 35.64 119.886 35.576C118.83 35.512 117.854 35.48 116.958 35.48C116.062 35.352 115.23 35.064 114.462 34.616C113.598 34.008 112.878 33.224 112.302 32.264C111.726 31.272 111.262 30.2 110.91 29.048C110.558 27.864 110.318 26.616 110.19 25.304C110.062 23.992 110.03 22.68 110.094 21.368C110.19 20.184 110.286 19.048 110.382 17.96C110.51 16.84 110.766 15.752 111.15 14.696C111.566 13.768 112.206 12.984 113.07 12.344C113.934 11.672 114.91 11.176 115.998 10.856C117.086 10.504 118.238 10.312 119.454 10.28C120.67 10.248 121.854 10.376 123.006 10.664C124.478 10.92 125.662 11.432 126.558 12.2C127.454 12.968 128.126 13.896 128.574 14.984C129.054 16.072 129.342 17.272 129.438 18.584C129.534 19.896 129.534 21.224 129.438 22.568C129.214 22.632 128.782 22.696 128.142 22.76C127.534 22.824 126.798 22.888 125.934 22.952C125.102 23.016 124.206 23.064 123.246 23.096C122.286 23.128 121.358 23.144 120.462 23.144C119.598 23.144 118.814 23.128 118.11 23.096ZM123.726 16.808C123.406 16.232 122.958 15.8 122.382 15.512C122.126 15.352 121.87 15.24 121.614 15.176C121.358 15.08 121.054 15.032 120.702 15.032C119.934 15.032 119.31 15.112 118.83 15.272C118.35 15.432 117.966 15.656 117.678 15.944C117.39 16.232 117.166 16.568 117.006 16.952C116.878 17.336 116.782 17.736 116.718 18.152C116.654 18.504 116.622 18.76 116.622 18.92C116.654 19.048 116.814 19.144 117.102 19.208C117.39 19.24 117.838 19.256 118.446 19.256C119.086 19.224 120.014 19.208 121.23 19.208C122.062 19.208 122.686 19.224 123.102 19.256C123.518 19.288 123.806 19.304 123.966 19.304C124.158 19.272 124.254 19.224 124.254 19.16C124.254 19.064 124.254 18.888 124.254 18.632C124.254 17.992 124.078 17.384 123.726 16.808ZM142.972 11.096C144.252 11 145.404 11.016 146.428 11.144C146.652 12.296 146.908 13.672 147.196 15.272C147.484 16.84 147.788 18.44 148.108 20.072C148.428 21.704 148.764 23.272 149.116 24.776C149.468 26.248 149.82 27.464 150.172 28.424C150.524 27.464 150.812 26.2 151.036 24.632C151.26 23.064 151.468 21.432 151.66 19.736C151.884 18.04 152.124 16.408 152.38 14.84C152.636 13.272 152.956 12.008 153.34 11.048C154.428 11.08 155.532 11.064 156.652 11C157.772 10.936 159.004 10.952 160.348 11.048C159.836 12.968 159.372 14.808 158.956 16.568C158.572 18.296 158.188 19.992 157.804 21.656C157.388 23.224 157.004 24.872 156.652 26.6C156.332 28.328 155.916 30.024 155.404 31.688C154.924 33.352 154.3 34.936 153.532 36.44C152.764 37.944 151.74 39.24 150.46 40.328C149.212 41.448 147.644 42.296 145.756 42.872C143.9 43.448 141.612 43.656 138.892 43.496C138.572 42.536 138.412 41.448 138.412 40.232C138.38 39.048 138.444 38.008 138.604 37.112C139.372 37.112 140.156 37.144 140.956 37.208C141.788 37.272 142.524 37.224 143.164 37.064C143.804 36.936 144.284 36.632 144.604 36.152C144.956 35.672 145.052 34.904 144.892 33.848C144.22 29.976 143.372 26.104 142.348 22.232C141.324 18.36 140.316 14.616 139.324 11C140.476 11.128 141.692 11.16 142.972 11.096ZM161.908 14.552C162.1 13.944 162.244 13.464 162.34 13.112C162.564 12.632 162.916 12.216 163.396 11.864C163.908 11.512 164.484 11.224 165.124 11C165.796 10.744 166.5 10.568 167.236 10.472C168.004 10.376 168.772 10.328 169.54 10.328C170.18 10.392 170.788 10.408 171.364 10.376C171.972 10.312 172.612 10.312 173.284 10.376C174.308 10.44 175.284 10.648 176.212 11C177.14 11.32 177.94 11.8 178.612 12.44C179.06 12.728 179.412 13.192 179.668 13.832C179.924 14.472 180.116 15.224 180.244 16.088C180.372 16.92 180.452 17.848 180.484 18.872C180.516 19.864 180.548 20.888 180.58 21.944C180.548 22.872 180.5 23.928 180.436 25.112C180.404 26.296 180.324 27.432 180.196 28.52C180.1 29.608 179.956 30.584 179.764 31.448C179.604 32.312 179.364 32.904 179.044 33.224C178.5 33.992 177.78 34.536 176.884 34.856C176.02 35.176 175.076 35.368 174.052 35.432C173.028 35.528 171.972 35.528 170.884 35.432C169.796 35.368 168.804 35.336 167.908 35.336C166.276 35.048 164.9 34.344 163.78 33.224C162.916 32.456 162.324 31.496 162.004 30.344C161.684 29.192 161.492 27.992 161.428 26.744C161.364 25.464 161.348 24.184 161.38 22.904C161.444 21.624 161.428 20.456 161.332 19.4C161.332 18.824 161.348 18.264 161.38 17.72C161.412 17.144 161.476 16.552 161.572 15.944C161.604 15.592 161.716 15.128 161.908 14.552ZM169.972 17.72C169.3 17.912 168.756 18.264 168.34 18.776C168.148 18.904 168.004 19.224 167.908 19.736C167.78 20.76 167.716 21.784 167.716 22.808C167.716 23.8 167.684 24.856 167.62 25.976C167.588 26.712 167.78 27.288 168.196 27.704C168.612 28.088 169.108 28.36 169.684 28.52C170.292 28.648 170.916 28.68 171.556 28.616C172.196 28.52 172.724 28.36 173.14 28.136C173.684 27.88 174.052 27.352 174.244 26.552C174.372 25.528 174.468 24.504 174.532 23.48C174.628 22.424 174.58 21.432 174.388 20.504C174.228 19.384 173.764 18.568 172.996 18.056C172.228 17.544 171.22 17.432 169.972 17.72ZM195.183 33.608C195.215 33.256 195.215 32.856 195.183 32.408C195.023 32.504 194.815 32.616 194.559 32.744C194.335 32.872 194.143 33 193.983 33.128C193.311 33.608 192.559 33.992 191.727 34.28C190.895 34.568 190.031 34.728 189.135 34.76C188.271 34.792 187.423 34.696 186.591 34.472C185.759 34.248 185.007 33.848 184.335 33.272C184.015 32.984 183.759 32.392 183.567 31.496C183.407 30.568 183.295 29.464 183.231 28.184C183.199 26.904 183.183 25.512 183.183 24.008C183.215 22.472 183.247 20.936 183.279 19.4C183.311 17.832 183.343 16.328 183.375 14.888C183.407 13.448 183.391 12.184 183.327 11.096C184.447 10.936 185.439 10.872 186.303 10.904C187.199 10.904 188.207 10.904 189.327 10.904C189.391 11.64 189.423 12.472 189.423 13.4C189.423 14.328 189.407 15.288 189.375 16.28C189.375 17.272 189.375 18.264 189.375 19.256C189.407 20.248 189.455 21.176 189.519 22.04C189.551 22.424 189.583 22.856 189.615 23.336C189.647 23.784 189.695 24.232 189.759 24.68C189.855 25.128 189.967 25.528 190.095 25.88C190.255 26.232 190.463 26.504 190.719 26.696C190.751 26.728 190.783 26.744 190.815 26.744C190.847 26.744 190.879 26.76 190.911 26.792C191.167 26.92 191.535 27.032 192.015 27.128C192.527 27.192 193.023 27.16 193.503 27.032C193.983 26.872 194.415 26.584 194.799 26.168C195.183 25.72 195.407 25.064 195.471 24.2C195.535 23.112 195.551 22.024 195.519 20.936C195.487 19.848 195.439 18.776 195.375 17.72C195.343 16.632 195.311 15.56 195.279 14.504C195.279 13.448 195.359 12.392 195.519 11.336V11.144C196.063 10.984 196.527 10.888 196.911 10.856C197.327 10.824 197.743 10.824 198.159 10.856C198.575 10.856 199.039 10.872 199.551 10.904C200.063 10.936 200.703 10.92 201.471 10.856C201.471 14.792 201.503 18.728 201.567 22.664C201.663 26.6 201.647 30.68 201.519 34.904C201.135 34.872 200.815 34.856 200.559 34.856C200.303 34.824 200.063 34.808 199.839 34.808C199.615 34.808 199.375 34.824 199.119 34.856C198.863 34.856 198.543 34.872 198.159 34.904C198.031 34.904 197.807 34.936 197.487 35C197.167 35.032 196.847 35.064 196.527 35.096C196.207 35.128 195.919 35.128 195.663 35.096C195.407 35.096 195.279 35.048 195.279 34.952C195.215 34.408 195.183 33.96 195.183 33.608ZM211.561 12.2C211.593 12.296 211.609 12.456 211.609 12.68C211.737 12.616 212.025 12.488 212.473 12.296C212.953 12.104 213.417 11.928 213.865 11.768C214.473 11.576 215.161 11.432 215.929 11.336C216.697 11.208 217.417 11.128 218.089 11.096C218.761 11.064 219.321 11.064 219.769 11.096C220.249 11.096 220.489 11.112 220.489 11.144C220.489 12.232 220.473 13.192 220.441 14.024C220.441 14.856 220.441 15.608 220.441 16.28C220.441 16.92 220.441 17.512 220.441 18.056C220.441 18.6 220.457 19.112 220.489 19.592L220.057 19.448C219.897 19.384 219.721 19.336 219.529 19.304C219.369 19.24 219.209 19.176 219.049 19.112C218.665 19.016 218.265 18.936 217.849 18.872C217.465 18.808 217.257 18.776 217.225 18.776C216.361 18.68 215.561 18.632 214.825 18.632C214.121 18.632 213.497 18.744 212.953 18.968C212.441 19.192 212.041 19.544 211.753 20.024C211.465 20.504 211.337 21.192 211.369 22.088C211.401 23.208 211.433 24.264 211.465 25.256C211.497 26.248 211.513 27.256 211.513 28.28C211.513 29.272 211.513 30.296 211.513 31.352C211.545 32.376 211.561 33.48 211.561 34.664V34.856C211.017 35.016 210.521 35.112 210.073 35.144C209.625 35.176 209.161 35.176 208.681 35.144C208.201 35.144 207.673 35.128 207.097 35.096C206.553 35.064 205.897 35.08 205.129 35.144C205.129 31.208 205.081 27.272 204.985 23.336C204.921 19.4 204.953 15.32 205.081 11.096C205.465 11.128 205.785 11.16 206.041 11.192C206.297 11.192 206.537 11.192 206.761 11.192C206.985 11.192 207.225 11.192 207.481 11.192C207.737 11.16 208.057 11.128 208.441 11.096C208.569 11.096 208.793 11.08 209.113 11.048C209.465 11.016 209.817 10.984 210.169 10.952C210.553 10.92 210.873 10.92 211.129 10.952C211.417 10.952 211.561 10.984 211.561 11.048C211.561 11.304 211.561 11.496 211.561 11.624C211.561 11.752 211.561 11.864 211.561 11.96C211.561 12.024 211.561 12.104 211.561 12.2ZM231.705 14.552C231.897 13.944 232.041 13.464 232.137 13.112C232.361 12.632 232.713 12.216 233.193 11.864C233.705 11.512 234.281 11.224 234.921 11C235.593 10.744 236.297 10.568 237.033 10.472C237.801 10.376 238.569 10.328 239.337 10.328C239.977 10.392 240.585 10.408 241.161 10.376C241.769 10.312 242.409 10.312 243.081 10.376C244.105 10.44 245.081 10.648 246.009 11C246.937 11.32 247.737 11.8 248.409 12.44C248.857 12.728 249.209 13.192 249.465 13.832C249.721 14.472 249.913 15.224 250.041 16.088C250.169 16.92 250.249 17.848 250.281 18.872C250.313 19.864 250.345 20.888 250.377 21.944C250.345 22.872 250.297 23.928 250.233 25.112C250.201 26.296 250.121 27.432 249.993 28.52C249.897 29.608 249.753 30.584 249.561 31.448C249.401 32.312 249.161 32.904 248.841 33.224C248.297 33.992 247.577 34.536 246.681 34.856C245.817 35.176 244.873 35.368 243.849 35.432C242.825 35.528 241.769 35.528 240.681 35.432C239.593 35.368 238.601 35.336 237.705 35.336C236.073 35.048 234.697 34.344 233.577 33.224C232.713 32.456 232.121 31.496 231.801 30.344C231.481 29.192 231.289 27.992 231.225 26.744C231.161 25.464 231.145 24.184 231.177 22.904C231.241 21.624 231.225 20.456 231.129 19.4C231.129 18.824 231.145 18.264 231.177 17.72C231.209 17.144 231.273 16.552 231.369 15.944C231.401 15.592 231.513 15.128 231.705 14.552ZM239.769 17.72C239.097 17.912 238.553 18.264 238.137 18.776C237.945 18.904 237.801 19.224 237.705 19.736C237.577 20.76 237.513 21.784 237.513 22.808C237.513 23.8 237.481 24.856 237.417 25.976C237.385 26.712 237.577 27.288 237.993 27.704C238.409 28.088 238.905 28.36 239.481 28.52C240.089 28.648 240.713 28.68 241.353 28.616C241.993 28.52 242.521 28.36 242.937 28.136C243.481 27.88 243.849 27.352 244.041 26.552C244.169 25.528 244.265 24.504 244.329 23.48C244.425 22.424 244.377 21.432 244.185 20.504C244.025 19.384 243.561 18.568 242.793 18.056C242.025 17.544 241.017 17.432 239.769 17.72ZM259.556 42.728C259.556 43.08 259.54 43.576 259.508 44.216V44.744C259.508 44.776 259.284 44.808 258.836 44.84C258.42 44.904 257.892 44.936 257.252 44.936C256.644 44.968 255.988 44.968 255.284 44.936C254.58 44.936 253.972 44.888 253.46 44.792V41.624C253.46 38.968 253.428 36.312 253.364 33.656C253.3 31 253.236 28.392 253.172 25.832C253.14 23.24 253.108 20.712 253.076 18.248C253.076 15.752 253.108 13.352 253.172 11.048C254.164 11.048 255.252 11.032 256.436 11C257.62 10.936 258.692 10.968 259.652 11.096C259.684 11.16 259.7 11.272 259.7 11.432C259.7 11.752 259.7 12.008 259.7 12.2C259.732 12.392 259.748 12.664 259.748 13.016C259.812 13.176 259.876 13.304 259.94 13.4C260.036 13.464 260.132 13.4 260.228 13.208C260.708 12.248 261.348 11.64 262.148 11.384C262.948 11.096 263.796 11.016 264.692 11.144C266.516 11.272 267.956 11.752 269.012 12.584C270.068 13.384 270.852 14.424 271.364 15.704C271.908 16.952 272.26 18.36 272.42 19.928C272.58 21.496 272.692 23.08 272.756 24.68C272.756 25.8 272.676 26.888 272.516 27.944C272.388 29 272.164 29.976 271.844 30.872C271.556 31.736 271.156 32.488 270.644 33.128C270.164 33.736 269.572 34.168 268.868 34.424C268.004 34.744 267.044 34.936 265.988 35C264.964 35.096 263.988 35.096 263.06 35C262.132 34.936 261.348 34.792 260.708 34.568C260.068 34.344 259.716 34.088 259.652 33.8C259.684 35.304 259.7 36.52 259.7 37.448C259.7 38.376 259.7 39.112 259.7 39.656C259.7 40.232 259.684 40.664 259.652 40.952C259.652 41.272 259.636 41.56 259.604 41.816C259.604 42.104 259.588 42.408 259.556 42.728ZM265.508 28.664C266.308 28.088 266.788 27.24 266.948 26.12C267.108 25.672 267.204 25.208 267.236 24.728C267.268 24.248 267.284 23.784 267.284 23.336C267.284 22.536 267.188 21.768 266.996 21.032C266.804 20.264 266.516 19.592 266.132 19.016C265.748 18.408 265.284 17.928 264.74 17.576C264.196 17.224 263.588 17.048 262.916 17.048C262.084 17.048 261.444 17.224 260.996 17.576C260.548 17.928 260.196 18.408 259.94 19.016C259.716 19.624 259.572 20.36 259.508 21.224C259.476 22.088 259.46 23.016 259.46 24.008C259.46 25.256 259.476 26.248 259.508 26.984C259.572 27.688 259.7 28.232 259.892 28.616C260.084 29 260.372 29.256 260.756 29.384C261.172 29.48 261.716 29.528 262.388 29.528C263.7 29.528 264.74 29.24 265.508 28.664ZM282.071 2.216C282.615 2.248 283.159 2.232 283.703 2.168V8.6C283.703 9.016 283.703 9.448 283.703 9.896C283.735 10.344 283.751 10.808 283.751 11.288C284.743 11.256 285.783 11.208 286.871 11.144C287.991 11.08 289.367 11 290.999 10.904C291.223 11.16 291.351 11.544 291.383 12.056C291.415 12.536 291.415 13.064 291.383 13.64C291.351 14.216 291.303 14.808 291.239 15.416C291.207 15.992 291.223 16.488 291.287 16.904H283.847C283.847 18.632 283.847 20.328 283.847 21.992C283.847 23.624 283.863 25.16 283.895 26.6C284.215 27.048 284.679 27.4 285.287 27.656C285.895 27.912 286.551 28.12 287.255 28.28C287.959 28.408 288.663 28.488 289.367 28.52C290.103 28.552 290.743 28.552 291.287 28.52C291.351 28.968 291.415 29.464 291.479 30.008C291.543 30.552 291.591 31.112 291.623 31.688C291.655 32.264 291.639 32.84 291.575 33.416C291.543 33.992 291.447 34.52 291.287 35C290.007 35.064 288.679 35.064 287.303 35C285.927 34.904 284.631 34.712 283.415 34.424C282.199 34.136 281.111 33.704 280.151 33.128C279.223 32.552 278.551 31.768 278.135 30.776C277.719 28.312 277.479 25.992 277.415 23.816C277.351 21.608 277.335 19.336 277.367 17C276.855 17.032 276.311 17.048 275.735 17.048C275.191 17.048 274.583 17.048 273.911 17.048L274.055 11.192C274.695 11.224 275.287 11.24 275.831 11.24C276.407 11.24 276.951 11.24 277.463 11.24C277.463 10.536 277.447 9.784 277.415 8.984C277.383 8.152 277.367 7.32 277.367 6.488C277.367 5.656 277.367 4.856 277.367 4.088C277.399 3.32 277.447 2.632 277.511 2.024C277.927 1.96 278.375 1.944 278.855 1.976C279.367 2.008 279.895 2.056 280.439 2.12C280.983 2.152 281.527 2.184 282.071 2.216ZM296.889 10.856C297.625 10.888 298.505 10.888 299.529 10.856H300.345V11C300.313 14.872 300.233 18.824 300.105 22.856C300.009 26.888 300.073 30.84 300.297 34.712C300.137 34.904 299.737 35 299.097 35C298.457 35.032 297.753 35.032 296.985 35C296.249 35 295.545 34.984 294.873 34.952C294.201 34.92 293.753 34.936 293.529 35C293.689 32.984 293.753 30.936 293.721 28.856C293.721 26.776 293.689 24.712 293.625 22.664C293.561 20.616 293.529 18.6 293.529 16.616C293.529 14.6 293.625 12.648 293.817 10.76V10.712C293.945 10.68 294.153 10.68 294.441 10.712C294.761 10.744 295.001 10.76 295.161 10.76C295.577 10.792 296.153 10.824 296.889 10.856ZM293.673 4.136C293.609 3.112 293.593 1.864 293.625 0.391999L300.153 0.535997C300.153 0.727999 300.153 1.08 300.153 1.592C300.185 2.072 300.201 2.616 300.201 3.224C300.233 3.8 300.249 4.408 300.249 5.048C300.281 5.656 300.297 6.2 300.297 6.68C300.169 6.872 299.865 7 299.385 7.064C298.937 7.128 298.393 7.16 297.753 7.16C297.145 7.128 296.489 7.096 295.785 7.064C295.081 7 294.425 6.984 293.817 7.016C293.817 6.088 293.769 5.128 293.673 4.136ZM303.611 14.552C303.803 13.944 303.947 13.464 304.043 13.112C304.267 12.632 304.619 12.216 305.099 11.864C305.611 11.512 306.187 11.224 306.827 11C307.499 10.744 308.203 10.568 308.939 10.472C309.707 10.376 310.475 10.328 311.243 10.328C311.883 10.392 312.491 10.408 313.067 10.376C313.675 10.312 314.315 10.312 314.987 10.376C316.011 10.44 316.987 10.648 317.915 11C318.843 11.32 319.643 11.8 320.315 12.44C320.763 12.728 321.115 13.192 321.371 13.832C321.627 14.472 321.819 15.224 321.947 16.088C322.075 16.92 322.155 17.848 322.187 18.872C322.219 19.864 322.251 20.888 322.283 21.944C322.251 22.872 322.203 23.928 322.139 25.112C322.107 26.296 322.027 27.432 321.899 28.52C321.803 29.608 321.659 30.584 321.467 31.448C321.307 32.312 321.067 32.904 320.747 33.224C320.203 33.992 319.483 34.536 318.587 34.856C317.723 35.176 316.779 35.368 315.755 35.432C314.731 35.528 313.675 35.528 312.587 35.432C311.499 35.368 310.507 35.336 309.611 35.336C307.979 35.048 306.603 34.344 305.483 33.224C304.619 32.456 304.027 31.496 303.707 30.344C303.387 29.192 303.195 27.992 303.131 26.744C303.067 25.464 303.051 24.184 303.083 22.904C303.147 21.624 303.131 20.456 303.035 19.4C303.035 18.824 303.051 18.264 303.083 17.72C303.115 17.144 303.179 16.552 303.275 15.944C303.307 15.592 303.419 15.128 303.611 14.552ZM311.675 17.72C311.003 17.912 310.459 18.264 310.043 18.776C309.851 18.904 309.707 19.224 309.611 19.736C309.483 20.76 309.419 21.784 309.419 22.808C309.419 23.8 309.387 24.856 309.323 25.976C309.291 26.712 309.483 27.288 309.899 27.704C310.315 28.088 310.811 28.36 311.387 28.52C311.995 28.648 312.619 28.68 313.259 28.616C313.899 28.52 314.427 28.36 314.843 28.136C315.387 27.88 315.755 27.352 315.947 26.552C316.075 25.528 316.171 24.504 316.235 23.48C316.331 22.424 316.283 21.432 316.091 20.504C315.931 19.384 315.467 18.568 314.699 18.056C313.931 17.544 312.923 17.432 311.675 17.72ZM331.462 12.392C331.462 12.744 331.478 13.144 331.51 13.592C331.67 13.496 331.862 13.384 332.086 13.256C332.342 13.128 332.55 13 332.71 12.872C333.382 12.392 334.134 12.008 334.966 11.72C335.798 11.432 336.646 11.272 337.51 11.24C338.406 11.208 339.27 11.304 340.102 11.528C340.934 11.752 341.686 12.152 342.358 12.728C342.678 13.016 342.918 13.624 343.078 14.552C343.27 15.448 343.382 16.536 343.414 17.816C343.478 19.096 343.494 20.504 343.462 22.04C343.462 23.544 343.446 25.08 343.414 26.648C343.382 28.184 343.35 29.672 343.318 31.112C343.286 32.552 343.302 33.816 343.366 34.904C342.246 35.064 341.238 35.128 340.342 35.096C339.478 35.096 338.486 35.096 337.366 35.096C337.302 34.36 337.27 33.528 337.27 32.6C337.27 31.672 337.27 30.712 337.27 29.72C337.302 28.728 337.302 27.736 337.27 26.744C337.27 25.752 337.238 24.824 337.174 23.96C337.142 23.576 337.11 23.16 337.078 22.712C337.046 22.232 336.982 21.768 336.886 21.32C336.822 20.872 336.71 20.472 336.55 20.12C336.422 19.768 336.23 19.496 335.974 19.304C335.942 19.272 335.91 19.256 335.878 19.256C335.846 19.256 335.814 19.24 335.782 19.208C335.526 19.08 335.142 18.984 334.63 18.92C334.15 18.824 333.67 18.856 333.19 19.016C332.71 19.144 332.278 19.432 331.894 19.88C331.51 20.296 331.286 20.936 331.222 21.8C331.158 22.92 331.142 24.024 331.174 25.112C331.206 26.168 331.238 27.24 331.27 28.328C331.334 29.384 331.366 30.44 331.366 31.496C331.366 32.552 331.302 33.608 331.174 34.664V34.856C330.63 35.016 330.15 35.112 329.734 35.144C329.35 35.176 328.95 35.176 328.534 35.144C328.118 35.144 327.654 35.128 327.142 35.096C326.63 35.064 325.99 35.08 325.222 35.144C325.222 31.208 325.174 27.272 325.078 23.336C325.014 19.4 325.046 15.32 325.174 11.096C325.558 11.128 325.878 11.16 326.134 11.192C326.39 11.192 326.63 11.192 326.854 11.192C327.078 11.192 327.318 11.192 327.574 11.192C327.83 11.16 328.15 11.128 328.534 11.096C328.662 11.096 328.886 11.08 329.206 11.048C329.526 10.984 329.846 10.936 330.166 10.904C330.486 10.872 330.774 10.872 331.03 10.904C331.286 10.904 331.414 10.952 331.414 11.048C331.478 11.592 331.494 12.04 331.462 12.392ZM362.649 2.216C363.193 2.248 363.737 2.232 364.281 2.168V8.6C364.281 9.016 364.281 9.448 364.281 9.896C364.313 10.344 364.329 10.808 364.329 11.288C365.321 11.256 366.361 11.208 367.449 11.144C368.569 11.08 369.945 11 371.577 10.904C371.801 11.16 371.929 11.544 371.961 12.056C371.993 12.536 371.993 13.064 371.961 13.64C371.929 14.216 371.881 14.808 371.817 15.416C371.785 15.992 371.801 16.488 371.865 16.904H364.425C364.425 18.632 364.425 20.328 364.425 21.992C364.425 23.624 364.441 25.16 364.473 26.6C364.793 27.048 365.257 27.4 365.865 27.656C366.473 27.912 367.129 28.12 367.833 28.28C368.537 28.408 369.241 28.488 369.945 28.52C370.681 28.552 371.321 28.552 371.865 28.52C371.929 28.968 371.993 29.464 372.057 30.008C372.121 30.552 372.169 31.112 372.201 31.688C372.233 32.264 372.217 32.84 372.153 33.416C372.121 33.992 372.025 34.52 371.865 35C370.585 35.064 369.257 35.064 367.881 35C366.505 34.904 365.209 34.712 363.993 34.424C362.777 34.136 361.689 33.704 360.729 33.128C359.801 32.552 359.129 31.768 358.713 30.776C358.297 28.312 358.057 25.992 357.993 23.816C357.929 21.608 357.913 19.336 357.945 17C357.433 17.032 356.889 17.048 356.313 17.048C355.769 17.048 355.161 17.048 354.489 17.048L354.633 11.192C355.273 11.224 355.865 11.24 356.409 11.24C356.985 11.24 357.529 11.24 358.041 11.24C358.041 10.536 358.025 9.784 357.993 8.984C357.961 8.152 357.945 7.32 357.945 6.488C357.945 5.656 357.945 4.856 357.945 4.088C357.977 3.32 358.025 2.632 358.089 2.024C358.505 1.96 358.953 1.944 359.433 1.976C359.945 2.008 360.473 2.056 361.017 2.12C361.561 2.152 362.105 2.184 362.649 2.216ZM374.251 14.552C374.443 13.944 374.587 13.464 374.683 13.112C374.907 12.632 375.259 12.216 375.739 11.864C376.251 11.512 376.827 11.224 377.467 11C378.139 10.744 378.843 10.568 379.579 10.472C380.347 10.376 381.115 10.328 381.883 10.328C382.523 10.392 383.131 10.408 383.707 10.376C384.315 10.312 384.955 10.312 385.627 10.376C386.651 10.44 387.627 10.648 388.555 11C389.483 11.32 390.283 11.8 390.955 12.44C391.403 12.728 391.755 13.192 392.011 13.832C392.267 14.472 392.459 15.224 392.587 16.088C392.715 16.92 392.795 17.848 392.827 18.872C392.859 19.864 392.891 20.888 392.923 21.944C392.891 22.872 392.843 23.928 392.779 25.112C392.747 26.296 392.667 27.432 392.539 28.52C392.443 29.608 392.299 30.584 392.107 31.448C391.947 32.312 391.707 32.904 391.387 33.224C390.843 33.992 390.123 34.536 389.227 34.856C388.363 35.176 387.419 35.368 386.395 35.432C385.371 35.528 384.315 35.528 383.227 35.432C382.139 35.368 381.147 35.336 380.251 35.336C378.619 35.048 377.243 34.344 376.123 33.224C375.259 32.456 374.667 31.496 374.347 30.344C374.027 29.192 373.835 27.992 373.771 26.744C373.707 25.464 373.691 24.184 373.723 22.904C373.787 21.624 373.771 20.456 373.675 19.4C373.675 18.824 373.691 18.264 373.723 17.72C373.755 17.144 373.819 16.552 373.915 15.944C373.947 15.592 374.059 15.128 374.251 14.552ZM382.315 17.72C381.643 17.912 381.099 18.264 380.683 18.776C380.491 18.904 380.347 19.224 380.251 19.736C380.123 20.76 380.059 21.784 380.059 22.808C380.059 23.8 380.027 24.856 379.963 25.976C379.931 26.712 380.123 27.288 380.539 27.704C380.955 28.088 381.451 28.36 382.027 28.52C382.635 28.648 383.259 28.68 383.899 28.616C384.539 28.52 385.067 28.36 385.483 28.136C386.027 27.88 386.395 27.352 386.587 26.552C386.715 25.528 386.811 24.504 386.875 23.48C386.971 22.424 386.923 21.432 386.731 20.504C386.571 19.384 386.107 18.568 385.339 18.056C384.571 17.544 383.563 17.432 382.315 17.72ZM423.616 13.736C424.256 15.112 424.576 16.664 424.576 18.392C423.552 18.552 422.416 18.648 421.168 18.68C419.952 18.712 418.8 18.616 417.712 18.392C417.808 18.008 417.76 17.624 417.568 17.24C417.408 16.856 417.152 16.52 416.8 16.232C416.48 15.944 416.096 15.736 415.648 15.608C415.232 15.448 414.816 15.384 414.4 15.416C413.664 15.544 413.104 15.832 412.72 16.28C412.368 16.696 412.192 17.16 412.192 17.672C412.192 18.184 412.384 18.696 412.768 19.208C413.152 19.72 413.712 20.104 414.448 20.36C416.24 20.616 417.92 20.968 419.488 21.416C421.056 21.832 422.208 22.52 422.944 23.48C423.648 24.632 424.08 25.816 424.24 27.032C424.4 28.216 424.176 29.688 423.568 31.448C422.832 33.016 421.68 34.136 420.112 34.808C418.544 35.48 416.832 35.8 414.976 35.768C413.344 35.832 411.872 35.688 410.56 35.336C409.248 34.984 408.112 34.456 407.152 33.752C406.224 33.048 405.488 32.184 404.944 31.16C404.432 30.136 404.176 28.984 404.176 27.704V27.56V27.464C405.232 27.336 406.432 27.304 407.776 27.368C409.12 27.4 410.288 27.416 411.28 27.416C411.312 28.152 411.648 28.76 412.288 29.24C412.96 29.688 413.664 29.96 414.4 30.056C415.136 30.12 415.808 29.976 416.416 29.624C417.024 29.272 417.312 28.632 417.28 27.704C417.376 26.936 417.2 26.36 416.752 25.976C416.304 25.592 415.712 25.304 414.976 25.112C414.24 24.888 413.408 24.696 412.48 24.536C411.552 24.376 410.64 24.104 409.744 23.72C407.952 23.112 406.64 22.168 405.808 20.888C405.008 19.576 404.624 18.232 404.656 16.856C404.72 15.448 405.168 14.152 406 12.968C406.864 11.784 408.08 10.984 409.648 10.568C410.256 10.408 410.992 10.28 411.856 10.184C412.752 10.088 413.696 10.04 414.688 10.04C415.68 10.04 416.672 10.104 417.664 10.232C418.656 10.328 419.568 10.472 420.4 10.664C421.904 11.304 422.976 12.328 423.616 13.736ZM433.946 2.216C434.49 2.248 435.034 2.232 435.578 2.168V8.6C435.578 9.016 435.578 9.448 435.578 9.896C435.61 10.344 435.626 10.808 435.626 11.288C436.618 11.256 437.658 11.208 438.746 11.144C439.866 11.08 441.242 11 442.874 10.904C443.098 11.16 443.226 11.544 443.258 12.056C443.29 12.536 443.29 13.064 443.258 13.64C443.226 14.216 443.178 14.808 443.114 15.416C443.082 15.992 443.098 16.488 443.162 16.904H435.722C435.722 18.632 435.722 20.328 435.722 21.992C435.722 23.624 435.738 25.16 435.77 26.6C436.09 27.048 436.554 27.4 437.162 27.656C437.77 27.912 438.426 28.12 439.13 28.28C439.834 28.408 440.538 28.488 441.242 28.52C441.978 28.552 442.618 28.552 443.162 28.52C443.226 28.968 443.29 29.464 443.354 30.008C443.418 30.552 443.466 31.112 443.498 31.688C443.53 32.264 443.514 32.84 443.45 33.416C443.418 33.992 443.322 34.52 443.162 35C441.882 35.064 440.554 35.064 439.178 35C437.802 34.904 436.506 34.712 435.29 34.424C434.074 34.136 432.986 33.704 432.026 33.128C431.098 32.552 430.426 31.768 430.01 30.776C429.594 28.312 429.354 25.992 429.29 23.816C429.226 21.608 429.21 19.336 429.242 17C428.73 17.032 428.186 17.048 427.61 17.048C427.066 17.048 426.458 17.048 425.786 17.048L425.93 11.192C426.57 11.224 427.162 11.24 427.706 11.24C428.282 11.24 428.826 11.24 429.338 11.24C429.338 10.536 429.322 9.784 429.29 8.984C429.258 8.152 429.242 7.32 429.242 6.488C429.242 5.656 429.242 4.856 429.242 4.088C429.274 3.32 429.322 2.632 429.386 2.024C429.802 1.96 430.25 1.944 430.73 1.976C431.242 2.008 431.77 2.056 432.314 2.12C432.858 2.152 433.402 2.184 433.946 2.216ZM461.969 10.952C462.769 10.984 463.681 11.032 464.705 11.096C464.737 11.288 464.753 11.48 464.753 11.672C464.785 11.864 464.801 12.056 464.801 12.248V12.728C464.705 16.184 464.721 19.592 464.849 22.952C464.977 26.28 464.929 29.656 464.705 33.08C464.705 33.496 464.689 33.912 464.657 34.328C464.657 34.744 464.465 34.984 464.081 35.048H463.505C462.993 35.048 462.465 35.032 461.921 35C461.409 34.936 460.897 34.904 460.385 34.904C460.033 34.904 459.681 34.936 459.329 35C459.009 35.032 458.673 35.048 458.321 35.048C458.097 34.984 457.937 34.856 457.841 34.664C457.777 34.472 457.745 34.248 457.745 33.992C457.745 33.64 457.777 33.352 457.841 33.128C457.905 32.904 457.937 32.632 457.937 32.312C457.169 33.08 456.193 33.736 455.009 34.28C453.857 34.824 452.721 35.096 451.601 35.096C450.353 35.096 449.281 34.664 448.385 33.8C447.521 32.936 446.801 31.864 446.225 30.584C445.649 29.304 445.217 27.912 444.929 26.408C444.673 24.904 444.545 23.512 444.545 22.232C444.545 20.632 444.753 19.16 445.169 17.816C445.585 16.472 446.145 15.32 446.849 14.36C447.585 13.368 448.449 12.6 449.441 12.056C450.433 11.48 451.489 11.176 452.609 11.144C453.185 11.144 453.713 11.16 454.193 11.192C454.705 11.192 455.169 11.272 455.585 11.432C456.001 11.56 456.369 11.784 456.689 12.104C457.009 12.392 457.281 12.808 457.505 13.352C457.473 12.84 457.489 12.408 457.553 12.056C457.649 11.672 457.697 11.288 457.697 10.904C457.697 10.872 457.793 10.856 457.985 10.856C458.209 10.824 458.449 10.824 458.705 10.856C458.961 10.856 459.217 10.856 459.473 10.856C459.729 10.856 459.905 10.856 460.001 10.856C460.545 10.888 461.201 10.92 461.969 10.952ZM452.081 18.536C451.345 19.144 450.897 19.848 450.737 20.648C450.609 21.064 450.529 21.496 450.497 21.944C450.465 22.36 450.449 22.776 450.449 23.192C450.449 24.632 450.817 25.864 451.553 26.888C452.321 27.88 453.377 28.376 454.721 28.376C455.521 28.376 456.113 28.248 456.497 27.992C456.913 27.704 457.201 27.32 457.361 26.84C457.553 26.328 457.649 25.72 457.649 25.016C457.681 24.28 457.697 23.464 457.697 22.568C457.697 21.448 457.681 20.568 457.649 19.928C457.649 19.256 457.569 18.744 457.409 18.392C457.281 18.04 457.041 17.816 456.689 17.72C456.369 17.624 455.873 17.576 455.201 17.576C453.889 17.576 452.849 17.896 452.081 18.536ZM474.717 12.2C474.749 12.296 474.765 12.456 474.765 12.68C474.893 12.616 475.181 12.488 475.629 12.296C476.109 12.104 476.573 11.928 477.021 11.768C477.629 11.576 478.317 11.432 479.085 11.336C479.853 11.208 480.573 11.128 481.245 11.096C481.917 11.064 482.477 11.064 482.925 11.096C483.405 11.096 483.645 11.112 483.645 11.144C483.645 12.232 483.629 13.192 483.597 14.024C483.597 14.856 483.597 15.608 483.597 16.28C483.597 16.92 483.597 17.512 483.597 18.056C483.597 18.6 483.613 19.112 483.645 19.592L483.213 19.448C483.053 19.384 482.877 19.336 482.685 19.304C482.525 19.24 482.365 19.176 482.205 19.112C481.821 19.016 481.421 18.936 481.005 18.872C480.621 18.808 480.413 18.776 480.381 18.776C479.517 18.68 478.717 18.632 477.981 18.632C477.277 18.632 476.653 18.744 476.109 18.968C475.597 19.192 475.197 19.544 474.909 20.024C474.621 20.504 474.493 21.192 474.525 22.088C474.557 23.208 474.589 24.264 474.621 25.256C474.653 26.248 474.669 27.256 474.669 28.28C474.669 29.272 474.669 30.296 474.669 31.352C474.701 32.376 474.717 33.48 474.717 34.664V34.856C474.173 35.016 473.677 35.112 473.229 35.144C472.781 35.176 472.317 35.176 471.837 35.144C471.357 35.144 470.829 35.128 470.253 35.096C469.709 35.064 469.053 35.08 468.285 35.144C468.285 31.208 468.237 27.272 468.141 23.336C468.077 19.4 468.109 15.32 468.237 11.096C468.621 11.128 468.941 11.16 469.197 11.192C469.453 11.192 469.693 11.192 469.917 11.192C470.141 11.192 470.381 11.192 470.637 11.192C470.893 11.16 471.213 11.128 471.597 11.096C471.725 11.096 471.949 11.08 472.269 11.048C472.621 11.016 472.973 10.984 473.325 10.952C473.709 10.92 474.029 10.92 474.285 10.952C474.573 10.952 474.717 10.984 474.717 11.048C474.717 11.304 474.717 11.496 474.717 11.624C474.717 11.752 474.717 11.864 474.717 11.96C474.717 12.024 474.717 12.104 474.717 12.2ZM492.821 2.216C493.365 2.248 493.909 2.232 494.453 2.168V8.6C494.453 9.016 494.453 9.448 494.453 9.896C494.485 10.344 494.501 10.808 494.501 11.288C495.493 11.256 496.533 11.208 497.621 11.144C498.741 11.08 500.117 11 501.749 10.904C501.973 11.16 502.101 11.544 502.133 12.056C502.165 12.536 502.165 13.064 502.133 13.64C502.101 14.216 502.053 14.808 501.989 15.416C501.957 15.992 501.973 16.488 502.037 16.904H494.597C494.597 18.632 494.597 20.328 494.597 21.992C494.597 23.624 494.613 25.16 494.645 26.6C494.965 27.048 495.429 27.4 496.037 27.656C496.645 27.912 497.301 28.12 498.005 28.28C498.709 28.408 499.413 28.488 500.117 28.52C500.853 28.552 501.493 28.552 502.037 28.52C502.101 28.968 502.165 29.464 502.229 30.008C502.293 30.552 502.341 31.112 502.373 31.688C502.405 32.264 502.389 32.84 502.325 33.416C502.293 33.992 502.197 34.52 502.037 35C500.757 35.064 499.429 35.064 498.053 35C496.677 34.904 495.381 34.712 494.165 34.424C492.949 34.136 491.861 33.704 490.901 33.128C489.973 32.552 489.301 31.768 488.885 30.776C488.469 28.312 488.229 25.992 488.165 23.816C488.101 21.608 488.085 19.336 488.117 17C487.605 17.032 487.061 17.048 486.485 17.048C485.941 17.048 485.333 17.048 484.661 17.048L484.805 11.192C485.445 11.224 486.037 11.24 486.581 11.24C487.157 11.24 487.701 11.24 488.213 11.24C488.213 10.536 488.197 9.784 488.165 8.984C488.133 8.152 488.117 7.32 488.117 6.488C488.117 5.656 488.117 4.856 488.117 4.088C488.149 3.32 488.197 2.632 488.261 2.024C488.677 1.96 489.125 1.944 489.605 1.976C490.117 2.008 490.645 2.056 491.189 2.12C491.733 2.152 492.277 2.184 492.821 2.216ZM531.169 25.64C531.713 25.64 532.161 25.688 532.513 25.784C532.449 26.616 532.385 27.432 532.321 28.232C532.257 29.032 532.177 29.784 532.081 30.488C531.985 31.16 531.857 31.752 531.697 32.264C531.569 32.744 531.393 33.096 531.169 33.32C530.625 34.088 529.905 34.632 529.009 34.952C528.145 35.272 527.201 35.464 526.177 35.528C525.153 35.624 524.097 35.624 523.009 35.528C521.921 35.464 520.929 35.432 520.033 35.432C518.401 35.144 517.025 34.44 515.905 33.32C515.041 32.552 514.449 31.592 514.129 30.44C513.809 29.288 513.617 28.088 513.553 26.84C513.489 25.56 513.473 24.28 513.505 23C513.569 21.72 513.537 20.552 513.409 19.496C513.409 18.344 513.505 17.192 513.697 16.04C513.729 15.688 513.841 15.208 514.033 14.6C514.225 13.992 514.369 13.528 514.465 13.208C514.689 12.728 515.041 12.312 515.521 11.96C516.033 11.608 516.609 11.32 517.249 11.096C517.921 10.84 518.625 10.664 519.361 10.568C520.129 10.472 520.897 10.424 521.665 10.424C522.305 10.488 522.913 10.504 523.489 10.472C524.097 10.408 524.737 10.408 525.409 10.472C526.433 10.536 527.409 10.728 528.337 11.048C529.265 11.368 530.065 11.848 530.737 12.488C531.185 12.808 531.521 13.24 531.745 13.784C532.001 14.328 532.193 14.968 532.321 15.704C532.449 16.44 532.513 17.272 532.513 18.2C532.545 19.096 532.577 20.072 532.609 21.128C532.193 21.224 531.713 21.272 531.169 21.272C530.657 21.272 530.113 21.256 529.537 21.224C528.993 21.192 528.449 21.144 527.905 21.08C527.393 21.016 526.929 20.952 526.513 20.888C526.353 19.768 525.889 18.904 525.121 18.296C524.353 17.656 523.345 17.496 522.097 17.816C521.425 18.008 520.881 18.36 520.465 18.872C520.273 19 520.129 19.32 520.033 19.832C519.905 20.824 519.841 21.832 519.841 22.856C519.841 23.88 519.809 24.952 519.745 26.072C519.681 26.808 519.857 27.384 520.273 27.8C520.721 28.216 521.249 28.504 521.857 28.664C522.465 28.792 523.089 28.824 523.729 28.76C524.369 28.664 524.881 28.488 525.265 28.232C525.585 28.008 525.825 27.64 525.985 27.128C526.177 26.584 526.321 26.104 526.417 25.688C526.737 25.72 527.169 25.736 527.713 25.736C528.257 25.704 528.833 25.672 529.441 25.64C530.049 25.608 530.625 25.608 531.169 25.64ZM535.267 14.552C535.459 13.944 535.603 13.464 535.699 13.112C535.923 12.632 536.275 12.216 536.755 11.864C537.267 11.512 537.843 11.224 538.483 11C539.155 10.744 539.859 10.568 540.595 10.472C541.363 10.376 542.131 10.328 542.899 10.328C543.539 10.392 544.147 10.408 544.723 10.376C545.331 10.312 545.971 10.312 546.643 10.376C547.667 10.44 548.643 10.648 549.571 11C550.499 11.32 551.299 11.8 551.971 12.44C552.419 12.728 552.771 13.192 553.027 13.832C553.283 14.472 553.475 15.224 553.603 16.088C553.731 16.92 553.811 17.848 553.843 18.872C553.875 19.864 553.907 20.888 553.939 21.944C553.907 22.872 553.859 23.928 553.795 25.112C553.763 26.296 553.683 27.432 553.555 28.52C553.459 29.608 553.315 30.584 553.123 31.448C552.963 32.312 552.723 32.904 552.403 33.224C551.859 33.992 551.139 34.536 550.243 34.856C549.379 35.176 548.435 35.368 547.411 35.432C546.387 35.528 545.331 35.528 544.243 35.432C543.155 35.368 542.163 35.336 541.267 35.336C539.635 35.048 538.259 34.344 537.139 33.224C536.275 32.456 535.683 31.496 535.363 30.344C535.043 29.192 534.851 27.992 534.787 26.744C534.723 25.464 534.707 24.184 534.739 22.904C534.803 21.624 534.787 20.456 534.691 19.4C534.691 18.824 534.707 18.264 534.739 17.72C534.771 17.144 534.835 16.552 534.931 15.944C534.963 15.592 535.075 15.128 535.267 14.552ZM543.331 17.72C542.659 17.912 542.115 18.264 541.699 18.776C541.507 18.904 541.363 19.224 541.267 19.736C541.139 20.76 541.075 21.784 541.075 22.808C541.075 23.8 541.043 24.856 540.979 25.976C540.947 26.712 541.139 27.288 541.555 27.704C541.971 28.088 542.467 28.36 543.043 28.52C543.651 28.648 544.275 28.68 544.915 28.616C545.555 28.52 546.083 28.36 546.499 28.136C547.043 27.88 547.411 27.352 547.603 26.552C547.731 25.528 547.827 24.504 547.891 23.48C547.987 22.424 547.939 21.432 547.747 20.504C547.587 19.384 547.123 18.568 546.355 18.056C545.587 17.544 544.579 17.432 543.331 17.72ZM563.071 12.392C563.071 12.744 563.087 13.144 563.119 13.592C563.279 13.496 563.471 13.384 563.695 13.256C563.951 13.128 564.159 13 564.319 12.872C564.991 12.392 565.743 12.008 566.575 11.72C567.407 11.432 568.255 11.272 569.119 11.24C570.015 11.208 570.879 11.304 571.711 11.528C572.543 11.752 573.295 12.152 573.967 12.728C574.127 12.888 574.287 13.16 574.447 13.544C574.607 13.448 574.799 13.352 575.023 13.256C575.247 13.128 575.439 13 575.599 12.872C576.271 12.392 577.023 12.008 577.855 11.72C578.687 11.432 579.535 11.272 580.399 11.24C581.295 11.208 582.159 11.304 582.991 11.528C583.823 11.752 584.575 12.152 585.247 12.728C585.567 13.016 585.807 13.624 585.967 14.552C586.159 15.448 586.271 16.536 586.303 17.816C586.367 19.096 586.383 20.504 586.351 22.04C586.351 23.544 586.335 25.08 586.303 26.648C586.271 28.184 586.239 29.672 586.207 31.112C586.175 32.552 586.191 33.816 586.255 34.904C585.135 35.064 584.127 35.128 583.231 35.096C582.367 35.096 581.375 35.096 580.255 35.096C580.191 34.36 580.159 33.528 580.159 32.6C580.159 31.672 580.159 30.712 580.159 29.72C580.191 28.728 580.191 27.736 580.159 26.744C580.159 25.752 580.127 24.824 580.063 23.96C580.031 23.576 579.999 23.16 579.967 22.712C579.935 22.232 579.871 21.768 579.775 21.32C579.711 20.872 579.599 20.472 579.439 20.12C579.311 19.768 579.119 19.496 578.863 19.304C578.831 19.272 578.799 19.256 578.767 19.256C578.735 19.256 578.703 19.24 578.671 19.208C578.479 19.112 578.239 19.032 577.951 18.968C577.663 18.904 577.343 18.872 576.991 18.872C576.671 18.872 576.335 18.936 575.983 19.064C575.663 19.16 575.359 19.32 575.071 19.544C575.103 20.792 575.103 22.12 575.071 23.528C575.039 24.904 575.007 26.28 574.975 27.656C574.943 29 574.911 30.312 574.879 31.592C574.879 32.84 574.911 33.944 574.975 34.904C573.855 35.064 572.847 35.128 571.951 35.096C571.087 35.096 570.095 35.096 568.975 35.096C568.911 34.36 568.879 33.528 568.879 32.6C568.879 31.672 568.879 30.712 568.879 29.72C568.911 28.728 568.911 27.736 568.879 26.744C568.879 25.752 568.847 24.824 568.783 23.96C568.751 23.576 568.719 23.16 568.687 22.712C568.655 22.232 568.591 21.768 568.495 21.32C568.431 20.872 568.319 20.472 568.159 20.12C568.031 19.768 567.839 19.496 567.583 19.304C567.551 19.272 567.519 19.256 567.487 19.256C567.455 19.256 567.423 19.24 567.391 19.208C567.135 19.08 566.751 18.984 566.239 18.92C565.759 18.824 565.279 18.856 564.799 19.016C564.319 19.144 563.887 19.432 563.503 19.88C563.119 20.296 562.895 20.936 562.831 21.8C562.767 22.92 562.751 24.024 562.783 25.112C562.815 26.168 562.847 27.24 562.879 28.328C562.943 29.384 562.975 30.44 562.975 31.496C562.975 32.552 562.911 33.608 562.783 34.664V34.856C562.239 35.016 561.759 35.112 561.343 35.144C560.959 35.176 560.559 35.176 560.143 35.144C559.727 35.144 559.263 35.128 558.751 35.096C558.239 35.064 557.599 35.08 556.831 35.144C556.831 31.208 556.783 27.272 556.687 23.336C556.623 19.4 556.655 15.32 556.783 11.096C557.167 11.128 557.487 11.16 557.743 11.192C557.999 11.192 558.239 11.192 558.463 11.192C558.687 11.192 558.927 11.192 559.183 11.192C559.439 11.16 559.759 11.128 560.143 11.096C560.271 11.096 560.495 11.08 560.815 11.048C561.135 10.984 561.455 10.936 561.775 10.904C562.095 10.872 562.383 10.872 562.639 10.904C562.895 10.904 563.023 10.952 563.023 11.048C563.087 11.592 563.103 12.04 563.071 12.392ZM595.883 12.392C595.883 12.744 595.899 13.144 595.931 13.592C596.091 13.496 596.283 13.384 596.507 13.256C596.763 13.128 596.971 13 597.131 12.872C597.803 12.392 598.555 12.008 599.387 11.72C600.219 11.432 601.067 11.272 601.931 11.24C602.827 11.208 603.691 11.304 604.523 11.528C605.355 11.752 606.107 12.152 606.779 12.728C606.939 12.888 607.099 13.16 607.259 13.544C607.419 13.448 607.611 13.352 607.835 13.256C608.059 13.128 608.251 13 608.411 12.872C609.083 12.392 609.835 12.008 610.667 11.72C611.499 11.432 612.347 11.272 613.211 11.24C614.107 11.208 614.971 11.304 615.803 11.528C616.635 11.752 617.387 12.152 618.059 12.728C618.379 13.016 618.619 13.624 618.779 14.552C618.971 15.448 619.083 16.536 619.115 17.816C619.179 19.096 619.195 20.504 619.163 22.04C619.163 23.544 619.147 25.08 619.115 26.648C619.083 28.184 619.051 29.672 619.019 31.112C618.987 32.552 619.003 33.816 619.067 34.904C617.947 35.064 616.939 35.128 616.043 35.096C615.179 35.096 614.187 35.096 613.067 35.096C613.003 34.36 612.971 33.528 612.971 32.6C612.971 31.672 612.971 30.712 612.971 29.72C613.003 28.728 613.003 27.736 612.971 26.744C612.971 25.752 612.939 24.824 612.875 23.96C612.843 23.576 612.811 23.16 612.779 22.712C612.747 22.232 612.683 21.768 612.587 21.32C612.523 20.872 612.411 20.472 612.251 20.12C612.123 19.768 611.931 19.496 611.675 19.304C611.643 19.272 611.611 19.256 611.579 19.256C611.547 19.256 611.515 19.24 611.483 19.208C611.291 19.112 611.051 19.032 610.763 18.968C610.475 18.904 610.155 18.872 609.803 18.872C609.483 18.872 609.147 18.936 608.795 19.064C608.475 19.16 608.171 19.32 607.883 19.544C607.915 20.792 607.915 22.12 607.883 23.528C607.851 24.904 607.819 26.28 607.787 27.656C607.755 29 607.723 30.312 607.691 31.592C607.691 32.84 607.723 33.944 607.787 34.904C606.667 35.064 605.659 35.128 604.763 35.096C603.899 35.096 602.907 35.096 601.787 35.096C601.723 34.36 601.691 33.528 601.691 32.6C601.691 31.672 601.691 30.712 601.691 29.72C601.723 28.728 601.723 27.736 601.691 26.744C601.691 25.752 601.659 24.824 601.595 23.96C601.563 23.576 601.531 23.16 601.499 22.712C601.467 22.232 601.403 21.768 601.307 21.32C601.243 20.872 601.131 20.472 600.971 20.12C600.843 19.768 600.651 19.496 600.395 19.304C600.363 19.272 600.331 19.256 600.299 19.256C600.267 19.256 600.235 19.24 600.203 19.208C599.947 19.08 599.563 18.984 599.051 18.92C598.571 18.824 598.091 18.856 597.611 19.016C597.131 19.144 596.699 19.432 596.315 19.88C595.931 20.296 595.707 20.936 595.643 21.8C595.579 22.92 595.563 24.024 595.595 25.112C595.627 26.168 595.659 27.24 595.691 28.328C595.755 29.384 595.787 30.44 595.787 31.496C595.787 32.552 595.723 33.608 595.595 34.664V34.856C595.051 35.016 594.571 35.112 594.155 35.144C593.771 35.176 593.371 35.176 592.955 35.144C592.539 35.144 592.075 35.128 591.563 35.096C591.051 35.064 590.411 35.08 589.643 35.144C589.643 31.208 589.595 27.272 589.499 23.336C589.435 19.4 589.467 15.32 589.595 11.096C589.979 11.128 590.299 11.16 590.555 11.192C590.811 11.192 591.051 11.192 591.275 11.192C591.499 11.192 591.739 11.192 591.995 11.192C592.251 11.16 592.571 11.128 592.955 11.096C593.083 11.096 593.307 11.08 593.627 11.048C593.947 10.984 594.267 10.936 594.587 10.904C594.907 10.872 595.195 10.872 595.451 10.904C595.707 10.904 595.835 10.952 595.835 11.048C595.899 11.592 595.915 12.04 595.883 12.392ZM634.168 33.608C634.2 33.256 634.2 32.856 634.168 32.408C634.008 32.504 633.8 32.616 633.544 32.744C633.32 32.872 633.128 33 632.968 33.128C632.296 33.608 631.544 33.992 630.712 34.28C629.88 34.568 629.016 34.728 628.12 34.76C627.256 34.792 626.408 34.696 625.576 34.472C624.744 34.248 623.992 33.848 623.32 33.272C623 32.984 622.744 32.392 622.552 31.496C622.392 30.568 622.28 29.464 622.216 28.184C622.184 26.904 622.168 25.512 622.168 24.008C622.2 22.472 622.232 20.936 622.264 19.4C622.296 17.832 622.328 16.328 622.36 14.888C622.392 13.448 622.376 12.184 622.312 11.096C623.432 10.936 624.424 10.872 625.288 10.904C626.184 10.904 627.192 10.904 628.312 10.904C628.376 11.64 628.408 12.472 628.408 13.4C628.408 14.328 628.392 15.288 628.36 16.28C628.36 17.272 628.36 18.264 628.36 19.256C628.392 20.248 628.44 21.176 628.504 22.04C628.536 22.424 628.568 22.856 628.6 23.336C628.632 23.784 628.68 24.232 628.744 24.68C628.84 25.128 628.952 25.528 629.08 25.88C629.24 26.232 629.448 26.504 629.704 26.696C629.736 26.728 629.768 26.744 629.8 26.744C629.832 26.744 629.864 26.76 629.896 26.792C630.152 26.92 630.52 27.032 631 27.128C631.512 27.192 632.008 27.16 632.488 27.032C632.968 26.872 633.4 26.584 633.784 26.168C634.168 25.72 634.392 25.064 634.456 24.2C634.52 23.112 634.536 22.024 634.504 20.936C634.472 19.848 634.424 18.776 634.36 17.72C634.328 16.632 634.296 15.56 634.264 14.504C634.264 13.448 634.344 12.392 634.504 11.336V11.144C635.048 10.984 635.512 10.888 635.896 10.856C636.312 10.824 636.728 10.824 637.144 10.856C637.56 10.856 638.024 10.872 638.536 10.904C639.048 10.936 639.688 10.92 640.456 10.856C640.456 14.792 640.488 18.728 640.552 22.664C640.648 26.6 640.632 30.68 640.504 34.904C640.12 34.872 639.8 34.856 639.544 34.856C639.288 34.824 639.048 34.808 638.824 34.808C638.6 34.808 638.36 34.824 638.104 34.856C637.848 34.856 637.528 34.872 637.144 34.904C637.016 34.904 636.792 34.936 636.472 35C636.152 35.032 635.832 35.064 635.512 35.096C635.192 35.128 634.904 35.128 634.648 35.096C634.392 35.096 634.264 35.048 634.264 34.952C634.2 34.408 634.168 33.96 634.168 33.608ZM650.353 12.392C650.353 12.744 650.369 13.144 650.401 13.592C650.561 13.496 650.753 13.384 650.977 13.256C651.233 13.128 651.441 13 651.601 12.872C652.273 12.392 653.025 12.008 653.857 11.72C654.689 11.432 655.537 11.272 656.401 11.24C657.297 11.208 658.161 11.304 658.993 11.528C659.825 11.752 660.577 12.152 661.249 12.728C661.569 13.016 661.809 13.624 661.969 14.552C662.161 15.448 662.273 16.536 662.305 17.816C662.369 19.096 662.385 20.504 662.353 22.04C662.353 23.544 662.337 25.08 662.305 26.648C662.273 28.184 662.241 29.672 662.209 31.112C662.177 32.552 662.193 33.816 662.257 34.904C661.137 35.064 660.129 35.128 659.233 35.096C658.369 35.096 657.377 35.096 656.257 35.096C656.193 34.36 656.161 33.528 656.161 32.6C656.161 31.672 656.161 30.712 656.161 29.72C656.193 28.728 656.193 27.736 656.161 26.744C656.161 25.752 656.129 24.824 656.065 23.96C656.033 23.576 656.001 23.16 655.969 22.712C655.937 22.232 655.873 21.768 655.777 21.32C655.713 20.872 655.601 20.472 655.441 20.12C655.313 19.768 655.121 19.496 654.865 19.304C654.833 19.272 654.801 19.256 654.769 19.256C654.737 19.256 654.705 19.24 654.673 19.208C654.417 19.08 654.033 18.984 653.521 18.92C653.041 18.824 652.561 18.856 652.081 19.016C651.601 19.144 651.169 19.432 650.785 19.88C650.401 20.296 650.177 20.936 650.113 21.8C650.049 22.92 650.033 24.024 650.065 25.112C650.097 26.168 650.129 27.24 650.161 28.328C650.225 29.384 650.257 30.44 650.257 31.496C650.257 32.552 650.193 33.608 650.065 34.664V34.856C649.521 35.016 649.041 35.112 648.625 35.144C648.241 35.176 647.841 35.176 647.425 35.144C647.009 35.144 646.545 35.128 646.033 35.096C645.521 35.064 644.881 35.08 644.113 35.144C644.113 31.208 644.065 27.272 643.969 23.336C643.905 19.4 643.937 15.32 644.065 11.096C644.449 11.128 644.769 11.16 645.025 11.192C645.281 11.192 645.521 11.192 645.745 11.192C645.969 11.192 646.209 11.192 646.465 11.192C646.721 11.16 647.041 11.128 647.425 11.096C647.553 11.096 647.777 11.08 648.097 11.048C648.417 10.984 648.737 10.936 649.057 10.904C649.377 10.872 649.665 10.872 649.921 10.904C650.177 10.904 650.305 10.952 650.305 11.048C650.369 11.592 650.385 12.04 650.353 12.392ZM668.842 10.856C669.578 10.888 670.458 10.888 671.482 10.856H672.298V11C672.266 14.872 672.186 18.824 672.058 22.856C671.962 26.888 672.026 30.84 672.25 34.712C672.09 34.904 671.69 35 671.05 35C670.41 35.032 669.706 35.032 668.938 35C668.202 35 667.498 34.984 666.826 34.952C666.154 34.92 665.706 34.936 665.482 35C665.642 32.984 665.706 30.936 665.674 28.856C665.674 26.776 665.642 24.712 665.578 22.664C665.514 20.616 665.482 18.6 665.482 16.616C665.482 14.6 665.578 12.648 665.77 10.76V10.712C665.898 10.68 666.106 10.68 666.394 10.712C666.714 10.744 666.954 10.76 667.114 10.76C667.53 10.792 668.106 10.824 668.842 10.856ZM665.626 4.136C665.562 3.112 665.546 1.864 665.578 0.391999L672.106 0.535997C672.106 0.727999 672.106 1.08 672.106 1.592C672.138 2.072 672.154 2.616 672.154 3.224C672.186 3.8 672.202 4.408 672.202 5.048C672.234 5.656 672.25 6.2 672.25 6.68C672.122 6.872 671.818 7 671.338 7.064C670.89 7.128 670.346 7.16 669.706 7.16C669.098 7.128 668.442 7.096 667.738 7.064C667.034 7 666.378 6.984 665.77 7.016C665.77 6.088 665.722 5.128 665.626 4.136ZM692.7 25.64C693.244 25.64 693.692 25.688 694.044 25.784C693.98 26.616 693.916 27.432 693.852 28.232C693.788 29.032 693.708 29.784 693.612 30.488C693.516 31.16 693.388 31.752 693.228 32.264C693.1 32.744 692.924 33.096 692.7 33.32C692.156 34.088 691.436 34.632 690.54 34.952C689.676 35.272 688.732 35.464 687.708 35.528C686.684 35.624 685.628 35.624 684.54 35.528C683.452 35.464 682.46 35.432 681.564 35.432C679.932 35.144 678.556 34.44 677.436 33.32C676.572 32.552 675.98 31.592 675.66 30.44C675.34 29.288 675.148 28.088 675.084 26.84C675.02 25.56 675.004 24.28 675.036 23C675.1 21.72 675.068 20.552 674.94 19.496C674.94 18.344 675.036 17.192 675.228 16.04C675.26 15.688 675.372 15.208 675.564 14.6C675.756 13.992 675.9 13.528 675.996 13.208C676.22 12.728 676.572 12.312 677.052 11.96C677.564 11.608 678.14 11.32 678.78 11.096C679.452 10.84 680.156 10.664 680.892 10.568C681.66 10.472 682.428 10.424 683.196 10.424C683.836 10.488 684.444 10.504 685.02 10.472C685.628 10.408 686.268 10.408 686.94 10.472C687.964 10.536 688.94 10.728 689.868 11.048C690.796 11.368 691.596 11.848 692.268 12.488C692.716 12.808 693.052 13.24 693.276 13.784C693.532 14.328 693.724 14.968 693.852 15.704C693.98 16.44 694.044 17.272 694.044 18.2C694.076 19.096 694.108 20.072 694.14 21.128C693.724 21.224 693.244 21.272 692.7 21.272C692.188 21.272 691.644 21.256 691.068 21.224C690.524 21.192 689.98 21.144 689.436 21.08C688.924 21.016 688.46 20.952 688.044 20.888C687.884 19.768 687.42 18.904 686.652 18.296C685.884 17.656 684.876 17.496 683.628 17.816C682.956 18.008 682.412 18.36 681.996 18.872C681.804 19 681.66 19.32 681.564 19.832C681.436 20.824 681.372 21.832 681.372 22.856C681.372 23.88 681.34 24.952 681.276 26.072C681.212 26.808 681.388 27.384 681.804 27.8C682.252 28.216 682.78 28.504 683.388 28.664C683.996 28.792 684.62 28.824 685.26 28.76C685.9 28.664 686.412 28.488 686.796 28.232C687.116 28.008 687.356 27.64 687.516 27.128C687.708 26.584 687.852 26.104 687.948 25.688C688.268 25.72 688.7 25.736 689.244 25.736C689.788 25.704 690.364 25.672 690.972 25.64C691.58 25.608 692.156 25.608 692.7 25.64ZM713.406 10.952C714.206 10.984 715.118 11.032 716.142 11.096C716.174 11.288 716.19 11.48 716.19 11.672C716.222 11.864 716.238 12.056 716.238 12.248V12.728C716.142 16.184 716.158 19.592 716.286 22.952C716.414 26.28 716.366 29.656 716.142 33.08C716.142 33.496 716.126 33.912 716.094 34.328C716.094 34.744 715.902 34.984 715.518 35.048H714.942C714.43 35.048 713.902 35.032 713.358 35C712.846 34.936 712.334 34.904 711.822 34.904C711.47 34.904 711.118 34.936 710.766 35C710.446 35.032 710.11 35.048 709.758 35.048C709.534 34.984 709.374 34.856 709.278 34.664C709.214 34.472 709.182 34.248 709.182 33.992C709.182 33.64 709.214 33.352 709.278 33.128C709.342 32.904 709.374 32.632 709.374 32.312C708.606 33.08 707.63 33.736 706.446 34.28C705.294 34.824 704.158 35.096 703.038 35.096C701.79 35.096 700.718 34.664 699.822 33.8C698.958 32.936 698.238 31.864 697.662 30.584C697.086 29.304 696.654 27.912 696.366 26.408C696.11 24.904 695.982 23.512 695.982 22.232C695.982 20.632 696.19 19.16 696.606 17.816C697.022 16.472 697.582 15.32 698.286 14.36C699.022 13.368 699.886 12.6 700.878 12.056C701.87 11.48 702.926 11.176 704.046 11.144C704.622 11.144 705.15 11.16 705.63 11.192C706.142 11.192 706.606 11.272 707.022 11.432C707.438 11.56 707.806 11.784 708.126 12.104C708.446 12.392 708.718 12.808 708.942 13.352C708.91 12.84 708.926 12.408 708.99 12.056C709.086 11.672 709.134 11.288 709.134 10.904C709.134 10.872 709.23 10.856 709.422 10.856C709.646 10.824 709.886 10.824 710.142 10.856C710.398 10.856 710.654 10.856 710.91 10.856C711.166 10.856 711.342 10.856 711.438 10.856C711.982 10.888 712.638 10.92 713.406 10.952ZM703.518 18.536C702.782 19.144 702.334 19.848 702.174 20.648C702.046 21.064 701.966 21.496 701.934 21.944C701.902 22.36 701.886 22.776 701.886 23.192C701.886 24.632 702.254 25.864 702.99 26.888C703.758 27.88 704.814 28.376 706.158 28.376C706.958 28.376 707.55 28.248 707.934 27.992C708.35 27.704 708.638 27.32 708.798 26.84C708.99 26.328 709.086 25.72 709.086 25.016C709.118 24.28 709.134 23.464 709.134 22.568C709.134 21.448 709.118 20.568 709.086 19.928C709.086 19.256 709.006 18.744 708.846 18.392C708.718 18.04 708.478 17.816 708.126 17.72C707.806 17.624 707.31 17.576 706.638 17.576C705.326 17.576 704.286 17.896 703.518 18.536ZM726.586 2.216C727.13 2.248 727.674 2.232 728.218 2.168V8.6C728.218 9.016 728.218 9.448 728.218 9.896C728.25 10.344 728.266 10.808 728.266 11.288C729.258 11.256 730.298 11.208 731.386 11.144C732.506 11.08 733.882 11 735.514 10.904C735.738 11.16 735.866 11.544 735.898 12.056C735.93 12.536 735.93 13.064 735.898 13.64C735.866 14.216 735.818 14.808 735.754 15.416C735.722 15.992 735.738 16.488 735.802 16.904H728.362C728.362 18.632 728.362 20.328 728.362 21.992C728.362 23.624 728.378 25.16 728.41 26.6C728.73 27.048 729.194 27.4 729.802 27.656C730.41 27.912 731.066 28.12 731.77 28.28C732.474 28.408 733.178 28.488 733.882 28.52C734.618 28.552 735.258 28.552 735.802 28.52C735.866 28.968 735.93 29.464 735.994 30.008C736.058 30.552 736.106 31.112 736.138 31.688C736.17 32.264 736.154 32.84 736.09 33.416C736.058 33.992 735.962 34.52 735.802 35C734.522 35.064 733.194 35.064 731.818 35C730.442 34.904 729.146 34.712 727.93 34.424C726.714 34.136 725.626 33.704 724.666 33.128C723.738 32.552 723.066 31.768 722.65 30.776C722.234 28.312 721.994 25.992 721.93 23.816C721.866 21.608 721.85 19.336 721.882 17C721.37 17.032 720.826 17.048 720.25 17.048C719.706 17.048 719.098 17.048 718.426 17.048L718.57 11.192C719.21 11.224 719.802 11.24 720.346 11.24C720.922 11.24 721.466 11.24 721.978 11.24C721.978 10.536 721.962 9.784 721.93 8.984C721.898 8.152 721.882 7.32 721.882 6.488C721.882 5.656 721.882 4.856 721.882 4.088C721.914 3.32 721.962 2.632 722.026 2.024C722.442 1.96 722.89 1.944 723.37 1.976C723.882 2.008 724.41 2.056 724.954 2.12C725.498 2.152 726.042 2.184 726.586 2.216ZM741.405 10.856C742.141 10.888 743.021 10.888 744.045 10.856H744.861V11C744.829 14.872 744.749 18.824 744.621 22.856C744.525 26.888 744.589 30.84 744.813 34.712C744.653 34.904 744.253 35 743.613 35C742.973 35.032 742.269 35.032 741.501 35C740.765 35 740.061 34.984 739.389 34.952C738.717 34.92 738.269 34.936 738.045 35C738.205 32.984 738.269 30.936 738.237 28.856C738.237 26.776 738.205 24.712 738.141 22.664C738.077 20.616 738.045 18.6 738.045 16.616C738.045 14.6 738.141 12.648 738.333 10.76V10.712C738.461 10.68 738.669 10.68 738.957 10.712C739.277 10.744 739.517 10.76 739.677 10.76C740.093 10.792 740.669 10.824 741.405 10.856ZM738.189 4.136C738.125 3.112 738.109 1.864 738.141 0.391999L744.669 0.535997C744.669 0.727999 744.669 1.08 744.669 1.592C744.701 2.072 744.717 2.616 744.717 3.224C744.749 3.8 744.765 4.408 744.765 5.048C744.797 5.656 744.813 6.2 744.813 6.68C744.685 6.872 744.381 7 743.901 7.064C743.453 7.128 742.909 7.16 742.269 7.16C741.661 7.128 741.005 7.096 740.301 7.064C739.597 7 738.941 6.984 738.333 7.016C738.333 6.088 738.285 5.128 738.189 4.136ZM754.462 12.392C754.462 12.744 754.478 13.144 754.51 13.592C754.67 13.496 754.862 13.384 755.086 13.256C755.342 13.128 755.55 13 755.71 12.872C756.382 12.392 757.134 12.008 757.966 11.72C758.798 11.432 759.646 11.272 760.51 11.24C761.406 11.208 762.27 11.304 763.102 11.528C763.934 11.752 764.686 12.152 765.358 12.728C765.678 13.016 765.918 13.624 766.078 14.552C766.27 15.448 766.382 16.536 766.414 17.816C766.478 19.096 766.494 20.504 766.462 22.04C766.462 23.544 766.446 25.08 766.414 26.648C766.382 28.184 766.35 29.672 766.318 31.112C766.286 32.552 766.302 33.816 766.366 34.904C765.246 35.064 764.238 35.128 763.342 35.096C762.478 35.096 761.486 35.096 760.366 35.096C760.302 34.36 760.27 33.528 760.27 32.6C760.27 31.672 760.27 30.712 760.27 29.72C760.302 28.728 760.302 27.736 760.27 26.744C760.27 25.752 760.238 24.824 760.174 23.96C760.142 23.576 760.11 23.16 760.078 22.712C760.046 22.232 759.982 21.768 759.886 21.32C759.822 20.872 759.71 20.472 759.55 20.12C759.422 19.768 759.23 19.496 758.974 19.304C758.942 19.272 758.91 19.256 758.878 19.256C758.846 19.256 758.814 19.24 758.782 19.208C758.526 19.08 758.142 18.984 757.63 18.92C757.15 18.824 756.67 18.856 756.19 19.016C755.71 19.144 755.278 19.432 754.894 19.88C754.51 20.296 754.286 20.936 754.222 21.8C754.158 22.92 754.142 24.024 754.174 25.112C754.206 26.168 754.238 27.24 754.27 28.328C754.334 29.384 754.366 30.44 754.366 31.496C754.366 32.552 754.302 33.608 754.174 34.664V34.856C753.63 35.016 753.15 35.112 752.734 35.144C752.35 35.176 751.95 35.176 751.534 35.144C751.118 35.144 750.654 35.128 750.142 35.096C749.63 35.064 748.99 35.08 748.222 35.144C748.222 31.208 748.174 27.272 748.078 23.336C748.014 19.4 748.046 15.32 748.174 11.096C748.558 11.128 748.878 11.16 749.134 11.192C749.39 11.192 749.63 11.192 749.854 11.192C750.078 11.192 750.318 11.192 750.574 11.192C750.83 11.16 751.15 11.128 751.534 11.096C751.662 11.096 751.886 11.08 752.206 11.048C752.526 10.984 752.846 10.936 753.166 10.904C753.486 10.872 753.774 10.872 754.03 10.904C754.286 10.904 754.414 10.952 754.414 11.048C754.478 11.592 754.494 12.04 754.462 12.392ZM774.488 22.712C774.488 23 774.488 23.304 774.488 23.624V24.056C774.488 25.688 774.968 27.08 775.928 28.232C776.504 28.936 777.272 29.368 778.232 29.528C779.192 29.656 780.088 29.592 780.92 29.336C781.208 29.24 781.432 29.096 781.592 28.904C781.752 28.68 781.88 28.44 781.976 28.184C782.072 27.896 782.136 27.608 782.168 27.32C782.232 27 782.28 26.696 782.312 26.408C782.312 25.128 782.28 23.832 782.216 22.52C782.184 21.176 782.008 19.896 781.688 18.68C781.496 18.2 781.176 17.832 780.728 17.576C780.312 17.288 779.848 17.112 779.336 17.048C778.824 16.984 778.312 17.032 777.8 17.192C777.32 17.32 776.888 17.544 776.504 17.864C776.024 18.408 775.608 19.016 775.256 19.688C774.936 20.328 774.712 21.016 774.584 21.752C774.52 22.072 774.488 22.392 774.488 22.712ZM784.04 44.408C783.592 44.504 783.176 44.568 782.792 44.6C782.472 44.664 781.896 44.68 781.064 44.648C780.232 44.616 779.16 44.6 777.848 44.6C776.344 44.6 775 44.28 773.816 43.64C772.632 43 771.672 42.136 770.936 41.048C770.808 40.824 770.68 40.52 770.552 40.136C770.456 39.784 770.36 39.416 770.264 39.032C770.2 38.648 770.152 38.28 770.12 37.928C770.12 37.576 770.136 37.272 770.168 37.016C770.488 36.888 770.92 36.792 771.464 36.728C772.008 36.696 772.568 36.68 773.144 36.68C773.752 36.712 774.328 36.744 774.872 36.776C775.448 36.84 775.928 36.904 776.312 36.968C776.312 37.8 776.568 38.456 777.08 38.936C777.624 39.448 778.216 39.736 778.856 39.8C779.528 39.864 780.168 39.704 780.776 39.32C781.416 38.936 781.832 38.296 782.024 37.4C782.056 37.08 782.088 36.744 782.12 36.392C782.152 36.072 782.152 35.784 782.12 35.528C782.056 34.984 782.056 34.424 782.12 33.848C781.8 34.2 781.416 34.456 780.968 34.616C780.552 34.776 780.088 34.888 779.576 34.952C779.096 35.016 778.6 35.048 778.088 35.048C777.576 35.048 777.096 35.064 776.648 35.096C776.04 35.096 775.416 35.048 774.776 34.952C774.168 34.856 773.576 34.696 773 34.472C772.456 34.248 771.96 33.944 771.512 33.56C771.064 33.176 770.696 32.68 770.408 32.072C769.96 31.208 769.64 30.312 769.448 29.384C769.256 28.424 769.128 27.448 769.064 26.456C769.064 24.952 769.096 23.336 769.16 21.608C769.224 19.88 769.496 18.264 769.976 16.76C770.488 15.224 771.288 13.944 772.376 12.92C773.464 11.864 775.032 11.272 777.08 11.144C778.104 11.08 779.048 11.224 779.912 11.576C780.808 11.896 781.448 12.504 781.832 13.4C781.96 13.464 782.024 13.416 782.024 13.256C782.056 13.064 782.056 12.84 782.024 12.584C782.024 12.296 782.008 12.024 781.976 11.768C781.976 11.48 782.024 11.256 782.12 11.096C783.176 10.968 784.248 10.936 785.336 11C786.424 11.032 787.512 11.048 788.6 11.048C788.728 15.048 788.792 19.24 788.792 23.624C788.824 27.976 788.744 32.456 788.552 37.064C788.52 37.832 788.52 38.584 788.552 39.32C788.584 40.088 788.44 40.728 788.12 41.24C787.672 41.944 787.208 42.504 786.728 42.92C786.28 43.336 785.832 43.656 785.384 43.88C784.936 44.136 784.488 44.312 784.04 44.408ZM797.71 35H797.614L792.19 34.952H792.046C791.982 34.6 791.934 34.152 791.902 33.608C791.902 33.064 791.902 32.52 791.902 31.976C791.934 31.432 791.95 30.92 791.95 30.44C791.982 29.96 791.998 29.608 791.998 29.384C792.318 29.256 792.766 29.16 793.342 29.096C793.95 29.032 794.558 29 795.166 29C795.774 29 796.334 29.032 796.846 29.096C797.39 29.128 797.774 29.192 797.998 29.288C797.998 29.32 797.982 29.592 797.95 30.104C797.918 30.584 797.886 31.144 797.854 31.784C797.822 32.424 797.79 33.048 797.758 33.656C797.726 34.264 797.71 34.68 797.71 34.904V34.952V35Z" fill="white"/>
</svg>
