<svg width="1178" height="303" viewBox="0 0 1178 303" fill="none" xmlns="http://www.w3.org/2000/svg">
<path d="M28.0941 26.6299C28.8599 25.8643 29.9128 25.3379 31.2528 25.0508C32.6886 24.7637 34.0287 24.5244 35.273 24.333C38.0488 24.2373 40.0589 24.8115 41.3033 26.0557C42.6433 27.2999 43.5527 28.9268 44.0312 30.9367C44.5098 32.8508 44.7491 34.9563 44.7491 37.2532C44.8448 39.5501 45.0363 41.6078 45.3234 43.4262C48.9607 44.0961 52.4545 44.5746 55.8046 44.8617C59.2505 45.0532 62.7442 44.766 66.2858 44.0004C67.8173 39.598 68.3916 35.2912 68.0087 31.0802C67.6258 26.8692 66.5251 22.9931 64.7064 19.4521C62.8878 15.8153 60.447 12.6091 57.384 9.8337C54.321 7.05825 50.8751 4.85703 47.0464 3.23005C43.3134 1.50736 39.2932 0.502454 34.9858 0.215342C30.6785 -0.071775 26.3233 0.502454 21.9203 1.93803C20.5802 2.32085 19.288 2.79937 18.0437 3.3736C16.7993 3.85213 15.6507 4.47421 14.5978 5.23985C12.7792 6.86684 11.1998 8.73309 9.85975 10.8386C8.61541 12.9441 7.56251 15.241 6.70104 17.7294C6.12673 19.1649 5.64814 20.7441 5.26526 22.4668C4.97811 24.0937 4.93025 25.7207 5.12169 27.3477C5.02597 35.0998 4.93025 41.9427 4.83453 47.8765C4.83453 53.7145 4.83453 58.9782 4.83453 63.6678C4.93025 68.2616 5.02597 72.4248 5.12169 76.1573C5.2174 79.8898 5.36098 83.4787 5.55242 86.9241C5.93529 90.9437 7.17963 94.2934 9.28544 96.9731C11.487 99.6529 14.1671 101.758 17.3258 103.29C20.4845 104.725 23.8825 105.634 27.5198 106.017C31.1571 106.496 34.6987 106.496 38.1446 106.017C43.4091 105.922 48.0993 104.63 52.2152 102.141C56.4268 99.5572 59.8248 96.3032 62.4092 92.3793C64.9936 88.4554 66.6687 84.053 67.4344 79.172C68.2002 74.1953 67.7694 69.2187 66.1422 64.242C64.8022 63.8592 63.2707 63.6199 61.5477 63.5242C59.9205 63.4285 58.2454 63.3807 56.5225 63.3807C54.7996 63.3807 53.0766 63.4285 51.3537 63.5242C49.7265 63.6199 48.2429 63.5721 46.9028 63.3807C46.4242 65.7733 46.2328 68.2138 46.3285 70.7021C46.5199 73.0947 46.0892 75.3917 45.0363 77.5929C44.0791 79.507 42.6433 80.8947 40.729 81.756C38.9103 82.5217 36.9481 82.8088 34.8423 82.6174C32.0664 81.8517 30.0563 80.1769 28.812 77.5929C27.6634 74.9131 26.9455 72.1855 26.6583 69.4101C26.3712 66.0604 26.2276 62.1365 26.2276 57.6384C26.2276 53.0445 26.2755 48.6421 26.3712 44.4311C26.4669 40.2201 26.5626 36.5833 26.6583 33.5207C26.8498 30.4581 27.0412 28.7833 27.2327 28.4962C27.3284 28.3048 27.4241 28.0177 27.5198 27.6348C27.7112 27.1563 27.9027 26.8213 28.0941 26.6299Z" fill="white"/>
<path d="M94.4674 40.4115C94.4674 40.0286 94.4674 38.8323 94.4674 36.8225C94.4674 34.8127 94.4674 32.4201 94.4674 29.6446C94.4674 26.8692 94.4674 23.9023 94.4674 20.7441C94.4674 17.4901 94.4674 14.4754 94.4674 11.6999C94.4674 8.82879 94.4674 6.38831 94.4674 4.37851C94.4674 2.273 94.4195 0.980978 94.3238 0.502454C94.3238 0.215336 93.9409 0.0717779 93.1752 0.0717779C92.4094 -0.023926 91.548 -0.023926 90.5908 0.0717779C89.6336 0.167487 88.6764 0.311046 87.7192 0.502454C86.7621 0.598157 86.092 0.646009 85.7092 0.646009C84.5605 0.741713 83.6033 0.83742 82.8376 0.933129C82.0719 0.933129 81.354 0.933129 80.6839 0.933129C80.0139 0.933129 79.296 0.933129 78.5303 0.933129C77.7645 0.83742 76.8073 0.741713 75.6587 0.646009C75.563 4.85703 75.4673 9.8337 75.3716 15.576C75.3716 21.2226 75.3716 27.252 75.3716 33.6643C75.3716 40.0765 75.3716 46.6801 75.3716 53.4752C75.3716 60.1746 75.3716 66.6825 75.3716 72.999C75.4673 79.3156 75.5151 85.2493 75.5151 90.8002C75.6109 96.2554 75.6587 100.945 75.6587 104.869C77.956 104.677 79.8703 104.63 81.4018 104.725C82.9333 104.821 84.3212 104.869 85.5656 104.869C86.8099 104.965 88.0064 104.965 89.155 104.869C90.3994 104.773 91.8351 104.486 93.4623 104.007V103.433C93.8452 100.275 94.0367 97.1167 94.0367 93.9584C94.0367 90.8002 93.9409 87.6419 93.7495 84.4836C93.6538 81.2297 93.5581 78.0235 93.4623 74.8653C93.3666 71.6113 93.4145 68.3095 93.6059 64.9598C93.7974 62.3758 94.4674 60.4617 95.616 59.2175C96.7646 57.8776 98.0568 57.0163 99.4926 56.6335C100.928 56.1549 102.364 56.0592 103.8 56.3464C105.331 56.5378 106.48 56.8249 107.246 57.2077C107.342 57.3034 107.437 57.3513 107.533 57.3513C107.629 57.3513 107.724 57.3991 107.82 57.4948C108.586 58.069 109.16 58.8825 109.543 59.9353C110.022 60.988 110.357 62.1844 110.548 63.5242C110.835 64.8641 111.027 66.2518 111.122 67.6874C111.218 69.0273 111.314 70.2714 111.41 71.4199C111.601 74.0039 111.697 76.7794 111.697 79.7462C111.792 82.7131 111.792 85.6799 111.697 88.6468C111.697 91.6137 111.697 94.4848 111.697 97.2603C111.697 100.036 111.792 102.524 111.984 104.725C115.334 104.725 118.301 104.725 120.886 104.725C123.566 104.821 126.581 104.63 129.931 104.151C129.74 100.897 129.692 97.1167 129.788 92.81C129.883 88.5032 129.979 84.053 130.075 79.4591C130.17 74.7696 130.218 70.1757 130.218 65.6776C130.314 61.0838 130.266 56.8727 130.075 53.0445C129.979 49.2163 129.644 45.9624 129.07 43.2826C128.591 40.5072 127.873 38.6888 126.916 37.8274C124.906 36.1047 122.656 34.9084 120.168 34.2385C117.679 33.5686 115.095 33.2814 112.415 33.3771C109.83 33.4728 107.294 33.9514 104.805 34.8127C102.316 35.6741 100.067 36.8225 98.0568 38.2581C97.5782 38.6409 96.9561 39.0237 96.1903 39.4066C95.5203 39.7894 94.946 40.1243 94.4674 40.4115Z" fill="white"/>
<path d="M141.309 38.9759C141.021 40.0286 140.591 41.4642 140.016 43.2826C139.442 45.0053 139.107 46.393 139.011 47.4458C138.724 49.2642 138.533 51.0347 138.437 52.7574C138.341 54.3844 138.293 56.0592 138.293 57.7819C138.581 60.9402 138.628 64.4334 138.437 68.2616C138.341 72.0898 138.389 75.918 138.581 79.7462C138.772 83.4787 139.346 87.0677 140.303 90.5131C141.261 93.9584 143.031 96.8296 145.616 99.1265C148.966 102.476 153.082 104.582 157.964 105.443C160.644 105.443 163.611 105.539 166.865 105.73C170.12 106.017 173.278 106.017 176.341 105.73C179.404 105.539 182.228 104.965 184.813 104.007C187.493 103.05 189.646 101.423 191.274 99.1265C192.231 98.1694 192.949 96.3989 193.427 93.8149C194.002 91.2308 194.432 88.3118 194.719 85.0579C195.102 81.8039 195.342 78.4064 195.437 74.8653C195.629 71.3242 195.772 68.1659 195.868 65.3905C195.772 62.2322 195.677 59.1697 195.581 56.2028C195.485 53.1402 195.246 50.3648 194.863 47.8765C194.48 45.2924 193.906 43.0433 193.14 41.1292C192.374 39.2151 191.321 37.8274 189.981 36.9661C187.971 35.052 185.578 33.6164 182.802 32.6594C180.027 31.6066 177.107 30.9845 174.044 30.7931C172.034 30.6017 170.12 30.6017 168.301 30.7931C166.578 30.8888 164.76 30.841 162.845 30.6495C160.548 30.6495 158.251 30.7931 155.953 31.0802C153.752 31.3673 151.646 31.8937 149.636 32.6594C147.722 33.3293 145.999 34.1906 144.467 35.2434C143.031 36.2961 141.979 37.5403 141.309 38.9759ZM159.256 55.9157C160.5 54.3844 162.127 53.3316 164.137 52.7574C167.87 51.8961 170.885 52.231 173.183 53.7623C175.48 55.2936 176.868 57.7341 177.346 61.0837C177.921 63.8592 178.064 66.8261 177.777 69.9843C177.586 73.0469 177.299 76.1094 176.916 79.172C176.341 81.5646 175.241 83.1438 173.613 83.9094C172.369 84.5793 170.79 85.0579 168.875 85.345C166.961 85.5364 165.095 85.4407 163.276 85.0579C161.553 84.5793 160.069 83.7658 158.825 82.6174C157.581 81.3732 157.006 79.6505 157.102 77.4493C157.293 74.0996 157.389 70.9414 157.389 67.9745C157.389 64.9119 157.581 61.8494 157.964 58.7868C158.251 57.2555 158.681 56.2985 159.256 55.9157Z" fill="white"/>
<path d="M205.666 38.9759C205.379 40.0286 204.948 41.4642 204.374 43.2826C203.8 45.0053 203.465 46.393 203.369 47.4458C203.082 49.2642 202.89 51.0347 202.795 52.7574C202.699 54.3844 202.651 56.0592 202.651 57.7819C202.938 60.9402 202.986 64.4334 202.795 68.2616C202.699 72.0898 202.747 75.918 202.938 79.7462C203.13 83.4787 203.704 87.0677 204.661 90.5131C205.618 93.9584 207.389 96.8296 209.973 99.1265C213.324 102.476 217.439 104.582 222.321 105.443C225.001 105.443 227.968 105.539 231.223 105.73C234.477 106.017 237.636 106.017 240.699 105.73C243.762 105.539 246.586 104.965 249.17 104.007C251.85 103.05 254.004 101.423 255.631 99.1265C256.588 98.1694 257.306 96.3989 257.785 93.8149C258.359 91.2308 258.79 88.3118 259.077 85.0579C259.46 81.8039 259.699 78.4064 259.795 74.8653C259.986 71.3242 260.13 68.1659 260.226 65.3905C260.13 62.2322 260.034 59.1697 259.938 56.2028C259.843 53.1402 259.603 50.3648 259.221 47.8765C258.838 45.2924 258.263 43.0433 257.498 41.1292C256.732 39.2151 255.679 37.8274 254.339 36.9661C252.329 35.052 249.936 33.6164 247.16 32.6594C244.384 31.6066 241.465 30.9845 238.402 30.7931C236.392 30.6017 234.477 30.6017 232.659 30.7931C230.936 30.8888 229.117 30.841 227.203 30.6495C224.905 30.6495 222.608 30.7931 220.311 31.0802C218.109 31.3673 216.004 31.8937 213.994 32.6594C212.079 33.3293 210.356 34.1906 208.825 35.2434C207.389 36.2961 206.336 37.5403 205.666 38.9759ZM223.613 55.9157C224.858 54.3844 226.485 53.3316 228.495 52.7574C232.228 51.8961 235.243 52.231 237.54 53.7623C239.838 55.2936 241.225 57.7341 241.704 61.0837C242.278 63.8592 242.422 66.8261 242.135 69.9843C241.943 73.0469 241.656 76.1094 241.273 79.172C240.699 81.5646 239.598 83.1438 237.971 83.9094C236.727 84.5793 235.147 85.0579 233.233 85.345C231.319 85.5364 229.452 85.4407 227.633 85.0579C225.911 84.5793 224.427 83.7658 223.183 82.6174C221.938 81.3732 221.364 79.6505 221.46 77.4493C221.651 74.0996 221.747 70.9414 221.747 67.9745C221.747 64.9119 221.938 61.8494 222.321 58.7868C222.608 57.2555 223.039 56.2985 223.613 55.9157Z" fill="white"/>
<path d="M326.163 54.7672C326.163 49.5991 325.205 44.9575 323.291 40.8421C321.377 36.6311 318.17 33.5685 313.671 31.6544C311.183 31.0802 308.455 30.6495 305.487 30.3624C302.52 29.9796 299.553 29.7882 296.586 29.7882C293.618 29.7882 290.795 29.9318 288.114 30.2189C285.53 30.506 283.329 30.8888 281.51 31.3673C276.82 32.6115 273.182 35.0041 270.598 38.5452C268.109 42.0863 266.769 45.9623 266.578 50.1734C266.482 54.2887 267.631 58.3083 270.024 62.2322C272.512 66.0604 276.437 68.8837 281.797 70.7021C284.477 71.8506 287.205 72.6641 289.981 73.1426C292.757 73.6211 295.245 74.1953 297.447 74.8653C299.649 75.4395 301.419 76.3008 302.759 77.4493C304.099 78.5978 304.626 80.3205 304.339 82.6174C304.434 85.3928 303.573 87.3069 301.754 88.3597C299.936 89.4124 297.926 89.8431 295.724 89.6517C293.523 89.3646 291.417 88.5511 289.407 87.2112C287.492 85.7757 286.487 83.9573 286.392 81.756C283.424 81.756 279.931 81.7082 275.91 81.6125C271.89 81.4211 268.301 81.5168 265.142 81.8996V82.6174C265.142 86.4456 265.908 89.891 267.439 92.9535C269.066 96.0161 271.268 98.6001 274.044 100.706C276.915 102.811 280.313 104.39 284.238 105.443C288.162 106.496 292.565 106.926 297.447 106.735C302.999 106.831 308.12 105.874 312.81 103.864C317.5 101.854 320.946 98.5044 323.147 93.8149C324.966 88.5511 325.636 84.1487 325.157 80.6076C324.679 76.9708 323.387 73.4297 321.281 69.9843C319.079 67.1132 315.633 65.0555 310.943 63.8113C306.253 62.4715 301.228 61.4187 295.868 60.6531C293.666 59.8874 291.991 58.739 290.842 57.2077C289.694 55.6764 289.119 54.1451 289.119 52.6138C289.119 51.0826 289.646 49.6948 290.699 48.4507C291.847 47.1108 293.523 46.2495 295.724 45.8666C296.968 45.7709 298.213 45.9624 299.457 46.4409C300.797 46.8237 301.946 47.4458 302.903 48.3071C303.956 49.1685 304.722 50.1734 305.2 51.3218C305.775 52.4703 305.918 53.6188 305.631 54.7672C308.885 55.4372 312.331 55.7243 315.969 55.6286C319.702 55.5329 323.1 55.2457 326.163 54.7672Z" fill="white"/>
<path d="M350.599 68.4052C351.556 68.5966 353.087 68.7402 355.193 68.8359C357.299 68.9316 359.644 68.9794 362.229 68.9794C364.909 68.9794 367.685 68.9316 370.556 68.8359C373.428 68.7402 376.108 68.5966 378.596 68.4052C381.181 68.2138 383.382 68.0224 385.201 67.831C387.115 67.6395 388.408 67.4481 389.078 67.2567C389.365 63.2371 389.365 59.2654 389.078 55.3414C388.79 51.4175 387.929 47.8286 386.493 44.5746C385.153 41.3207 383.143 38.5452 380.463 36.2483C377.783 33.9514 374.241 32.4201 369.838 31.6544C366.392 30.7931 362.851 30.4103 359.213 30.506C355.576 30.6017 352.13 31.1759 348.876 32.2287C345.621 33.1857 342.702 34.6692 340.118 36.679C337.533 38.5931 335.619 40.9378 334.374 43.7133C333.226 46.8715 332.46 50.1255 332.077 53.4752C331.79 56.7292 331.503 60.1267 331.216 63.6678C331.024 67.5917 331.12 71.5156 331.503 75.4395C331.886 79.3634 332.604 83.0959 333.657 86.637C334.71 90.0824 336.097 93.2885 337.82 96.2554C339.543 99.1265 341.697 101.471 344.281 103.29C346.579 104.63 349.067 105.491 351.747 105.874C354.428 105.874 357.347 105.969 360.506 106.161C363.76 106.352 366.919 106.352 369.982 106.161C373.045 105.969 375.868 105.395 378.453 104.438C381.037 103.481 383.143 101.854 384.77 99.5572C385.44 98.9829 385.967 97.978 386.35 96.5425C386.828 95.0112 387.211 93.2406 387.498 91.2308C387.785 89.1253 388.025 86.8763 388.216 84.4836C388.408 82.091 388.599 79.6505 388.79 77.1622C387.738 76.8751 386.397 76.7315 384.77 76.7315C383.143 76.6358 381.42 76.6358 379.602 76.7315C377.879 76.8272 376.203 76.9229 374.576 77.0186C372.949 77.0186 371.657 76.9708 370.7 76.8751C370.891 80.799 370.269 83.7658 368.833 85.7757C367.493 87.6898 365.818 88.8382 363.808 89.221C361.798 89.6039 359.74 89.2689 357.634 88.2161C355.528 87.1634 353.901 85.5364 352.752 83.3352C351.7 81.6125 351.077 79.8419 350.886 78.0235C350.79 76.2051 350.695 73.8604 350.599 70.9892V68.4052ZM367.972 46.1538C369.695 47.0151 371.035 48.3071 371.992 50.0298C373.045 51.7525 373.571 53.5709 373.571 55.485C373.571 56.2506 373.571 56.777 373.571 57.0641C373.571 57.2555 373.284 57.3991 372.71 57.4948C372.231 57.4948 371.37 57.447 370.125 57.3513C368.881 57.2555 367.014 57.2077 364.526 57.2077C360.889 57.2077 358.113 57.2555 356.198 57.3513C354.38 57.3513 353.04 57.3034 352.178 57.2077C351.317 57.0163 350.838 56.7292 350.742 56.3464C350.742 55.8678 350.838 55.1022 351.03 54.0494C351.221 52.8053 351.508 51.6089 351.891 50.4605C352.37 49.312 353.04 48.3071 353.901 47.4458C354.763 46.5844 355.911 45.9145 357.347 45.436C358.783 44.9574 360.649 44.7182 362.946 44.7182C363.999 44.7182 364.909 44.8617 365.674 45.1489C366.44 45.3403 367.206 45.6752 367.972 46.1538Z" fill="white"/>
<path d="M439.897 33.09C436.834 32.7072 433.389 32.6593 429.56 32.9465C425.731 33.1379 422.094 33.0422 418.648 32.6594C421.615 43.474 424.63 54.6715 427.693 66.2518C430.756 77.8321 433.293 89.4124 435.303 100.993C435.781 104.151 435.494 106.448 434.441 107.884C433.484 109.319 432.048 110.228 430.134 110.611C428.22 111.09 426.018 111.233 423.53 111.042C421.137 110.85 418.791 110.755 416.494 110.755C416.016 113.434 415.824 116.545 415.92 120.086C415.92 123.723 416.398 126.977 417.356 129.848C425.492 130.326 432.336 129.704 437.887 127.982C443.535 126.259 448.225 123.723 451.958 120.373C455.787 117.119 458.85 113.243 461.147 108.745C463.444 104.247 465.311 99.5093 466.746 94.5327C468.278 89.556 469.522 84.4836 470.479 79.3156C471.532 74.1475 472.681 69.2187 473.925 64.5291C475.074 59.5525 476.223 54.4801 477.371 49.312C478.615 44.0483 480.003 38.5452 481.535 32.8029C477.515 32.5158 473.83 32.4679 470.479 32.6594C467.129 32.8508 463.827 32.8986 460.573 32.8029C459.424 35.6741 458.467 39.4544 457.701 44.144C456.935 48.8335 456.217 53.7145 455.547 58.7868C454.973 63.8592 454.351 68.7402 453.681 73.4297C453.011 78.1192 452.149 81.8996 451.096 84.7708C450.044 81.8996 448.991 78.2628 447.938 73.8604C446.885 69.3622 445.88 64.6727 444.923 59.7917C443.965 54.9108 443.056 50.1255 442.195 45.436C441.333 40.6507 440.567 36.5354 439.897 33.09Z" fill="white"/>
<path d="M487.493 38.9759C487.206 40.0286 486.775 41.4642 486.201 43.2826C485.627 45.0053 485.292 46.393 485.196 47.4458C484.909 49.2642 484.718 51.0347 484.622 52.7574C484.526 54.3844 484.478 56.0592 484.478 57.7819C484.765 60.9402 484.813 64.4334 484.622 68.2616C484.526 72.0898 484.574 75.918 484.765 79.7462C484.957 83.4787 485.531 87.0677 486.488 90.5131C487.445 93.9584 489.216 96.8296 491.801 99.1265C495.151 102.476 499.267 104.582 504.148 105.443C506.828 105.443 509.796 105.539 513.05 105.73C516.305 106.017 519.463 106.017 522.526 105.73C525.589 105.539 528.413 104.965 530.997 104.007C533.678 103.05 535.831 101.423 537.458 99.1265C538.416 98.1694 539.133 96.3989 539.612 93.8149C540.186 91.2308 540.617 88.3118 540.904 85.0579C541.287 81.8039 541.526 78.4064 541.622 74.8653C541.814 71.3242 541.957 68.1659 542.053 65.3905C541.957 62.2322 541.861 59.1697 541.766 56.2028C541.67 53.1402 541.431 50.3648 541.048 47.8765C540.665 45.2924 540.091 43.0433 539.325 41.1292C538.559 39.2151 537.506 37.8274 536.166 36.9661C534.156 35.052 531.763 33.6164 528.987 32.6594C526.211 31.6066 523.292 30.9845 520.229 30.7931C518.219 30.6017 516.305 30.6017 514.486 30.7931C512.763 30.8888 510.944 30.841 509.03 30.6495C506.733 30.6495 504.436 30.7931 502.138 31.0802C499.937 31.3673 497.831 31.8937 495.821 32.6594C493.907 33.3293 492.184 34.1906 490.652 35.2434C489.216 36.2961 488.163 37.5403 487.493 38.9759ZM505.441 55.9157C506.685 54.3844 508.312 53.3316 510.322 52.7574C514.055 51.8961 517.07 52.231 519.368 53.7623C521.665 55.2936 523.053 57.7341 523.531 61.0837C524.106 63.8592 524.249 66.8261 523.962 69.9843C523.771 73.0469 523.484 76.1094 523.101 79.172C522.526 81.5646 521.426 83.1438 519.798 83.9094C518.554 84.5793 516.975 85.0579 515.06 85.345C513.146 85.5364 511.279 85.4407 509.461 85.0579C507.738 84.5793 506.254 83.7658 505.01 82.6174C503.766 81.3732 503.191 79.6505 503.287 77.4493C503.478 74.0996 503.574 70.9414 503.574 67.9745C503.574 64.9119 503.766 61.8494 504.148 58.7868C504.436 57.2555 504.866 56.2985 505.441 55.9157Z" fill="white"/>
<path d="M585.735 96.686C585.831 98.0259 585.831 99.2222 585.735 100.275C585.735 101.328 585.831 102.668 586.022 104.295C586.022 104.582 586.405 104.725 587.171 104.725C587.937 104.821 588.798 104.821 589.755 104.725C590.713 104.63 591.67 104.534 592.627 104.438C593.584 104.247 594.254 104.151 594.637 104.151C595.786 104.055 596.743 104.007 597.509 104.007C598.274 103.912 598.992 103.864 599.662 103.864C600.332 103.864 601.05 103.912 601.816 104.007C602.582 104.007 603.539 104.055 604.688 104.151C605.07 91.518 605.118 79.3156 604.831 67.5438C604.64 55.7721 604.544 44.0004 604.544 32.2287C602.247 32.4201 600.332 32.4679 598.801 32.3722C597.269 32.2765 595.881 32.2287 594.637 32.2287C593.393 32.133 592.148 32.133 590.904 32.2287C589.755 32.3244 588.368 32.6115 586.74 33.09V33.6643C586.262 36.8225 586.022 39.9808 586.022 43.1391C586.118 46.2973 586.214 49.5034 586.31 52.7574C586.501 55.9157 586.645 59.1218 586.74 62.3758C586.836 65.6297 586.788 68.8837 586.597 72.1377C586.405 74.7217 585.735 76.6837 584.587 78.0235C583.438 79.2677 582.146 80.1291 580.71 80.6076C579.274 80.9904 577.791 81.0861 576.259 80.8947C574.823 80.6076 573.723 80.2726 572.957 79.8898C572.861 79.7941 572.765 79.7462 572.67 79.7462C572.574 79.7462 572.478 79.6984 572.383 79.6027C571.617 79.0285 570.995 78.215 570.516 77.1622C570.133 76.1094 569.798 74.9131 569.511 73.5733C569.32 72.2334 569.176 70.8935 569.08 69.5536C568.985 68.1181 568.889 66.8261 568.793 65.6776C568.602 63.0936 568.458 60.3181 568.362 57.3513C568.362 54.3844 568.362 51.4175 568.362 48.4507C568.458 45.4838 568.506 42.6127 568.506 39.8372C568.506 37.0618 568.41 34.5735 568.219 32.3722C564.869 32.3722 561.854 32.3722 559.173 32.3722C556.589 32.2765 553.622 32.4679 550.272 32.9465C550.463 36.2004 550.511 39.9808 550.415 44.2875C550.319 48.5942 550.224 53.0924 550.128 57.7819C550.032 62.3758 549.937 66.9696 549.841 71.5634C549.841 76.0616 549.889 80.2248 549.984 84.053C550.176 87.8812 550.511 91.183 550.99 93.9584C551.564 96.6382 552.33 98.4087 553.287 99.2701C555.297 100.993 557.546 102.189 560.035 102.859C562.524 103.529 565.06 103.816 567.644 103.72C570.325 103.625 572.909 103.146 575.398 102.285C577.886 101.423 580.136 100.275 582.146 98.8394C582.624 98.4566 583.199 98.0737 583.869 97.6909C584.635 97.3081 585.257 96.9731 585.735 96.686Z" fill="white"/>
<path d="M634.867 37.6839C634.867 37.0139 634.819 36.5354 634.723 36.2483C634.723 35.9612 634.723 35.7219 634.723 35.5305C634.723 35.2434 634.723 34.9084 634.723 34.5256C634.723 34.1428 634.723 33.5685 634.723 32.8029C634.723 32.6115 634.293 32.5158 633.431 32.5158C632.665 32.4201 631.708 32.4201 630.56 32.5158C629.507 32.6115 628.454 32.7072 627.401 32.8029C626.444 32.8986 625.774 32.9465 625.391 32.9465C624.242 33.0422 623.285 33.1379 622.519 33.2336C621.753 33.2336 621.036 33.2336 620.366 33.2336C619.696 33.2336 618.978 33.2336 618.212 33.2336C617.446 33.1379 616.489 33.0422 615.34 32.9465C614.957 45.5795 614.862 57.7819 615.053 69.5536C615.34 81.3254 615.484 93.0971 615.484 104.869C617.781 104.677 619.743 104.63 621.371 104.725C623.094 104.821 624.673 104.869 626.109 104.869C627.544 104.965 628.932 104.965 630.272 104.869C631.612 104.773 633.096 104.486 634.723 104.007V103.433C634.723 99.8922 634.675 96.5903 634.58 93.5278C634.58 90.3695 634.58 87.3069 634.58 84.3401C634.58 81.2775 634.532 78.2628 634.436 75.296C634.34 72.3291 634.245 69.1708 634.149 65.8211C634.053 63.1414 634.436 61.0837 635.298 59.6482C636.159 58.2126 637.356 57.1598 638.887 56.4899C640.514 55.82 642.381 55.485 644.487 55.485C646.688 55.485 649.081 55.6286 651.665 55.9157C651.761 55.9157 652.383 56.0114 653.532 56.2028C654.776 56.3942 655.973 56.6335 657.121 56.9206C657.6 57.112 658.079 57.3034 658.557 57.4948C659.132 57.5905 659.658 57.7341 660.137 57.9255L661.429 58.3562C661.333 56.9206 661.285 55.3893 661.285 53.7623C661.285 52.1353 661.285 50.3648 661.285 48.4507C661.285 46.4409 661.285 44.1918 661.285 41.7035C661.381 39.2151 661.429 36.344 661.429 33.09C661.429 32.9943 660.711 32.9465 659.275 32.9465C657.935 32.8508 656.26 32.8508 654.25 32.9465C652.24 33.0422 650.086 33.2814 647.789 33.6643C645.492 33.9514 643.434 34.382 641.615 34.9563C640.275 35.4348 638.887 35.9612 637.451 36.5354C636.111 37.1096 635.25 37.4925 634.867 37.6839Z" fill="white"/>
<path d="M696.27 38.9759C695.983 40.0286 695.552 41.4642 694.978 43.2826C694.403 45.0053 694.068 46.393 693.973 47.4458C693.685 49.2642 693.494 51.0347 693.398 52.7574C693.303 54.3844 693.255 56.0592 693.255 57.7819C693.542 60.9402 693.59 64.4334 693.398 68.2616C693.303 72.0898 693.35 75.918 693.542 79.7462C693.733 83.4787 694.308 87.0677 695.265 90.5131C696.222 93.9584 697.993 96.8296 700.577 99.1265C703.927 102.476 708.043 104.582 712.925 105.443C715.605 105.443 718.572 105.539 721.827 105.73C725.081 106.017 728.24 106.017 731.303 105.73C734.366 105.539 737.19 104.965 739.774 104.007C742.454 103.05 744.608 101.423 746.235 99.1265C747.192 98.1694 747.91 96.3989 748.389 93.8149C748.963 91.2308 749.394 88.3118 749.681 85.0579C750.064 81.8039 750.303 78.4064 750.399 74.8653C750.59 71.3242 750.734 68.1659 750.829 65.3905C750.734 62.2322 750.638 59.1697 750.542 56.2028C750.447 53.1402 750.207 50.3648 749.824 47.8765C749.442 45.2924 748.867 43.0433 748.102 41.1292C747.336 39.2151 746.283 37.8274 744.943 36.9661C742.933 35.052 740.54 33.6164 737.764 32.6594C734.988 31.6066 732.069 30.9845 729.006 30.7931C726.996 30.6017 725.081 30.6017 723.263 30.7931C721.54 30.8888 719.721 30.841 717.807 30.6495C715.509 30.6495 713.212 30.7931 710.915 31.0802C708.713 31.3673 706.607 31.8937 704.597 32.6594C702.683 33.3293 700.96 34.1906 699.429 35.2434C697.993 36.2961 696.94 37.5403 696.27 38.9759ZM714.217 55.9157C715.461 54.3844 717.089 53.3316 719.099 52.7574C722.832 51.8961 725.847 52.231 728.144 53.7623C730.441 55.2936 731.829 57.7341 732.308 61.0837C732.882 63.8592 733.026 66.8261 732.739 69.9843C732.547 73.0469 732.26 76.1094 731.877 79.172C731.303 81.5646 730.202 83.1438 728.575 83.9094C727.331 84.5793 725.751 85.0579 723.837 85.345C721.922 85.5364 720.056 85.4407 718.237 85.0579C716.514 84.5793 715.031 83.7658 713.786 82.6174C712.542 81.3732 711.968 79.6505 712.063 77.4493C712.255 74.0996 712.351 70.9414 712.351 67.9745C712.351 64.9119 712.542 61.8494 712.925 58.7868C713.212 57.2555 713.643 56.2985 714.217 55.9157Z" fill="white"/>
<path d="M778.144 132.001C778.24 130.087 778.288 128.604 778.288 127.551C778.383 126.594 778.431 125.685 778.431 124.823C778.527 124.058 778.575 123.196 778.575 122.239C778.67 121.378 778.718 120.086 778.718 118.363C778.718 116.736 778.718 114.535 778.718 111.76C778.718 108.984 778.67 105.347 778.575 100.849C778.766 101.711 779.819 102.476 781.733 103.146C783.648 103.816 785.993 104.247 788.769 104.438C791.545 104.725 794.464 104.725 797.527 104.438C800.686 104.247 803.557 103.672 806.142 102.715C808.247 101.95 810.018 100.658 811.454 98.8394C812.985 96.9253 814.182 94.6762 815.043 92.0922C816.001 89.4124 816.671 86.4934 817.054 83.3352C817.532 80.1769 817.771 76.9229 817.771 73.5733C817.58 68.788 817.245 64.0506 816.766 59.3611C816.288 54.6715 815.235 50.4605 813.608 46.728C812.076 42.8998 809.731 39.7894 806.572 37.3968C803.414 34.9084 799.106 33.4728 793.65 33.09C790.97 32.7072 788.434 32.9465 786.041 33.8078C783.648 34.5735 781.733 36.3918 780.298 39.263C780.01 39.8372 779.723 40.0286 779.436 39.8372C779.245 39.5501 779.053 39.1673 778.862 38.6888C778.862 37.636 778.814 36.8225 778.718 36.2483C778.718 35.6741 778.718 34.9084 778.718 33.9514C778.718 33.4728 778.67 33.1379 778.575 32.9465C775.703 32.5636 772.497 32.4679 768.955 32.6594C765.413 32.7551 762.159 32.8029 759.192 32.8029C759 39.6937 758.905 46.8716 758.905 54.3365C759 61.7058 759.096 69.2665 759.192 77.0186C759.383 84.675 759.575 92.475 759.766 100.419C759.957 108.362 760.053 116.306 760.053 124.249V133.724C761.585 134.011 763.403 134.155 765.509 134.155C767.615 134.25 769.577 134.25 771.396 134.155C773.31 134.155 774.89 134.059 776.134 133.867C777.474 133.772 778.144 133.676 778.144 133.58V132.001ZM800.398 77.88C799.92 81.2297 798.484 83.7659 796.091 85.4885C793.794 87.2112 790.683 88.0726 786.759 88.0726C784.749 88.0726 783.121 87.929 781.877 87.6419C780.728 87.2591 779.867 86.4934 779.293 85.345C778.718 84.1965 778.335 82.5695 778.144 80.464C778.048 78.2628 778 75.2959 778 71.5634C778 68.5966 778.048 65.8212 778.144 63.2371C778.335 60.6531 778.766 58.4519 779.436 56.6335C780.202 54.8151 781.255 53.3795 782.595 52.3267C783.935 51.274 785.849 50.7476 788.338 50.7476C790.348 50.7476 792.167 51.274 793.794 52.3267C795.421 53.3795 796.809 54.8151 797.958 56.6335C799.106 58.3562 799.968 60.366 800.542 62.6629C801.116 64.8641 801.404 67.161 801.404 69.5536C801.404 70.8935 801.356 72.2812 801.26 73.7168C801.164 75.1524 800.877 76.5401 800.398 77.88Z" fill="white"/>
<path d="M850.515 6.24476C848.888 6.43617 847.261 6.48402 845.633 6.38831C844.006 6.29261 842.379 6.1969 840.752 6.1012C839.125 5.90979 837.545 5.76623 836.014 5.67053C834.578 5.57482 833.238 5.62268 831.993 5.81408C831.802 7.63248 831.659 9.69014 831.563 11.9871C831.563 14.284 831.563 16.6766 831.563 19.1649C831.563 21.6533 831.611 24.1416 831.706 26.6299C831.802 29.0226 831.85 31.2716 831.85 33.3771C830.318 33.3771 828.691 33.3771 826.968 33.3771C825.341 33.3771 823.57 33.3293 821.656 33.2336L821.225 50.7476C823.235 50.7476 825.054 50.7476 826.681 50.7476C828.404 50.7476 830.031 50.6998 831.563 50.604C831.467 57.5905 831.515 64.3856 831.706 70.9892C831.898 77.4972 832.616 84.4358 833.86 91.8051C835.104 94.7719 837.114 97.1167 839.89 98.8394C842.762 100.562 846.016 101.854 849.654 102.715C853.291 103.577 857.167 104.151 861.283 104.438C865.399 104.63 869.372 104.63 873.2 104.438C873.679 103.003 873.966 101.423 874.062 99.7007C874.253 97.978 874.301 96.2554 874.205 94.5327C874.11 92.81 873.966 91.1351 873.775 89.5082C873.583 87.8812 873.392 86.3977 873.2 85.0579C871.573 85.1536 869.659 85.1536 867.457 85.0579C865.351 84.9622 863.246 84.7229 861.14 84.3401C859.034 83.8615 857.072 83.2395 855.253 82.4738C853.434 81.7082 852.046 80.6554 851.089 79.3156C850.994 75.0088 850.946 70.415 850.946 65.534C850.946 60.5574 850.946 55.485 850.946 50.3169H873.2C873.009 49.0728 872.961 47.5893 873.057 45.8666C873.248 44.0483 873.392 42.2777 873.487 40.555C873.583 38.8323 873.583 37.2532 873.487 35.8176C873.392 34.2863 873.009 33.1379 872.339 32.3722C867.457 32.6594 863.341 32.8986 859.991 33.09C856.737 33.2814 853.626 33.425 850.659 33.5207C850.659 32.0851 850.611 30.6974 850.515 29.3575C850.515 28.0177 850.515 26.7256 850.515 25.4815V6.24476Z" fill="white"/>
<path d="M897.855 32.2287C894.792 32.3244 892.16 32.3244 889.958 32.2287C887.757 32.133 886.034 32.0373 884.79 31.9416C884.311 31.9416 883.593 31.8937 882.636 31.798C881.775 31.7023 881.152 31.7023 880.769 31.798V31.9416C880.195 37.5882 879.908 43.4262 879.908 49.4556C879.908 55.3893 880.004 61.4187 880.195 67.5438C880.387 73.669 880.482 79.8419 880.482 86.0628C880.578 92.2836 880.387 98.4087 879.908 104.438C880.578 104.247 881.918 104.199 883.928 104.295C885.938 104.39 888.044 104.438 890.246 104.438C892.543 104.534 894.649 104.534 896.563 104.438C898.477 104.438 899.674 104.151 900.152 103.577C899.482 91.9965 899.291 80.1769 899.578 68.1181C899.961 56.0592 900.2 44.2397 900.296 32.6594V32.2287H897.855ZM880.195 0.933129C880.099 5.33556 880.147 9.06806 880.339 12.1306C880.626 15.0975 880.769 17.9686 880.769 20.7441C882.588 20.6484 884.55 20.6962 886.656 20.8876C888.762 20.9833 890.724 21.079 892.543 21.1747C894.457 21.1747 896.084 21.079 897.424 20.8876C898.86 20.6962 899.77 20.3134 900.152 19.7392C900.152 18.3036 900.105 16.6766 900.009 14.8582C900.009 12.9441 899.961 11.1257 899.865 9.40302C899.865 7.58462 899.817 5.95764 899.722 4.52206C899.722 2.99079 899.722 1.93803 899.722 1.3638L880.195 0.933129Z" fill="white"/>
<path d="M911.356 38.9759C911.069 40.0286 910.638 41.4642 910.064 43.2826C909.49 45.0053 909.154 46.393 909.059 47.4458C908.772 49.2642 908.58 51.0347 908.484 52.7574C908.389 54.3844 908.341 56.0592 908.341 57.7819C908.628 60.9402 908.676 64.4334 908.484 68.2616C908.389 72.0898 908.437 75.918 908.628 79.7462C908.819 83.4787 909.394 87.0677 910.351 90.5131C911.308 93.9584 913.079 96.8296 915.663 99.1265C919.013 102.476 923.129 104.582 928.011 105.443C930.691 105.443 933.658 105.539 936.913 105.73C940.167 106.017 943.326 106.017 946.389 105.73C949.452 105.539 952.276 104.965 954.86 104.007C957.54 103.05 959.694 101.423 961.321 99.1265C962.278 98.1694 962.996 96.3989 963.475 93.8149C964.049 91.2308 964.48 88.3118 964.767 85.0579C965.15 81.8039 965.389 78.4064 965.485 74.8653C965.676 71.3242 965.82 68.1659 965.916 65.3905C965.82 62.2322 965.724 59.1697 965.628 56.2028C965.533 53.1402 965.293 50.3648 964.911 47.8765C964.528 45.2924 963.953 43.0433 963.188 41.1292C962.422 39.2151 961.369 37.8274 960.029 36.9661C958.019 35.052 955.626 33.6164 952.85 32.6594C950.074 31.6066 947.155 30.9845 944.092 30.7931C942.082 30.6017 940.167 30.6017 938.349 30.7931C936.626 30.8888 934.807 30.841 932.893 30.6495C930.595 30.6495 928.298 30.7931 926.001 31.0802C923.799 31.3673 921.694 31.8937 919.684 32.6594C917.769 33.3293 916.046 34.1906 914.515 35.2434C913.079 36.2961 912.026 37.5403 911.356 38.9759ZM929.303 55.9157C930.548 54.3844 932.175 53.3316 934.185 52.7574C937.918 51.8961 940.933 52.231 943.23 53.7623C945.528 55.2936 946.915 57.7341 947.394 61.0837C947.968 63.8592 948.112 66.8261 947.825 69.9843C947.633 73.0469 947.346 76.1094 946.963 79.172C946.389 81.5646 945.288 83.1438 943.661 83.9094C942.417 84.5793 940.837 85.0579 938.923 85.345C937.009 85.5364 935.142 85.4407 933.323 85.0579C931.601 84.5793 930.117 83.7658 928.872 82.6174C927.628 81.3732 927.054 79.6505 927.15 77.4493C927.341 74.0996 927.437 70.9414 927.437 67.9745C927.437 64.9119 927.628 61.8494 928.011 58.7868C928.298 57.2555 928.729 56.2985 929.303 55.9157Z" fill="white"/>
<path d="M993.517 40.4115C993.422 39.0716 993.374 37.8753 993.374 36.8225C993.469 35.7698 993.422 34.4299 993.23 32.8029C993.23 32.5158 992.847 32.3722 992.081 32.3722C991.316 32.2765 990.454 32.2765 989.497 32.3722C988.54 32.4679 987.583 32.6115 986.626 32.8029C985.668 32.8986 984.998 32.9465 984.615 32.9465C983.467 33.0422 982.51 33.1379 981.744 33.2336C980.978 33.2336 980.26 33.2336 979.59 33.2336C978.92 33.2336 978.202 33.2336 977.437 33.2336C976.671 33.1379 975.714 33.0422 974.565 32.9465C974.182 45.5795 974.086 57.7819 974.278 69.5536C974.565 81.3254 974.709 93.0971 974.709 104.869C977.006 104.677 978.92 104.63 980.452 104.725C981.983 104.821 983.371 104.869 984.615 104.869C985.86 104.965 987.056 104.965 988.205 104.869C989.449 104.773 990.885 104.486 992.512 104.007V103.433C992.895 100.275 993.087 97.1167 993.087 93.9584C993.087 90.8002 992.991 87.6419 992.799 84.4836C992.704 81.2297 992.608 78.0235 992.512 74.8653C992.417 71.6113 992.464 68.3095 992.656 64.9598C992.847 62.3758 993.517 60.4617 994.666 59.2175C995.814 57.8776 997.107 57.0163 998.542 56.6335C999.978 56.1549 1001.41 56.0592 1002.85 56.3464C1004.38 56.5378 1005.53 56.8249 1006.3 57.2077C1006.39 57.3034 1006.49 57.3513 1006.58 57.3513C1006.68 57.3513 1006.77 57.3991 1006.87 57.4948C1007.64 58.069 1008.21 58.8825 1008.59 59.9353C1009.07 60.988 1009.41 62.1844 1009.6 63.5242C1009.89 64.8641 1010.08 66.2518 1010.17 67.6874C1010.27 69.0273 1010.36 70.2714 1010.46 71.4199C1010.65 74.0039 1010.75 76.7794 1010.75 79.7462C1010.84 82.7131 1010.84 85.6799 1010.75 88.6468C1010.75 91.6137 1010.75 94.4848 1010.75 97.2603C1010.75 100.036 1010.84 102.524 1011.03 104.725C1014.38 104.725 1017.35 104.725 1019.94 104.725C1022.62 104.821 1025.63 104.63 1028.98 104.151C1028.79 100.897 1028.74 97.1167 1028.84 92.81C1028.93 88.5032 1029.03 84.053 1029.12 79.4591C1029.22 74.7696 1029.27 70.1757 1029.27 65.6776C1029.36 61.0838 1029.32 56.8727 1029.12 53.0445C1029.03 49.2163 1028.69 45.9624 1028.12 43.2826C1027.64 40.5072 1026.92 38.6888 1025.97 37.8274C1023.96 36.1047 1021.71 34.9084 1019.22 34.2385C1016.73 33.5686 1014.14 33.2814 1011.46 33.3771C1008.88 33.4728 1006.34 33.9514 1003.85 34.8127C1001.37 35.6741 999.117 36.8225 997.107 38.2581C996.628 38.6409 996.006 39.0237 995.24 39.4066C994.57 39.7894 993.996 40.1243 993.517 40.4115Z" fill="white"/>
<path d="M1091.54 6.24476C1089.91 6.43617 1088.29 6.48402 1086.66 6.38831C1085.03 6.29261 1083.4 6.1969 1081.78 6.1012C1080.15 5.90979 1078.57 5.76623 1077.04 5.67053C1075.6 5.57482 1074.26 5.62268 1073.02 5.81408C1072.83 7.63248 1072.68 9.69014 1072.59 11.9871C1072.59 14.284 1072.59 16.6766 1072.59 19.1649C1072.59 21.6533 1072.64 24.1416 1072.73 26.6299C1072.83 29.0226 1072.88 31.2716 1072.88 33.3771C1071.34 33.3771 1069.72 33.3771 1067.99 33.3771C1066.37 33.3771 1064.6 33.3293 1062.68 33.2336L1062.25 50.7476C1064.26 50.7476 1066.08 50.7476 1067.71 50.7476C1069.43 50.7476 1071.06 50.6998 1072.59 50.604C1072.49 57.5905 1072.54 64.3856 1072.73 70.9892C1072.92 77.4972 1073.64 84.4358 1074.89 91.8051C1076.13 94.7719 1078.14 97.1167 1080.92 98.8394C1083.79 100.562 1087.04 101.854 1090.68 102.715C1094.32 103.577 1098.19 104.151 1102.31 104.438C1106.42 104.63 1110.4 104.63 1114.23 104.438C1114.7 103.003 1114.99 101.423 1115.09 99.7007C1115.28 97.978 1115.33 96.2554 1115.23 94.5327C1115.14 92.81 1114.99 91.1351 1114.8 89.5082C1114.61 87.8812 1114.42 86.3977 1114.23 85.0579C1112.6 85.1536 1110.68 85.1536 1108.48 85.0579C1106.38 84.9622 1104.27 84.7229 1102.17 84.3401C1100.06 83.8615 1098.1 83.2395 1096.28 82.4738C1094.46 81.7082 1093.07 80.6554 1092.11 79.3156C1092.02 75.0088 1091.97 70.415 1091.97 65.534C1091.97 60.5574 1091.97 55.485 1091.97 50.3169H1114.23C1114.03 49.0728 1113.99 47.5893 1114.08 45.8666C1114.27 44.0483 1114.42 42.2777 1114.51 40.555C1114.61 38.8323 1114.61 37.2532 1114.51 35.8176C1114.42 34.2863 1114.03 33.1379 1113.36 32.3722C1108.48 32.6594 1104.37 32.8986 1101.02 33.09C1097.76 33.2814 1094.65 33.425 1091.68 33.5207C1091.68 32.0851 1091.64 30.6974 1091.54 29.3575C1091.54 28.0177 1091.54 26.7256 1091.54 25.4815V6.24476Z" fill="white"/>
<path d="M1122.66 38.9759C1122.37 40.0286 1121.94 41.4642 1121.36 43.2826C1120.79 45.0053 1120.45 46.393 1120.36 47.4458C1120.07 49.2642 1119.88 51.0347 1119.78 52.7574C1119.69 54.3844 1119.64 56.0592 1119.64 57.7819C1119.93 60.9402 1119.98 64.4334 1119.78 68.2616C1119.69 72.0898 1119.74 75.918 1119.93 79.7462C1120.12 83.4787 1120.69 87.0677 1121.65 90.5131C1122.61 93.9584 1124.38 96.8296 1126.96 99.1265C1130.31 102.476 1134.43 104.582 1139.31 105.443C1141.99 105.443 1144.96 105.539 1148.21 105.73C1151.47 106.017 1154.63 106.017 1157.69 105.73C1160.75 105.539 1163.58 104.965 1166.16 104.007C1168.84 103.05 1170.99 101.423 1172.62 99.1265C1173.58 98.1694 1174.3 96.3989 1174.78 93.8149C1175.35 91.2308 1175.78 88.3118 1176.07 85.0579C1176.45 81.8039 1176.69 78.4064 1176.79 74.8653C1176.98 71.3242 1177.12 68.1659 1177.22 65.3905C1177.12 62.2322 1177.02 59.1697 1176.93 56.2028C1176.83 53.1402 1176.59 50.3648 1176.21 47.8765C1175.83 45.2924 1175.25 43.0433 1174.49 41.1292C1173.72 39.2151 1172.67 37.8274 1171.33 36.9661C1169.32 35.052 1166.93 33.6164 1164.15 32.6594C1161.37 31.6066 1158.46 30.9845 1155.39 30.7931C1153.38 30.6017 1151.47 30.6017 1149.65 30.7931C1147.93 30.8888 1146.11 30.841 1144.19 30.6495C1141.9 30.6495 1139.6 30.7931 1137.3 31.0802C1135.1 31.3673 1132.99 31.8937 1130.98 32.6594C1129.07 33.3293 1127.35 34.1906 1125.82 35.2434C1124.38 36.2961 1123.33 37.5403 1122.66 38.9759ZM1140.6 55.9157C1141.85 54.3844 1143.48 53.3316 1145.49 52.7574C1149.22 51.8961 1152.23 52.231 1154.53 53.7623C1156.83 55.2936 1158.22 57.7341 1158.69 61.0837C1159.27 63.8592 1159.41 66.8261 1159.13 69.9843C1158.93 73.0469 1158.65 76.1094 1158.26 79.172C1157.69 81.5646 1156.59 83.1438 1154.96 83.9094C1153.72 84.5793 1152.14 85.0579 1150.22 85.345C1148.31 85.5364 1146.44 85.4407 1144.62 85.0579C1142.9 84.5793 1141.42 83.7658 1140.17 82.6174C1138.93 81.3732 1138.35 79.6505 1138.45 77.4493C1138.64 74.0996 1138.74 70.9414 1138.74 67.9745C1138.74 64.9119 1138.93 61.8494 1139.31 58.7868C1139.6 57.2555 1140.03 56.2985 1140.6 55.9157Z" fill="white"/>
<path d="M61.0205 224.426C61.0205 219.258 60.0633 214.616 58.149 210.501C56.2346 206.29 53.028 203.227 48.5293 201.313C46.0406 200.739 43.3126 200.308 40.3453 200.021C37.3781 199.639 34.4108 199.447 31.4435 199.447C28.4762 199.447 25.6525 199.591 22.9724 199.878C20.388 200.165 18.1865 200.548 16.3679 201.026C11.6777 202.27 8.04035 204.663 5.45595 208.204C2.96727 211.745 1.62721 215.621 1.43578 219.832C1.34006 223.948 2.48868 227.967 4.88164 231.891C7.37032 235.719 11.2948 238.543 16.655 240.361C19.3351 241.51 22.0631 242.323 24.8389 242.802C27.6148 243.28 30.1035 243.854 32.305 244.524C34.5065 245.098 36.2773 245.96 37.6174 247.108C38.9574 248.257 39.4839 249.979 39.1967 252.276C39.2924 255.052 38.431 256.966 36.6123 258.019C34.7937 259.071 32.7836 259.502 30.5821 259.311C28.3805 259.024 26.2747 258.21 24.2646 256.87C22.3503 255.435 21.3452 253.616 21.2495 251.415C18.2822 251.415 14.7885 251.367 10.7683 251.271C6.74815 251.08 3.15871 251.176 0 251.559V252.276C0 256.105 0.765748 259.55 2.29724 262.612C3.92446 265.675 6.12598 268.259 8.90182 270.365C11.7734 272.47 15.1714 274.049 19.0958 275.102C23.0203 276.155 27.4233 276.585 32.305 276.394C37.8567 276.49 42.9776 275.533 47.6678 273.523C52.358 271.513 55.8039 268.163 58.0054 263.474C59.824 258.21 60.4941 253.808 60.0155 250.267C59.5369 246.63 58.2447 243.089 56.1389 239.643C53.9374 236.772 50.4915 234.714 45.8013 233.47C41.1111 232.13 36.0859 231.078 30.7256 230.312C28.5241 229.546 26.849 228.398 25.7004 226.867C24.5518 225.335 23.9775 223.804 23.9775 222.273C23.9775 220.742 24.5039 219.354 25.5568 218.11C26.7055 216.77 28.3805 215.908 30.5821 215.526C31.8264 215.43 33.0707 215.621 34.3151 216.1C35.6551 216.483 36.8037 217.105 37.7609 217.966C38.8138 218.827 39.5796 219.832 40.0582 220.981C40.6325 222.129 40.7761 223.278 40.4889 224.426C43.7433 225.096 47.1892 225.383 50.8265 225.288C54.5595 225.192 57.9575 224.905 61.0205 224.426Z" fill="white"/>
<path d="M93.9279 175.904C92.3006 176.095 90.6734 176.143 89.0462 176.047C87.419 175.952 85.7918 175.856 84.1646 175.76C82.5374 175.569 80.958 175.425 79.4265 175.329C77.9907 175.234 76.6507 175.282 75.4063 175.473C75.2149 177.291 75.0713 179.349 74.9756 181.646C74.9756 183.943 74.9756 186.336 74.9756 188.824C74.9756 191.312 75.0235 193.801 75.1192 196.289C75.2149 198.681 75.2627 200.931 75.2627 203.036C73.7313 203.036 72.104 203.036 70.3811 203.036C68.7539 203.036 66.9831 202.988 65.0687 202.893L64.638 220.407C66.6481 220.407 68.4667 220.407 70.094 220.407C71.8169 220.407 73.4441 220.359 74.9756 220.263C74.8799 227.249 74.9277 234.045 75.1192 240.648C75.3106 247.156 76.0285 254.095 77.2728 261.464C78.5172 264.431 80.5273 266.776 83.3031 268.498C86.1747 270.221 89.4291 271.513 93.0664 272.374C96.7037 273.236 100.58 273.81 104.696 274.097C108.812 274.288 112.784 274.288 116.613 274.097C117.092 272.661 117.379 271.082 117.475 269.36C117.666 267.637 117.714 265.914 117.618 264.192C117.522 262.469 117.379 260.794 117.187 259.167C116.996 257.54 116.805 256.057 116.613 254.717C114.986 254.813 113.072 254.813 110.87 254.717C108.764 254.621 106.658 254.382 104.553 253.999C102.447 253.52 100.485 252.898 98.6659 252.133C96.8473 251.367 95.4594 250.314 94.5022 248.975C94.4064 244.668 94.3586 240.074 94.3586 235.193C94.3586 230.216 94.3586 225.144 94.3586 219.976H116.613C116.422 218.732 116.374 217.248 116.47 215.526C116.661 213.707 116.805 211.937 116.9 210.214C116.996 208.491 116.996 206.912 116.9 205.477C116.805 203.945 116.422 202.797 115.752 202.031C110.87 202.318 106.754 202.558 103.404 202.749C100.15 202.94 97.0387 203.084 94.0714 203.18C94.0714 201.744 94.0236 200.356 93.9279 199.016C93.9279 197.677 93.9279 196.385 93.9279 195.14V175.904Z" fill="white"/>
<path d="M181.053 202.605C177.99 202.414 175.262 202.27 172.869 202.175C170.571 202.079 168.609 201.983 166.982 201.888C166.695 201.888 166.168 201.888 165.403 201.888C164.637 201.888 163.871 201.888 163.105 201.888C162.34 201.792 161.622 201.792 160.952 201.888C160.377 201.888 160.09 201.935 160.09 202.031C160.09 203.18 159.947 204.328 159.66 205.477C159.468 206.529 159.42 207.821 159.516 209.353C158.846 207.726 158.032 206.481 157.075 205.62C156.118 204.663 155.017 203.993 153.773 203.61C152.528 203.132 151.141 202.893 149.609 202.893C148.173 202.797 146.594 202.749 144.871 202.749C141.521 202.845 138.362 203.754 135.395 205.477C132.428 207.104 129.843 209.4 127.642 212.367C125.536 215.238 123.861 218.684 122.616 222.703C121.372 226.723 120.75 231.126 120.75 235.911C120.75 239.739 121.133 243.902 121.899 248.4C122.76 252.898 124.052 257.062 125.775 260.89C127.498 264.718 129.652 267.924 132.236 270.508C134.916 273.092 138.123 274.384 141.856 274.384C145.206 274.384 148.604 273.571 152.05 271.944C155.591 270.317 158.511 268.355 160.808 266.058C160.808 267.015 160.712 267.828 160.521 268.498C160.33 269.168 160.234 270.03 160.234 271.082C160.234 271.848 160.33 272.518 160.521 273.092C160.808 273.666 161.287 274.049 161.957 274.241C163.01 274.241 164.015 274.193 164.972 274.097C166.025 273.906 167.078 273.81 168.131 273.81C169.662 273.81 171.194 273.906 172.725 274.097C174.352 274.193 175.932 274.241 177.463 274.241H179.186C180.335 274.049 180.909 273.331 180.909 272.087C181.005 270.843 181.053 269.599 181.053 268.355C181.723 258.114 181.866 248.017 181.483 238.064C181.1 228.015 181.053 217.823 181.34 207.486V206.051C181.34 205.477 181.292 204.902 181.196 204.328C181.196 203.754 181.148 203.18 181.053 202.605ZM139.271 231.173C139.75 228.781 141.09 226.675 143.292 224.857C145.589 222.943 148.7 221.986 152.624 221.986C154.634 221.986 156.118 222.129 157.075 222.416C158.128 222.703 158.846 223.373 159.229 224.426C159.707 225.479 159.947 227.01 159.947 229.02C160.042 230.934 160.09 233.566 160.09 236.916C160.09 239.595 160.042 242.036 159.947 244.237C159.947 246.343 159.66 248.161 159.085 249.692C158.607 251.128 157.745 252.276 156.501 253.138C155.352 253.903 153.581 254.286 151.188 254.286C147.168 254.286 144.01 252.803 141.712 249.836C139.511 246.773 138.41 243.089 138.41 238.782C138.41 237.538 138.458 236.294 138.554 235.049C138.649 233.71 138.889 232.418 139.271 231.173Z" fill="white"/>
<path d="M211.144 207.343C211.144 206.673 211.097 206.194 211.001 205.907C211.001 205.62 211.001 205.381 211.001 205.189C211.001 204.902 211.001 204.567 211.001 204.185C211.001 203.802 211.001 203.227 211.001 202.462C211.001 202.27 210.57 202.175 209.709 202.175C208.943 202.079 207.986 202.079 206.837 202.175C205.784 202.27 204.731 202.366 203.678 202.462C202.721 202.558 202.051 202.605 201.668 202.605C200.52 202.701 199.563 202.797 198.797 202.893C198.031 202.893 197.313 202.893 196.643 202.893C195.973 202.893 195.255 202.893 194.489 202.893C193.724 202.797 192.767 202.701 191.618 202.605C191.235 215.238 191.139 227.441 191.331 239.213C191.618 250.984 191.761 262.756 191.761 274.528C194.059 274.336 196.021 274.288 197.648 274.384C199.371 274.48 200.95 274.528 202.386 274.528C203.822 274.623 205.21 274.623 206.55 274.528C207.89 274.432 209.374 274.145 211.001 273.666V273.092C211.001 269.551 210.953 266.249 210.857 263.187C210.857 260.028 210.857 256.966 210.857 253.999C210.857 250.936 210.809 247.922 210.714 244.955C210.618 241.988 210.522 238.83 210.427 235.48C210.331 232.8 210.714 230.743 211.575 229.307C212.437 227.872 213.633 226.819 215.165 226.149C216.792 225.479 218.658 225.144 220.764 225.144C222.966 225.144 225.359 225.288 227.943 225.575C228.039 225.575 228.661 225.67 229.81 225.862C231.054 226.053 232.25 226.292 233.399 226.58C233.878 226.771 234.356 226.962 234.835 227.154C235.409 227.249 235.936 227.393 236.414 227.584L237.706 228.015C237.611 226.58 237.563 225.048 237.563 223.421C237.563 221.794 237.563 220.024 237.563 218.11C237.563 216.1 237.563 213.851 237.563 211.362C237.658 208.874 237.706 206.003 237.706 202.749C237.706 202.653 236.988 202.605 235.553 202.605C234.213 202.51 232.538 202.51 230.527 202.605C228.517 202.701 226.364 202.94 224.066 203.323C221.769 203.61 219.711 204.041 217.893 204.615C216.553 205.094 215.165 205.62 213.729 206.194C212.389 206.769 211.527 207.151 211.144 207.343Z" fill="white"/>
<path d="M270.035 175.904C268.408 176.095 266.78 176.143 265.153 176.047C263.526 175.952 261.899 175.856 260.272 175.76C258.644 175.569 257.065 175.425 255.534 175.329C254.098 175.234 252.758 175.282 251.513 175.473C251.322 177.291 251.178 179.349 251.083 181.646C251.083 183.943 251.083 186.336 251.083 188.824C251.083 191.312 251.13 193.801 251.226 196.289C251.322 198.681 251.37 200.931 251.37 203.036C249.838 203.036 248.211 203.036 246.488 203.036C244.861 203.036 243.09 202.988 241.176 202.893L240.745 220.407C242.755 220.407 244.574 220.407 246.201 220.407C247.924 220.407 249.551 220.359 251.083 220.263C250.987 227.249 251.035 234.045 251.226 240.648C251.418 247.156 252.136 254.095 253.38 261.464C254.624 264.431 256.634 266.776 259.41 268.498C262.282 270.221 265.536 271.513 269.173 272.374C272.811 273.236 276.687 273.81 280.803 274.097C284.919 274.288 288.891 274.288 292.72 274.097C293.199 272.661 293.486 271.082 293.582 269.36C293.773 267.637 293.821 265.914 293.725 264.192C293.629 262.469 293.486 260.794 293.294 259.167C293.103 257.54 292.912 256.057 292.72 254.717C291.093 254.813 289.179 254.813 286.977 254.717C284.871 254.621 282.765 254.382 280.66 253.999C278.554 253.52 276.592 252.898 274.773 252.133C272.954 251.367 271.566 250.314 270.609 248.975C270.513 244.668 270.466 240.074 270.466 235.193C270.466 230.216 270.466 225.144 270.466 219.976H292.72C292.529 218.732 292.481 217.248 292.577 215.526C292.768 213.707 292.912 211.937 293.007 210.214C293.103 208.491 293.103 206.912 293.007 205.477C292.912 203.945 292.529 202.797 291.859 202.031C286.977 202.318 282.861 202.558 279.511 202.749C276.257 202.94 273.146 203.084 270.178 203.18C270.178 201.744 270.131 200.356 270.035 199.016C270.035 197.677 270.035 196.385 270.035 195.14V175.904Z" fill="white"/>
<path d="M383.88 246.534C382.827 246.247 381.487 246.103 379.859 246.103C378.232 246.008 376.509 246.008 374.691 246.103C372.872 246.199 371.149 246.295 369.522 246.39C367.895 246.39 366.602 246.343 365.645 246.247C365.358 247.491 364.927 248.927 364.353 250.554C363.874 252.085 363.157 253.186 362.199 253.855C361.051 254.621 359.519 255.147 357.605 255.435C355.691 255.626 353.824 255.53 352.005 255.147C350.187 254.669 348.607 253.808 347.267 252.563C346.023 251.319 345.497 249.597 345.688 247.395C345.879 244.046 345.975 240.84 345.975 237.777C345.975 234.714 346.167 231.7 346.549 228.733C346.837 227.202 347.267 226.245 347.842 225.862C349.086 224.33 350.713 223.278 352.723 222.703C356.456 221.746 359.471 222.225 361.769 224.139C364.066 225.957 365.454 228.541 365.932 231.891C367.177 232.083 368.565 232.274 370.096 232.465C371.723 232.657 373.351 232.8 374.978 232.896C376.701 232.992 378.328 233.04 379.859 233.04C381.487 233.04 382.922 232.896 384.167 232.609C384.071 229.451 383.975 226.532 383.88 223.852C383.88 221.076 383.688 218.588 383.305 216.387C382.922 214.186 382.348 212.272 381.582 210.645C380.912 209.018 379.907 207.726 378.567 206.769C376.557 204.854 374.164 203.419 371.388 202.462C368.613 201.505 365.693 200.931 362.63 200.739C360.62 200.548 358.706 200.548 356.887 200.739C355.164 200.835 353.345 200.787 351.431 200.596C349.134 200.596 346.837 200.739 344.539 201.026C342.338 201.313 340.232 201.84 338.222 202.605C336.308 203.275 334.585 204.137 333.053 205.189C331.617 206.242 330.564 207.486 329.894 208.922C329.607 209.879 329.177 211.267 328.602 213.085C328.028 214.904 327.693 216.339 327.597 217.392C327.023 220.837 326.736 224.283 326.736 227.728C327.119 230.886 327.214 234.379 327.023 238.208C326.927 242.036 326.975 245.864 327.166 249.692C327.358 253.425 327.932 257.014 328.889 260.459C329.847 263.904 331.617 266.776 334.202 269.073C337.552 272.422 341.668 274.528 346.549 275.389C349.23 275.389 352.197 275.485 355.451 275.676C358.706 275.963 361.864 275.963 364.927 275.676C367.99 275.485 370.814 274.911 373.398 273.954C376.079 272.996 378.232 271.369 379.859 269.073C380.53 268.403 381.056 267.35 381.439 265.914C381.917 264.383 382.3 262.612 382.587 260.603C382.875 258.497 383.114 256.248 383.305 253.855C383.497 251.463 383.688 249.022 383.88 246.534Z" fill="white"/>
<path d="M393.411 208.635C393.124 209.688 392.693 211.123 392.118 212.942C391.544 214.664 391.209 216.052 391.113 217.105C390.826 218.923 390.635 220.694 390.539 222.416C390.443 224.043 390.396 225.718 390.396 227.441C390.683 230.599 390.731 234.092 390.539 237.921C390.443 241.749 390.491 245.577 390.683 249.405C390.874 253.138 391.448 256.727 392.406 260.172C393.363 263.617 395.134 266.489 397.718 268.785C401.068 272.135 405.184 274.241 410.066 275.102C412.746 275.102 415.713 275.198 418.968 275.389C422.222 275.676 425.381 275.676 428.444 275.389C431.507 275.198 434.33 274.623 436.915 273.666C439.595 272.709 441.749 271.082 443.376 268.785C444.333 267.828 445.051 266.058 445.529 263.474C446.104 260.89 446.534 257.971 446.822 254.717C447.205 251.463 447.444 248.065 447.54 244.524C447.731 240.983 447.875 237.825 447.97 235.049C447.875 231.891 447.779 228.829 447.683 225.862C447.587 222.799 447.348 220.024 446.965 217.535C446.582 214.951 446.008 212.702 445.242 210.788C444.477 208.874 443.424 207.486 442.084 206.625C440.073 204.711 437.681 203.275 434.905 202.318C432.129 201.266 429.209 200.643 426.146 200.452C424.136 200.261 422.222 200.261 420.403 200.452C418.68 200.548 416.862 200.5 414.947 200.308C412.65 200.308 410.353 200.452 408.056 200.739C405.854 201.026 403.748 201.553 401.738 202.318C399.824 202.988 398.101 203.85 396.569 204.902C395.134 205.955 394.081 207.199 393.411 208.635ZM411.358 225.575C412.602 224.043 414.229 222.991 416.24 222.416C419.973 221.555 422.988 221.89 425.285 223.421C427.582 224.953 428.97 227.393 429.449 230.743C430.023 233.518 430.167 236.485 429.879 239.643C429.688 242.706 429.401 245.768 429.018 248.831C428.444 251.224 427.343 252.803 425.716 253.568C424.471 254.238 422.892 254.717 420.978 255.004C419.063 255.195 417.197 255.1 415.378 254.717C413.655 254.238 412.172 253.425 410.927 252.276C409.683 251.032 409.109 249.309 409.204 247.108C409.396 243.759 409.491 240.6 409.491 237.633C409.491 234.571 409.683 231.508 410.066 228.446C410.353 226.914 410.784 225.957 411.358 225.575Z" fill="white"/>
<path d="M475.428 210.07C475.333 208.731 475.285 207.534 475.285 206.481C475.381 205.429 475.333 204.089 475.141 202.462C475.141 202.175 474.758 202.031 473.993 202.031C473.227 201.935 472.365 201.935 471.408 202.031C470.451 202.127 469.494 202.27 468.537 202.462C467.579 202.558 466.909 202.605 466.527 202.605C465.378 202.701 464.421 202.797 463.655 202.893C462.889 202.893 462.171 202.893 461.501 202.893C460.831 202.893 460.113 202.893 459.348 202.893C458.582 202.797 457.625 202.701 456.476 202.605C456.093 215.238 455.998 227.441 456.189 239.213C456.476 250.984 456.62 262.756 456.62 274.528C458.917 274.336 460.831 274.288 462.363 274.384C463.894 274.48 465.282 274.528 466.527 274.528C467.771 274.623 468.967 274.623 470.116 274.528C471.36 274.432 472.796 274.145 474.423 273.666V273.092C474.806 269.934 474.998 266.776 474.998 263.617C474.998 260.459 474.902 257.301 474.71 254.143C474.615 250.889 474.519 247.682 474.423 244.524C474.328 241.27 474.375 237.968 474.567 234.619C474.758 232.035 475.428 230.121 476.577 228.876C477.726 227.537 479.018 226.675 480.454 226.292C481.889 225.814 483.325 225.718 484.761 226.005C486.292 226.197 487.441 226.484 488.207 226.867C488.302 226.962 488.398 227.01 488.494 227.01C488.59 227.01 488.685 227.058 488.781 227.154C489.547 227.728 490.121 228.541 490.504 229.594C490.983 230.647 491.318 231.843 491.509 233.183C491.796 234.523 491.988 235.911 492.083 237.346C492.179 238.686 492.275 239.93 492.371 241.079C492.562 243.663 492.658 246.438 492.658 249.405C492.753 252.372 492.753 255.339 492.658 258.306C492.658 261.273 492.658 264.144 492.658 266.919C492.658 269.695 492.753 272.183 492.945 274.384C496.295 274.384 499.262 274.384 501.847 274.384C504.527 274.48 507.542 274.288 510.892 273.81C510.701 270.939 510.605 267.637 510.605 263.904C510.701 260.076 510.796 256.152 510.892 252.133C510.988 248.017 511.083 243.902 511.179 239.787C511.275 235.576 511.275 231.604 511.179 227.872C512.041 227.202 512.95 226.723 513.907 226.436C514.96 226.053 515.965 225.862 516.922 225.862C517.975 225.862 518.932 225.957 519.794 226.149C520.655 226.34 521.373 226.58 521.948 226.867C522.043 226.962 522.139 227.01 522.235 227.01C522.33 227.01 522.426 227.058 522.522 227.154C523.288 227.728 523.862 228.541 524.245 229.594C524.723 230.647 525.058 231.843 525.25 233.183C525.537 234.523 525.728 235.911 525.824 237.346C525.92 238.686 526.016 239.93 526.111 241.079C526.303 243.663 526.398 246.438 526.398 249.405C526.494 252.372 526.494 255.339 526.398 258.306C526.398 261.273 526.398 264.144 526.398 266.919C526.398 269.695 526.494 272.183 526.686 274.384C530.036 274.384 533.003 274.384 535.587 274.384C538.268 274.48 541.283 274.288 544.633 273.81C544.441 270.556 544.393 266.776 544.489 262.469C544.585 258.162 544.681 253.712 544.776 249.118C544.872 244.429 544.92 239.835 544.92 235.337C545.016 230.743 544.968 226.532 544.776 222.703C544.681 218.875 544.346 215.621 543.771 212.942C543.293 210.166 542.575 208.348 541.618 207.486C539.608 205.764 537.358 204.567 534.87 203.897C532.381 203.227 529.796 202.94 527.116 203.036C524.532 203.132 521.995 203.61 519.507 204.472C517.018 205.333 514.769 206.481 512.759 207.917C512.28 208.3 511.706 208.683 511.036 209.066C510.366 209.353 509.791 209.64 509.313 209.927C508.834 208.778 508.355 207.965 507.877 207.486C505.867 205.764 503.617 204.567 501.129 203.897C498.64 203.227 496.056 202.94 493.376 203.036C490.791 203.132 488.255 203.61 485.766 204.472C483.277 205.333 481.028 206.481 479.018 207.917C478.539 208.3 477.917 208.683 477.151 209.066C476.481 209.448 475.907 209.783 475.428 210.07Z" fill="white"/>
<path d="M573.577 210.07C573.481 208.731 573.434 207.534 573.434 206.481C573.529 205.429 573.482 204.089 573.29 202.462C573.29 202.175 572.907 202.031 572.141 202.031C571.376 201.935 570.514 201.935 569.557 202.031C568.6 202.127 567.643 202.27 566.685 202.462C565.728 202.558 565.058 202.605 564.675 202.605C563.527 202.701 562.57 202.797 561.804 202.893C561.038 202.893 560.32 202.893 559.65 202.893C558.98 202.893 558.262 202.893 557.496 202.893C556.731 202.797 555.773 202.701 554.625 202.605C554.242 215.238 554.146 227.441 554.338 239.213C554.625 250.984 554.768 262.756 554.768 274.528C557.066 274.336 558.98 274.288 560.512 274.384C562.043 274.48 563.431 274.528 564.675 274.528C565.92 274.623 567.116 274.623 568.265 274.528C569.509 274.432 570.945 274.145 572.572 273.666V273.092C572.955 269.934 573.146 266.776 573.146 263.617C573.146 260.459 573.051 257.301 572.859 254.143C572.764 250.889 572.668 247.682 572.572 244.524C572.476 241.27 572.524 237.968 572.716 234.619C572.907 232.035 573.577 230.121 574.726 228.876C575.874 227.537 577.167 226.675 578.602 226.292C580.038 225.814 581.474 225.718 582.91 226.005C584.441 226.197 585.59 226.484 586.356 226.867C586.451 226.962 586.547 227.01 586.643 227.01C586.738 227.01 586.834 227.058 586.93 227.154C587.696 227.728 588.27 228.541 588.653 229.594C589.131 230.647 589.466 231.843 589.658 233.183C589.945 234.523 590.136 235.911 590.232 237.346C590.328 238.686 590.424 239.93 590.519 241.079C590.711 243.663 590.807 246.438 590.807 249.405C590.902 252.372 590.902 255.339 590.807 258.306C590.807 261.273 590.807 264.144 590.807 266.919C590.807 269.695 590.902 272.183 591.094 274.384C594.444 274.384 597.411 274.384 599.995 274.384C602.676 274.48 605.691 274.288 609.041 273.81C608.849 270.939 608.754 267.637 608.754 263.904C608.849 260.076 608.945 256.152 609.041 252.133C609.137 248.017 609.232 243.902 609.328 239.787C609.424 235.576 609.424 231.604 609.328 227.872C610.189 227.202 611.099 226.723 612.056 226.436C613.109 226.053 614.114 225.862 615.071 225.862C616.124 225.862 617.081 225.957 617.943 226.149C618.804 226.34 619.522 226.58 620.096 226.867C620.192 226.962 620.288 227.01 620.383 227.01C620.479 227.01 620.575 227.058 620.671 227.154C621.436 227.728 622.011 228.541 622.394 229.594C622.872 230.647 623.207 231.843 623.399 233.183C623.686 234.523 623.877 235.911 623.973 237.346C624.069 238.686 624.164 239.93 624.26 241.079C624.452 243.663 624.547 246.438 624.547 249.405C624.643 252.372 624.643 255.339 624.547 258.306C624.547 261.273 624.547 264.144 624.547 266.919C624.547 269.695 624.643 272.183 624.834 274.384C628.185 274.384 631.152 274.384 633.736 274.384C636.416 274.48 639.432 274.288 642.782 273.81C642.59 270.556 642.542 266.776 642.638 262.469C642.734 258.162 642.829 253.712 642.925 249.118C643.021 244.429 643.069 239.835 643.069 235.337C643.164 230.743 643.117 226.532 642.925 222.703C642.829 218.875 642.495 215.621 641.92 212.942C641.442 210.166 640.724 208.348 639.766 207.486C637.756 205.764 635.507 204.567 633.018 203.897C630.53 203.227 627.945 202.94 625.265 203.036C622.681 203.132 620.144 203.61 617.656 204.472C615.167 205.333 612.917 206.481 610.907 207.917C610.429 208.3 609.854 208.683 609.184 209.066C608.514 209.353 607.94 209.64 607.461 209.927C606.983 208.778 606.504 207.965 606.026 207.486C604.016 205.764 601.766 204.567 599.278 203.897C596.789 203.227 594.205 202.94 591.524 203.036C588.94 203.132 586.404 203.61 583.915 204.472C581.426 205.333 579.177 206.481 577.167 207.917C576.688 208.3 576.066 208.683 575.3 209.066C574.63 209.448 574.056 209.783 573.577 210.07Z" fill="white"/>
<path d="M687.95 266.345C688.046 267.685 688.046 268.881 687.95 269.934C687.95 270.987 688.046 272.327 688.237 273.954C688.237 274.241 688.62 274.384 689.386 274.384C690.152 274.48 691.013 274.48 691.97 274.384C692.928 274.288 693.885 274.193 694.842 274.097C695.799 273.906 696.469 273.81 696.852 273.81C698.001 273.714 698.958 273.666 699.724 273.666C700.489 273.571 701.207 273.523 701.877 273.523C702.547 273.523 703.265 273.571 704.031 273.666C704.797 273.666 705.754 273.714 706.903 273.81C707.285 261.177 707.333 248.975 707.046 237.203C706.855 225.431 706.759 213.659 706.759 201.888C704.462 202.079 702.547 202.127 701.016 202.031C699.484 201.935 698.096 201.888 696.852 201.888C695.608 201.792 694.363 201.792 693.119 201.888C691.97 201.983 690.583 202.27 688.955 202.749V203.323C688.477 206.481 688.237 209.64 688.237 212.798C688.333 215.956 688.429 219.162 688.525 222.416C688.716 225.575 688.86 228.781 688.955 232.035C689.051 235.289 689.003 238.543 688.812 241.797C688.62 244.381 687.95 246.343 686.802 247.682C685.653 248.927 684.361 249.788 682.925 250.267C681.489 250.649 680.006 250.745 678.474 250.554C677.038 250.267 675.938 249.932 675.172 249.549C675.076 249.453 674.98 249.405 674.885 249.405C674.789 249.405 674.693 249.357 674.598 249.262C673.832 248.687 673.21 247.874 672.731 246.821C672.348 245.768 672.013 244.572 671.726 243.232C671.535 241.892 671.391 240.552 671.295 239.213C671.2 237.777 671.104 236.485 671.008 235.337C670.817 232.752 670.673 229.977 670.577 227.01C670.577 224.043 670.577 221.076 670.577 218.11C670.673 215.143 670.721 212.272 670.721 209.496C670.721 206.721 670.625 204.232 670.434 202.031C667.084 202.031 664.068 202.031 661.388 202.031C658.804 201.935 655.837 202.127 652.487 202.605C652.678 205.859 652.726 209.64 652.63 213.946C652.534 218.253 652.439 222.751 652.343 227.441C652.247 232.035 652.152 236.629 652.056 241.222C652.056 245.721 652.104 249.884 652.199 253.712C652.391 257.54 652.726 260.842 653.204 263.617C653.779 266.297 654.544 268.068 655.502 268.929C657.512 270.652 659.761 271.848 662.25 272.518C664.739 273.188 667.275 273.475 669.859 273.379C672.54 273.284 675.124 272.805 677.613 271.944C680.101 271.082 682.351 269.934 684.361 268.498C684.839 268.116 685.414 267.733 686.084 267.35C686.849 266.967 687.472 266.632 687.95 266.345Z" fill="white"/>
<path d="M736.508 210.07C736.412 208.731 736.364 207.534 736.364 206.481C736.46 205.429 736.412 204.089 736.22 202.462C736.22 202.175 735.838 202.031 735.072 202.031C734.306 201.935 733.445 201.935 732.487 202.031C731.53 202.127 730.573 202.27 729.616 202.462C728.659 202.558 727.989 202.605 727.606 202.605C726.457 202.701 725.5 202.797 724.734 202.893C723.968 202.893 723.251 202.893 722.581 202.893C721.911 202.893 721.193 202.893 720.427 202.893C719.661 202.797 718.704 202.701 717.555 202.605C717.172 215.238 717.077 227.441 717.268 239.213C717.555 250.984 717.699 262.756 717.699 274.528C719.996 274.336 721.911 274.288 723.442 274.384C724.974 274.48 726.361 274.528 727.606 274.528C728.85 274.623 730.047 274.623 731.195 274.528C732.44 274.432 733.875 274.145 735.503 273.666V273.092C735.885 269.934 736.077 266.776 736.077 263.617C736.077 260.459 735.981 257.301 735.79 254.143C735.694 250.889 735.598 247.682 735.503 244.524C735.407 241.27 735.455 237.968 735.646 234.619C735.838 232.035 736.508 230.121 737.656 228.876C738.805 227.537 740.097 226.675 741.533 226.292C742.969 225.814 744.404 225.718 745.84 226.005C747.372 226.197 748.52 226.484 749.286 226.867C749.382 226.962 749.477 227.01 749.573 227.01C749.669 227.01 749.765 227.058 749.86 227.154C750.626 227.728 751.2 228.541 751.583 229.594C752.062 230.647 752.397 231.843 752.588 233.183C752.875 234.523 753.067 235.911 753.163 237.346C753.258 238.686 753.354 239.93 753.45 241.079C753.641 243.663 753.737 246.438 753.737 249.405C753.833 252.372 753.833 255.339 753.737 258.306C753.737 261.273 753.737 264.144 753.737 266.919C753.737 269.695 753.833 272.183 754.024 274.384C757.374 274.384 760.341 274.384 762.926 274.384C765.606 274.48 768.621 274.288 771.971 273.81C771.78 270.556 771.732 266.776 771.828 262.469C771.923 258.162 772.019 253.712 772.115 249.118C772.211 244.429 772.258 239.835 772.258 235.337C772.354 230.743 772.306 226.532 772.115 222.703C772.019 218.875 771.684 215.621 771.11 212.942C770.631 210.166 769.913 208.348 768.956 207.486C766.946 205.764 764.697 204.567 762.208 203.897C759.719 203.227 757.135 202.94 754.455 203.036C751.87 203.132 749.334 203.61 746.845 204.472C744.356 205.333 742.107 206.481 740.097 207.917C739.618 208.3 738.996 208.683 738.231 209.066C737.56 209.448 736.986 209.783 736.508 210.07Z" fill="white"/>
<path d="M799.566 201.888C796.503 201.983 793.871 201.983 791.669 201.888C789.468 201.792 787.745 201.696 786.501 201.601C786.022 201.601 785.304 201.553 784.347 201.457C783.485 201.361 782.863 201.361 782.48 201.457V201.601C781.906 207.247 781.619 213.085 781.619 219.115C781.619 225.048 781.715 231.078 781.906 237.203C782.098 243.328 782.193 249.501 782.193 255.722C782.289 261.943 782.098 268.068 781.619 274.097C782.289 273.906 783.629 273.858 785.639 273.954C787.649 274.049 789.755 274.097 791.957 274.097C794.254 274.193 796.36 274.193 798.274 274.097C800.188 274.097 801.385 273.81 801.863 273.236C801.193 261.655 801.002 249.836 801.289 237.777C801.672 225.718 801.911 213.899 802.007 202.318V201.888H799.566ZM781.906 170.592C781.81 174.995 781.858 178.727 782.05 181.79C782.337 184.756 782.48 187.628 782.48 190.403C784.299 190.307 786.261 190.355 788.367 190.547C790.473 190.642 792.435 190.738 794.254 190.834C796.168 190.834 797.795 190.738 799.135 190.547C800.571 190.355 801.481 189.972 801.863 189.398C801.863 187.963 801.816 186.336 801.72 184.517C801.72 182.603 801.672 180.785 801.576 179.062C801.576 177.244 801.528 175.617 801.433 174.181C801.433 172.65 801.433 171.597 801.433 171.023L781.906 170.592Z" fill="white"/>
<path d="M867.052 246.534C865.999 246.247 864.659 246.103 863.032 246.103C861.405 246.008 859.682 246.008 857.863 246.103C856.045 246.199 854.322 246.295 852.694 246.39C851.067 246.39 849.775 246.343 848.818 246.247C848.531 247.491 848.1 248.927 847.526 250.554C847.047 252.085 846.329 253.186 845.372 253.855C844.223 254.621 842.692 255.147 840.777 255.435C838.863 255.626 836.997 255.53 835.178 255.147C833.359 254.669 831.78 253.808 830.44 252.563C829.196 251.319 828.669 249.597 828.861 247.395C829.052 244.046 829.148 240.84 829.148 237.777C829.148 234.714 829.339 231.7 829.722 228.733C830.009 227.202 830.44 226.245 831.014 225.862C832.259 224.33 833.886 223.278 835.896 222.703C839.629 221.746 842.644 222.225 844.941 224.139C847.238 225.957 848.626 228.541 849.105 231.891C850.349 232.083 851.737 232.274 853.269 232.465C854.896 232.657 856.523 232.8 858.15 232.896C859.873 232.992 861.501 233.04 863.032 233.04C864.659 233.04 866.095 232.896 867.339 232.609C867.244 229.451 867.148 226.532 867.052 223.852C867.052 221.076 866.861 218.588 866.478 216.387C866.095 214.186 865.521 212.272 864.755 210.645C864.085 209.018 863.08 207.726 861.74 206.769C859.73 204.854 857.337 203.419 854.561 202.462C851.785 201.505 848.866 200.931 845.803 200.739C843.793 200.548 841.878 200.548 840.06 200.739C838.337 200.835 836.518 200.787 834.604 200.596C832.306 200.596 830.009 200.739 827.712 201.026C825.51 201.313 823.405 201.84 821.394 202.605C819.48 203.275 817.757 204.137 816.226 205.189C814.79 206.242 813.737 207.486 813.067 208.922C812.78 209.879 812.349 211.267 811.775 213.085C811.201 214.904 810.865 216.339 810.77 217.392C810.195 220.837 809.908 224.283 809.908 227.728C810.291 230.886 810.387 234.379 810.195 238.208C810.1 242.036 810.148 245.864 810.339 249.692C810.53 253.425 811.105 257.014 812.062 260.459C813.019 263.904 814.79 266.776 817.374 269.073C820.724 272.422 824.84 274.528 829.722 275.389C832.402 275.389 835.369 275.485 838.624 275.676C841.878 275.963 845.037 275.963 848.1 275.676C851.163 275.485 853.987 274.911 856.571 273.954C859.251 272.996 861.405 271.369 863.032 269.073C863.702 268.403 864.229 267.35 864.611 265.914C865.09 264.383 865.473 262.612 865.76 260.603C866.047 258.497 866.286 256.248 866.478 253.855C866.669 251.463 866.861 249.022 867.052 246.534Z" fill="white"/>
<path d="M933.153 202.605C930.09 202.414 927.362 202.27 924.969 202.175C922.672 202.079 920.71 201.983 919.082 201.888C918.795 201.888 918.269 201.888 917.503 201.888C916.737 201.888 915.971 201.888 915.206 201.888C914.44 201.792 913.722 201.792 913.052 201.888C912.478 201.888 912.191 201.935 912.191 202.031C912.191 203.18 912.047 204.328 911.76 205.477C911.568 206.529 911.521 207.821 911.616 209.353C910.946 207.726 910.133 206.481 909.175 205.62C908.218 204.663 907.117 203.993 905.873 203.61C904.629 203.132 903.241 202.893 901.709 202.893C900.274 202.797 898.694 202.749 896.971 202.749C893.621 202.845 890.463 203.754 887.495 205.477C884.528 207.104 881.944 209.4 879.742 212.367C877.636 215.238 875.961 218.684 874.717 222.703C873.472 226.723 872.85 231.126 872.85 235.911C872.85 239.739 873.233 243.902 873.999 248.4C874.86 252.898 876.153 257.062 877.876 260.89C879.598 264.718 881.752 267.924 884.337 270.508C887.017 273.092 890.223 274.384 893.956 274.384C897.306 274.384 900.704 273.571 904.15 271.944C907.692 270.317 910.611 268.355 912.908 266.058C912.908 267.015 912.813 267.828 912.621 268.498C912.43 269.168 912.334 270.03 912.334 271.082C912.334 271.848 912.43 272.518 912.621 273.092C912.908 273.666 913.387 274.049 914.057 274.241C915.11 274.241 916.115 274.193 917.072 274.097C918.125 273.906 919.178 273.81 920.231 273.81C921.762 273.81 923.294 273.906 924.825 274.097C926.453 274.193 928.032 274.241 929.563 274.241H931.286C932.435 274.049 933.009 273.331 933.009 272.087C933.105 270.843 933.153 269.599 933.153 268.355C933.823 258.114 933.967 248.017 933.584 238.064C933.201 228.015 933.153 217.823 933.44 207.486V206.051C933.44 205.477 933.392 204.902 933.297 204.328C933.297 203.754 933.249 203.18 933.153 202.605ZM891.372 231.173C891.85 228.781 893.19 226.675 895.392 224.857C897.689 222.943 900.8 221.986 904.725 221.986C906.735 221.986 908.218 222.129 909.175 222.416C910.228 222.703 910.946 223.373 911.329 224.426C911.808 225.479 912.047 227.01 912.047 229.02C912.143 230.934 912.191 233.566 912.191 236.916C912.191 239.595 912.143 242.036 912.047 244.237C912.047 246.343 911.76 248.161 911.186 249.692C910.707 251.128 909.845 252.276 908.601 253.138C907.453 253.903 905.682 254.286 903.289 254.286C899.269 254.286 896.11 252.803 893.813 249.836C891.611 246.773 890.51 243.089 890.51 238.782C890.51 237.538 890.558 236.294 890.654 235.049C890.75 233.71 890.989 232.418 891.372 231.173Z" fill="white"/>
<path d="M969.275 175.904C967.648 176.095 966.021 176.143 964.393 176.047C962.766 175.952 961.139 175.856 959.512 175.76C957.885 175.569 956.305 175.425 954.774 175.329C953.338 175.234 951.998 175.282 950.754 175.473C950.562 177.291 950.419 179.349 950.323 181.646C950.323 183.943 950.323 186.336 950.323 188.824C950.323 191.312 950.371 193.801 950.466 196.289C950.562 198.681 950.61 200.931 950.61 203.036C949.078 203.036 947.451 203.036 945.728 203.036C944.101 203.036 942.33 202.988 940.416 202.893L939.985 220.407C941.995 220.407 943.814 220.407 945.441 220.407C947.164 220.407 948.791 220.359 950.323 220.263C950.227 227.249 950.275 234.045 950.466 240.648C950.658 247.156 951.376 254.095 952.62 261.464C953.864 264.431 955.874 266.776 958.65 268.498C961.522 270.221 964.776 271.513 968.414 272.374C972.051 273.236 975.927 273.81 980.043 274.097C984.159 274.288 988.132 274.288 991.96 274.097C992.439 272.661 992.726 271.082 992.822 269.36C993.013 267.637 993.061 265.914 992.965 264.192C992.87 262.469 992.726 260.794 992.535 259.167C992.343 257.54 992.152 256.057 991.96 254.717C990.333 254.813 988.419 254.813 986.217 254.717C984.111 254.621 982.006 254.382 979.9 253.999C977.794 253.52 975.832 252.898 974.013 252.133C972.194 251.367 970.807 250.314 969.849 248.975C969.754 244.668 969.706 240.074 969.706 235.193C969.706 230.216 969.706 225.144 969.706 219.976H991.96C991.769 218.732 991.721 217.248 991.817 215.526C992.008 213.707 992.152 211.937 992.247 210.214C992.343 208.491 992.343 206.912 992.247 205.477C992.152 203.945 991.769 202.797 991.099 202.031C986.217 202.318 982.101 202.558 978.751 202.749C975.497 202.94 972.386 203.084 969.419 203.18C969.419 201.744 969.371 200.356 969.275 199.016C969.275 197.677 969.275 196.385 969.275 195.14V175.904Z" fill="white"/>
<path d="M1016.62 201.888C1013.55 201.983 1010.92 201.983 1008.72 201.888C1006.52 201.792 1004.79 201.696 1003.55 201.601C1003.07 201.601 1002.35 201.553 1001.4 201.457C1000.53 201.361 999.912 201.361 999.53 201.457V201.601C998.955 207.247 998.668 213.085 998.668 219.115C998.668 225.048 998.764 231.078 998.955 237.203C999.147 243.328 999.242 249.501 999.242 255.722C999.338 261.943 999.147 268.068 998.668 274.097C999.338 273.906 1000.68 273.858 1002.69 273.954C1004.7 274.049 1006.8 274.097 1009.01 274.097C1011.3 274.193 1013.41 274.193 1015.32 274.097C1017.24 274.097 1018.43 273.81 1018.91 273.236C1018.24 261.655 1018.05 249.836 1018.34 237.777C1018.72 225.718 1018.96 213.899 1019.06 202.318V201.888H1016.62ZM998.955 170.592C998.86 174.995 998.907 178.727 999.099 181.79C999.386 184.756 999.53 187.628 999.53 190.403C1001.35 190.307 1003.31 190.355 1005.42 190.547C1007.52 190.642 1009.48 190.738 1011.3 190.834C1013.22 190.834 1014.84 190.738 1016.18 190.547C1017.62 190.355 1018.53 189.972 1018.91 189.398C1018.91 187.963 1018.86 186.336 1018.77 184.517C1018.77 182.603 1018.72 180.785 1018.63 179.062C1018.63 177.244 1018.58 175.617 1018.48 174.181C1018.48 172.65 1018.48 171.597 1018.48 171.023L998.955 170.592Z" fill="white"/>
<path d="M1047.92 210.07C1047.82 208.731 1047.78 207.534 1047.78 206.481C1047.87 205.429 1047.82 204.089 1047.63 202.462C1047.63 202.175 1047.25 202.031 1046.48 202.031C1045.72 201.935 1044.86 201.935 1043.9 202.031C1042.94 202.127 1041.99 202.27 1041.03 202.462C1040.07 202.558 1039.4 202.605 1039.02 202.605C1037.87 202.701 1036.91 202.797 1036.15 202.893C1035.38 202.893 1034.66 202.893 1033.99 202.893C1033.32 202.893 1032.6 202.893 1031.84 202.893C1031.07 202.797 1030.12 202.701 1028.97 202.605C1028.58 215.238 1028.49 227.441 1028.68 239.213C1028.97 250.984 1029.11 262.756 1029.11 274.528C1031.41 274.336 1033.32 274.288 1034.85 274.384C1036.39 274.48 1037.77 274.528 1039.02 274.528C1040.26 274.623 1041.46 274.623 1042.61 274.528C1043.85 274.432 1045.29 274.145 1046.91 273.666V273.092C1047.3 269.934 1047.49 266.776 1047.49 263.617C1047.49 260.459 1047.39 257.301 1047.2 254.143C1047.11 250.889 1047.01 247.682 1046.91 244.524C1046.82 241.27 1046.87 237.968 1047.06 234.619C1047.25 232.035 1047.92 230.121 1049.07 228.876C1050.22 227.537 1051.51 226.675 1052.94 226.292C1054.38 225.814 1055.82 225.718 1057.25 226.005C1058.78 226.197 1059.93 226.484 1060.7 226.867C1060.79 226.962 1060.89 227.01 1060.99 227.01C1061.08 227.01 1061.18 227.058 1061.27 227.154C1062.04 227.728 1062.61 228.541 1063 229.594C1063.47 230.647 1063.81 231.843 1064 233.183C1064.29 234.523 1064.48 235.911 1064.57 237.346C1064.67 238.686 1064.77 239.93 1064.86 241.079C1065.05 243.663 1065.15 246.438 1065.15 249.405C1065.24 252.372 1065.24 255.339 1065.15 258.306C1065.15 261.273 1065.15 264.144 1065.15 266.919C1065.15 269.695 1065.24 272.183 1065.44 274.384C1068.79 274.384 1071.75 274.384 1074.34 274.384C1077.02 274.48 1080.03 274.288 1083.38 273.81C1083.19 270.556 1083.14 266.776 1083.24 262.469C1083.34 258.162 1083.43 253.712 1083.53 249.118C1083.62 244.429 1083.67 239.835 1083.67 235.337C1083.77 230.743 1083.72 226.532 1083.53 222.703C1083.43 218.875 1083.1 215.621 1082.52 212.942C1082.04 210.166 1081.33 208.348 1080.37 207.486C1078.36 205.764 1076.11 204.567 1073.62 203.897C1071.13 203.227 1068.55 202.94 1065.87 203.036C1063.28 203.132 1060.75 203.61 1058.26 204.472C1055.77 205.333 1053.52 206.481 1051.51 207.917C1051.03 208.3 1050.41 208.683 1049.64 209.066C1048.97 209.448 1048.4 209.783 1047.92 210.07Z" fill="white"/>
<path d="M1107.68 240.074C1107.68 239.117 1107.68 238.208 1107.68 237.346C1107.68 236.389 1107.77 235.432 1107.96 234.475C1108.35 232.274 1109.02 230.216 1109.97 228.302C1111.03 226.292 1112.27 224.474 1113.71 222.847C1114.85 221.89 1116.15 221.22 1117.58 220.837C1119.11 220.359 1120.65 220.215 1122.18 220.407C1123.71 220.598 1125.1 221.124 1126.34 221.986C1127.68 222.751 1128.64 223.852 1129.21 225.288C1130.17 228.924 1130.7 232.753 1130.79 236.772C1130.98 240.696 1131.08 244.572 1131.08 248.4C1130.98 249.262 1130.84 250.171 1130.65 251.128C1130.55 251.989 1130.36 252.851 1130.07 253.712C1129.79 254.478 1129.4 255.195 1128.93 255.865C1128.45 256.439 1127.78 256.87 1126.92 257.157C1124.43 257.923 1121.75 258.114 1118.88 257.732C1116 257.253 1113.71 255.961 1111.98 253.855C1109.11 250.41 1107.68 246.247 1107.68 241.366V240.074ZM1132.52 302.809C1133.66 302.713 1134.91 302.521 1136.25 302.234C1137.59 301.947 1138.93 301.421 1140.27 300.655C1141.61 299.985 1142.95 299.028 1144.29 297.784C1145.72 296.54 1147.11 294.865 1148.45 292.76C1149.41 291.228 1149.84 289.314 1149.74 287.017C1149.65 284.816 1149.65 282.567 1149.74 280.27C1150.32 266.489 1150.56 253.09 1150.46 240.074C1150.46 226.962 1150.27 214.425 1149.89 202.462C1146.63 202.462 1143.38 202.414 1140.12 202.318C1136.87 202.127 1133.66 202.223 1130.5 202.605C1130.22 203.084 1130.07 203.754 1130.07 204.615C1130.17 205.381 1130.22 206.194 1130.22 207.056C1130.31 207.821 1130.31 208.491 1130.22 209.066C1130.22 209.544 1130.03 209.688 1129.64 209.496C1128.49 206.816 1126.58 204.998 1123.9 204.041C1121.32 202.988 1118.49 202.558 1115.43 202.749C1109.3 203.132 1104.61 204.902 1101.36 208.061C1098.1 211.123 1095.71 214.951 1094.18 219.545C1092.74 224.043 1091.93 228.876 1091.74 234.045C1091.55 239.213 1091.45 244.046 1091.45 248.544C1091.64 251.511 1092.03 254.43 1092.6 257.301C1093.17 260.076 1094.13 262.756 1095.47 265.34C1096.33 267.158 1097.43 268.642 1098.77 269.79C1100.11 270.939 1101.6 271.848 1103.23 272.518C1104.95 273.188 1106.72 273.666 1108.54 273.954C1110.45 274.241 1112.32 274.384 1114.14 274.384C1115.48 274.288 1116.91 274.241 1118.44 274.241C1119.98 274.241 1121.46 274.145 1122.9 273.954C1124.43 273.762 1125.81 273.427 1127.06 272.949C1128.4 272.47 1129.55 271.704 1130.5 270.652C1130.31 272.374 1130.31 274.049 1130.5 275.676C1130.6 276.442 1130.6 277.303 1130.5 278.26C1130.41 279.313 1130.31 280.318 1130.22 281.275C1129.64 283.955 1128.4 285.869 1126.48 287.017C1124.67 288.166 1122.75 288.644 1120.74 288.453C1118.83 288.261 1117.06 287.4 1115.43 285.869C1113.9 284.433 1113.13 282.471 1113.13 279.983C1111.98 279.792 1110.55 279.6 1108.82 279.409C1107.2 279.313 1105.47 279.217 1103.66 279.122C1101.93 279.122 1100.26 279.169 1098.63 279.265C1097 279.457 1095.71 279.744 1094.75 280.126C1094.66 280.892 1094.61 281.801 1094.61 282.854C1094.71 283.907 1094.85 285.007 1095.04 286.156C1095.33 287.304 1095.62 288.405 1095.9 289.458C1096.29 290.606 1096.67 291.515 1097.05 292.185C1099.25 295.439 1102.12 298.023 1105.67 299.937C1109.21 301.852 1113.23 302.809 1117.73 302.809C1121.65 302.809 1124.86 302.856 1127.35 302.952C1129.83 303.048 1131.56 303 1132.52 302.809Z" fill="white"/>
<path d="M1177.14 274.097V273.81C1177.14 273.14 1177.19 271.896 1177.28 270.077C1177.38 268.259 1177.47 266.393 1177.57 264.479C1177.67 262.565 1177.76 260.89 1177.86 259.454C1177.95 257.923 1178 257.109 1178 257.014C1177.33 256.727 1176.18 256.535 1174.55 256.439C1173.02 256.248 1171.35 256.152 1169.53 256.152C1167.71 256.152 1165.89 256.248 1164.07 256.439C1162.35 256.631 1161.01 256.918 1160.05 257.301C1160.05 257.971 1160 259.024 1159.91 260.459C1159.91 261.895 1159.86 263.426 1159.77 265.053C1159.77 266.68 1159.77 268.307 1159.77 269.934C1159.86 271.561 1160 272.901 1160.2 273.954H1160.63L1176.85 274.097H1177.14Z" fill="white"/>
</svg>
