<svg width="1194" height="209" viewBox="0 0 1194 209" fill="none" xmlns="http://www.w3.org/2000/svg">
<path d="M119.853 166.918C107.023 167.294 94.5708 167.2 82.4959 166.635C70.4211 165.882 58.1575 165.505 45.7053 165.505L45.4223 165.223C45.045 160.704 44.6676 155.055 44.2903 148.277C44.1016 141.499 44.4789 135.379 45.4223 129.919C46.3656 129.166 48.158 128.695 50.7994 128.507C53.4408 128.318 56.3652 128.224 59.5725 128.224C62.9686 128.224 66.459 128.224 70.0437 128.224C73.6285 128.036 76.8358 127.565 79.6659 126.812C79.4772 119.845 79.5716 113.161 79.9489 106.759C80.3262 100.358 80.0432 93.9559 79.0999 87.5541V87.2716C73.2511 87.0833 67.4023 86.9892 61.5536 86.9892C55.7048 86.9892 49.9504 86.8009 44.2903 86.4243L44.0073 86.1419C42.6866 81.0581 42.3092 75.6919 42.8753 70.0432C43.6299 64.2063 43.9129 58.5577 43.7243 53.0973L44.0073 52.8149H44.8563C51.0824 52.25 57.3085 51.9676 63.5346 51.9676C69.7607 51.9676 75.9868 52.0617 82.2129 52.25C88.439 52.25 94.5708 52.1559 100.608 51.9676C106.834 51.591 112.966 50.7437 119.004 49.4257V49.1432C119.004 42.5532 119.192 35.8689 119.57 29.0905C120.136 22.3122 119.947 15.6279 119.004 9.03784C119.004 8.84955 117.117 8.66127 113.343 8.47298C109.57 8.28469 104.57 8.19055 98.3442 8.19055C92.1181 8.19055 84.9486 8.28469 76.8358 8.47298C68.723 8.66127 60.3272 8.84955 51.6484 9.03784C42.9696 9.22614 34.2908 9.50857 25.6119 9.88514C17.1218 10.0734 9.19766 10.3559 1.83953 10.7324C0.896182 26.9252 0.330172 43.0239 0.141503 59.0284C-0.0471676 75.0329 -0.0471676 91.0374 0.141503 107.042C0.330172 123.046 0.613177 139.145 0.990517 155.338C1.36786 171.342 1.55653 187.535 1.55653 203.916C19.8575 205.423 38.9132 205.893 58.7235 205.328C78.7225 204.575 98.3442 204.293 117.589 204.481C119.098 198.832 119.947 192.807 120.136 186.405C120.324 179.815 120.23 173.508 119.853 167.482V166.918Z" fill="white"/>
<path d="M206.085 9.88514C205.896 13.6509 205.708 16.5694 205.519 18.6406C205.519 20.5234 205.425 22.3122 205.236 24.0068C205.236 25.5131 205.142 27.2077 204.953 29.0905C204.953 30.7851 204.953 33.327 204.953 36.7162C204.953 39.9171 204.953 44.2478 204.953 49.7081C204.953 55.1685 205.047 62.3234 205.236 71.173C204.859 69.4784 202.783 67.9721 199.01 66.6541C195.237 65.336 190.614 64.4887 185.143 64.1122C179.671 63.5473 173.823 63.5473 167.596 64.1122C161.559 64.4887 155.993 65.6185 150.899 67.5014C146.748 69.0077 143.164 71.6437 140.145 75.4095C137.315 78.9869 134.956 83.4117 133.07 88.6838C131.372 93.7676 130.051 99.4162 129.108 105.63C128.353 111.843 127.976 118.245 127.976 124.835C128.164 134.25 128.73 143.57 129.674 152.796C130.806 162.022 132.881 170.401 135.9 177.932C139.107 185.276 143.824 191.395 150.05 196.291C156.276 200.998 164.766 203.728 175.521 204.481C180.803 205.234 185.803 204.858 190.52 203.351C195.237 201.657 199.01 197.985 201.84 192.336C202.406 191.207 202.878 190.924 203.255 191.489C203.821 191.866 204.293 192.525 204.67 193.466C204.67 195.537 204.67 197.138 204.67 198.268C204.859 199.397 204.953 200.904 204.953 202.786C204.953 203.728 205.047 204.387 205.236 204.764C210.896 205.517 217.217 205.705 224.197 205.328C231.178 205.14 237.593 205.046 243.442 205.046C244.196 177.932 244.102 149.03 243.159 118.339C242.215 87.6482 241.744 56.5806 241.744 25.1365V6.49595C238.725 5.93109 235.14 5.64866 230.99 5.64866C226.839 5.46037 222.877 5.46037 219.103 5.64866C215.519 5.64866 212.406 5.83695 209.764 6.21352C207.311 6.4018 206.085 6.59009 206.085 6.77839V9.88514ZM162.219 116.362C163.163 109.772 165.898 104.782 170.426 101.393C175.143 98.0041 181.369 96.3095 189.105 96.3095C193.067 96.3095 196.18 96.686 198.444 97.4392C200.897 98.0041 202.689 99.4162 203.821 101.676C204.953 103.935 205.613 107.23 205.802 111.561C206.179 115.703 206.368 121.446 206.368 128.789C206.368 134.814 206.179 140.369 205.802 145.453C205.613 150.348 204.764 154.585 203.255 158.162C201.934 161.74 199.859 164.564 197.029 166.635C194.388 168.706 190.708 169.742 185.992 169.742C182.03 169.742 178.445 168.706 175.238 166.635C172.03 164.564 169.294 161.834 167.03 158.445C164.766 154.867 163.068 150.913 161.936 146.582C160.804 142.064 160.238 137.45 160.238 132.743C160.238 130.107 160.333 127.377 160.521 124.553C160.71 121.728 161.276 118.998 162.219 116.362Z" fill="white"/>
<path d="M297.748 63.2649C291.71 63.4532 286.522 63.4532 282.182 63.2649C277.843 63.0766 274.447 62.8883 271.994 62.7C271.051 62.7 269.636 62.6059 267.749 62.4176C266.051 62.2293 264.825 62.2293 264.07 62.4176V62.7C262.938 73.809 262.372 85.2946 262.372 97.1568C262.372 108.831 262.561 120.693 262.938 132.743C263.315 144.794 263.504 156.938 263.504 169.177C263.693 181.416 263.315 193.466 262.372 205.328C263.693 204.952 266.334 204.858 270.296 205.046C274.258 205.234 278.409 205.328 282.748 205.328C287.277 205.517 291.427 205.517 295.201 205.328C298.974 205.328 301.332 204.764 302.276 203.634C300.955 180.851 300.578 157.597 301.144 133.873C301.898 110.149 302.37 86.8951 302.559 64.1122V63.2649H297.748ZM262.938 1.69461C262.749 10.3559 262.844 17.6991 263.221 23.7243C263.787 29.5613 264.07 35.2099 264.07 40.6703C267.655 40.482 271.523 40.5761 275.673 40.9527C279.824 41.141 283.692 41.3293 287.277 41.5176C291.05 41.5176 294.257 41.3293 296.899 40.9527C299.729 40.5761 301.521 39.823 302.276 38.6932C302.276 35.8689 302.181 32.668 301.993 29.0905C301.993 25.3248 301.898 21.7473 301.71 18.3581C301.71 14.7806 301.615 11.5797 301.427 8.75541C301.427 5.7428 301.427 3.67163 301.427 2.54189L262.938 1.69461Z" fill="white"/>
<path d="M372.47 12.1446C369.262 12.5212 366.055 12.6153 362.848 12.427C359.64 12.2387 356.433 12.0505 353.226 11.8622C350.018 11.4856 346.905 11.2032 343.886 11.0149C341.056 10.8266 338.415 10.9207 335.962 11.2973C335.585 14.8748 335.302 18.923 335.113 23.4419C335.113 27.9608 335.113 32.668 335.113 37.5635C335.113 42.459 335.208 47.3545 335.396 52.25C335.585 56.9572 335.679 61.382 335.679 65.5243C332.66 65.5243 329.453 65.5243 326.057 65.5243C322.85 65.5243 319.359 65.4302 315.586 65.2419L314.737 99.6987C318.699 99.6987 322.284 99.6987 325.491 99.6987C328.887 99.6987 332.095 99.6045 335.113 99.4162C334.925 113.161 335.019 126.53 335.396 139.522C335.774 152.325 337.189 165.976 339.641 180.474C342.094 186.311 346.056 190.924 351.527 194.314C357.188 197.703 363.602 200.245 370.772 201.939C377.941 203.634 385.582 204.764 393.695 205.328C401.808 205.705 409.638 205.705 417.185 205.328C418.128 202.504 418.694 199.397 418.883 196.008C419.26 192.619 419.354 189.23 419.166 185.841C418.977 182.451 418.694 179.156 418.317 175.955C417.939 172.755 417.562 169.836 417.185 167.2C413.977 167.388 410.204 167.388 405.864 167.2C401.714 167.012 397.563 166.541 393.412 165.788C389.261 164.846 385.394 163.623 381.809 162.116C378.224 160.61 375.489 158.539 373.602 155.903C373.413 147.43 373.319 138.392 373.319 128.789C373.319 118.998 373.319 109.019 373.319 98.8514H417.185C416.807 96.4036 416.713 93.4851 416.902 90.0959C417.279 86.5185 417.562 83.0351 417.751 79.6459C417.939 76.2568 417.939 73.15 417.751 70.3257C417.562 67.3131 416.807 65.0536 415.487 63.5473C405.864 64.1122 397.752 64.5829 391.148 64.9595C384.733 65.336 378.602 65.6185 372.753 65.8068C372.753 62.9824 372.659 60.2523 372.47 57.6162C372.47 54.9802 372.47 52.4383 372.47 49.9905V12.1446Z" fill="white"/>
<path d="M614.698 66.6541C614.132 55.9216 611.679 46.7896 607.34 39.2581C603 31.7266 597.435 25.5131 590.642 20.6176C584.039 15.5338 576.398 11.768 567.719 9.32028C559.04 6.68425 550.078 4.98965 540.833 4.2365C531.777 3.48334 522.627 3.57749 513.382 4.51893C504.326 5.46037 495.93 6.96667 488.195 9.03784C488.761 24.6658 489.044 41.0468 489.044 58.1811C489.232 75.3153 489.327 92.3554 489.327 109.301C489.327 126.247 489.327 142.817 489.327 159.009C489.327 175.014 489.61 189.889 490.176 203.634C493.383 204.01 497.156 204.293 501.496 204.481C505.835 204.669 510.175 204.764 514.514 204.764C519.042 204.575 523.287 204.387 527.249 204.199C531.4 203.822 534.796 203.257 537.437 202.504C537.626 202.504 537.72 202.504 537.72 202.504C537.909 202.316 538.098 202.222 538.286 202.222V201.939C537.909 188.194 537.626 177.273 537.437 169.177C537.437 161.081 537.437 154.679 537.437 149.972C537.437 145.076 537.437 141.404 537.437 138.957C537.437 136.321 537.343 133.685 537.154 131.049C546.211 132.555 555.078 132.178 563.757 129.919C572.436 127.471 580.36 123.611 587.529 118.339C594.699 113.067 600.642 106.665 605.359 99.1338C610.264 91.6023 613.283 83.3176 614.415 74.2797C614.603 73.15 614.698 72.0203 614.698 70.8905C614.698 69.5725 614.698 68.2545 614.698 66.9365V66.6541ZM565.172 54.7919C567.625 56.2982 569.511 58.1811 570.832 60.4405C572.341 62.7 573.285 65.1478 573.662 67.7838C574.228 70.4198 574.134 73.0559 573.379 75.6919C572.813 78.3279 571.775 80.6815 570.266 82.7527C568.002 85.0122 565.266 86.7068 562.059 87.8365C559.04 88.7779 555.833 89.4369 552.437 89.8135C549.229 90.1901 545.928 90.4725 542.531 90.6608C539.135 90.6608 535.928 90.755 532.909 90.9432H532.06C531.117 88.1189 530.457 85.0122 530.079 81.623C529.891 78.0455 529.702 74.3739 529.513 70.6081C529.513 66.8424 529.513 63.0766 529.513 59.3108C529.702 55.5451 529.702 51.9676 529.513 48.5784C529.702 48.3901 529.985 48.2959 530.362 48.2959C536.4 46.7896 542.531 46.6014 548.758 47.7311C554.984 48.6725 560.455 51.0261 565.172 54.7919Z" fill="white"/>
<path d="M667.357 73.9973C667.357 72.6793 667.262 71.7378 667.074 71.173C667.074 70.6081 667.074 70.1374 667.074 69.7608C667.074 69.196 667.074 68.5369 667.074 67.7838C667.074 67.0306 667.074 65.9009 667.074 64.3946C667.074 64.018 666.225 63.8297 664.527 63.8297C663.017 63.6414 661.13 63.6414 658.866 63.8297C656.791 64.018 654.716 64.2063 652.64 64.3946C650.754 64.5829 649.433 64.677 648.678 64.677C646.414 64.8653 644.528 65.0536 643.018 65.2419C641.509 65.2419 640.094 65.2419 638.773 65.2419C637.452 65.2419 636.037 65.2419 634.528 65.2419C633.019 65.0536 631.132 64.8653 628.868 64.677C628.113 89.5311 627.925 113.538 628.302 136.697C628.868 159.857 629.151 183.016 629.151 206.176C633.679 205.799 637.547 205.705 640.754 205.893C644.15 206.082 647.263 206.176 650.093 206.176C652.923 206.364 655.659 206.364 658.3 206.176C660.942 205.987 663.866 205.423 667.074 204.481V203.351C667.074 196.385 666.979 189.889 666.791 183.864C666.791 177.65 666.791 171.625 666.791 165.788C666.791 159.763 666.696 153.832 666.508 147.995C666.319 142.158 666.13 135.944 665.942 129.354C665.753 124.082 666.508 120.034 668.206 117.209C669.904 114.385 672.262 112.314 675.281 110.996C678.488 109.678 682.167 109.019 686.318 109.019C690.657 109.019 695.374 109.301 700.468 109.866C700.657 109.866 701.883 110.055 704.147 110.431C706.6 110.808 708.958 111.278 711.222 111.843C712.166 112.22 713.109 112.596 714.052 112.973C715.184 113.161 716.222 113.444 717.165 113.82L719.713 114.668C719.524 111.843 719.429 108.831 719.429 105.63C719.429 102.429 719.429 98.9455 719.429 95.1797C719.429 91.2257 719.429 86.8009 719.429 81.9054C719.618 77.0099 719.713 71.3613 719.713 64.9595C719.713 64.7712 718.297 64.677 715.467 64.677C712.826 64.4887 709.524 64.4887 705.562 64.677C701.6 64.8653 697.355 65.336 692.827 66.0892C688.299 66.6541 684.243 67.5014 680.658 68.6311C678.016 69.5725 675.281 70.6081 672.451 71.7378C669.809 72.8676 668.111 73.6207 667.357 73.9973Z" fill="white"/>
<path d="M735.324 76.5392C734.758 78.6104 733.909 81.4347 732.777 85.0122C731.645 88.4014 730.985 91.1315 730.796 93.2027C730.23 96.7802 729.853 100.264 729.664 103.653C729.475 106.854 729.381 110.149 729.381 113.538C729.947 119.751 730.041 126.624 729.664 134.155C729.475 141.687 729.57 149.218 729.947 156.75C730.324 164.093 731.456 171.154 733.343 177.932C735.23 184.711 738.72 190.359 743.814 194.878C750.418 201.468 758.531 205.611 768.153 207.305C773.436 207.305 779.284 207.494 785.699 207.87C792.114 208.435 798.34 208.435 804.377 207.87C810.415 207.494 815.981 206.364 821.075 204.481C826.357 202.598 830.603 199.397 833.81 194.878C835.697 192.995 837.112 189.512 838.055 184.428C839.187 179.345 840.036 173.602 840.602 167.2C841.357 160.798 841.828 154.114 842.017 147.147C842.394 140.181 842.677 133.967 842.866 128.507C842.677 122.293 842.489 116.268 842.3 110.431C842.111 104.406 841.64 98.9455 840.885 94.05C840.13 88.9662 838.998 84.5414 837.489 80.7757C835.98 77.0099 833.904 74.2797 831.263 72.5851C827.301 68.8194 822.584 65.9951 817.113 64.1122C811.641 62.041 805.887 60.8171 799.849 60.4405C795.887 60.064 792.114 60.064 788.529 60.4405C785.133 60.6288 781.548 60.5347 777.775 60.1581C773.247 60.1581 768.719 60.4405 764.191 61.0054C759.851 61.5703 755.701 62.6059 751.738 64.1122C747.965 65.4302 744.569 67.1248 741.55 69.196C738.72 71.2671 736.645 73.7149 735.324 76.5392ZM770.7 109.866C773.153 106.854 776.36 104.782 780.322 103.653C787.68 101.958 793.623 102.617 798.151 105.63C802.679 108.642 805.415 113.444 806.358 120.034C807.49 125.494 807.773 131.331 807.207 137.545C806.83 143.57 806.264 149.595 805.509 155.62C804.377 160.327 802.208 163.434 799 164.941C796.548 166.259 793.435 167.2 789.661 167.765C785.888 168.141 782.209 167.953 778.624 167.2C775.228 166.259 772.303 164.658 769.851 162.399C767.398 159.951 766.266 156.562 766.455 152.231C766.832 145.641 767.021 139.427 767.021 133.591C767.021 127.565 767.398 121.54 768.153 115.515C768.719 112.502 769.568 110.619 770.7 109.866Z" fill="white"/>
<path d="M910.573 104.782C916.422 104.971 922.553 105.253 928.968 105.63C935.572 106.006 943.684 106.477 953.307 107.042C953.684 103.464 953.967 100.64 954.156 98.5689C954.344 96.4977 954.439 94.8032 954.439 93.4851C954.627 92.1671 954.722 90.9432 954.722 89.8135C954.722 88.4955 954.722 86.8009 954.722 84.7297C954.91 82.0937 954.91 79.8342 954.722 77.9513C954.533 75.8802 954.627 73.809 955.005 71.7378H911.705C910.761 67.0306 910.761 62.8883 911.705 59.3108C912.837 55.5451 915.573 53.2856 919.912 52.5324C922.553 52.1559 925.478 51.7793 928.685 51.4027C931.893 50.8378 935.1 50.3671 938.307 49.9905C941.515 49.614 944.533 49.3315 947.363 49.1432C950.382 48.955 953.023 48.955 955.288 49.1432C955.665 46.5072 956.042 43.5887 956.42 40.3878C956.797 37.1869 957.08 33.8919 957.269 30.5027C957.457 27.1135 957.363 23.7243 956.986 20.3351C956.797 16.9459 956.231 13.8392 955.288 11.0149C946.42 10.6383 937.27 10.8266 927.836 11.5797C918.591 12.1446 910.007 13.7451 902.083 16.3811C895.668 18.4523 890.479 21.6532 886.517 25.9838C882.555 30.1261 879.442 34.8333 877.178 40.1054C875.103 45.1892 873.782 50.4613 873.216 55.9216C872.65 61.382 872.556 66.4658 872.933 71.173C869.914 70.9847 866.707 70.8905 863.311 70.8905C860.104 70.8905 856.519 70.8905 852.557 70.8905L853.406 105.347C857.179 105.159 860.67 105.065 863.877 105.065C867.273 105.065 870.48 105.065 873.499 105.065C873.499 107.889 873.405 111.937 873.216 117.209C873.216 122.482 873.122 128.507 872.933 135.285C872.933 141.875 872.933 148.748 872.933 155.903C872.933 163.058 872.933 169.93 872.933 176.52C873.122 182.922 873.216 188.759 873.216 194.031C873.405 199.115 873.688 202.786 874.065 205.046C876.518 205.423 879.159 205.517 881.989 205.328C885.008 205.14 888.121 204.952 891.328 204.764C894.536 204.387 897.743 204.104 900.951 203.916C904.158 203.728 907.365 203.822 910.573 204.199V104.782Z" fill="white"/>
<path d="M1001.39 63.2649C995.353 63.4532 990.165 63.4532 985.826 63.2649C981.486 63.0766 978.09 62.8883 975.637 62.7C974.694 62.7 973.279 62.6059 971.392 62.4176C969.694 62.2293 968.468 62.2293 967.713 62.4176V62.7C966.581 73.809 966.015 85.2946 966.015 97.1568C966.015 108.831 966.204 120.693 966.581 132.743C966.959 144.794 967.147 156.938 967.147 169.177C967.336 181.416 966.959 193.466 966.015 205.328C967.336 204.952 969.977 204.858 973.939 205.046C977.901 205.234 982.052 205.328 986.392 205.328C990.92 205.517 995.07 205.517 998.844 205.328C1002.62 205.328 1004.98 204.764 1005.92 203.634C1004.6 180.851 1004.22 157.597 1004.79 133.873C1005.54 110.149 1006.01 86.8951 1006.2 64.1122V63.2649H1001.39ZM966.581 1.69461C966.393 10.3559 966.487 17.6991 966.864 23.7243C967.43 29.5613 967.713 35.2099 967.713 40.6703C971.298 40.482 975.166 40.5761 979.316 40.9527C983.467 41.141 987.335 41.3293 990.92 41.5176C994.693 41.5176 997.9 41.3293 1000.54 40.9527C1003.37 40.5761 1005.16 39.823 1005.92 38.6932C1005.92 35.8689 1005.82 32.668 1005.64 29.0905C1005.64 25.3248 1005.54 21.7473 1005.35 18.3581C1005.35 14.7806 1005.26 11.5797 1005.07 8.75541C1005.07 5.7428 1005.07 3.67163 1005.07 2.54189L966.581 1.69461Z" fill="white"/>
<path d="M1026.3 0C1024.61 17.1342 1023.76 34.2685 1023.76 51.4027C1023.95 68.5369 1024.32 85.6712 1024.89 102.805C1025.46 119.94 1025.83 137.074 1026.02 154.208C1026.4 171.342 1025.93 188.382 1024.61 205.328C1025.93 204.952 1028.57 204.858 1032.53 205.046C1036.49 205.234 1040.64 205.328 1044.98 205.328C1049.51 205.517 1053.66 205.517 1057.43 205.328C1061.21 205.328 1063.57 204.764 1064.51 203.634C1064.13 196.102 1063.85 186.97 1063.66 176.238C1063.47 165.317 1063.38 153.643 1063.38 141.216C1063.38 128.789 1063.38 115.891 1063.38 102.523C1063.57 89.1545 1063.76 76.2568 1063.94 63.8297C1064.13 51.4027 1064.32 39.7288 1064.51 28.8081C1064.7 17.8874 1064.79 8.56712 1064.79 0.847303L1026.3 0Z" fill="white"/>
<path d="M1117.73 134.438C1119.62 134.814 1122.64 135.097 1126.79 135.285C1130.94 135.473 1135.56 135.568 1140.65 135.568C1145.94 135.568 1151.41 135.473 1157.07 135.285C1162.73 135.097 1168.01 134.814 1172.92 134.438C1178.01 134.061 1182.35 133.685 1185.93 133.308C1189.71 132.932 1192.25 132.555 1193.58 132.178C1194.14 124.27 1194.14 116.456 1193.58 108.736C1193.01 101.017 1191.31 93.9559 1188.48 87.5541C1185.84 81.1523 1181.88 75.6919 1176.6 71.173C1171.31 66.6541 1164.33 63.6414 1155.65 62.1351C1148.86 60.4405 1141.88 59.6874 1134.71 59.8757C1127.54 60.064 1120.75 61.1937 1114.33 63.2649C1107.92 65.1478 1102.16 68.0662 1097.07 72.0203C1091.98 75.786 1088.2 80.3991 1085.75 85.8595C1083.49 92.073 1081.98 98.4748 1081.22 105.065C1080.66 111.467 1080.09 118.151 1079.52 125.118C1079.15 132.837 1079.34 140.557 1080.09 148.277C1080.85 155.997 1082.26 163.34 1084.34 170.307C1086.41 177.085 1089.15 183.393 1092.54 189.23C1095.94 194.878 1100.18 199.491 1105.28 203.069C1109.81 205.705 1114.71 207.4 1119.99 208.153C1125.28 208.153 1131.03 208.341 1137.26 208.718C1143.67 209.094 1149.9 209.094 1155.94 208.718C1161.97 208.341 1167.54 207.211 1172.63 205.328C1177.73 203.445 1181.88 200.245 1185.09 195.726C1186.41 194.596 1187.44 192.619 1188.2 189.795C1189.14 186.782 1189.9 183.299 1190.46 179.345C1191.03 175.202 1191.5 170.777 1191.88 166.07C1192.25 161.363 1192.63 156.562 1193.01 151.666C1190.93 151.101 1188.29 150.819 1185.09 150.819C1181.88 150.631 1178.48 150.631 1174.9 150.819C1171.5 151.007 1168.2 151.195 1164.99 151.384C1161.78 151.384 1159.24 151.29 1157.35 151.101C1157.73 158.821 1156.5 164.658 1153.67 168.612C1151.03 172.378 1147.73 174.637 1143.77 175.391C1139.8 176.144 1135.75 175.485 1131.6 173.414C1127.45 171.342 1124.24 168.141 1121.98 163.811C1119.9 160.422 1118.67 156.938 1118.3 153.361C1118.11 149.783 1117.92 145.17 1117.73 139.522V134.438ZM1151.97 90.6608C1155.37 92.3554 1158.01 94.8973 1159.9 98.2865C1161.97 101.676 1163.01 105.253 1163.01 109.019C1163.01 110.525 1163.01 111.561 1163.01 112.126C1163.01 112.502 1162.44 112.785 1161.31 112.973C1160.37 112.973 1158.67 112.879 1156.22 112.691C1153.77 112.502 1150.09 112.408 1145.18 112.408C1138.01 112.408 1132.54 112.502 1128.77 112.691C1125.18 112.691 1122.54 112.596 1120.84 112.408C1119.15 112.032 1118.2 111.467 1118.01 110.714C1118.01 109.772 1118.2 108.266 1118.58 106.195C1118.96 103.747 1119.52 101.393 1120.28 99.1338C1121.22 96.8743 1122.54 94.8973 1124.24 93.2027C1125.94 91.5081 1128.2 90.1901 1131.03 89.2486C1133.86 88.3072 1137.54 87.8365 1142.07 87.8365C1144.14 87.8365 1145.94 88.1189 1147.45 88.6838C1148.96 89.0604 1150.46 89.7194 1151.97 90.6608Z" fill="white"/>
</svg>
