<svg width="1591" height="171" viewBox="0 0 1591 171" fill="none" xmlns="http://www.w3.org/2000/svg">
<path d="M72.0441 107.247C72.5059 107.247 72.7368 107.094 72.7368 106.788C72.4289 104.029 72.275 100.734 72.275 96.9021C72.4289 93.0704 72.5828 89.3154 72.7368 85.6371C72.8907 81.8054 72.8907 78.3569 72.7368 75.2916C72.7368 72.2263 72.5059 70.1573 72.0441 69.0844C70.3507 69.2377 68.2725 69.3909 65.8095 69.5442C63.3464 69.6975 60.8064 69.7741 58.1894 69.7741C55.5724 69.7741 52.8785 69.7741 50.1076 69.7741C47.4906 69.6208 45.1045 69.3909 42.9493 69.0844C42.7954 69.0844 42.6415 69.0078 42.4875 68.8545C41.1021 66.4023 40.2554 63.3369 39.9475 59.6586C39.6396 55.9802 40.3324 52.1486 42.0257 48.1637C46.7979 47.7039 51.8779 47.3207 57.2658 47.0142C62.8076 46.7076 68.2725 46.4777 73.6604 46.3245C79.2023 46.018 84.5132 45.7114 89.5933 45.4049C94.8272 45.0984 99.5224 44.7918 103.679 44.4853C103.833 42.4928 103.91 40.0406 103.91 37.1286C103.91 34.0632 103.91 30.9213 103.91 27.7027C103.91 24.3309 103.833 21.1123 103.679 18.047C103.679 14.9817 103.679 12.4528 103.679 10.4604C99.3685 9.38751 94.2115 8.54456 88.2078 7.93149C82.2041 7.31843 75.8156 7.0119 69.0422 7.0119C62.2688 6.85864 55.3415 6.93527 48.2603 7.24179C41.333 7.39506 34.7135 7.70159 28.402 8.16139C22.2444 8.62119 16.7025 9.08098 11.7764 9.54077C6.85034 10.0006 3.07881 10.4604 0.461821 10.9202V11.1501C0.461821 23.1048 0.461821 33.9866 0.461821 43.7956C0.461821 53.4513 0.384851 62.494 0.230911 70.9236C0.230911 79.3532 0.230911 87.3996 0.230911 95.0629C0.230911 102.573 0.153941 110.083 0 117.593C0 125.103 0 132.919 0 141.043C0 149.012 0 157.595 0 166.791L0.230911 167.021C0.846672 167.328 2.69396 167.557 5.77276 167.711C9.00551 167.864 12.7001 167.941 16.8565 167.941C21.0128 167.941 25.1692 167.864 29.3256 167.711C33.636 167.557 37.3305 167.328 40.4093 167.021C40.5633 158.285 40.7172 149.166 40.8712 139.663C41.0251 130.007 41.4869 120.352 42.2566 110.696H42.4875C47.1057 109.93 51.9549 109.393 57.0349 109.087C62.2689 108.627 67.2719 108.014 72.0441 107.247Z" fill="white"/>
<path d="M187.288 52.7616C182.362 52.4551 177.975 52.2252 174.126 52.0719C170.432 51.9187 167.276 51.7654 164.659 51.6121C164.197 51.6121 163.351 51.6121 162.119 51.6121C160.887 51.6121 159.656 51.6121 158.424 51.6121C157.193 51.4589 156.038 51.4589 154.961 51.6121C154.037 51.6121 153.575 51.6888 153.575 51.842C153.575 53.6812 153.344 55.5204 152.883 57.3596C152.575 59.0455 152.498 61.1146 152.652 63.5668C151.574 60.9613 150.266 58.9689 148.726 57.5895C147.187 56.0568 145.416 54.984 143.415 54.3709C141.414 53.6046 139.182 53.2214 136.719 53.2214C134.41 53.0682 131.87 52.9915 129.099 52.9915C123.711 53.1448 118.631 54.6008 113.859 57.3596C109.087 59.9651 104.93 63.6435 101.39 68.3947C98.0028 72.9927 95.3089 78.5102 93.3077 84.9474C91.3064 91.3845 90.3058 98.4347 90.3058 106.098C90.3058 112.229 90.9216 118.896 92.1531 126.099C93.5386 133.303 95.6168 139.97 98.3877 146.1C101.159 152.231 104.622 157.365 108.779 161.503C113.089 165.642 118.246 167.711 124.25 167.711C129.638 167.711 135.102 166.408 140.644 163.802C146.34 161.197 151.035 158.055 154.73 154.377C154.73 155.909 154.576 157.212 154.268 158.285C153.96 159.358 153.806 160.737 153.806 162.423C153.806 163.649 153.96 164.722 154.268 165.642C154.73 166.561 155.5 167.174 156.577 167.481C158.27 167.481 159.887 167.404 161.426 167.251C163.12 166.944 164.813 166.791 166.506 166.791C168.969 166.791 171.432 166.944 173.895 167.251C176.512 167.404 179.052 167.481 181.515 167.481H184.286C186.134 167.174 187.057 166.025 187.057 164.032C187.211 162.04 187.288 160.047 187.288 158.055C188.366 141.656 188.597 125.486 187.981 109.546C187.365 93.4536 187.288 77.1308 187.75 60.5782V58.2792C187.75 57.3596 187.673 56.44 187.519 55.5204C187.519 54.6008 187.442 53.6812 187.288 52.7616ZM120.093 98.5114C120.863 94.6797 123.018 91.3079 126.559 88.3958C130.253 85.3305 135.256 83.7979 141.568 83.7979C144.801 83.7979 147.187 84.0278 148.726 84.4876C150.42 84.9474 151.574 86.0202 152.19 87.7061C152.96 89.3921 153.344 91.8443 153.344 95.0629C153.498 98.1282 153.575 102.343 153.575 107.707C153.575 111.999 153.498 115.907 153.344 119.432C153.344 122.804 152.883 125.716 151.959 128.168C151.189 130.467 149.804 132.306 147.803 133.686C145.955 134.912 143.107 135.525 139.259 135.525C132.793 135.525 127.713 133.149 124.019 128.398C120.478 123.494 118.708 117.593 118.708 110.696C118.708 108.704 118.785 106.711 118.939 104.719C119.093 102.573 119.478 100.504 120.093 98.5114Z" fill="white"/>
<path d="M230.373 52.9915C225.447 52.3785 220.213 52.3018 214.671 52.7616C209.283 53.0682 203.818 52.9149 198.276 52.3018C203.202 70.3872 207.667 89.3921 211.669 109.317C215.672 129.241 219.212 148.782 222.291 167.941C225.216 167.941 228.526 167.941 232.22 167.941C236.069 168.094 239.917 168.171 243.766 168.171C247.768 168.324 251.617 168.324 255.311 168.171C259.16 168.171 262.623 167.941 265.702 167.481C268.319 157.825 270.705 148.093 272.86 138.284C275.016 128.321 277.171 118.436 279.326 108.627C281.481 98.8179 283.713 89.2388 286.022 79.8896C288.485 70.3871 291.333 61.2679 294.566 52.5317C291.333 52.3785 288.408 52.3018 285.791 52.3018C283.174 52.3018 280.634 52.3785 278.171 52.5317C275.708 52.685 273.322 52.8383 271.013 52.9915C268.704 53.1448 266.241 53.2214 263.624 53.2214C261.777 57.8194 260.083 63.6435 258.544 70.6937C257.005 77.7439 255.542 85.024 254.157 92.534C252.925 100.044 251.617 107.324 250.231 114.374C248.846 121.271 247.306 127.019 245.613 131.617C243.92 127.019 242.38 121.425 240.995 114.834C239.609 108.09 238.301 101.04 237.069 93.6835C235.838 86.3268 234.683 79.1233 233.606 72.0731C232.528 64.8696 231.45 58.5091 230.373 52.9915Z" fill="white"/>
<path d="M302.641 62.4173C302.179 64.1033 301.486 66.4022 300.562 69.3143C299.639 72.0731 299.1 74.2954 298.946 75.9813C298.484 78.8934 298.176 81.7288 298.022 84.4876C297.868 87.0931 297.791 89.7752 297.791 92.534C298.253 97.5918 298.33 103.186 298.022 109.317C297.868 115.447 297.945 121.578 298.253 127.708C298.561 133.686 299.485 139.433 301.024 144.951C302.564 150.468 305.412 155.066 309.568 158.745C314.956 164.109 321.575 167.481 329.426 168.86C333.737 168.86 338.509 169.013 343.743 169.32C348.977 169.78 354.057 169.78 358.983 169.32C363.909 169.013 368.45 168.094 372.606 166.561C376.917 165.029 380.38 162.423 382.997 158.745C384.537 157.212 385.691 154.377 386.461 150.238C387.385 146.1 388.077 141.426 388.539 136.215C389.155 131.004 389.54 125.563 389.694 119.892C390.002 114.221 390.233 109.163 390.387 104.719C390.233 99.6609 390.079 94.7564 389.925 90.0051C389.771 85.1006 389.386 80.6559 388.77 76.671C388.154 72.5329 387.231 68.9311 385.999 65.8658C384.768 62.8005 383.074 60.5782 380.919 59.1988C377.686 56.1335 373.838 53.8345 369.374 52.3018C364.909 50.6159 360.214 49.6197 355.288 49.3132C352.055 49.0066 348.977 49.0066 346.052 49.3132C343.281 49.4664 340.356 49.3898 337.277 49.0833C333.583 49.0833 329.888 49.3132 326.193 49.7729C322.653 50.2327 319.266 51.0757 316.033 52.3018C312.955 53.3747 310.184 54.7541 307.721 56.44C305.412 58.1259 303.718 60.1184 302.641 62.4173ZM331.504 89.5453C333.506 87.0931 336.123 85.4072 339.355 84.4876C345.359 83.1082 350.208 83.6446 353.903 86.0969C357.597 88.5491 359.829 92.4574 360.599 97.8217C361.523 102.266 361.754 107.018 361.292 112.075C360.984 116.98 360.522 121.884 359.906 126.789C358.983 130.62 357.212 133.149 354.595 134.375C352.594 135.448 350.054 136.215 346.975 136.674C343.897 136.981 340.895 136.828 337.97 136.215C335.199 135.448 332.813 134.146 330.812 132.306C328.81 130.314 327.887 127.555 328.041 124.03C328.349 118.666 328.503 113.608 328.503 108.857C328.503 103.952 328.81 99.0478 329.426 94.1433C329.888 91.691 330.581 90.1584 331.504 89.5453Z" fill="white"/>
<path d="M460.639 154.836C460.793 156.982 460.793 158.898 460.639 160.584C460.639 162.27 460.793 164.415 461.101 167.021C461.101 167.481 461.717 167.711 462.948 167.711C464.18 167.864 465.565 167.864 467.105 167.711C468.644 167.557 470.184 167.404 471.723 167.251C473.262 166.944 474.34 166.791 474.956 166.791C476.803 166.638 478.342 166.561 479.574 166.561C480.805 166.408 481.96 166.331 483.038 166.331C484.115 166.331 485.27 166.408 486.501 166.561C487.733 166.561 489.272 166.638 491.119 166.791C491.735 146.56 491.812 127.019 491.35 108.167C491.042 89.3154 490.889 70.4638 490.889 51.6121C487.194 51.9187 484.115 51.9953 481.652 51.842C479.189 51.6888 476.957 51.6121 474.956 51.6121C472.954 51.4589 470.953 51.4589 468.952 51.6121C467.105 51.7654 464.873 52.2252 462.256 52.9915V53.9111C461.486 58.9689 461.101 64.0266 461.101 69.0844C461.255 74.1422 461.409 79.2765 461.563 84.4876C461.871 89.5453 462.102 94.6797 462.256 99.8907C462.41 105.102 462.333 110.313 462.025 115.524C461.717 119.662 460.639 122.804 458.792 124.95C456.945 126.942 454.867 128.321 452.557 129.088C450.248 129.701 447.862 129.854 445.399 129.548C443.09 129.088 441.32 128.551 440.088 127.938C439.934 127.785 439.78 127.708 439.626 127.708C439.472 127.708 439.319 127.632 439.165 127.479C437.933 126.559 436.932 125.256 436.163 123.57C435.547 121.884 435.008 119.969 434.546 117.823C434.238 115.677 434.008 113.531 433.854 111.386C433.7 109.087 433.546 107.018 433.392 105.178C433.084 101.04 432.853 96.5955 432.699 91.8443C432.699 87.0931 432.699 82.3419 432.699 77.5906C432.853 72.8394 432.93 68.2414 432.93 63.7967C432.93 59.352 432.776 55.3671 432.468 51.842C427.08 51.842 422.231 51.842 417.921 51.842C413.764 51.6888 408.992 51.9953 403.604 52.7616C403.912 57.9727 403.989 64.0266 403.835 70.9236C403.681 77.8205 403.527 85.024 403.373 92.534C403.22 99.8907 403.066 107.247 402.912 114.604C402.912 121.808 402.989 128.475 403.143 134.605C403.45 140.736 403.989 146.024 404.759 150.468C405.683 154.76 406.914 157.595 408.453 158.975C411.686 161.733 415.304 163.649 419.306 164.722C423.309 165.795 427.388 166.255 431.545 166.101C435.855 165.948 440.011 165.182 444.014 163.802C448.016 162.423 451.634 160.584 454.867 158.285C455.636 157.672 456.56 157.059 457.637 156.446C458.869 155.833 459.87 155.296 460.639 154.836Z" fill="white"/>
<path d="M539.656 60.3483C539.656 59.2754 539.579 58.5091 539.425 58.0493C539.425 57.5895 539.425 57.2063 539.425 56.8998C539.425 56.44 539.425 55.9036 539.425 55.2905C539.425 54.6774 539.425 53.7579 539.425 52.5317C539.425 52.2252 538.732 52.0719 537.347 52.0719C536.115 51.9187 534.576 51.9187 532.728 52.0719C531.035 52.2252 529.342 52.3785 527.648 52.5317C526.109 52.685 525.031 52.7616 524.416 52.7616C522.568 52.9149 521.029 53.0682 519.797 53.2214C518.566 53.2214 517.411 53.2214 516.334 53.2214C515.256 53.2214 514.102 53.2214 512.87 53.2214C511.639 53.0682 510.099 52.9149 508.252 52.7616C507.636 72.9927 507.482 92.534 507.79 111.386C508.252 130.237 508.483 149.089 508.483 167.941C512.177 167.634 515.333 167.557 517.95 167.711C520.721 167.864 523.261 167.941 525.57 167.941C527.879 168.094 530.111 168.094 532.267 167.941C534.422 167.787 536.808 167.328 539.425 166.561V165.642C539.425 159.971 539.348 154.683 539.194 149.779C539.194 144.721 539.194 139.816 539.194 135.065C539.194 130.161 539.117 125.333 538.963 120.582C538.809 115.83 538.655 110.773 538.501 105.408C538.347 101.117 538.963 97.8217 540.348 95.5227C541.734 93.2237 543.658 91.5378 546.121 90.4649C548.738 89.3921 551.74 88.8556 555.127 88.8556C558.667 88.8556 562.516 89.0855 566.672 89.5453C566.826 89.5453 567.827 89.6986 569.674 90.0051C571.675 90.3117 573.6 90.6948 575.447 91.1546C576.217 91.4611 576.986 91.7677 577.756 92.0742C578.68 92.2275 579.526 92.4574 580.296 92.7639L582.374 93.4536C582.22 91.1546 582.143 88.7024 582.143 86.0969C582.143 83.4913 582.143 80.6559 582.143 77.5906C582.143 74.3721 582.143 70.7703 582.143 66.7854C582.297 62.8005 582.374 58.2026 582.374 52.9915C582.374 52.8383 581.22 52.7616 578.911 52.7616C576.755 52.6084 574.061 52.6084 570.829 52.7616C567.596 52.9149 564.132 53.2981 560.438 53.9111C556.743 54.3709 553.433 55.0606 550.509 55.9802C548.353 56.7465 546.121 57.5895 543.812 58.5091C541.657 59.4287 540.271 60.0417 539.656 60.3483Z" fill="white"/>
<path d="M621.205 51.6121C616.279 51.7654 612.046 51.7654 608.505 51.6121C604.964 51.4589 602.193 51.3056 600.192 51.1523C599.422 51.1523 598.268 51.0757 596.729 50.9224C595.343 50.7692 594.342 50.7692 593.727 50.9224V51.1523C592.803 60.195 592.341 69.5442 592.341 79.1999C592.341 88.7024 592.495 98.3581 592.803 108.167C593.111 117.976 593.265 127.862 593.265 137.824C593.419 147.786 593.111 157.595 592.341 167.251C593.419 166.944 595.574 166.868 598.807 167.021C602.039 167.174 605.426 167.251 608.967 167.251C612.661 167.404 616.048 167.404 619.127 167.251C622.206 167.251 624.13 166.791 624.9 165.872C623.822 147.326 623.514 128.398 623.976 109.087C624.592 89.7752 624.977 70.847 625.13 52.3018V51.6121H621.205ZM592.803 1.49435C592.649 8.54456 592.726 14.5219 593.034 19.4264C593.496 24.1776 593.727 28.7756 593.727 33.2203C596.652 33.067 599.807 33.1437 603.194 33.4502C606.581 33.6034 609.736 33.7567 612.661 33.91C615.74 33.91 618.357 33.7567 620.512 33.4502C622.821 33.1437 624.284 32.5306 624.9 31.611C624.9 29.312 624.823 26.7065 624.669 23.7945C624.669 20.7292 624.592 17.8171 624.438 15.0583C624.438 12.1463 624.361 9.54077 624.207 7.24179C624.207 4.78955 624.207 3.10363 624.207 2.18403L592.803 1.49435Z" fill="white"/>
<path d="M682.173 10.0006C679.556 10.3071 676.939 10.3837 674.322 10.2305C671.705 10.0772 669.088 9.92394 666.471 9.77067C663.854 9.46414 661.314 9.23425 658.851 9.08098C656.542 8.92772 654.386 9.00435 652.385 9.31088C652.077 12.2229 651.846 15.5181 651.692 19.1965C651.692 22.8749 651.692 26.7065 651.692 30.6914C651.692 34.6763 651.769 38.6612 651.923 42.6461C652.077 46.4777 652.154 50.0795 652.154 53.4513C649.691 53.4513 647.074 53.4513 644.303 53.4513C641.686 53.4513 638.838 53.3747 635.76 53.2214L635.067 81.269C638.3 81.269 641.224 81.269 643.841 81.269C646.612 81.269 649.229 81.1924 651.692 81.0391C651.538 92.2275 651.615 103.109 651.923 113.685C652.231 124.107 653.386 135.218 655.387 147.02C657.388 151.771 660.621 155.526 665.085 158.285C669.703 161.044 674.937 163.113 680.787 164.492C686.637 165.872 692.871 166.791 699.491 167.251C706.11 167.557 712.499 167.557 718.656 167.251C719.426 164.952 719.888 162.423 720.042 159.664C720.35 156.905 720.427 154.147 720.273 151.388C720.119 148.629 719.888 145.947 719.58 143.342C719.272 140.736 718.964 138.36 718.656 136.215C716.039 136.368 712.961 136.368 709.42 136.215C706.033 136.061 702.647 135.678 699.26 135.065C695.873 134.299 692.717 133.303 689.793 132.076C686.868 130.85 684.636 129.164 683.096 127.019C682.942 120.122 682.865 112.765 682.865 104.949C682.865 96.9787 682.865 88.8556 682.865 80.5793H718.656C718.349 78.5869 718.272 76.2112 718.425 73.4525C718.733 70.5404 718.964 67.705 719.118 64.9462C719.272 62.1875 719.272 59.6586 719.118 57.3596C718.964 54.9073 718.349 53.0682 717.271 51.842C709.42 52.3018 702.801 52.685 697.413 52.9915C692.179 53.2981 687.176 53.528 682.404 53.6812C682.404 51.3822 682.327 49.1599 682.173 47.0142C682.173 44.8685 682.173 42.7994 682.173 40.8069V10.0006Z" fill="white"/>
<path d="M757.846 109.546C759.386 109.853 761.849 110.083 765.235 110.236C768.622 110.389 772.394 110.466 776.55 110.466C780.86 110.466 785.325 110.389 789.943 110.236C794.561 110.083 798.871 109.853 802.874 109.546C807.03 109.24 810.571 108.933 813.496 108.627C816.575 108.32 818.653 108.014 819.73 107.707C820.192 101.27 820.192 94.9096 819.73 88.6257C819.268 82.3419 817.883 76.5944 815.574 71.3834C813.419 66.1723 810.186 61.7277 805.876 58.0493C801.565 54.3709 795.87 51.9187 788.788 50.6925C783.246 49.3132 777.551 48.7001 771.701 48.8534C765.851 49.0066 760.309 49.9262 755.075 51.6121C749.841 53.1448 745.146 55.5204 740.99 58.739C736.833 61.8043 733.755 65.5593 731.753 70.004C729.906 75.0617 728.675 80.2728 728.059 85.6371C727.597 90.8481 727.135 96.289 726.673 101.96C726.365 108.244 726.519 114.528 727.135 120.811C727.751 127.095 728.905 133.073 730.599 138.744C732.292 144.261 734.524 149.395 737.295 154.147C740.066 158.745 743.53 162.5 747.686 165.412C751.381 167.557 755.383 168.937 759.694 169.55C764.004 169.55 768.699 169.703 773.779 170.01C779.013 170.316 784.093 170.316 789.019 170.01C793.945 169.703 798.487 168.784 802.643 167.251C806.799 165.718 810.186 163.113 812.803 159.434C813.881 158.515 814.727 156.905 815.343 154.607C816.113 152.154 816.728 149.319 817.19 146.1C817.652 142.728 818.037 139.127 818.345 135.295C818.653 131.463 818.961 127.555 819.268 123.57C817.575 123.11 815.42 122.881 812.803 122.881C810.186 122.727 807.415 122.727 804.49 122.881C801.719 123.034 799.025 123.187 796.408 123.34C793.791 123.34 791.713 123.264 790.174 123.11C790.482 129.394 789.481 134.146 787.172 137.364C785.017 140.429 782.323 142.269 779.09 142.882C775.857 143.495 772.548 142.958 769.161 141.272C765.774 139.586 763.157 136.981 761.31 133.456C759.617 130.697 758.616 127.862 758.308 124.95C758.154 122.038 758 118.283 757.846 113.685V109.546ZM785.786 73.9123C788.557 75.2916 790.713 77.3607 792.252 80.1195C793.945 82.8783 794.792 85.7903 794.792 88.8556C794.792 90.0818 794.792 90.9247 794.792 91.3845C794.792 91.691 794.33 91.9209 793.406 92.0742C792.637 92.0742 791.251 91.9976 789.25 91.8443C787.249 91.691 784.247 91.6144 780.245 91.6144C774.395 91.6144 769.931 91.691 766.852 91.8443C763.927 91.8443 761.772 91.7677 760.386 91.6144C759.001 91.3079 758.231 90.8481 758.077 90.235C758.077 89.4687 758.231 88.2426 758.539 86.5567C758.847 84.5642 759.309 82.6484 759.924 80.8092C760.694 78.97 761.772 77.3607 763.157 75.9813C764.543 74.602 766.39 73.5291 768.699 72.7628C771.008 71.9964 774.01 71.6133 777.705 71.6133C779.398 71.6133 780.86 71.8432 782.092 72.303C783.323 72.6095 784.555 73.1459 785.786 73.9123Z" fill="white"/>
<path d="M982.414 54.3709C981.952 45.6348 979.951 38.2014 976.41 32.0708C972.87 25.9402 968.328 20.8824 962.786 16.8975C957.399 12.7593 951.164 9.69404 944.083 7.7016C937.001 5.55588 929.689 4.17649 922.146 3.56343C914.757 2.95037 907.291 3.027 899.748 3.79333C892.359 4.55965 885.508 5.78577 879.197 7.47169C879.659 20.1927 879.89 33.5268 879.89 47.474C880.044 61.4211 880.121 75.2916 880.121 89.0855C880.121 102.879 880.121 116.367 880.121 129.548C880.121 142.575 880.351 154.683 880.813 165.872C883.43 166.178 886.509 166.408 890.05 166.561C893.59 166.714 897.131 166.791 900.672 166.791C904.366 166.638 907.83 166.485 911.063 166.331C914.449 166.025 917.22 165.565 919.375 164.952C919.529 164.952 919.606 164.952 919.606 164.952C919.76 164.799 919.914 164.722 920.068 164.722V164.492C919.76 153.304 919.529 144.414 919.375 137.824C919.375 131.234 919.375 126.022 919.375 122.191C919.375 118.206 919.375 115.217 919.375 113.225C919.375 111.079 919.298 108.933 919.144 106.788C926.534 108.014 933.769 107.707 940.85 105.868C947.931 103.876 954.397 100.734 960.247 96.4423C966.096 92.1508 970.945 86.9398 974.794 80.8092C978.796 74.6786 981.259 67.9349 982.183 60.5782C982.337 59.6586 982.414 58.739 982.414 57.8194C982.414 56.7465 982.414 55.6737 982.414 54.6008V54.3709ZM942.005 44.7152C944.006 45.9413 945.545 47.474 946.623 49.3132C947.854 51.1523 948.624 53.1448 948.932 55.2905C949.394 57.4362 949.317 59.5819 948.701 61.7277C948.239 63.8734 947.392 65.7892 946.161 67.4751C944.314 69.3143 942.081 70.6937 939.465 71.6133C937.001 72.3796 934.385 72.916 931.614 73.2226C928.997 73.5291 926.303 73.759 923.532 73.9123C920.761 73.9123 918.144 73.9889 915.681 74.1422H914.988C914.218 71.8432 913.68 69.3143 913.372 66.5555C913.218 63.6435 913.064 60.6548 912.91 57.5895C912.91 54.5242 912.91 51.4589 912.91 48.3936C913.064 45.3283 913.064 42.4162 912.91 39.6574C913.064 39.5042 913.295 39.4275 913.603 39.4275C918.529 38.2014 923.532 38.0481 928.612 38.9677C933.692 39.7341 938.156 41.6499 942.005 44.7152Z" fill="white"/>
<path d="M1023.99 64.7163C1023.99 64.1033 1023.99 62.1875 1023.99 58.9689C1023.99 55.7503 1023.99 51.9187 1023.99 47.474C1023.99 43.0293 1023.99 38.278 1023.99 33.2203C1023.99 28.0093 1023.99 23.1814 1023.99 18.7367C1023.99 14.1387 1023.99 10.2305 1023.99 7.0119C1023.99 3.64006 1023.92 1.57097 1023.76 0.804647C1023.76 0.344847 1023.15 0.114948 1021.92 0.114948C1020.68 -0.0383159 1019.3 -0.0383159 1017.76 0.114948C1016.22 0.26822 1014.68 0.49812 1013.14 0.804647C1011.6 0.95791 1010.52 1.03454 1009.91 1.03454C1008.06 1.18781 1006.52 1.34107 1005.29 1.49435C1004.06 1.49435 1002.9 1.49435 1001.83 1.49435C1000.75 1.49435 999.594 1.49435 998.363 1.49435C997.131 1.34107 995.592 1.18781 993.745 1.03454C993.591 7.77822 993.437 15.748 993.283 24.944C993.283 33.9866 993.283 43.6423 993.283 53.9111C993.283 64.1799 993.283 74.7552 993.283 85.6371C993.283 96.3656 993.283 106.788 993.283 116.903C993.437 127.019 993.514 136.521 993.514 145.411C993.668 154.147 993.745 161.657 993.745 167.941C997.439 167.634 1000.52 167.557 1002.98 167.711C1005.44 167.864 1007.68 167.941 1009.68 167.941C1011.68 168.094 1013.6 168.094 1015.45 167.941C1017.45 167.787 1019.76 167.328 1022.38 166.561V165.642C1022.99 160.584 1023.3 155.526 1023.3 150.468C1023.3 145.411 1023.15 140.353 1022.84 135.295C1022.69 130.084 1022.53 124.95 1022.38 119.892C1022.22 114.681 1022.3 109.393 1022.61 104.029C1022.92 99.8907 1023.99 96.8254 1025.84 94.833C1027.69 92.6873 1029.77 91.3079 1032.08 90.6948C1034.39 89.9285 1036.69 89.7752 1039 90.235C1041.47 90.5416 1043.31 91.0014 1044.55 91.6144C1044.7 91.7677 1044.85 91.8443 1045.01 91.8443C1045.16 91.8443 1045.31 91.9209 1045.47 92.0742C1046.7 92.9938 1047.62 94.2966 1048.24 95.9825C1049.01 97.6684 1049.55 99.5842 1049.86 101.73C1050.32 103.876 1050.63 106.098 1050.78 108.397C1050.93 110.543 1051.09 112.535 1051.24 114.374C1051.55 118.512 1051.7 122.957 1051.7 127.708C1051.86 132.46 1051.86 137.211 1051.7 141.962C1051.7 146.713 1051.7 151.311 1051.7 155.756C1051.7 160.201 1051.86 164.186 1052.17 167.711C1057.55 167.711 1062.33 167.711 1066.48 167.711C1070.79 167.864 1075.64 167.557 1081.03 166.791C1080.72 161.58 1080.64 155.526 1080.8 148.629C1080.95 141.732 1081.11 134.605 1081.26 127.249C1081.41 119.739 1081.49 112.382 1081.49 105.178C1081.64 97.8217 1081.57 91.078 1081.26 84.9474C1081.11 78.8167 1080.57 73.6057 1079.64 69.3143C1078.87 64.8696 1077.72 61.9576 1076.18 60.5782C1072.95 57.8194 1069.33 55.9036 1065.33 54.8307C1061.32 53.7579 1057.17 53.2981 1052.86 53.4513C1048.7 53.6046 1044.62 54.3709 1040.62 55.7503C1036.62 57.1297 1033 58.9689 1029.77 61.2679C1029 61.8809 1028 62.494 1026.76 63.107C1025.69 63.7201 1024.76 64.2565 1023.99 64.7163Z" fill="white"/>
<path d="M1128.88 60.3483C1128.88 59.2754 1128.81 58.5091 1128.65 58.0493C1128.65 57.5895 1128.65 57.2063 1128.65 56.8998C1128.65 56.44 1128.65 55.9036 1128.65 55.2905C1128.65 54.6774 1128.65 53.7579 1128.65 52.5317C1128.65 52.2252 1127.96 52.0719 1126.57 52.0719C1125.34 51.9187 1123.8 51.9187 1121.96 52.0719C1120.26 52.2252 1118.57 52.3785 1116.88 52.5317C1115.34 52.685 1114.26 52.7616 1113.64 52.7616C1111.8 52.9149 1110.26 53.0682 1109.02 53.2214C1107.79 53.2214 1106.64 53.2214 1105.56 53.2214C1104.48 53.2214 1103.33 53.2214 1102.1 53.2214C1100.87 53.0682 1099.33 52.9149 1097.48 52.7616C1096.86 72.9927 1096.71 92.534 1097.02 111.386C1097.48 130.237 1097.71 149.089 1097.71 167.941C1101.4 167.634 1104.56 167.557 1107.18 167.711C1109.95 167.864 1112.49 167.941 1114.8 167.941C1117.11 168.094 1119.34 168.094 1121.49 167.941C1123.65 167.787 1126.04 167.328 1128.65 166.561V165.642C1128.65 159.971 1128.58 154.683 1128.42 149.779C1128.42 144.721 1128.42 139.816 1128.42 135.065C1128.42 130.161 1128.34 125.333 1128.19 120.582C1128.04 115.83 1127.88 110.773 1127.73 105.408C1127.57 101.117 1128.19 97.8217 1129.58 95.5227C1130.96 93.2237 1132.89 91.5378 1135.35 90.4649C1137.97 89.3921 1140.97 88.8556 1144.35 88.8556C1147.89 88.8556 1151.74 89.0855 1155.9 89.5453C1156.05 89.5453 1157.05 89.6986 1158.9 90.0051C1160.9 90.3117 1162.83 90.6948 1164.67 91.1546C1165.44 91.4611 1166.21 91.7677 1166.98 92.0742C1167.91 92.2275 1168.75 92.4574 1169.52 92.7639L1171.6 93.4536C1171.45 91.1546 1171.37 88.7024 1171.37 86.0969C1171.37 83.4913 1171.37 80.6559 1171.37 77.5906C1171.37 74.3721 1171.37 70.7703 1171.37 66.7854C1171.52 62.8005 1171.6 58.2026 1171.6 52.9915C1171.6 52.8383 1170.45 52.7616 1168.14 52.7616C1165.98 52.6084 1163.29 52.6084 1160.06 52.7616C1156.82 52.9149 1153.36 53.2981 1149.67 53.9111C1145.97 54.3709 1142.66 55.0606 1139.74 55.9802C1137.58 56.7465 1135.35 57.5895 1133.04 58.5091C1130.88 59.4287 1129.5 60.0417 1128.88 60.3483Z" fill="white"/>
<path d="M1275.32 52.7616C1270.39 52.4551 1266.01 52.2252 1262.16 52.0719C1258.46 51.9187 1255.31 51.7654 1252.69 51.6121C1252.23 51.6121 1251.38 51.6121 1250.15 51.6121C1248.92 51.6121 1247.69 51.6121 1246.45 51.6121C1245.22 51.4589 1244.07 51.4589 1242.99 51.6121C1242.07 51.6121 1241.61 51.6888 1241.61 51.842C1241.61 53.6812 1241.37 55.5204 1240.91 57.3596C1240.6 59.0455 1240.53 61.1146 1240.68 63.5668C1239.6 60.9613 1238.3 58.9689 1236.76 57.5895C1235.22 56.0568 1233.45 54.984 1231.45 54.3709C1229.44 53.6046 1227.21 53.2214 1224.75 53.2214C1222.44 53.0682 1219.9 52.9915 1217.13 52.9915C1211.74 53.1448 1206.66 54.6008 1201.89 57.3596C1197.12 59.9651 1192.96 63.6435 1189.42 68.3947C1186.03 72.9927 1183.34 78.5102 1181.34 84.9474C1179.34 91.3845 1178.34 98.4347 1178.34 106.098C1178.34 112.229 1178.95 118.896 1180.18 126.099C1181.57 133.303 1183.65 139.97 1186.42 146.1C1189.19 152.231 1192.65 157.365 1196.81 161.503C1201.12 165.642 1206.28 167.711 1212.28 167.711C1217.67 167.711 1223.13 166.408 1228.67 163.802C1234.37 161.197 1239.07 158.055 1242.76 154.377C1242.76 155.909 1242.61 157.212 1242.3 158.285C1241.99 159.358 1241.84 160.737 1241.84 162.423C1241.84 163.649 1241.99 164.722 1242.3 165.642C1242.76 166.561 1243.53 167.174 1244.61 167.481C1246.3 167.481 1247.92 167.404 1249.46 167.251C1251.15 166.944 1252.84 166.791 1254.54 166.791C1257 166.791 1259.46 166.944 1261.93 167.251C1264.54 167.404 1267.08 167.481 1269.55 167.481H1272.32C1274.16 167.174 1275.09 166.025 1275.09 164.032C1275.24 162.04 1275.32 160.047 1275.32 158.055C1276.4 141.656 1276.63 125.486 1276.01 109.546C1275.4 93.4536 1275.32 77.1308 1275.78 60.5782V58.2792C1275.78 57.3596 1275.7 56.44 1275.55 55.5204C1275.55 54.6008 1275.47 53.6812 1275.32 52.7616ZM1208.12 98.5114C1208.89 94.6797 1211.05 91.3079 1214.59 88.3958C1218.28 85.3305 1223.29 83.7979 1229.6 83.7979C1232.83 83.7979 1235.22 84.0278 1236.76 84.4876C1238.45 84.9474 1239.6 86.0202 1240.22 87.7061C1240.99 89.3921 1241.37 91.8443 1241.37 95.0629C1241.53 98.1282 1241.61 102.343 1241.61 107.707C1241.61 111.999 1241.53 115.907 1241.37 119.432C1241.37 122.804 1240.91 125.716 1239.99 128.168C1239.22 130.467 1237.83 132.306 1235.83 133.686C1233.99 134.912 1231.14 135.525 1227.29 135.525C1220.82 135.525 1215.74 133.149 1212.05 128.398C1208.51 123.494 1206.74 117.593 1206.74 110.696C1206.74 108.704 1206.81 106.711 1206.97 104.719C1207.12 102.573 1207.51 100.504 1208.12 98.5114Z" fill="white"/>
<path d="M1384.44 87.7061C1384.44 79.4298 1382.9 71.9964 1379.83 65.406C1376.75 58.6623 1371.59 53.7579 1364.35 50.6925C1360.35 49.773 1355.96 49.0833 1351.19 48.6235C1346.42 48.0104 1341.65 47.7039 1336.88 47.7039C1332.1 47.7039 1327.56 47.9338 1323.25 48.3936C1319.1 48.8534 1315.56 49.4664 1312.63 50.2328C1305.09 52.2252 1299.24 56.0568 1295.08 61.7277C1291.08 67.3985 1288.92 73.6057 1288.62 80.3494C1288.46 86.9398 1290.31 93.377 1294.16 99.6609C1298.16 105.791 1304.47 110.313 1313.09 113.225C1317.4 115.064 1321.79 116.367 1326.25 117.133C1330.72 117.899 1334.72 118.819 1338.26 119.892C1341.8 120.811 1344.65 122.191 1346.81 124.03C1348.96 125.869 1349.81 128.628 1349.34 132.306C1349.5 136.751 1348.11 139.816 1345.19 141.502C1342.26 143.188 1339.03 143.878 1335.49 143.571C1331.95 143.112 1328.56 141.809 1325.33 139.663C1322.25 137.364 1320.64 134.452 1320.48 130.927C1315.71 130.927 1310.09 130.85 1303.62 130.697C1297.16 130.391 1291.39 130.544 1286.31 131.157V132.306C1286.31 138.437 1287.54 143.955 1290 148.859C1292.62 153.764 1296.16 157.902 1300.62 161.274C1305.24 164.645 1310.71 167.174 1317.02 168.86C1323.33 170.546 1330.41 171.236 1338.26 170.929C1347.19 171.083 1355.43 169.55 1362.97 166.331C1370.51 163.113 1376.05 157.748 1379.59 150.238C1382.52 141.809 1383.6 134.759 1382.83 129.088C1382.06 123.264 1379.98 117.593 1376.59 112.075C1373.05 107.477 1367.51 104.182 1359.97 102.19C1352.42 100.044 1344.34 98.3581 1335.72 97.132C1332.18 95.9058 1329.49 94.0667 1327.64 91.6144C1325.79 89.1622 1324.87 86.7099 1324.87 84.2577C1324.87 81.8054 1325.72 79.5831 1327.41 77.5906C1329.26 75.4449 1331.95 74.0655 1335.49 73.4525C1337.49 73.2992 1339.49 73.6057 1341.49 74.372C1343.65 74.9851 1345.5 75.9813 1347.04 77.3607C1348.73 78.7401 1349.96 80.3494 1350.73 82.1886C1351.65 84.0278 1351.89 85.867 1351.42 87.7061C1356.66 88.779 1362.2 89.2388 1368.05 89.0855C1374.05 88.9323 1379.52 88.4725 1384.44 87.7061Z" fill="white"/>
<path d="M1423.74 109.546C1425.28 109.853 1427.75 110.083 1431.13 110.236C1434.52 110.389 1438.29 110.466 1442.45 110.466C1446.76 110.466 1451.22 110.389 1455.84 110.236C1460.46 110.083 1464.77 109.853 1468.77 109.546C1472.93 109.24 1476.47 108.933 1479.39 108.627C1482.47 108.32 1484.55 108.014 1485.63 107.707C1486.09 101.27 1486.09 94.9096 1485.63 88.6257C1485.17 82.3419 1483.78 76.5944 1481.47 71.3834C1479.32 66.1723 1476.08 61.7277 1471.77 58.0493C1467.46 54.3709 1461.77 51.9187 1454.69 50.6925C1449.14 49.3132 1443.45 48.7001 1437.6 48.8534C1431.75 49.0066 1426.21 49.9262 1420.97 51.6121C1415.74 53.1448 1411.04 55.5204 1406.89 58.739C1402.73 61.8043 1399.65 65.5593 1397.65 70.004C1395.8 75.0617 1394.57 80.2728 1393.96 85.6371C1393.49 90.8481 1393.03 96.289 1392.57 101.96C1392.26 108.244 1392.42 114.528 1393.03 120.811C1393.65 127.095 1394.8 133.073 1396.5 138.744C1398.19 144.261 1400.42 149.395 1403.19 154.147C1405.96 158.745 1409.43 162.5 1413.58 165.412C1417.28 167.557 1421.28 168.937 1425.59 169.55C1429.9 169.55 1434.6 169.703 1439.68 170.01C1444.91 170.316 1449.99 170.316 1454.92 170.01C1459.84 169.703 1464.38 168.784 1468.54 167.251C1472.7 165.718 1476.08 163.113 1478.7 159.434C1479.78 158.515 1480.62 156.905 1481.24 154.607C1482.01 152.154 1482.63 149.319 1483.09 146.1C1483.55 142.728 1483.93 139.127 1484.24 135.295C1484.55 131.463 1484.86 127.555 1485.17 123.57C1483.47 123.11 1481.32 122.881 1478.7 122.881C1476.08 122.727 1473.31 122.727 1470.39 122.881C1467.62 123.034 1464.92 123.187 1462.31 123.34C1459.69 123.34 1457.61 123.264 1456.07 123.11C1456.38 129.394 1455.38 134.146 1453.07 137.364C1450.91 140.429 1448.22 142.269 1444.99 142.882C1441.75 143.495 1438.44 142.958 1435.06 141.272C1431.67 139.586 1429.05 136.981 1427.21 133.456C1425.51 130.697 1424.51 127.862 1424.21 124.95C1424.05 122.038 1423.9 118.283 1423.74 113.685V109.546ZM1451.68 73.9123C1454.45 75.2916 1456.61 77.3607 1458.15 80.1195C1459.84 82.8783 1460.69 85.7903 1460.69 88.8556C1460.69 90.0818 1460.69 90.9247 1460.69 91.3845C1460.69 91.691 1460.23 91.9209 1459.3 92.0742C1458.53 92.0742 1457.15 91.9976 1455.15 91.8443C1453.15 91.691 1450.14 91.6144 1446.14 91.6144C1440.29 91.6144 1435.83 91.691 1432.75 91.8443C1429.82 91.8443 1427.67 91.7677 1426.28 91.6144C1424.9 91.3079 1424.13 90.8481 1423.97 90.235C1423.97 89.4687 1424.13 88.2426 1424.44 86.5567C1424.74 84.5642 1425.21 82.6484 1425.82 80.8092C1426.59 78.97 1427.67 77.3607 1429.05 75.9813C1430.44 74.602 1432.29 73.5291 1434.6 72.7628C1436.91 71.9964 1439.91 71.6133 1443.6 71.6133C1445.29 71.6133 1446.76 71.8432 1447.99 72.303C1449.22 72.6095 1450.45 73.1459 1451.68 73.9123Z" fill="white"/>
<path d="M1591 87.7061C1591 79.4298 1589.46 71.9964 1586.38 65.406C1583.3 58.6623 1578.15 53.7579 1570.91 50.6925C1566.91 49.773 1562.52 49.0833 1557.75 48.6235C1552.98 48.0104 1548.2 47.7039 1543.43 47.7039C1538.66 47.7039 1534.12 47.9338 1529.81 48.3936C1525.65 48.8534 1522.11 49.4664 1519.19 50.2328C1511.64 52.2252 1505.79 56.0568 1501.64 61.7277C1497.64 67.3985 1495.48 73.6057 1495.17 80.3494C1495.02 86.9398 1496.87 93.377 1500.71 99.6609C1504.72 105.791 1511.03 110.313 1519.65 113.225C1523.96 115.064 1528.35 116.367 1532.81 117.133C1537.27 117.899 1541.28 118.819 1544.82 119.892C1548.36 120.811 1551.21 122.191 1553.36 124.03C1555.52 125.869 1556.36 128.628 1555.9 132.306C1556.06 136.751 1554.67 139.816 1551.75 141.502C1548.82 143.188 1545.59 143.878 1542.05 143.571C1538.51 143.112 1535.12 141.809 1531.89 139.663C1528.81 137.364 1527.19 134.452 1527.04 130.927C1522.27 130.927 1516.65 130.85 1510.18 130.697C1503.72 130.391 1497.94 130.544 1492.86 131.157V132.306C1492.86 138.437 1494.09 143.955 1496.56 148.859C1499.17 153.764 1502.72 157.902 1507.18 161.274C1511.8 164.645 1517.26 167.174 1523.57 168.86C1529.89 170.546 1536.97 171.236 1544.82 170.929C1553.75 171.083 1561.98 169.55 1569.53 166.331C1577.07 163.113 1582.61 157.748 1586.15 150.238C1589.08 141.809 1590.15 134.759 1589.38 129.088C1588.61 123.264 1586.54 117.593 1583.15 112.075C1579.61 107.477 1574.07 104.182 1566.52 102.19C1558.98 100.044 1550.9 98.3581 1542.28 97.132C1538.74 95.9058 1536.04 94.0667 1534.2 91.6144C1532.35 89.1622 1531.43 86.7099 1531.43 84.2577C1531.43 81.8054 1532.27 79.5831 1533.97 77.5906C1535.81 75.4449 1538.51 74.0655 1542.05 73.4525C1544.05 73.2992 1546.05 73.6057 1548.05 74.372C1550.21 74.9851 1552.05 75.9813 1553.59 77.3607C1555.29 78.7401 1556.52 80.3494 1557.29 82.1886C1558.21 84.0278 1558.44 85.867 1557.98 87.7061C1563.21 88.779 1568.76 89.2388 1574.61 89.0855C1580.61 88.9323 1586.07 88.4725 1591 87.7061Z" fill="white"/>
</svg>
