<svg width="1061" height="160" viewBox="0 0 1061 160" fill="none" xmlns="http://www.w3.org/2000/svg">
<path d="M92.9252 137.048C92.7781 135.871 92.7045 134.547 92.7045 133.076C92.8516 131.457 92.9988 129.913 93.1459 128.441C93.2931 126.823 93.3667 125.205 93.3667 123.586C92.1895 123.733 90.0558 123.807 86.9656 123.807C84.0226 123.66 80.5646 123.513 76.5916 123.366C72.7657 123.218 68.6455 123.071 64.231 122.924C59.9636 122.63 55.917 122.409 52.0911 122.262C48.2652 122.115 44.8807 122.041 41.9377 122.041C39.1419 121.894 37.2289 121.968 36.1989 122.262V122.041C36.346 112.625 36.346 102.915 36.1989 92.9103C36.1989 82.7586 36.1253 72.6069 35.9782 62.4552C35.831 52.3034 35.6839 42.2253 35.5367 32.2207C35.5367 22.069 35.6839 12.2115 35.9782 2.64827C33.9181 1.76551 31.1958 1.10344 27.8113 0.66206C24.4269 0.220687 20.9689 0 17.4373 0C13.9057 0 10.5948 0.220687 7.50465 0.66206C4.4145 0.956318 2.13367 1.3977 0.662175 1.98621C0.809325 12.2851 0.956475 21.7011 1.10362 30.2345C1.25077 38.6207 1.39792 46.5655 1.54507 54.069C1.69222 61.5724 1.7658 68.9287 1.7658 76.1379C1.7658 83.3471 1.69222 90.8506 1.54507 98.6483C1.54507 106.299 1.39792 114.611 1.10362 123.586C0.809325 132.414 0.44145 142.345 0 153.379V157.352C17.8051 157.646 32.0051 157.793 42.5999 157.793C53.3419 157.793 61.7294 157.72 67.7626 157.572C73.9429 157.425 78.2838 157.278 80.7853 157.131C83.434 156.984 85.5677 156.984 87.1864 157.131C88.805 157.131 90.0558 157.131 90.9387 157.131C91.8216 156.984 92.4102 156.322 92.7045 155.145C93.1459 153.821 93.3667 151.834 93.3667 149.186C93.3667 146.391 93.2195 142.345 92.9252 137.048Z" fill="white"/>
<path d="M128.227 101.738C129.699 102.032 132.053 102.253 135.291 102.4C138.528 102.547 142.133 102.621 146.106 102.621C150.226 102.621 154.494 102.547 158.908 102.4C163.323 102.253 167.443 102.032 171.269 101.738C175.242 101.444 178.626 101.149 181.422 100.855C184.365 100.561 186.352 100.267 187.382 99.9724C187.823 93.7931 187.823 87.6874 187.382 81.6552C186.94 75.623 185.616 70.1057 183.409 65.1034C181.349 60.1011 178.258 55.8345 174.138 52.3034C170.018 48.7724 164.573 46.4184 157.805 45.2414C152.507 43.9172 147.063 43.3287 141.471 43.4758C135.879 43.623 130.582 44.5057 125.579 46.1241C120.576 47.5954 116.088 49.8759 112.114 52.9655C108.141 55.908 105.198 59.5126 103.285 63.7793C101.52 68.6345 100.342 73.6368 99.7539 78.7862C99.3124 83.7885 98.871 89.0115 98.4295 94.4552C98.1352 100.487 98.2824 106.52 98.871 112.552C99.4596 118.584 100.563 124.322 102.182 129.766C103.801 135.062 105.934 139.991 108.583 144.552C111.232 148.966 114.542 152.57 118.516 155.366C122.047 157.425 125.873 158.749 129.993 159.338C134.113 159.338 138.601 159.485 143.457 159.779C148.461 160.074 153.316 160.074 158.025 159.779C162.734 159.485 167.075 158.602 171.048 157.131C175.021 155.66 178.258 153.159 180.76 149.628C181.79 148.745 182.599 147.2 183.188 144.993C183.924 142.639 184.512 139.917 184.954 136.828C185.395 133.591 185.763 130.133 186.057 126.455C186.352 122.777 186.646 119.025 186.94 115.2C185.322 114.759 183.262 114.538 180.76 114.538C178.258 114.391 175.61 114.391 172.814 114.538C170.165 114.685 167.59 114.832 165.088 114.979C162.587 114.979 160.6 114.906 159.129 114.759C159.423 120.791 158.467 125.352 156.259 128.441C154.199 131.384 151.624 133.149 148.534 133.738C145.444 134.326 142.28 133.811 139.043 132.193C135.806 130.575 133.304 128.074 131.538 124.69C129.92 122.041 128.963 119.32 128.669 116.524C128.522 113.729 128.375 110.124 128.227 105.71V101.738ZM154.935 67.531C157.584 68.8552 159.644 70.8414 161.115 73.4897C162.734 76.1379 163.543 78.9333 163.543 81.8759C163.543 83.0529 163.543 83.8621 163.543 84.3034C163.543 84.5977 163.102 84.8184 162.219 84.9655C161.483 84.9655 160.159 84.8919 158.246 84.7448C156.333 84.5977 153.464 84.5241 149.638 84.5241C144.046 84.5241 139.779 84.5977 136.836 84.7448C134.04 84.7448 131.98 84.6713 130.655 84.5241C129.331 84.2299 128.595 83.7885 128.448 83.2C128.448 82.4644 128.595 81.2874 128.89 79.669C129.184 77.7563 129.625 75.9172 130.214 74.1517C130.95 72.3862 131.98 70.8414 133.304 69.5172C134.628 68.1931 136.394 67.1632 138.601 66.4276C140.809 65.6919 143.678 65.3241 147.21 65.3241C148.828 65.3241 150.226 65.5448 151.404 65.9862C152.581 66.2805 153.758 66.7954 154.935 67.531Z" fill="white"/>
<path d="M288.769 47.2276C284.06 46.9333 279.866 46.7126 276.187 46.5655C272.656 46.4184 269.639 46.2713 267.138 46.1241C266.696 46.1241 265.887 46.1241 264.71 46.1241C263.532 46.1241 262.355 46.1241 261.178 46.1241C260.001 45.977 258.897 45.977 257.867 46.1241C256.984 46.1241 256.543 46.1977 256.543 46.3448C256.543 48.1103 256.322 49.8759 255.881 51.6414C255.586 53.2598 255.513 55.246 255.66 57.6C254.63 55.0988 253.379 53.1862 251.908 51.8621C250.436 50.3908 248.744 49.3609 246.831 48.7724C244.918 48.0368 242.784 47.669 240.43 47.669C238.223 47.5218 235.795 47.4483 233.146 47.4483C227.996 47.5954 223.14 48.9931 218.578 51.6414C214.016 54.1425 210.043 57.6736 206.659 62.2345C203.422 66.6483 200.847 71.9448 198.934 78.1241C197.021 84.3034 196.064 91.0713 196.064 98.4276C196.064 104.313 196.653 110.713 197.83 117.628C199.154 124.543 201.141 130.943 203.79 136.828C206.438 142.713 209.749 147.641 213.722 151.614C217.842 155.586 222.772 157.572 228.511 157.572C233.661 157.572 238.885 156.322 244.182 153.821C249.627 151.32 254.115 148.303 257.646 144.772C257.646 146.244 257.499 147.494 257.205 148.524C256.911 149.554 256.763 150.878 256.763 152.497C256.763 153.674 256.911 154.703 257.205 155.586C257.646 156.469 258.382 157.057 259.412 157.352C261.031 157.352 262.576 157.278 264.047 157.131C265.666 156.837 267.285 156.69 268.903 156.69C271.258 156.69 273.612 156.837 275.967 157.131C278.468 157.278 280.896 157.352 283.25 157.352H285.899C287.665 157.057 288.548 155.954 288.548 154.041C288.695 152.129 288.769 150.216 288.769 148.303C289.799 132.561 290.019 117.039 289.431 101.738C288.842 86.2896 288.769 70.6207 289.21 54.731V52.5241C289.21 51.6414 289.137 50.7586 288.989 49.8759C288.989 48.9931 288.916 48.1103 288.769 47.2276ZM224.538 91.1448C225.273 87.4667 227.333 84.2299 230.718 81.4345C234.25 78.492 239.032 77.0207 245.065 77.0207C248.155 77.0207 250.436 77.2414 251.908 77.6828C253.526 78.1241 254.63 79.154 255.218 80.7724C255.954 82.3908 256.322 84.7448 256.322 87.8345C256.469 90.777 256.543 94.823 256.543 99.9724C256.543 104.092 256.469 107.844 256.322 111.228C256.322 114.464 255.881 117.26 254.998 119.614C254.262 121.821 252.938 123.586 251.025 124.91C249.259 126.087 246.537 126.676 242.858 126.676C236.678 126.676 231.822 124.395 228.29 119.834C224.906 115.126 223.213 109.462 223.213 102.841C223.213 100.929 223.287 99.0161 223.434 97.1034C223.581 95.0437 223.949 93.0575 224.538 91.1448Z" fill="white"/>
<path d="M362.399 4.41379C362.252 7.35631 362.105 9.63678 361.958 11.2552C361.958 12.7264 361.884 14.1241 361.737 15.4483C361.737 16.6253 361.664 17.9494 361.516 19.4207C361.516 20.7448 361.516 22.731 361.516 25.3793C361.516 27.8805 361.516 31.2644 361.516 35.531C361.516 39.7977 361.59 45.3885 361.737 52.3034C361.443 50.9793 359.824 49.8023 356.881 48.7724C353.938 47.7425 350.333 47.0805 346.066 46.7862C341.798 46.3448 337.237 46.3448 332.381 46.7862C327.672 47.0805 323.331 47.9632 319.358 49.4345C316.121 50.6115 313.325 52.6713 310.97 55.6138C308.763 58.4092 306.924 61.8667 305.452 65.9862C304.128 69.9586 303.098 74.3724 302.362 79.2276C301.774 84.0828 301.479 89.085 301.479 94.2345C301.626 101.591 302.068 108.874 302.804 116.083C303.687 123.292 305.305 129.839 307.66 135.724C310.161 141.462 313.84 146.244 318.696 150.069C323.552 153.747 330.174 155.88 338.561 156.469C342.681 157.057 346.581 156.763 350.259 155.586C353.938 154.262 356.881 151.393 359.089 146.979C359.53 146.097 359.898 145.876 360.192 146.317C360.634 146.611 361.001 147.126 361.296 147.862C361.296 149.48 361.296 150.731 361.296 151.614C361.443 152.497 361.516 153.674 361.516 155.145C361.516 155.88 361.59 156.395 361.737 156.69C366.152 157.278 371.081 157.425 376.526 157.131C381.97 156.984 386.973 156.91 391.535 156.91C392.124 135.724 392.05 113.14 391.314 89.1586C390.579 65.177 390.211 40.9011 390.211 16.331V1.76551C387.856 1.32413 385.06 1.10345 381.823 1.10345C378.586 0.956323 375.496 0.956323 372.553 1.10345C369.757 1.10345 367.329 1.25057 365.269 1.54482C363.356 1.69195 362.399 1.83907 362.399 1.98621V4.41379ZM328.187 87.6138C328.923 82.4644 331.056 78.5655 334.588 75.9172C338.267 73.269 343.123 71.9448 349.156 71.9448C352.246 71.9448 354.674 72.2391 356.44 72.8276C358.353 73.269 359.751 74.3724 360.634 76.1379C361.516 77.9034 362.031 80.4781 362.179 83.8621C362.473 87.0988 362.62 91.5862 362.62 97.3241C362.62 102.032 362.473 106.372 362.179 110.345C362.031 114.17 361.369 117.48 360.192 120.276C359.162 123.071 357.543 125.278 355.336 126.897C353.276 128.515 350.407 129.324 346.728 129.324C343.638 129.324 340.842 128.515 338.34 126.897C335.839 125.278 333.705 123.145 331.939 120.497C330.174 117.701 328.849 114.611 327.966 111.228C327.083 107.697 326.642 104.092 326.642 100.414C326.642 98.354 326.715 96.2207 326.863 94.0138C327.01 91.8069 327.451 89.6736 328.187 87.6138Z" fill="white"/>
<path d="M433.449 101.738C434.92 102.032 437.275 102.253 440.512 102.4C443.749 102.547 447.354 102.621 451.327 102.621C455.448 102.621 459.715 102.547 464.129 102.4C468.544 102.253 472.664 102.032 476.49 101.738C480.463 101.444 483.848 101.149 486.643 100.855C489.586 100.561 491.573 100.267 492.603 99.9724C493.044 93.7931 493.044 87.6874 492.603 81.6552C492.162 75.623 490.837 70.1057 488.63 65.1034C486.57 60.1011 483.48 55.8345 479.359 52.3034C475.239 48.7724 469.795 46.4184 463.026 45.2414C457.728 43.9172 452.284 43.3287 446.692 43.4758C441.1 43.623 435.803 44.5057 430.8 46.1241C425.797 47.5954 421.309 49.8759 417.336 52.9655C413.363 55.908 410.42 59.5126 408.507 63.7793C406.741 68.6345 405.564 73.6368 404.975 78.7862C404.534 83.7885 404.092 89.0115 403.651 94.4552C403.357 100.487 403.504 106.52 404.092 112.552C404.681 118.584 405.784 124.322 407.403 129.766C409.022 135.062 411.155 139.991 413.804 144.552C416.453 148.966 419.764 152.57 423.737 155.366C427.268 157.425 431.094 158.749 435.214 159.338C439.335 159.338 443.823 159.485 448.679 159.779C453.682 160.074 458.538 160.074 463.247 159.779C467.955 159.485 472.296 158.602 476.269 157.131C480.242 155.66 483.48 153.159 485.981 149.628C487.011 148.745 487.821 147.2 488.409 144.993C489.145 142.639 489.734 139.917 490.175 136.828C490.616 133.591 490.984 130.133 491.279 126.455C491.573 122.777 491.867 119.025 492.161 115.2C490.543 114.759 488.483 114.538 485.981 114.538C483.48 114.391 480.831 114.391 478.035 114.538C475.386 114.685 472.811 114.832 470.31 114.979C467.808 114.979 465.822 114.906 464.35 114.759C464.644 120.791 463.688 125.352 461.481 128.441C459.421 131.384 456.846 133.149 453.755 133.738C450.665 134.326 447.501 133.811 444.264 132.193C441.027 130.575 438.525 128.074 436.76 124.69C435.141 122.041 434.184 119.32 433.89 116.524C433.743 113.729 433.596 110.124 433.449 105.71V101.738ZM460.156 67.531C462.805 68.8552 464.865 70.8414 466.337 73.4897C467.955 76.1379 468.765 78.9333 468.765 81.8759C468.765 83.0529 468.765 83.8621 468.765 84.3034C468.765 84.5977 468.323 84.8184 467.44 84.9655C466.705 84.9655 465.38 84.8919 463.467 84.7448C461.554 84.5977 458.685 84.5241 454.859 84.5241C449.267 84.5241 445 84.5977 442.057 84.7448C439.261 84.7448 437.201 84.6713 435.877 84.5241C434.552 84.2299 433.817 83.7885 433.669 83.2C433.669 82.4644 433.817 81.2874 434.111 79.669C434.405 77.7563 434.847 75.9172 435.435 74.1517C436.171 72.3862 437.201 70.8414 438.525 69.5172C439.85 68.1931 441.615 67.1632 443.823 66.4276C446.03 65.6919 448.899 65.3241 452.431 65.3241C454.05 65.3241 455.448 65.5448 456.625 65.9862C457.802 66.2805 458.979 66.7954 460.156 67.531Z" fill="white"/>
<path d="M535.277 54.5103C535.277 53.4805 535.203 52.7448 535.056 52.3034C535.056 51.8621 535.056 51.4943 535.056 51.2C535.056 50.7586 535.056 50.2437 535.056 49.6552C535.056 49.0667 535.056 48.1839 535.056 47.0069C535.056 46.7126 534.394 46.5655 533.07 46.5655C531.893 46.4184 530.421 46.4184 528.655 46.5655C527.037 46.7126 525.418 46.8598 523.799 47.0069C522.328 47.154 521.298 47.2276 520.709 47.2276C518.943 47.3747 517.472 47.5218 516.295 47.669C515.117 47.669 514.014 47.669 512.984 47.669C511.954 47.669 510.85 47.669 509.673 47.669C508.496 47.5218 507.024 47.3747 505.258 47.2276C504.67 66.6483 504.523 85.4069 504.817 103.503C505.258 121.6 505.479 139.697 505.479 157.793C509.011 157.499 512.027 157.425 514.529 157.572C517.178 157.72 519.606 157.793 521.813 157.793C524.02 157.94 526.154 157.94 528.214 157.793C530.274 157.646 532.555 157.205 535.056 156.469V155.586C535.056 150.143 534.983 145.067 534.836 140.359C534.836 135.503 534.836 130.795 534.836 126.234C534.836 121.526 534.762 116.892 534.615 112.331C534.468 107.77 534.321 102.915 534.173 97.7655C534.026 93.646 534.615 90.4827 535.939 88.2759C537.264 86.069 539.103 84.4506 541.457 83.4207C543.959 82.3908 546.828 81.8759 550.066 81.8759C553.45 81.8759 557.129 82.0965 561.102 82.5379C561.249 82.5379 562.205 82.6851 563.971 82.9793C565.884 83.2736 567.724 83.6414 569.489 84.0827C570.225 84.377 570.961 84.6713 571.697 84.9655C572.58 85.1126 573.389 85.3333 574.125 85.6276L576.111 86.2896C575.964 84.0827 575.89 81.7287 575.89 79.2276C575.89 76.7264 575.89 74.0046 575.89 71.0621C575.89 67.9724 575.89 64.5149 575.89 60.6897C576.038 56.8644 576.111 52.4506 576.111 47.4483C576.111 47.3011 575.008 47.2276 572.8 47.2276C570.74 47.0805 568.165 47.0805 565.075 47.2276C561.985 47.3747 558.674 47.7425 555.142 48.331C551.611 48.7724 548.447 49.4345 545.651 50.3172C543.591 51.0529 541.457 51.8621 539.25 52.7448C537.19 53.6276 535.866 54.2161 535.277 54.5103Z" fill="white"/>
<path d="M615.216 1.98621C615.216 1.83907 614.186 1.69195 612.126 1.54482C610.213 1.25057 607.785 1.10345 604.842 1.10345C602.046 0.956323 599.029 0.956323 595.792 1.10345C592.555 1.10345 589.759 1.32413 587.404 1.76551V16.331C587.404 28.5425 587.257 40.754 586.963 52.9655C586.669 65.177 586.374 77.2414 586.08 89.1586C585.933 100.929 585.786 112.552 585.639 124.028C585.639 135.356 585.786 146.317 586.08 156.91C590.642 156.91 595.645 156.984 601.089 157.131C606.534 157.425 611.463 157.278 615.878 156.69C616.025 156.395 616.099 155.88 616.099 155.145C616.099 153.674 616.099 152.497 616.099 151.614C616.246 150.731 616.319 149.48 616.319 147.862C616.614 147.126 616.908 146.611 617.202 146.317C617.644 145.876 618.085 146.097 618.527 146.979C620.734 151.393 623.677 154.262 627.356 155.586C631.034 156.763 634.934 157.057 639.054 156.469C647.442 155.88 654.063 153.747 658.919 150.069C663.775 146.244 667.38 141.462 669.735 135.724C672.236 129.839 673.855 123.292 674.591 116.083C675.326 108.874 675.841 101.591 676.136 94.2345C676.136 89.085 675.768 84.0828 675.032 79.2276C674.444 74.3724 673.413 69.9586 671.942 65.9862C670.618 61.8667 668.778 58.4092 666.424 55.6138C664.217 52.6713 661.494 50.6115 658.257 49.4345C654.284 47.9632 649.87 47.0805 645.014 46.7862C640.305 46.3448 635.817 46.3448 631.549 46.7862C627.282 47.0805 623.677 47.7425 620.734 48.7724C617.791 49.8023 616.172 50.9793 615.878 52.3034C616.025 45.3885 616.099 39.7977 616.099 35.531C616.099 31.2644 616.099 27.8805 616.099 25.3793C616.099 22.731 616.025 20.7448 615.878 19.4207C615.878 17.9494 615.804 16.6253 615.657 15.4483C615.657 14.1241 615.584 12.7264 615.436 11.2552C615.436 9.63678 615.363 7.35631 615.216 4.41379V1.98621ZM649.428 87.6138C650.164 89.6736 650.605 91.8069 650.752 94.0138C650.9 96.2207 650.973 98.354 650.973 100.414C650.973 104.092 650.532 107.697 649.649 111.228C648.766 114.611 647.442 117.701 645.676 120.497C643.91 123.145 641.776 125.278 639.275 126.897C636.773 128.515 633.977 129.324 630.887 129.324C627.061 129.324 624.118 128.515 622.058 126.897C619.998 125.278 618.379 123.071 617.202 120.276C616.172 117.48 615.51 114.17 615.216 110.345C615.069 106.372 614.995 102.032 614.995 97.3241C614.995 91.5862 615.069 87.0988 615.216 83.8621C615.51 80.4781 616.099 77.9034 616.981 76.1379C617.864 74.3724 619.189 73.269 620.955 72.8276C622.867 72.2391 625.369 71.9448 628.459 71.9448C634.492 71.9448 639.275 73.269 642.806 75.9172C646.485 78.5655 648.692 82.4644 649.428 87.6138Z" fill="white"/>
<path d="M690.674 56.4965C690.233 58.1149 689.571 60.3218 688.688 63.1172C687.805 65.7655 687.29 67.8988 687.143 69.5172C686.701 72.3126 686.407 75.0345 686.26 77.6828C686.113 80.1839 686.039 82.7586 686.039 85.4069C686.481 90.2621 686.554 95.6322 686.26 101.517C686.113 107.402 686.186 113.287 686.481 119.172C686.775 124.91 687.658 130.428 689.129 135.724C690.601 141.021 693.323 145.434 697.296 148.965C702.446 154.115 708.774 157.352 716.278 158.676C720.399 158.676 724.96 158.823 729.963 159.117C734.966 159.559 739.822 159.559 744.531 159.117C749.24 158.823 753.581 157.94 757.554 156.469C761.674 154.998 764.985 152.497 767.487 148.965C768.958 147.494 770.062 144.772 770.797 140.8C771.68 136.828 772.343 132.34 772.784 127.338C773.373 122.336 773.74 117.113 773.888 111.669C774.182 106.225 774.403 101.37 774.55 97.1034C774.403 92.2483 774.255 87.5402 774.108 82.9793C773.961 78.2713 773.593 74.0046 773.005 70.1793C772.416 66.2069 771.533 62.7494 770.356 59.8069C769.179 56.8644 767.56 54.731 765.5 53.4069C762.41 50.4644 758.731 48.2575 754.464 46.7862C750.196 45.1678 745.708 44.2115 741 43.9172C737.909 43.623 734.966 43.623 732.171 43.9172C729.522 44.0644 726.726 43.9908 723.783 43.6966C720.251 43.6966 716.72 43.9172 713.188 44.3586C709.804 44.8 706.566 45.6092 703.476 46.7862C700.533 47.8161 697.885 49.1402 695.53 50.7586C693.323 52.377 691.704 54.2896 690.674 56.4965ZM718.265 82.5379C720.178 80.1839 722.679 78.5655 725.77 77.6828C731.508 76.3586 736.144 76.8736 739.675 79.2276C743.207 81.5816 745.341 85.3333 746.076 90.4827C746.959 94.7494 747.18 99.3103 746.738 104.166C746.444 108.874 746.003 113.582 745.414 118.29C744.531 121.968 742.839 124.395 740.337 125.572C738.424 126.602 735.996 127.338 733.053 127.779C730.11 128.074 727.241 127.926 724.445 127.338C721.797 126.602 719.516 125.352 717.603 123.586C715.69 121.674 714.807 119.025 714.954 115.641C715.248 110.492 715.396 105.637 715.396 101.076C715.396 96.3678 715.69 91.6598 716.278 86.9517C716.72 84.5977 717.382 83.1264 718.265 82.5379Z" fill="white"/>
<path d="M876.578 47.2276C871.869 46.9333 867.676 46.7126 863.997 46.5655C860.465 46.4184 857.449 46.2713 854.947 46.1241C854.506 46.1241 853.696 46.1241 852.519 46.1241C851.342 46.1241 850.165 46.1241 848.988 46.1241C847.81 45.977 846.707 45.977 845.677 46.1241C844.794 46.1241 844.352 46.1977 844.352 46.3448C844.352 48.1103 844.132 49.8759 843.69 51.6414C843.396 53.2598 843.322 55.246 843.469 57.6C842.439 55.0988 841.189 53.1862 839.717 51.8621C838.246 50.3908 836.553 49.3609 834.64 48.7724C832.727 48.0368 830.594 47.669 828.239 47.669C826.032 47.5218 823.604 47.4483 820.955 47.4483C815.805 47.5954 810.949 48.9931 806.388 51.6414C801.826 54.1425 797.853 57.6736 794.468 62.2345C791.231 66.6483 788.656 71.9448 786.743 78.1241C784.83 84.3034 783.874 91.0713 783.874 98.4276C783.874 104.313 784.462 110.713 785.64 117.628C786.964 124.543 788.95 130.943 791.599 136.828C794.248 142.713 797.559 147.641 801.532 151.614C805.652 155.586 810.581 157.572 816.32 157.572C821.471 157.572 826.694 156.322 831.992 153.821C837.436 151.32 841.924 148.303 845.456 144.772C845.456 146.244 845.309 147.494 845.015 148.524C844.72 149.554 844.573 150.878 844.573 152.497C844.573 153.674 844.72 154.703 845.015 155.586C845.456 156.469 846.192 157.057 847.222 157.352C848.84 157.352 850.385 157.278 851.857 157.131C853.476 156.837 855.094 156.69 856.713 156.69C859.067 156.69 861.422 156.837 863.776 157.131C866.278 157.278 868.706 157.352 871.06 157.352H873.709C875.475 157.057 876.357 155.954 876.357 154.041C876.505 152.129 876.578 150.216 876.578 148.303C877.608 132.561 877.829 117.039 877.24 101.738C876.652 86.2896 876.578 70.6207 877.02 54.731V52.5241C877.02 51.6414 876.946 50.7586 876.799 49.8759C876.799 48.9931 876.725 48.1103 876.578 47.2276ZM812.347 91.1448C813.083 87.4667 815.143 84.2299 818.528 81.4345C822.059 78.492 826.841 77.0207 832.875 77.0207C835.965 77.0207 838.246 77.2414 839.717 77.6828C841.336 78.1241 842.439 79.154 843.028 80.7724C843.764 82.3908 844.132 84.7448 844.132 87.8345C844.279 90.777 844.352 94.823 844.352 99.9724C844.352 104.092 844.279 107.844 844.132 111.228C844.132 114.464 843.69 117.26 842.807 119.614C842.072 121.821 840.747 123.586 838.834 124.91C837.068 126.087 834.346 126.676 830.667 126.676C824.487 126.676 819.631 124.395 816.1 119.834C812.715 115.126 811.023 109.462 811.023 102.841C811.023 100.929 811.096 99.0161 811.244 97.1034C811.391 95.0437 811.759 93.0575 812.347 91.1448Z" fill="white"/>
<path d="M922.839 54.5103C922.839 53.4805 922.765 52.7448 922.618 52.3034C922.618 51.8621 922.618 51.4943 922.618 51.2C922.618 50.7586 922.618 50.2437 922.618 49.6552C922.618 49.0667 922.618 48.1839 922.618 47.0069C922.618 46.7126 921.956 46.5655 920.632 46.5655C919.455 46.4184 917.983 46.4184 916.217 46.5655C914.599 46.7126 912.98 46.8598 911.361 47.0069C909.89 47.154 908.86 47.2276 908.271 47.2276C906.505 47.3747 905.034 47.5218 903.857 47.669C902.68 47.669 901.576 47.669 900.546 47.669C899.516 47.669 898.412 47.669 897.235 47.669C896.058 47.5218 894.586 47.3747 892.82 47.2276C892.232 66.6483 892.085 85.4069 892.379 103.503C892.82 121.6 893.041 139.697 893.041 157.793C896.573 157.499 899.589 157.425 902.091 157.572C904.74 157.72 907.168 157.793 909.375 157.793C911.582 157.94 913.716 157.94 915.776 157.793C917.836 157.646 920.117 157.205 922.618 156.469V155.586C922.618 150.143 922.545 145.067 922.398 140.359C922.398 135.503 922.398 130.795 922.398 126.234C922.398 121.526 922.324 116.892 922.177 112.331C922.03 107.77 921.883 102.915 921.735 97.7655C921.588 93.646 922.177 90.4827 923.501 88.2759C924.826 86.069 926.665 84.4506 929.019 83.4207C931.521 82.3908 934.39 81.8759 937.628 81.8759C941.012 81.8759 944.691 82.0965 948.664 82.5379C948.811 82.5379 949.767 82.6851 951.533 82.9793C953.446 83.2736 955.286 83.6414 957.051 84.0827C957.787 84.377 958.523 84.6713 959.259 84.9655C960.142 85.1126 960.951 85.3333 961.687 85.6276L963.673 86.2896C963.526 84.0827 963.452 81.7287 963.452 79.2276C963.452 76.7264 963.452 74.0046 963.452 71.0621C963.452 67.9724 963.452 64.5149 963.452 60.6897C963.6 56.8644 963.673 52.4506 963.673 47.4483C963.673 47.3011 962.57 47.2276 960.362 47.2276C958.302 47.0805 955.727 47.0805 952.637 47.2276C949.547 47.3747 946.236 47.7425 942.704 48.331C939.173 48.7724 936.009 49.4345 933.213 50.3172C931.153 51.0529 929.019 51.8621 926.812 52.7448C924.752 53.6276 923.428 54.2161 922.839 54.5103Z" fill="white"/>
<path d="M1031.47 4.41379C1031.32 7.35631 1031.18 9.63678 1031.03 11.2552C1031.03 12.7264 1030.96 14.1241 1030.81 15.4483C1030.81 16.6253 1030.74 17.9494 1030.59 19.4207C1030.59 20.7448 1030.59 22.731 1030.59 25.3793C1030.59 27.8805 1030.59 31.2644 1030.59 35.531C1030.59 39.7977 1030.66 45.3885 1030.81 52.3034C1030.52 50.9793 1028.9 49.8023 1025.95 48.7724C1023.01 47.7425 1019.41 47.0805 1015.14 46.7862C1010.87 46.3448 1006.31 46.3448 1001.45 46.7862C996.745 47.0805 992.404 47.9632 988.431 49.4345C985.193 50.6115 982.397 52.6713 980.043 55.6138C977.836 58.4092 975.996 61.8667 974.525 65.9862C973.201 69.9586 972.171 74.3724 971.435 79.2276C970.846 84.0828 970.552 89.085 970.552 94.2345C970.699 101.591 971.14 108.874 971.876 116.083C972.759 123.292 974.378 129.839 976.732 135.724C979.234 141.462 982.912 146.244 987.768 150.069C992.624 153.747 999.246 155.88 1007.63 156.469C1011.75 157.057 1015.65 156.763 1019.33 155.586C1023.01 154.262 1025.95 151.393 1028.16 146.979C1028.6 146.097 1028.97 145.876 1029.26 146.317C1029.71 146.611 1030.07 147.126 1030.37 147.862C1030.37 149.48 1030.37 150.731 1030.37 151.614C1030.52 152.497 1030.59 153.674 1030.59 155.145C1030.59 155.88 1030.66 156.395 1030.81 156.69C1035.22 157.278 1040.15 157.425 1045.6 157.131C1051.04 156.984 1056.05 156.91 1060.61 156.91C1061.2 135.724 1061.12 113.14 1060.39 89.1586C1059.65 65.177 1059.28 40.9011 1059.28 16.331V1.76551C1056.93 1.32413 1054.13 1.10345 1050.9 1.10345C1047.66 0.956323 1044.57 0.956323 1041.63 1.10345C1038.83 1.10345 1036.4 1.25057 1034.34 1.54482C1032.43 1.69195 1031.47 1.83907 1031.47 1.98621V4.41379ZM997.26 87.6138C997.995 82.4644 1000.13 78.5655 1003.66 75.9172C1007.34 73.269 1012.2 71.9448 1018.23 71.9448C1021.32 71.9448 1023.75 72.2391 1025.51 72.8276C1027.43 73.269 1028.82 74.3724 1029.71 76.1379C1030.59 77.9034 1031.1 80.4781 1031.25 83.8621C1031.55 87.0988 1031.69 91.5862 1031.69 97.3241C1031.69 102.032 1031.55 106.372 1031.25 110.345C1031.1 114.17 1030.44 117.48 1029.26 120.276C1028.23 123.071 1026.62 125.278 1024.41 126.897C1022.35 128.515 1019.48 129.324 1015.8 129.324C1012.71 129.324 1009.91 128.515 1007.41 126.897C1004.91 125.278 1002.78 123.145 1001.01 120.497C999.246 117.701 997.922 114.611 997.039 111.228C996.156 107.697 995.715 104.092 995.715 100.414C995.715 98.354 995.788 96.2207 995.935 94.0138C996.082 91.8069 996.524 89.6736 997.26 87.6138Z" fill="white"/>
</svg>
