<svg width="242" height="142" viewBox="0 0 242 142" fill="none" xmlns="http://www.w3.org/2000/svg">
<path d="M69.7595 38.0275C71.2019 30.3296 70.5837 23.966 67.905 18.9368C65.2262 13.9075 61.4142 10.1099 56.4688 7.54391C53.9961 6.41489 51.2658 5.49114 48.278 4.77267C45.3932 4.05421 42.4053 3.64366 39.3145 3.54102C36.3266 3.33574 33.3388 3.43838 30.351 3.84893C27.3631 4.15685 24.6329 4.824 22.1602 5.85038C17.2148 7.90314 12.9906 11.0336 9.48761 15.2418C6.08766 19.4499 3.76951 24.12 2.53317 29.2519C1.29682 34.3838 1.34833 39.6697 2.68771 45.1095C4.13011 50.5493 7.22098 55.5273 11.9603 60.0434C13.4027 61.275 14.9997 62.3527 16.7512 63.2765C18.5026 64.2002 20.4087 64.8674 22.4693 65.2779C24.6329 65.6885 26.951 66.1503 29.4237 66.6635C31.8964 67.0741 34.163 67.7412 36.2236 68.665C38.3872 69.5887 40.2417 70.8204 41.7872 72.36C43.3326 73.7969 44.2599 75.747 44.5689 78.2103C45.1871 81.8027 44.4659 84.4713 42.4053 86.2161C40.4478 87.961 38.0781 88.8847 35.2963 88.9874C32.6176 88.9874 30.0419 88.1662 27.5692 86.524C25.1995 84.8818 23.9117 82.4185 23.7056 79.1341C20.2026 79.2367 16.2875 79.1854 11.9603 78.9801C7.6331 78.6722 3.66648 78.7748 0.0604734 79.288V80.2118C-0.248613 85.1384 0.627132 89.5519 2.68771 93.4521C4.74829 97.2497 7.53007 100.483 11.033 103.151C14.536 105.82 18.5026 107.924 22.9329 109.464C27.4662 110.901 31.9994 111.67 36.5327 111.773C39.7266 111.876 42.8175 111.619 45.8053 111.003C48.8962 110.285 51.7295 109.207 54.3052 107.77C56.9839 106.333 59.3536 104.486 61.4142 102.228C63.4747 99.9696 65.1232 97.2497 66.3595 94.0679C67.5959 91.3994 68.4716 88.6281 68.9868 85.7542C69.605 82.7777 69.811 79.8525 69.605 76.9787C69.5019 74.1048 68.9868 71.3336 68.0595 68.665C67.1323 65.8938 65.7414 63.3278 63.8869 60.9671C60.899 56.5537 57.0354 52.91 52.2961 50.0361C47.6598 47.1623 42.6114 45.4174 37.1509 44.8016C34.9873 44.4937 32.9782 43.9292 31.1237 43.1081C29.2692 42.287 27.9298 40.6447 27.1056 38.1814C27.0025 37.463 26.8995 36.7958 26.7965 36.18C26.7965 35.4615 26.8995 34.743 27.1056 34.0246C27.5177 31.1507 28.857 29.2006 31.1237 28.1742C33.4933 27.1478 35.9145 26.8912 38.3872 27.4044C40.8599 27.9176 42.972 29.0979 44.7235 30.9454C46.475 32.7929 47.0416 35.1023 46.4235 37.8735C50.0295 38.8999 53.8931 39.3618 58.0142 39.2591C62.1354 39.0538 65.9989 38.6433 69.605 38.0275H69.7595Z" fill="white"/>
<path d="M97.6316 33.5627C94.3347 33.6653 91.5014 33.6653 89.1317 33.5627C86.7621 33.4601 84.9076 33.3574 83.5682 33.2548C83.053 33.2548 82.2803 33.2035 81.25 33.1008C80.3228 32.9982 79.6531 32.9982 79.241 33.1008V33.2548C78.6228 39.3104 78.3137 45.5714 78.3137 52.0376C78.3137 58.4012 78.4167 64.8674 78.6228 71.4362C78.8288 78.0051 78.9319 84.6252 78.9319 91.2967C79.0349 97.9682 78.8289 104.537 78.3137 111.003C79.0349 110.798 80.4773 110.747 82.6409 110.849C84.8045 110.952 87.0712 111.003 89.4408 111.003C91.9135 111.106 94.1802 111.106 96.2407 111.003C98.3013 111.003 99.5892 110.695 100.104 110.08C99.3831 97.6603 99.1771 84.9845 99.4861 72.052C99.8983 59.1196 100.156 46.4438 100.259 34.0246V33.5627H97.6316ZM78.6228 0C78.5198 4.72136 78.5713 8.72425 78.7773 12.0087C79.0864 15.1905 79.241 18.2696 79.241 21.2461C81.1985 21.1435 83.3106 21.1948 85.5772 21.4001C87.8439 21.5027 89.956 21.6053 91.9135 21.708C93.9741 21.708 95.7256 21.6053 97.168 21.4001C98.7134 21.1948 99.6922 20.7842 100.104 20.1684C100.104 18.6288 100.053 16.884 99.9498 14.9339C99.9498 12.8811 99.8983 10.931 99.7952 9.08348C99.7952 7.13335 99.7437 5.3885 99.6407 3.84893C99.6407 2.20672 99.6407 1.0777 99.6407 0.461866L78.6228 0Z" fill="white"/>
<path d="M126.072 74.5154C126.072 73.489 126.072 72.5139 126.072 71.5902C126.072 70.5638 126.175 69.5374 126.382 68.511C126.794 66.1503 127.515 63.9436 128.545 61.8909C129.678 59.7355 131.018 57.7853 132.563 56.0405C133.8 55.0141 135.19 54.2956 136.736 53.8851C138.384 53.3719 140.033 53.2179 141.681 53.4232C143.33 53.6285 144.824 54.193 146.163 55.1167C147.605 55.9378 148.636 57.1182 149.254 58.6578C150.284 62.558 150.851 66.6635 150.954 70.9743C151.16 75.1825 151.263 79.3394 151.263 83.4449C151.16 84.3686 151.005 85.3437 150.799 86.3701C150.696 87.2938 150.49 88.2176 150.181 89.1413C149.872 89.9624 149.46 90.7322 148.945 91.4507C148.43 92.0665 147.708 92.5284 146.781 92.8363C144.102 93.6574 141.218 93.8627 138.127 93.4521C135.036 92.9389 132.563 91.5533 130.709 89.2953C127.618 85.6003 126.072 81.1355 126.072 75.901V74.5154ZM152.808 141.795C154.045 141.692 155.384 141.487 156.827 141.179C158.269 140.871 159.711 140.306 161.154 139.485C162.596 138.767 164.039 137.741 165.481 136.406C167.026 135.072 168.52 133.276 169.963 131.018C170.993 129.376 171.457 127.323 171.354 124.859C171.251 122.499 171.251 120.087 171.354 117.623C171.972 102.844 172.229 88.4742 172.126 74.5154C172.126 60.4539 171.92 47.0083 171.508 34.1785C168.005 34.1785 164.502 34.1272 160.999 34.0246C157.496 33.8193 154.045 33.9219 150.645 34.3325C150.336 34.8457 150.181 35.5641 150.181 36.4879C150.284 37.309 150.336 38.1814 150.336 39.1052C150.439 39.9263 150.439 40.6447 150.336 41.2606C150.336 41.7738 150.13 41.9277 149.718 41.7224C148.481 38.8486 146.421 36.8984 143.536 35.8721C140.754 34.743 137.715 34.2812 134.418 34.4865C127.824 34.897 122.775 36.7958 119.273 40.1829C115.77 43.4673 113.194 47.5728 111.545 52.4995C110 57.3235 109.124 62.5067 108.918 68.0491C108.712 73.5916 108.609 78.7748 108.609 83.5988C108.815 86.7806 109.227 89.9111 109.845 92.9902C110.464 95.9668 111.494 98.8406 112.936 101.612C113.863 103.562 115.048 105.153 116.491 106.385C117.933 107.616 119.53 108.591 121.282 109.31C123.136 110.028 125.042 110.541 127 110.849C129.06 111.157 131.069 111.311 133.027 111.311C134.469 111.209 136.015 111.157 137.663 111.157C139.312 111.157 140.909 111.055 142.454 110.849C144.102 110.644 145.596 110.285 146.936 109.772C148.378 109.258 149.615 108.437 150.645 107.308C150.439 109.156 150.439 110.952 150.645 112.697C150.748 113.518 150.748 114.442 150.645 115.468C150.542 116.597 150.439 117.675 150.336 118.701C149.718 121.575 148.378 123.628 146.318 124.859C144.36 126.091 142.299 126.604 140.136 126.399C138.075 126.194 136.169 125.27 134.418 123.628C132.769 122.088 131.945 119.984 131.945 117.316C130.709 117.11 129.163 116.905 127.309 116.7C125.557 116.597 123.703 116.494 121.745 116.392C119.891 116.392 118.088 116.443 116.336 116.546C114.585 116.751 113.194 117.059 112.164 117.469C112.06 118.291 112.009 119.266 112.009 120.395C112.112 121.524 112.267 122.704 112.473 123.936C112.782 125.167 113.091 126.348 113.4 127.477C113.812 128.708 114.224 129.683 114.636 130.402C117.006 133.892 120.097 136.663 123.909 138.716C127.721 140.768 132.048 141.795 136.89 141.795C141.115 141.795 144.566 141.846 147.245 141.949C149.924 142.051 151.778 142 152.808 141.795Z" fill="white"/>
<path d="M203.467 42.3383C203.364 40.9013 203.313 39.6184 203.313 38.4893C203.416 37.3603 203.364 35.9234 203.158 34.1785C203.158 33.8706 202.746 33.7167 201.922 33.7167C201.098 33.614 200.17 33.614 199.14 33.7167C198.11 33.8193 197.079 33.9733 196.049 34.1785C195.019 34.2812 194.298 34.3325 193.886 34.3325C192.649 34.4351 191.619 34.5378 190.795 34.6404C189.97 34.6404 189.198 34.6404 188.477 34.6404C187.755 34.6404 186.983 34.6404 186.158 34.6404C185.334 34.5378 184.304 34.4351 183.068 34.3325C182.655 47.8807 182.552 60.9671 182.758 73.5916C183.068 86.2161 183.222 98.8406 183.222 111.465C185.695 111.26 187.755 111.209 189.404 111.311C191.052 111.414 192.546 111.465 193.886 111.465C195.225 111.568 196.513 111.568 197.749 111.465C199.088 111.362 200.634 111.055 202.385 110.541V109.926C202.798 106.538 203.004 103.151 203.004 99.7644C203.004 96.3773 202.901 92.9902 202.694 89.6032C202.591 86.1135 202.488 82.6751 202.385 79.288C202.282 75.7983 202.334 72.2573 202.54 68.665C202.746 65.8938 203.467 63.841 204.704 62.5067C205.94 61.0697 207.331 60.146 208.876 59.7355C210.422 59.2223 211.967 59.1196 213.513 59.4275C215.161 59.6328 216.397 59.9407 217.222 60.3513C217.325 60.4539 217.428 60.5052 217.531 60.5052C217.634 60.5052 217.737 60.5566 217.84 60.6592C218.664 61.275 219.282 62.1475 219.694 63.2765C220.209 64.4055 220.57 65.6885 220.776 67.1254C221.085 68.5623 221.291 70.0506 221.394 71.5902C221.497 73.0271 221.6 74.3614 221.703 75.5931C221.909 78.3643 222.012 81.3408 222.012 84.5226C222.115 87.7044 222.115 90.8862 222.012 94.0679C222.012 97.2497 222.012 100.329 222.012 103.305C222.012 106.282 222.115 108.95 222.322 111.311C225.928 111.311 229.121 111.311 231.903 111.311C234.788 111.414 238.033 111.209 241.639 110.695C241.433 107.206 241.382 103.151 241.485 98.5327C241.588 93.914 241.691 89.1413 241.794 84.2147C241.897 79.1854 241.949 74.2588 241.949 69.4348C242.052 64.5081 242 59.992 241.794 55.8865C241.691 51.781 241.33 48.2913 240.712 45.4174C240.197 42.4409 239.424 40.4908 238.394 39.567C236.23 37.7196 233.809 36.4366 231.13 35.7181C228.452 34.9996 225.67 34.6917 222.785 34.7944C220.003 34.897 217.273 35.4102 214.594 36.3339C211.916 37.2577 209.494 38.4893 207.331 40.0289C206.816 40.4395 206.146 40.85 205.322 41.2606C204.601 41.6711 203.982 42.0304 203.467 42.3383Z" fill="white"/>
</svg>
