<svg width="331" height="134" viewBox="0 0 331 134" fill="none" xmlns="http://www.w3.org/2000/svg">
<path d="M64.9461 36.3827C66.289 29.2207 65.7134 23.3002 63.2195 18.6211C60.7256 13.9419 57.1766 10.4087 52.5724 8.02138C50.2703 6.97096 47.7285 6.11153 44.9468 5.44308C42.261 4.77463 39.4794 4.39266 36.6018 4.29717C33.8201 4.10618 31.0384 4.20167 28.2567 4.58365C25.4751 4.87013 22.9332 5.49083 20.6311 6.44575C16.027 8.3556 12.0942 11.2681 8.83297 15.1833C5.66761 19.0985 3.50942 23.4434 2.35838 28.2181C1.20734 32.9927 1.2553 37.9106 2.50226 42.9717C3.84513 48.0328 6.72273 52.6642 11.135 56.8658C12.4779 58.0118 13.9647 59.0144 15.5953 59.8739C17.226 60.7333 19.0005 61.354 20.9189 61.736C22.9332 62.1179 25.0914 62.5477 27.3935 63.0251C29.6955 63.4071 31.8058 64.0278 33.7242 64.8872C35.7385 65.7467 37.465 66.8926 38.9038 68.325C40.3426 69.6619 41.2059 71.4762 41.4937 73.768C42.0692 77.1103 41.3978 79.5931 39.4794 81.2165C37.6569 82.8398 35.4507 83.6993 32.8609 83.7948C30.367 83.7948 27.969 83.0308 25.6669 81.5029C23.4607 79.9751 22.2617 77.6832 22.0699 74.6275C18.8086 74.723 15.1637 74.6752 11.135 74.4842C7.10641 74.1978 3.4135 74.2933 0.0563008 74.7707V75.6301C-0.231459 80.2138 0.58386 84.32 2.50226 87.9487C4.42065 91.4819 7.01049 94.4899 10.2718 96.9727C13.533 99.4556 17.226 101.413 21.3505 102.846C25.571 104.182 29.7915 104.899 34.0119 104.994C36.9854 105.09 39.863 104.851 42.6447 104.278C45.5223 103.609 48.1601 102.607 50.5581 101.27C53.052 99.933 55.2582 98.2141 57.1766 96.1133C59.095 94.0125 60.6297 91.4819 61.7807 88.5216C62.9318 86.0388 63.7471 83.4605 64.2267 80.7867C64.8022 78.0175 64.994 75.2959 64.8022 72.6221C64.7063 69.9483 64.2267 67.37 63.3634 64.8872C62.5001 62.3089 61.2052 59.9216 59.4786 57.7253C56.697 53.6191 53.1 50.2291 48.6877 47.5553C44.3713 44.8815 39.6712 43.2582 34.5874 42.6852C32.5731 42.3987 30.7027 41.8735 28.9761 41.1096C27.2496 40.3456 26.0026 38.8177 25.2353 36.5259C25.1393 35.8575 25.0434 35.2368 24.9475 34.6638C24.9475 33.9954 25.0434 33.3269 25.2353 32.6585C25.6189 29.9847 26.8659 28.1703 28.9761 27.2154C31.1823 26.2605 33.4364 26.0217 35.7385 26.4992C38.0406 26.9767 40.0069 28.0748 41.6376 29.7937C43.2682 31.5126 43.7957 33.6611 43.2202 36.2394C46.5774 37.1944 50.1744 37.6241 54.0112 37.5286C57.848 37.3376 61.445 36.9556 64.8022 36.3827H64.9461Z" fill="white"/>
<path d="M92.1899 131.78C92.2859 129.87 92.3338 128.39 92.3338 127.339C92.4297 126.384 92.4777 125.477 92.4777 124.618C92.5736 123.854 92.6216 122.994 92.6216 122.04C92.7175 121.18 92.7654 119.891 92.7654 118.172C92.7654 116.549 92.7654 114.352 92.7654 111.583C92.7654 108.814 92.7175 105.185 92.6216 100.697C92.8134 101.556 93.8685 102.32 95.7869 102.989C97.7053 103.657 100.055 104.087 102.837 104.278C105.619 104.564 108.544 104.564 111.614 104.278C114.779 104.087 117.657 103.514 120.246 102.559C122.357 101.795 124.131 100.506 125.57 98.6916C127.105 96.7818 128.304 94.5377 129.167 91.9594C130.126 89.2856 130.798 86.3731 131.181 83.2218C131.661 80.0705 131.901 76.8238 131.901 73.4816C131.709 68.7069 131.373 63.98 130.894 59.3009C130.414 54.6218 129.359 50.4201 127.728 46.6959C126.194 42.8762 123.843 39.7727 120.678 37.3854C117.513 34.9025 113.196 33.4702 107.729 33.0882C105.043 32.7062 102.501 32.9449 100.103 33.8044C97.7053 34.5683 95.7869 36.3827 94.3481 39.2475C94.0604 39.8204 93.7726 40.0114 93.4848 39.8204C93.293 39.5339 93.1012 39.152 92.9093 38.6745C92.9093 37.6241 92.8614 36.8124 92.7654 36.2394C92.7654 35.6665 92.7654 34.9025 92.7654 33.9476C92.7654 33.4702 92.7175 33.1359 92.6216 32.945C89.744 32.563 86.5307 32.4675 82.9816 32.6585C79.4326 32.754 76.1713 32.8017 73.1978 32.8017C73.006 39.6772 72.91 46.8391 72.91 54.2875C73.006 61.6405 73.1019 69.1844 73.1978 76.9193C73.3896 84.5587 73.5815 92.3413 73.7733 100.267C73.9652 108.193 74.0611 116.119 74.0611 124.045V133.499C75.5958 133.785 77.4183 133.928 79.5285 133.928C81.6387 134.024 83.6051 134.024 85.4276 133.928C87.346 133.928 88.9287 133.833 90.1756 133.642C91.5185 133.546 92.1899 133.451 92.1899 133.355V131.78ZM114.491 77.7787C114.012 81.121 112.573 83.6515 110.175 85.3704C107.873 87.0893 104.755 87.9487 100.823 87.9487C98.8084 87.9487 97.1778 87.8055 95.9308 87.519C94.7798 87.137 93.9165 86.3731 93.341 85.2271C92.7654 84.0812 92.3818 82.4579 92.1899 80.357C92.094 78.1607 92.0461 75.2004 92.0461 71.4762C92.0461 68.5159 92.094 65.7467 92.1899 63.1684C92.3818 60.5901 92.8134 58.3937 93.4848 56.5794C94.2522 54.765 95.3073 53.3326 96.6502 52.2822C97.9931 51.2318 99.9115 50.7066 102.405 50.7066C104.42 50.7066 106.242 51.2318 107.873 52.2822C109.503 53.3326 110.894 54.765 112.045 56.5794C113.196 58.2982 114.06 60.3036 114.635 62.5954C115.211 64.7917 115.498 67.0836 115.498 69.4709C115.498 70.8078 115.45 72.1924 115.355 73.6248C115.259 75.0572 114.971 76.4418 114.491 77.7787Z" fill="white"/>
<path d="M157.348 68.325C158.308 68.5159 159.842 68.6592 161.952 68.7547C164.063 68.8502 166.413 68.8979 169.003 68.8979C171.688 68.8979 174.47 68.8502 177.348 68.7547C180.225 68.6592 182.911 68.5159 185.405 68.325C187.995 68.134 190.201 67.943 192.023 67.752C193.942 67.561 195.237 67.37 195.908 67.179C196.196 63.1684 196.196 59.2054 195.908 55.2902C195.62 51.375 194.757 47.7941 193.318 44.5473C191.975 41.3006 189.961 38.5313 187.275 36.2394C184.59 33.9476 181.041 32.4197 176.628 31.6558C173.175 30.7964 169.626 30.4144 165.981 30.5099C162.336 30.6054 158.883 31.1783 155.622 32.2288C152.361 33.1837 149.435 34.6638 146.845 36.6692C144.255 38.579 142.337 40.9186 141.09 43.6879C139.939 46.8391 139.172 50.0859 138.788 53.4281C138.5 56.6749 138.212 60.0648 137.925 63.5981C137.733 67.5133 137.829 71.4285 138.212 75.3437C138.596 79.2589 139.315 82.9831 140.371 86.5163C141.426 89.954 142.816 93.153 144.543 96.1133C146.27 98.9781 148.428 101.318 151.018 103.132C153.32 104.469 155.814 105.328 158.499 105.71C161.185 105.71 164.111 105.806 167.276 105.997C170.537 106.188 173.703 106.188 176.772 105.997C179.842 105.806 182.671 105.233 185.261 104.278C187.851 103.323 189.961 101.7 191.592 99.4078C192.263 98.8348 192.791 97.8322 193.174 96.3998C193.654 94.8719 194.038 93.1053 194.325 91.0999C194.613 88.9991 194.853 86.755 195.045 84.3677C195.237 81.9804 195.429 79.5453 195.62 77.0625C194.565 76.7761 193.222 76.6328 191.592 76.6328C189.961 76.5373 188.235 76.5373 186.412 76.6328C184.686 76.7283 183.007 76.8238 181.376 76.9193C179.746 76.9193 178.451 76.8716 177.492 76.7761C177.683 80.6913 177.06 83.6515 175.621 85.6569C174.278 87.5667 172.6 88.7126 170.585 89.0946C168.571 89.4766 166.509 89.1423 164.398 88.0919C162.288 87.0415 160.658 85.4181 159.507 83.2218C158.451 81.5029 157.828 79.7363 157.636 77.922C157.54 76.1076 157.444 73.768 157.348 70.9033V68.325ZM174.758 46.1229C176.484 46.9824 177.827 48.2715 178.786 49.9904C179.842 51.7092 180.369 53.5236 180.369 55.4335C180.369 56.1974 180.369 56.7226 180.369 57.0091C180.369 57.2001 180.081 57.3433 179.506 57.4388C179.026 57.4388 178.163 57.3911 176.916 57.2956C175.669 57.2001 173.799 57.1523 171.305 57.1523C167.66 57.1523 164.878 57.2001 162.96 57.2956C161.137 57.2956 159.794 57.2478 158.931 57.1523C158.068 56.9613 157.588 56.6749 157.492 56.2929C157.492 55.8154 157.588 55.0515 157.78 54.0011C157.972 52.7597 158.26 51.566 158.643 50.4201C159.123 49.2742 159.794 48.2715 160.658 47.4121C161.521 46.5526 162.672 45.8842 164.111 45.4067C165.549 44.9293 167.42 44.6905 169.722 44.6905C170.777 44.6905 171.688 44.8338 172.456 45.1203C173.223 45.3112 173.99 45.6455 174.758 46.1229Z" fill="white"/>
<path d="M261.997 32.945C258.928 32.754 256.194 32.6107 253.796 32.5152C251.494 32.4197 249.528 32.3242 247.897 32.2288C247.609 32.2288 247.082 32.2288 246.314 32.2288C245.547 32.2288 244.78 32.2288 244.012 32.2288C243.245 32.1333 242.526 32.1333 241.854 32.2288C241.279 32.2288 240.991 32.2765 240.991 32.372C240.991 33.5179 240.847 34.6638 240.559 35.8097C240.367 36.8601 240.319 38.1493 240.415 39.6772C239.744 38.0538 238.929 36.8124 237.969 35.953C237.01 34.998 235.907 34.3296 234.66 33.9476C233.413 33.4702 232.022 33.2314 230.488 33.2314C229.049 33.1359 227.466 33.0882 225.74 33.0882C222.382 33.1837 219.217 34.0909 216.244 35.8097C213.27 37.4331 210.68 39.7249 208.474 42.6852C206.364 45.55 204.685 48.9877 203.438 52.9984C202.191 57.0091 201.568 61.4017 201.568 66.1764C201.568 69.9961 201.951 74.15 202.719 78.6382C203.582 83.1263 204.877 87.2802 206.604 91.0999C208.33 94.9196 210.488 98.1187 213.078 100.697C215.764 103.275 218.977 104.564 222.718 104.564C226.075 104.564 229.48 103.753 232.934 102.129C236.483 100.506 239.408 98.5484 241.71 96.2565C241.71 97.2115 241.614 98.0232 241.422 98.6916C241.231 99.3601 241.135 100.219 241.135 101.27C241.135 102.034 241.231 102.702 241.422 103.275C241.71 103.848 242.19 104.23 242.861 104.421C243.916 104.421 244.924 104.373 245.883 104.278C246.938 104.087 247.993 103.991 249.048 103.991C250.583 103.991 252.118 104.087 253.652 104.278C255.283 104.373 256.866 104.421 258.4 104.421H260.127C261.278 104.23 261.853 103.514 261.853 102.273C261.949 101.031 261.997 99.7898 261.997 98.5484C262.669 88.3307 262.813 78.2562 262.429 68.325C262.045 58.2982 261.997 48.1283 262.285 37.8151V36.3827C262.285 35.8097 262.237 35.2368 262.141 34.6638C262.141 34.0909 262.093 33.5179 261.997 32.945ZM220.128 61.4495C220.608 59.0622 221.951 56.9613 224.157 55.147C226.459 53.2371 229.576 52.2822 233.509 52.2822C235.523 52.2822 237.01 52.4254 237.969 52.7119C239.024 52.9984 239.744 53.6668 240.128 54.7173C240.607 55.7677 240.847 57.2956 240.847 59.3009C240.943 61.2108 240.991 63.8368 240.991 67.179C240.991 69.8528 240.943 72.2879 240.847 74.4842C240.847 76.5851 240.559 78.3994 239.984 79.9273C239.504 81.3597 238.641 82.5056 237.394 83.365C236.243 84.129 234.468 84.511 232.07 84.511C228.042 84.511 224.876 83.0308 222.574 80.0705C220.368 77.0148 219.265 73.3383 219.265 69.0412C219.265 67.7998 219.313 66.5583 219.409 65.3169C219.505 63.98 219.745 62.6909 220.128 61.4495Z" fill="white"/>
<path d="M292.296 0.286483C291.049 0.0954942 289.611 0 287.98 0C286.349 0 284.623 0.0477457 282.8 0.143237C281.074 0.143237 279.299 0.190986 277.477 0.286483C275.75 0.286483 274.167 0.286483 272.729 0.286483C272.825 17.6661 272.681 34.9025 272.297 51.9957C271.913 69.0889 272.057 86.5163 272.729 104.278C274.167 104.469 275.75 104.564 277.477 104.564C279.299 104.564 281.074 104.517 282.8 104.421C284.527 104.326 286.157 104.278 287.692 104.278C289.323 104.182 290.666 104.182 291.721 104.278C292.104 102.177 292.344 99.8853 292.44 97.4025C292.536 94.8242 292.584 92.2936 292.584 89.8108C292.584 87.328 292.536 84.9407 292.44 82.6488C292.344 80.357 292.296 78.3517 292.296 76.6328C293.927 78.7337 295.366 80.93 296.613 83.2218C297.956 85.5136 299.203 87.8532 300.354 90.2405C301.505 92.5323 302.656 94.8719 303.807 97.2592C305.054 99.6465 306.397 101.986 307.835 104.278C309.274 104.564 311.001 104.755 313.015 104.851C315.125 104.946 317.283 104.946 319.49 104.851C321.696 104.755 323.806 104.612 325.82 104.421C327.931 104.326 329.657 104.278 331 104.278C327.355 96.925 323.326 89.8585 318.914 83.0786C314.598 76.2031 310.281 69.2799 305.965 62.3089C309.994 56.9613 314.07 51.6615 318.195 46.4094C322.319 41.0618 326.156 35.6665 329.705 30.2234C328.362 30.1279 326.636 30.1757 324.525 30.3666C322.415 30.4621 320.257 30.5576 318.051 30.6531C315.941 30.6531 313.878 30.6531 311.864 30.6531C309.85 30.5576 308.219 30.2712 306.972 29.7937C305.533 31.4171 304.238 33.1359 303.087 34.9503C302.032 36.7647 300.977 38.579 299.922 40.3934C298.867 42.1122 297.716 43.8311 296.469 45.55C295.318 47.2688 293.927 48.8445 292.296 50.2769C292.009 48.0805 291.913 45.2158 292.009 41.6825C292.2 38.1493 292.296 34.8071 292.296 31.6558V0.286483Z" fill="white"/>
</svg>
