<svg width="245" height="109" viewBox="0 0 245 109" fill="none" xmlns="http://www.w3.org/2000/svg">
<path d="M64.5024 1.53058C54.0316 0.417431 43.2557 -0.0885449 32.1749 0.0126491C21.1958 0.0126491 10.5217 0.0632461 0.152488 0.16444C0.152488 0.26564 0.152488 0.31624 0.152488 0.31624C0.254147 0.31624 0.304976 0.366837 0.304976 0.468031C0.101659 2.89672 0 5.4266 0 8.05768C0 10.6888 0 13.168 0 15.4955C0.101659 17.7218 0.203317 19.6445 0.304976 21.2637C0.508293 22.8828 0.71161 23.8947 0.914927 24.2995C1.52488 24.5019 2.59229 24.6031 4.11717 24.6031C5.64205 24.6031 7.31942 24.6537 9.14927 24.7549C10.9791 24.7549 12.809 24.8561 14.6388 25.0585C16.4687 25.1597 17.9936 25.5139 19.2135 26.121L19.366 26.2728C19.9759 40.4402 20.3317 52.533 20.4334 62.5513C20.6367 72.5697 20.6875 80.8171 20.5859 87.2936C20.5859 93.6689 20.535 98.4757 20.4334 101.714C20.3317 104.952 20.3317 106.774 20.4334 107.178C22.2632 106.875 24.2456 106.723 26.3804 106.723C28.5152 106.723 30.6501 106.723 32.7849 106.723C35.0214 106.723 37.2071 106.723 39.3419 106.723C41.5784 106.622 43.6115 106.42 45.4414 106.116V105.812C45.2381 94.7821 45.0856 85.2191 44.9839 77.1235C44.8823 68.9267 44.7806 61.9442 44.679 56.176C44.5773 50.3067 44.4756 45.5505 44.374 41.9075C44.374 38.1633 44.374 35.178 44.374 32.9517C44.374 30.6242 44.374 28.9545 44.374 27.9426C44.4756 26.8294 44.5773 26.0198 44.679 25.5139C44.679 25.4127 44.679 25.3621 44.679 25.3621C44.7806 25.2609 44.8314 25.1597 44.8314 25.0585H45.2889C50.0669 24.8561 53.8791 24.7043 56.7255 24.6031C59.5719 24.5019 61.9609 24.6537 63.8924 25.0585C64.4007 21.4155 64.6549 17.4182 64.6549 13.0668C64.7565 8.71544 64.7057 4.87002 64.5024 1.53058Z" fill="white"/>
<path d="M81.2367 68.9267C82.2533 69.1291 83.8799 69.2808 86.1164 69.382C88.3528 69.4832 90.8435 69.5338 93.5883 69.5338C96.4347 69.5338 99.3828 69.4832 102.433 69.382C105.482 69.2808 108.329 69.1291 110.972 68.9267C113.717 68.7243 116.055 68.5219 117.986 68.3195C120.019 68.1171 121.392 67.9147 122.104 67.7123C122.408 63.4621 122.408 59.2625 122.104 55.1135C121.799 50.9645 120.884 47.1697 119.359 43.729C117.935 40.2884 115.801 37.3537 112.954 34.925C110.108 32.4963 106.346 30.8772 101.67 30.0677C98.0104 29.1569 94.249 28.7521 90.386 28.8533C86.523 28.9545 82.8633 29.5617 79.4069 30.6748C75.9505 31.6868 72.8499 33.2553 70.1051 35.3804C67.3603 37.4043 65.3272 39.8836 64.0056 42.8183C62.7857 46.1577 61.9724 49.5984 61.5658 53.1402C61.2608 56.5808 60.9558 60.1733 60.6509 63.9175C60.4476 68.0665 60.5492 72.2155 60.9558 76.3645C61.3625 80.5135 62.1249 84.4601 63.2432 88.2044C64.3614 91.8474 65.8355 95.2374 67.6653 98.3745C69.4952 101.41 71.7825 103.89 74.5273 105.812C76.9671 107.229 79.6102 108.14 82.4566 108.545C85.3031 108.545 88.4037 108.646 91.7584 108.848C95.2148 109.051 98.5695 109.051 101.823 108.848C105.076 108.646 108.075 108.039 110.819 107.027C113.564 106.015 115.801 104.294 117.529 101.866C118.24 101.259 118.8 100.196 119.206 98.6781C119.715 97.059 120.121 95.1868 120.426 93.0617C120.731 90.8354 120.985 88.4574 121.189 85.9275C121.392 83.3976 121.595 80.8171 121.799 78.186C120.68 77.8824 119.257 77.7307 117.529 77.7307C115.801 77.6295 113.971 77.6295 112.039 77.7307C110.209 77.8318 108.43 77.933 106.702 78.0342C104.974 78.0342 103.602 77.9836 102.585 77.8824C102.788 82.0314 102.128 85.1685 100.603 87.2936C99.1795 89.3175 97.4005 90.5319 95.2656 90.9366C93.1308 91.3414 90.9451 90.9872 88.7086 89.8741C86.4722 88.7609 84.744 87.0406 83.5241 84.7131C82.4058 82.8916 81.745 81.0195 81.5417 79.0968C81.4401 77.1741 81.3384 74.6948 81.2367 71.6589V68.9267ZM99.6878 45.3987C101.518 46.3095 102.941 47.6756 103.957 49.4972C105.076 51.3187 105.635 53.2414 105.635 55.2653C105.635 56.0749 105.635 56.6314 105.635 56.935C105.635 57.1374 105.33 57.2892 104.72 57.3904C104.212 57.3904 103.297 57.3398 101.975 57.2386C100.654 57.1374 98.6712 57.0868 96.0281 57.0868C92.165 57.0868 89.2169 57.1374 87.1838 57.2386C85.2523 57.2386 83.829 57.188 82.9141 57.0868C81.9992 56.8844 81.4909 56.5808 81.3892 56.176C81.3892 55.6701 81.4909 54.8605 81.6942 53.7474C81.8975 52.4318 82.2025 51.1669 82.6091 49.9525C83.1174 48.7382 83.829 47.6756 84.744 46.7649C85.6589 45.8541 86.8788 45.1458 88.4037 44.6398C89.9286 44.1338 91.9109 43.8808 94.3507 43.8808C95.4689 43.8808 96.4347 44.0326 97.248 44.3362C98.0612 44.5386 98.8745 44.8928 99.6878 45.3987Z" fill="white"/>
<path d="M186.838 31.1302C186.94 31.1302 186.991 31.0796 186.991 30.9784H186.838C184.805 30.9784 182.569 30.9784 180.129 30.9784C177.689 30.9784 175.3 31.029 172.962 31.1302C170.725 31.1302 168.641 31.1808 166.71 31.282C164.88 31.282 163.508 31.3326 162.593 31.4338C162.084 32.9517 161.525 34.925 160.915 37.3537C160.407 39.6812 159.797 42.1099 159.085 44.6398C158.475 47.1697 157.815 49.5984 157.103 51.9258C156.493 54.1521 155.883 55.9737 155.273 57.3904C154.765 56.0749 154.206 54.2533 153.596 51.9258C152.986 49.5984 152.325 47.2203 151.613 44.7916C151.004 42.2617 150.343 39.833 149.631 37.5055C149.021 35.0768 148.513 33.1035 148.106 31.5856C148.005 31.4844 147.445 31.3832 146.429 31.282C145.412 31.1808 144.192 31.1302 142.769 31.1302C141.448 31.1302 140.024 31.1302 138.5 31.1302C137.076 31.1302 135.907 31.1302 134.992 31.1302C132.451 31.1302 128.893 31.282 124.318 31.5856C126.656 37.6573 129.045 43.9314 131.485 50.4079C134.027 56.8844 135.907 63.2597 137.127 69.5338C136.416 72.4685 135.551 75.555 134.535 78.7932C133.518 82.0314 132.451 85.2697 131.333 88.5079C130.214 91.645 129.096 94.7821 127.978 97.9191C126.961 100.955 126.097 103.788 125.386 106.42C126.707 106.925 128.435 107.178 130.57 107.178C132.807 107.28 134.738 107.33 136.365 107.33C136.771 107.33 137.483 107.33 138.5 107.33C139.618 107.33 140.787 107.28 142.007 107.178C143.227 107.178 144.345 107.178 145.361 107.178C146.378 107.178 147.09 107.178 147.496 107.178C149.225 103.535 150.546 99.5382 151.461 95.1868C152.376 90.7342 153.748 86.484 155.578 82.4362V82.588C156.391 84.3083 157.052 86.2311 157.561 88.3562C158.17 90.3801 158.73 92.4546 159.238 94.5797C159.746 96.7048 160.254 98.8299 160.763 100.955C161.373 102.979 162.084 104.851 162.898 106.571H163.05C163.355 106.673 164.067 106.774 165.185 106.875C166.405 106.875 167.625 106.925 168.845 107.027C170.166 107.027 171.386 107.027 172.504 107.027C173.724 107.027 174.537 107.027 174.944 107.027C176.164 107.027 177.435 107.027 178.756 107.027C180.078 106.925 181.298 106.875 182.416 106.875C182.924 106.875 183.382 106.875 183.788 106.875C184.195 106.875 184.653 106.925 185.161 107.027C183.738 101.157 181.857 94.9844 179.519 88.5079C177.181 82.0314 175.452 75.7573 174.334 69.6856C175.452 63.1079 177.282 56.6314 179.824 50.2561C182.467 43.7796 184.805 37.4043 186.838 31.1302Z" fill="white"/>
<path d="M219.789 3.20031C218.06 3.40269 216.332 3.45329 214.604 3.3521C212.876 3.2509 211.148 3.14971 209.419 3.04851C207.691 2.84612 206.014 2.69433 204.387 2.59313C202.863 2.49194 201.439 2.54254 200.118 2.74492C199.914 4.66763 199.762 6.84333 199.66 9.27202C199.66 11.7007 199.66 14.2306 199.66 16.8617C199.66 19.4927 199.711 22.1238 199.813 24.7549C199.914 27.2848 199.965 29.6629 199.965 31.8892C198.339 31.8892 196.611 31.8892 194.781 31.8892C193.052 31.8892 191.172 31.8386 189.139 31.7374L188.681 50.2561C190.816 50.2561 192.747 50.2561 194.476 50.2561C196.306 50.2561 198.034 50.2055 199.66 50.1043C199.559 57.4916 199.609 64.6765 199.813 71.6589C200.016 78.5402 200.779 85.8769 202.1 93.6689C203.422 96.806 205.556 99.2852 208.505 101.107C211.554 102.928 215.011 104.294 218.874 105.205C222.737 106.116 226.854 106.723 231.225 107.027C235.597 107.229 239.815 107.229 243.882 107.027C244.39 105.509 244.695 103.839 244.797 102.018C245 100.196 245.051 98.3745 244.949 96.553C244.848 94.7315 244.695 92.9605 244.492 91.2402C244.288 89.5199 244.085 87.9514 243.882 86.5346C242.154 86.6358 240.12 86.6358 237.782 86.5346C235.546 86.4334 233.309 86.1805 231.073 85.7757C228.836 85.2697 226.752 84.6119 224.821 83.8024C222.889 82.9928 221.415 81.8797 220.399 80.4629C220.297 75.9091 220.246 71.0518 220.246 65.8908C220.246 60.6286 220.246 55.2653 220.246 49.8007H243.882C243.678 48.4852 243.628 46.9167 243.729 45.0952C243.933 43.1725 244.085 41.3003 244.187 39.4788C244.288 37.6573 244.288 35.9876 244.187 34.4697C244.085 32.8505 243.678 31.6362 242.967 30.8266C237.782 31.1302 233.411 31.3832 229.853 31.5856C226.396 31.788 223.093 31.9398 219.941 32.041C219.941 30.523 219.89 29.0557 219.789 27.639C219.789 26.2222 219.789 24.8561 219.789 23.5406V3.20031Z" fill="white"/>
</svg>
